<svg width="23" height="24" viewBox="0 0 23 24" fill="none" xmlns="http://www.w3.org/2000/svg">
<path fill-rule="evenodd" clip-rule="evenodd" d="M22.54 12.7175C22.54 11.9021 22.4668 11.118 22.3309 10.3652H11.5V14.8136H17.6891C17.4225 16.2511 16.6123 17.4691 15.3943 18.2846V21.17H19.1109C21.2855 19.168 22.54 16.2198 22.54 12.7175Z" fill="#4285F4"/>
<path fill-rule="evenodd" clip-rule="evenodd" d="M11.5 23.9559C14.605 23.9559 17.2081 22.9261 19.1109 21.1697L15.3943 18.2843C14.3645 18.9743 13.0472 19.382 11.5 19.382C8.50474 19.382 5.96951 17.3591 5.06519 14.6409H1.22314V17.6204C3.11542 21.3788 7.00451 23.9559 11.5 23.9559Z" fill="#34A853"/>
<path fill-rule="evenodd" clip-rule="evenodd" d="M5.06523 14.641C4.83523 13.951 4.70455 13.214 4.70455 12.456C4.70455 11.6981 4.83523 10.961 5.06523 10.271V7.2915H1.22318C0.444318 8.844 0 10.6004 0 12.456C0 14.3117 0.444318 16.0681 1.22318 17.6206L5.06523 14.641Z" fill="#FBBC05"/>
<path fill-rule="evenodd" clip-rule="evenodd" d="M11.5 5.52992C13.1884 5.52992 14.7043 6.11015 15.8961 7.24969L19.1945 3.95128C17.2029 2.0956 14.5997 0.956055 11.5 0.956055C7.00451 0.956055 3.11542 3.5331 1.22314 7.29151L5.06519 10.2711C5.96951 7.55287 8.50474 5.52992 11.5 5.52992Z" fill="#EA4335"/>
</svg>
