<svg width="192" height="212" viewBox="0 0 192 212" fill="none" xmlns="http://www.w3.org/2000/svg">
<g style="mix-blend-mode:screen">
<g opacity="0.2">
<path d="M127.181 151.02C126.821 151.02 126.471 150.84 126.271 150.51C125.961 150.01 126.121 149.36 126.621 149.05C144.251 138.24 154.781 119.46 154.781 98.81C154.781 66.34 128.361 39.92 95.8911 39.92C63.4211 39.92 37.0011 66.34 37.0011 98.81C37.0011 119.47 47.5311 138.25 65.1611 149.05C65.6611 149.36 65.8211 150.01 65.5111 150.51C65.2011 151.01 64.5511 151.17 64.0511 150.86C55.3111 145.5 47.9911 137.97 42.9011 129.07C37.6511 119.9 34.8711 109.43 34.8711 98.8C34.8711 82.5 41.2211 67.18 52.7411 55.66C64.2611 44.14 79.5811 37.79 95.8811 37.79C112.181 37.79 127.501 44.14 139.021 55.66C150.541 67.18 156.891 82.5 156.891 98.8C156.891 109.43 154.111 119.9 148.861 129.07C143.771 137.96 136.451 145.5 127.711 150.86C127.541 150.97 127.351 151.02 127.161 151.02H127.181Z" fill="url(#paint0_linear_118_858)"/>
<path d="M127.18 158.1C124.44 158.1 121.77 156.72 120.24 154.21C117.89 150.38 119.09 145.37 122.93 143.02C138.45 133.51 147.71 116.98 147.71 98.81C147.71 70.24 124.47 47 95.9003 47C67.3303 47 44.0903 70.24 44.0903 98.81C44.0903 116.98 53.3503 133.51 68.8703 143.02C72.7003 145.37 73.9003 150.38 71.5603 154.21C69.2103 158.04 64.2003 159.24 60.3703 156.9C50.6203 150.92 42.4603 142.52 36.7803 132.6C30.9203 122.36 27.8203 110.68 27.8203 98.82C27.8203 89.63 29.6203 80.72 33.1703 72.32C36.6003 64.21 41.5103 56.93 47.7603 50.68C54.0103 44.43 61.2903 39.52 69.4003 36.09C77.8003 32.54 86.7203 30.74 95.9003 30.74C105.08 30.74 114 32.54 122.4 36.09C130.51 39.52 137.79 44.43 144.04 50.68C150.29 56.93 155.2 64.21 158.63 72.32C162.18 80.72 163.98 89.64 163.98 98.82C163.98 110.68 160.88 122.36 155.02 132.6C149.34 142.52 141.18 150.93 131.43 156.9C130.1 157.71 128.64 158.1 127.19 158.1H127.18Z" fill="url(#paint1_linear_118_858)"/>
<path d="M127.171 150.77C126.901 150.77 126.631 150.63 126.471 150.38C126.231 150 126.361 149.49 126.741 149.26C144.451 138.41 155.021 119.55 155.021 98.81C155.021 66.21 128.491 39.68 95.8906 39.68C63.2906 39.68 36.7606 66.21 36.7606 98.81C36.7606 119.55 47.3306 138.41 65.0406 149.26C65.4206 149.5 65.5406 150 65.3106 150.38C65.0706 150.76 64.5706 150.88 64.1906 150.65C55.4806 145.31 48.2006 137.81 43.1306 128.95C37.9006 119.82 35.1406 109.39 35.1406 98.8C35.1406 82.57 41.4606 67.31 52.9406 55.83C64.4206 44.35 79.6806 38.03 95.9106 38.03C112.141 38.03 127.401 44.35 138.881 55.83C150.361 67.31 156.681 82.57 156.681 98.8C156.681 109.39 153.921 119.81 148.691 128.95C143.621 137.81 136.331 145.31 127.631 150.65C127.501 150.73 127.351 150.77 127.201 150.77H127.171Z" fill="url(#paint2_linear_118_858)"/>
<path d="M127.17 150.5C126.99 150.5 126.81 150.41 126.71 150.24C126.55 149.98 126.63 149.65 126.89 149.49C144.68 138.59 155.3 119.64 155.3 98.7999C155.3 66.0499 128.65 39.3999 95.9002 39.3999C63.1502 39.3999 36.5002 66.0499 36.5002 98.7999C36.5002 119.64 47.1202 138.58 64.9102 149.49C65.1702 149.65 65.2502 149.98 65.0902 150.24C64.9302 150.5 64.6002 150.58 64.3402 150.42C55.6702 145.11 48.4202 137.64 43.3702 128.82C38.1602 119.73 35.4102 109.35 35.4102 98.8099C35.4102 82.6499 41.7002 67.4599 53.1302 56.0399C64.5602 44.6099 79.7502 38.3199 95.9002 38.3199C112.05 38.3199 127.25 44.6099 138.67 56.0399C150.1 67.4699 156.39 82.6599 156.39 98.8099C156.39 109.35 153.64 119.73 148.43 128.82C143.38 137.64 136.13 145.11 127.46 150.42C127.37 150.47 127.27 150.5 127.18 150.5H127.17Z" fill="url(#paint3_linear_118_858)"/>
</g>
<g opacity="0.4">
<path d="M129.951 156.04C129.561 156.04 129.181 155.84 128.961 155.49C128.631 154.95 128.801 154.23 129.341 153.9C148.541 142.13 160.001 121.69 160.001 99.2C160.001 63.85 131.241 35.09 95.8907 35.09C60.5407 35.09 31.7807 63.85 31.7807 99.2C31.7807 121.69 43.2407 142.14 62.4407 153.9C62.9807 154.23 63.1507 154.94 62.8207 155.49C62.4907 156.03 61.7807 156.2 61.2307 155.87C51.7107 150.04 43.7507 141.83 38.2107 132.15C32.4907 122.16 29.4707 110.77 29.4707 99.2C29.4707 81.46 36.3807 64.78 48.9207 52.23C61.4707 39.68 78.1507 32.78 95.8907 32.78C113.631 32.78 130.311 39.69 142.861 52.23C155.411 64.78 162.311 81.46 162.311 99.2C162.311 110.77 159.291 122.17 153.571 132.15C148.031 141.83 140.061 150.04 130.551 155.87C130.361 155.99 130.151 156.04 129.951 156.04Z" fill="url(#paint4_linear_118_858)"/>
<path d="M129.96 163.75C126.98 163.75 124.07 162.25 122.4 159.52C119.84 155.35 121.15 149.9 125.32 147.34C142.22 136.99 152.3 118.99 152.3 99.2001C152.3 68.1001 126.99 42.7901 95.8898 42.7901C64.7898 42.7901 39.4798 68.1001 39.4798 99.2001C39.4798 118.99 49.5698 136.98 66.4598 147.34C70.6298 149.9 71.9398 155.35 69.3798 159.52C66.8198 163.69 61.3698 165 57.1998 162.44C46.5798 155.93 37.6998 146.78 31.5198 135.98C25.1398 124.83 21.7598 112.11 21.7598 99.2001C21.7598 89.2001 23.7198 79.4901 27.5898 70.3501C31.3198 61.5201 36.6698 53.6001 43.4698 46.7901C50.2698 39.9801 58.1998 34.6401 67.0298 30.9101C76.1698 27.0401 85.8798 25.0801 95.8798 25.0801C105.88 25.0801 115.59 27.0401 124.73 30.9101C133.56 34.6401 141.48 39.9901 148.29 46.7901C155.09 53.5901 160.44 61.5201 164.17 70.3501C168.04 79.4901 170 89.2001 170 99.2001C170 112.11 166.63 124.83 160.24 135.98C154.06 146.78 145.17 155.93 134.56 162.44C133.12 163.32 131.52 163.75 129.94 163.75H129.96Z" fill="url(#paint5_linear_118_858)"/>
<path d="M129.95 155.78C129.65 155.78 129.36 155.63 129.19 155.36C128.93 154.94 129.07 154.39 129.48 154.14C148.76 142.33 160.27 121.79 160.27 99.21C160.27 63.71 131.39 34.83 95.89 34.83C60.39 34.83 31.52 63.7 31.52 99.2C31.52 121.78 43.03 142.32 62.31 154.13C62.73 154.39 62.86 154.93 62.6 155.35C62.34 155.77 61.8 155.9 61.38 155.64C51.9 149.83 43.97 141.66 38.45 132.01C32.76 122.07 29.75 110.72 29.75 99.19C29.75 81.52 36.63 64.91 49.13 52.41C61.62 39.92 78.24 33.03 95.91 33.03C113.58 33.03 130.19 39.91 142.69 52.41C155.18 64.9 162.07 81.52 162.07 99.19C162.07 110.72 159.06 122.07 153.37 132.01C147.85 141.66 139.92 149.82 130.44 155.64C130.3 155.73 130.14 155.77 129.98 155.77L129.95 155.78Z" fill="url(#paint6_linear_118_858)"/>
<path d="M129.949 155.48C129.749 155.48 129.559 155.38 129.439 155.2C129.269 154.92 129.359 154.56 129.639 154.39C149.009 142.52 160.569 121.89 160.569 99.2101C160.569 63.5501 131.559 34.5401 95.8988 34.5401C60.2388 34.5401 31.2188 63.5401 31.2188 99.2001C31.2188 121.89 42.7788 142.51 62.1488 154.38C62.4288 154.55 62.5188 154.92 62.3488 155.19C62.1788 155.47 61.8088 155.56 61.5388 155.39C52.0988 149.61 44.2088 141.47 38.7088 131.87C33.0388 121.97 30.0488 110.67 30.0488 99.2001C30.0488 81.6101 36.8988 65.0701 49.3388 52.6301C61.7788 40.1901 78.3188 33.3401 95.9088 33.3401C113.499 33.3401 130.039 40.1901 142.479 52.6301C154.919 65.0701 161.769 81.6101 161.769 99.2001C161.769 110.67 158.769 121.97 153.109 131.87C147.609 141.47 139.719 149.61 130.279 155.39C130.179 155.45 130.079 155.48 129.969 155.48H129.949Z" fill="url(#paint7_linear_118_858)"/>
</g>
<g opacity="0.6">
<path d="M132.962 161.49C132.542 161.49 132.122 161.28 131.892 160.89C131.532 160.3 131.712 159.52 132.312 159.16C153.212 146.35 165.682 124.1 165.682 99.6199C165.682 61.1399 134.382 29.8399 95.9016 29.8399C57.4216 29.8399 26.1116 61.1499 26.1116 99.6199C26.1116 124.1 38.5916 146.36 59.4816 159.16C60.0716 159.52 60.2616 160.3 59.9016 160.89C59.5416 161.48 58.7616 161.67 58.1716 161.31C47.8116 154.96 39.1416 146.03 33.1116 135.49C26.8916 124.62 23.6016 112.22 23.6016 99.6199C23.6016 80.31 31.1216 62.1499 44.7816 48.4999C58.4416 34.8399 76.5916 27.3199 95.9016 27.3199C115.212 27.3199 133.372 34.8399 147.022 48.4999C160.672 62.1599 168.202 80.31 168.202 99.6199C168.202 112.22 164.912 124.62 158.692 135.49C152.662 146.03 143.992 154.96 133.632 161.31C133.432 161.44 133.202 161.5 132.972 161.5L132.962 161.49Z" fill="url(#paint8_linear_118_858)"/>
<path d="M132.971 169.88C129.731 169.88 126.561 168.24 124.741 165.28C121.961 160.74 123.381 154.81 127.921 152.02C146.311 140.75 157.291 121.16 157.291 99.6299C157.291 65.7699 129.751 38.2299 95.8912 38.2299C62.0312 38.2299 34.4912 65.7699 34.4912 99.6299C34.4912 121.17 45.4712 140.75 63.8612 152.02C68.4012 154.8 69.8212 160.74 67.0412 165.28C64.2612 169.82 58.3212 171.24 53.7812 168.46C42.2212 161.38 32.5612 151.42 25.8212 139.66C18.8712 127.53 15.2012 113.68 15.2012 99.6299C15.2012 88.7399 17.3312 78.18 21.5412 68.22C25.6012 58.61 31.4212 49.98 38.8312 42.58C46.2412 35.17 54.8612 29.36 64.4712 25.29C74.4212 21.08 84.9912 18.95 95.8812 18.95C106.771 18.95 117.331 21.08 127.291 25.29C136.901 29.35 145.531 35.17 152.931 42.58C160.341 49.99 166.151 58.61 170.221 68.22C174.431 78.17 176.561 88.7399 176.561 99.6299C176.561 113.68 172.891 127.53 165.941 139.66C159.211 151.42 149.541 161.38 137.981 168.46C136.411 169.42 134.671 169.88 132.951 169.88H132.971Z" fill="url(#paint9_linear_118_858)"/>
<path d="M132.961 161.2C132.631 161.2 132.321 161.04 132.131 160.74C131.851 160.28 131.991 159.69 132.451 159.41C153.431 146.55 165.961 124.2 165.961 99.6199C165.961 60.9799 134.531 29.5499 95.8906 29.5499C57.2506 29.5499 25.8206 60.9899 25.8206 99.6199C25.8206 124.2 38.3506 146.55 59.3306 159.41C59.7906 159.69 59.9306 160.28 59.6506 160.74C59.3706 161.2 58.7806 161.34 58.3206 161.06C48.0006 154.74 39.3706 145.84 33.3606 135.34C27.1606 124.52 23.8906 112.16 23.8906 99.6199C23.8906 80.3899 31.3806 62.2999 44.9806 48.6999C58.5806 35.0999 76.6606 27.6099 95.9006 27.6099C115.141 27.6099 133.221 35.0999 146.821 48.6999C160.421 62.2999 167.911 80.3799 167.911 99.6199C167.911 112.17 164.631 124.52 158.441 135.34C152.431 145.84 143.801 154.73 133.481 161.06C133.321 161.16 133.151 161.2 132.981 161.2H132.961Z" fill="url(#paint10_linear_118_858)"/>
<path d="M132.961 160.88C132.741 160.88 132.531 160.77 132.411 160.57C132.221 160.27 132.321 159.87 132.621 159.68C153.701 146.76 166.281 124.31 166.281 99.6199C166.281 60.7999 134.701 29.2299 95.8912 29.2299C57.0812 29.2299 25.5012 60.8099 25.5012 99.6199C25.5012 124.31 38.0812 146.77 59.1612 159.68C59.4612 159.87 59.5612 160.26 59.3712 160.57C59.1812 160.87 58.7912 160.97 58.4812 160.78C48.2112 154.48 39.6112 145.63 33.6312 135.18C27.4612 124.4 24.2012 112.11 24.2012 99.6199C24.2012 80.4699 31.6612 62.4699 45.2012 48.9299C58.7412 35.3899 76.7412 27.9299 95.8912 27.9299C115.041 27.9299 133.041 35.3899 146.581 48.9299C160.121 62.4699 167.581 80.4699 167.581 99.6199C167.581 112.11 164.321 124.41 158.151 135.18C152.171 145.63 143.571 154.48 133.301 160.78C133.191 160.84 133.081 160.88 132.961 160.88Z" fill="url(#paint11_linear_118_858)"/>
</g>
<g opacity="0.8">
<path d="M136.241 167.43C135.781 167.43 135.331 167.2 135.071 166.78C134.671 166.14 134.881 165.29 135.521 164.9C158.261 150.96 171.841 126.73 171.841 100.09C171.841 58.21 137.771 24.14 95.8912 24.14C54.0112 24.14 19.9412 58.2 19.9412 100.08C19.9412 126.72 33.5212 150.95 56.2612 164.89C56.9012 165.28 57.1112 166.13 56.7112 166.77C56.3212 167.41 55.4712 167.62 54.8312 167.22C43.5512 160.31 34.1212 150.59 27.5512 139.12C20.7812 127.29 17.2012 113.79 17.2012 100.08C17.2012 79.06 25.3912 59.3 40.2512 44.44C55.1112 29.58 74.8712 21.39 95.8912 21.39C116.911 21.39 136.671 29.58 151.531 44.44C166.391 59.3 174.581 79.06 174.581 100.08C174.581 113.79 171.001 127.29 164.231 139.12C157.661 150.59 148.231 160.31 136.951 167.22C136.731 167.36 136.481 167.42 136.241 167.42V167.43Z" fill="url(#paint12_linear_118_858)"/>
<path d="M136.25 176.55C132.72 176.55 129.27 174.77 127.29 171.54C124.26 166.6 125.81 160.14 130.75 157.11C150.77 144.84 162.72 123.52 162.72 100.08C162.72 63.23 132.74 33.25 95.8903 33.25C59.0403 33.25 29.0603 63.23 29.0603 100.08C29.0603 123.52 41.0103 144.84 61.0303 157.11C65.9703 160.14 67.5203 166.6 64.4903 171.54C61.4603 176.48 55.0003 178.03 50.0603 175C37.4803 167.29 26.9603 156.45 19.6303 143.65C12.0703 130.44 8.07031 115.37 8.07031 100.08C8.07031 88.23 10.3903 76.73 14.9803 65.89C19.4003 55.43 25.7303 46.04 33.8003 37.98C41.8603 29.92 51.2503 23.59 61.7103 19.16C72.5403 14.58 84.0403 12.25 95.9003 12.25C107.76 12.25 119.25 14.57 130.09 19.16C140.55 23.58 149.94 29.91 158 37.98C166.06 46.04 172.39 55.43 176.82 65.89C181.4 76.72 183.73 88.22 183.73 100.08C183.73 115.38 179.73 130.45 172.17 143.65C164.84 156.45 154.32 167.29 141.74 175C140.03 176.05 138.14 176.55 136.27 176.55H136.25Z" fill="url(#paint13_linear_118_858)"/>
<path d="M136.24 167.11C135.89 167.11 135.54 166.93 135.34 166.61C135.04 166.11 135.19 165.47 135.69 165.16C158.53 151.16 172.16 126.83 172.16 100.08C172.16 58.02 137.94 23.81 95.8898 23.81C53.8398 23.81 19.6198 58.03 19.6198 100.08C19.6198 126.83 33.2598 151.16 56.0898 165.16C56.5898 165.46 56.7398 166.11 56.4398 166.61C56.1398 167.11 55.4898 167.26 54.9898 166.96C43.7598 160.08 34.3598 150.4 27.8198 138.97C21.0798 127.19 17.5098 113.74 17.5098 100.09C17.5098 79.15 25.6598 59.47 40.4698 44.67C55.2698 29.87 74.9598 21.71 95.8898 21.71C116.82 21.71 136.51 29.86 151.31 44.67C166.11 59.47 174.27 79.16 174.27 100.09C174.27 113.75 170.7 127.19 163.96 138.97C157.42 150.4 148.02 160.08 136.79 166.96C136.62 167.07 136.43 167.12 136.24 167.12V167.11Z" fill="url(#paint14_linear_118_858)"/>
<path d="M136.241 166.76C136.001 166.76 135.771 166.64 135.641 166.42C135.441 166.09 135.541 165.66 135.871 165.46C158.811 151.4 172.511 126.96 172.511 100.08C172.511 57.8301 138.141 23.4601 95.8911 23.4601C53.6411 23.4601 19.2711 57.8401 19.2711 100.08C19.2711 126.96 32.9711 151.4 55.9111 165.46C56.2411 165.66 56.3411 166.09 56.1411 166.42C55.9411 166.75 55.5111 166.85 55.1811 166.65C44.0011 159.8 34.6411 150.16 28.1311 138.79C21.4211 127.06 17.8711 113.68 17.8711 100.08C17.8711 79.2401 25.9911 59.6401 40.7211 44.9101C55.4611 30.1701 75.0511 22.0601 95.8911 22.0601C116.731 22.0601 136.321 30.1801 151.061 44.9101C165.801 59.6501 173.911 79.2401 173.911 100.08C173.911 113.67 170.361 127.06 163.651 138.79C157.141 150.17 147.781 159.8 136.601 166.65C136.491 166.72 136.361 166.75 136.231 166.75L136.241 166.76Z" fill="url(#paint15_linear_118_858)"/>
</g>
<path d="M139.81 173.89C139.31 173.89 138.82 173.64 138.54 173.18C138.11 172.48 138.33 171.56 139.03 171.13C163.79 155.96 178.57 129.59 178.57 100.59C178.57 54.9999 141.48 17.9199 95.9002 17.9199C50.3202 17.9199 13.2202 54.9999 13.2202 100.59C13.2202 129.59 28.0002 155.96 52.7602 171.13C53.4602 171.56 53.6802 172.48 53.2502 173.18C52.8202 173.88 51.9002 174.1 51.2002 173.67C38.9202 166.15 28.6602 155.57 21.5102 143.08C14.1402 130.2 10.2402 115.51 10.2402 100.59C10.2402 77.7099 19.1502 56.1999 35.3302 40.0199C51.5102 23.8399 73.0202 14.9299 95.9002 14.9299C118.78 14.9299 140.29 23.8399 156.47 40.0199C172.65 56.1999 181.56 77.7099 181.56 100.59C181.56 115.51 177.66 130.21 170.29 143.08C163.14 155.57 152.87 166.15 140.6 173.67C140.36 173.82 140.09 173.89 139.82 173.89H139.81Z" fill="url(#paint16_linear_118_858)"/>
<path d="M139.821 183.82C135.981 183.82 132.231 181.88 130.071 178.36C126.771 172.98 128.461 165.95 133.841 162.65C155.631 149.3 168.631 126.09 168.631 100.58C168.631 60.47 136.001 27.84 95.8905 27.84C55.7805 27.84 23.1505 60.48 23.1505 100.59C23.1505 126.11 36.1605 149.31 57.9405 162.66C63.3205 165.96 65.0106 172.99 61.7105 178.37C58.4105 183.75 51.3805 185.44 46.0005 182.14C32.3105 173.75 20.8505 161.95 12.8805 148.02C4.66055 133.64 0.310547 117.24 0.310547 100.59C0.310547 87.69 2.84055 75.17 7.83055 63.38C12.6405 52 19.5405 41.78 28.3105 33C37.0805 24.23 47.3105 17.34 58.6905 12.52C70.4805 7.53 83.0005 5 95.9005 5C108.801 5 121.321 7.53 133.111 12.52C144.491 17.33 154.711 24.23 163.491 33C172.261 41.77 179.161 52 183.971 63.38C188.961 75.17 191.491 87.69 191.491 100.59C191.491 117.24 187.141 133.64 178.911 148.02C170.931 161.95 159.481 173.75 145.791 182.14C143.931 183.28 141.871 183.82 139.831 183.82H139.821Z" fill="url(#paint17_linear_118_858)"/>
<path d="M139.81 173.54C139.42 173.54 139.05 173.35 138.83 172.99C138.5 172.45 138.67 171.75 139.21 171.41C164.07 156.18 178.91 129.69 178.91 100.57C178.91 54.79 141.67 17.55 95.8898 17.55C50.1098 17.55 12.8798 54.81 12.8798 100.59C12.8798 129.71 27.7198 156.19 52.5798 171.43C53.1198 171.76 53.2898 172.47 52.9598 173.01C52.6298 173.55 51.9198 173.72 51.3798 173.39C39.1498 165.9 28.9298 155.36 21.8098 142.92C14.4698 130.1 10.5898 115.46 10.5898 100.6C10.5898 77.81 19.4598 56.39 35.5798 40.28C51.6898 24.17 73.1198 15.29 95.8998 15.29C118.68 15.29 140.11 24.16 156.22 40.28C172.33 56.39 181.21 77.82 181.21 100.6C181.21 115.46 177.33 130.1 169.99 142.92C162.87 155.36 152.64 165.89 140.42 173.39C140.23 173.5 140.03 173.56 139.82 173.56L139.81 173.54Z" fill="url(#paint18_linear_118_858)"/>
<path d="M139.811 173.16C139.551 173.16 139.301 173.03 139.161 172.8C138.941 172.44 139.051 171.97 139.411 171.75C164.381 156.45 179.291 129.84 179.291 100.59C179.291 54.6 141.881 17.19 95.8907 17.19C49.9007 17.19 12.5007 54.6 12.5007 100.59C12.5007 129.84 27.4107 156.45 52.3807 171.75C52.7407 171.97 52.8507 172.44 52.6307 172.8C52.4107 173.16 51.9407 173.27 51.5807 173.05C39.4107 165.59 29.2307 155.1 22.1407 142.72C14.8307 129.95 10.9707 115.38 10.9707 100.59C10.9707 77.91 19.8007 56.58 35.8407 40.54C51.8807 24.5 73.2107 15.66 95.8907 15.66C118.571 15.66 139.901 24.49 155.941 40.53C171.981 56.57 180.811 77.9 180.811 100.58C180.811 115.38 176.951 129.95 169.641 142.71C162.551 155.09 152.371 165.58 140.201 173.04C140.081 173.12 139.941 173.15 139.801 173.15L139.811 173.16Z" fill="url(#paint19_linear_118_858)"/>
</g>
<path d="M182.651 185.389C182.651 193.905 144.071 200.81 96.4806 200.81C48.8896 200.81 10.3105 193.905 10.3105 185.389V150.563H182.668V185.389H182.651Z" fill="#254BD9"/>
<path style="mix-blend-mode:hard-light" opacity="0.5" d="M131.695 198.455C139.096 194.666 132.103 173.597 136.511 170.605C146.585 169.986 161.918 167.117 167.813 165.931C164.892 170.623 168.044 190.045 165.529 193.445C157.899 196.03 143.859 197.889 131.695 198.455Z" fill="url(#paint20_linear_118_858)"/>
<path style="mix-blend-mode:hard-light" opacity="0.5" d="M61.2451 198.455C53.8444 194.666 60.8379 173.597 56.4293 170.605C46.3552 169.986 31.0227 167.117 25.127 165.931C28.0483 170.623 24.8968 190.045 27.4109 193.445C35.0417 196.03 49.0818 197.889 61.2451 198.455Z" fill="url(#paint21_linear_118_858)"/>
<path d="M182.651 165.17C182.651 171.827 144.071 177.209 96.4806 177.209C48.8896 177.209 10.3105 171.827 10.3105 165.17V142.631H182.668V165.17H182.651Z" fill="url(#paint22_linear_118_858)"/>
<path style="mix-blend-mode:hard-light" opacity="0.5" d="M131.695 175.687C139.096 172.783 132.103 154.689 136.511 152.387C146.585 151.909 161.918 149.713 167.813 148.811C164.892 152.405 168.044 169.242 165.529 171.845C157.899 173.828 143.859 175.262 131.695 175.687Z" fill="url(#paint23_linear_118_858)"/>
<path d="M182.651 142.561C182.651 148.722 144.071 153.715 96.4806 153.715C48.8896 153.715 10.3105 148.722 10.3105 142.561C10.3105 136.399 48.8896 133 96.4806 133C144.071 133 182.651 136.399 182.651 142.561Z" fill="url(#paint24_linear_118_858)"/>
<path style="mix-blend-mode:hard-light" opacity="0.5" d="M61.2451 175.687C53.8444 172.783 60.8379 154.689 56.4293 152.387C46.3552 151.909 31.0227 149.713 25.127 148.811C28.0483 152.405 24.8968 169.242 27.4109 171.845C35.0417 173.828 49.0818 175.262 61.2451 175.687Z" fill="url(#paint25_linear_118_858)"/>
<path d="M171.338 148.085C162.043 150.333 139.487 152.883 121.658 153.237C138.549 152.564 159.547 150.174 171.338 148.085Z" fill="url(#paint26_linear_118_858)"/>
<path d="M21.6074 148.085C30.9025 150.333 53.4586 152.883 71.2875 153.237C54.397 152.564 33.3989 150.174 21.6074 148.085Z" fill="url(#paint27_linear_118_858)"/>
<g style="mix-blend-mode:screen" opacity="0.3">
<g style="mix-blend-mode:color-dodge">
<path d="M167.551 149.37C178.867 149.37 188.041 126.707 188.041 98.75C188.041 70.7934 178.867 48.13 167.551 48.13C156.234 48.13 147.061 70.7934 147.061 98.75C147.061 126.707 156.234 149.37 167.551 149.37Z" fill="#000144"/>
</g>
</g>
<g style="mix-blend-mode:screen" opacity="0.3">
<g style="mix-blend-mode:color-dodge">
<path d="M24.8005 149.37C36.1169 149.37 45.2905 126.707 45.2905 98.75C45.2905 70.7934 36.1169 48.13 24.8005 48.13C13.4842 48.13 4.31055 70.7934 4.31055 98.75C4.31055 126.707 13.4842 149.37 24.8005 149.37Z" fill="#0C0D61"/>
</g>
</g>
<g style="mix-blend-mode:screen" opacity="0.3">
<g style="mix-blend-mode:color-dodge">
<path d="M97.6203 54.3C134.651 54.3 164.67 43.04 164.67 29.15C164.67 15.26 134.651 4 97.6203 4C60.5896 4 30.5703 15.26 30.5703 29.15C30.5703 43.04 60.5896 54.3 97.6203 54.3Z" fill="#001736"/>
</g>
</g>
<path d="M83.3218 8.95752L97.3798 23.8724V34.3139L77.3555 28.2167L83.3218 8.95752Z" fill="url(#paint28_linear_118_858)"/>
<path d="M111.437 8.95752L97.3789 23.8724V34.3139L117.403 28.2167L111.437 8.95752Z" fill="url(#paint29_linear_118_858)"/>
<path d="M114.97 34.3138H79.7871V38.0453H114.97V34.3138Z" fill="url(#paint30_linear_118_858)"/>
<path d="M108.042 22.5713L97.3825 4.10779L86.7122 22.5713L70.4316 11.377L79.7857 34.3139H97.3825H114.969L124.323 11.377L108.042 22.5713Z" fill="url(#paint31_linear_118_858)"/>
<path d="M101.493 4.10777C101.493 1.83882 99.6479 0 97.3714 0C95.0949 0 93.25 1.83882 93.25 4.10777C93.25 6.37673 95.0949 8.21555 97.3714 8.21555C99.6479 8.20479 101.493 6.36597 101.493 4.10777Z" fill="url(#paint32_linear_118_858)"/>
<path d="M128.444 11.3771C128.444 9.10811 126.599 7.26929 124.323 7.26929C122.046 7.26929 120.201 9.10811 120.201 11.3771C120.201 13.646 122.046 15.4848 124.323 15.4848C126.599 15.4848 128.444 13.646 128.444 11.3771Z" fill="url(#paint33_linear_118_858)"/>
<path d="M74.5533 11.3771C74.5533 9.10811 72.7084 7.26929 70.4319 7.26929C68.1555 7.26929 66.3105 9.10811 66.3105 11.3771C66.3105 13.646 68.1555 15.4848 70.4319 15.4848C72.7084 15.4848 74.5533 13.646 74.5533 11.3771Z" fill="url(#paint34_linear_118_858)"/>
<path d="M97.3804 19.2163L93.8848 24.765L97.3804 30.3138L100.865 24.765L97.3804 19.2163Z" fill="#FF29E6"/>
<path d="M97.3804 19.2163L96.8086 24.765L97.3804 30.3138L100.865 24.765L97.3804 19.2163Z" fill="#B607A1"/>
<path d="M87.4959 209.28V159.11C86.1159 159.85 81.8159 162.17 79.3059 163.52C78.3259 164.05 77.0959 163.56 76.7559 162.49L72.4059 149.06C72.2959 148.72 72.3159 148.21 72.3159 147.87V144.79L92.0459 136.81C92.3059 136.67 92.5959 136.6 92.8959 136.6H104.846C105.836 136.6 106.636 137.4 106.636 138.39V209.27C106.636 210.26 105.836 211.06 104.846 211.06H89.2959C88.3059 211.06 87.5059 210.26 87.5059 209.27L87.4959 209.28Z" fill="url(#paint35_linear_118_858)"/>
<path d="M87.4957 205.73V155.55C86.1157 156.29 81.8057 158.61 79.2857 159.97C78.3057 160.5 77.0957 160.01 76.7557 158.95L72.3957 145.49C72.1357 144.67 72.4857 143.79 73.2457 143.38L92.0457 133.26C92.3057 133.12 92.5957 133.05 92.8857 133.05H104.846C105.826 133.05 106.626 133.85 106.626 134.83V205.73C106.626 206.71 105.826 207.51 104.846 207.51H89.2557C88.2757 207.51 87.4757 206.71 87.4757 205.73H87.4957Z" fill="url(#paint36_linear_118_858)"/>
<path d="M87.9855 153.26C86.1055 154.27 82.5755 156.16 78.4155 158.41C78.1655 157.69 76.4855 152.47 74.1055 144.96C77.1655 143.31 90.1555 136.32 92.9055 134.84H104.855V205.72H89.3055V154.04C89.3055 153.37 88.5855 152.94 87.9955 153.26H87.9855Z" fill="url(#paint37_linear_118_858)"/>
<path opacity="0.5" d="M92.8957 134.84C90.1457 136.32 77.1657 143.31 74.0957 144.96C74.1457 145.11 74.1857 145.26 74.2357 145.41C77.5357 143.63 90.1857 136.82 92.8857 135.37H104.836V134.85H92.8857L92.8957 134.84Z" fill="url(#paint38_linear_118_858)"/>
<g style="mix-blend-mode:color-dodge" opacity="0.6">
<path d="M92.9052 134.69C87.4552 134.69 83.0352 134.32 83.0352 133.87C83.0352 133.42 87.4552 133.05 92.9052 133.05C98.3552 133.05 102.775 133.42 102.775 133.87C102.775 134.32 98.3552 134.69 92.9052 134.69Z" fill="#FFFAD1"/>
<path d="M92.9059 143.74C93.3588 143.74 93.7259 139.321 93.7259 133.87C93.7259 128.419 93.3588 124 92.9059 124C92.4531 124 92.0859 128.419 92.0859 133.87C92.0859 139.321 92.4531 143.74 92.9059 143.74Z" fill="#FFFAD1"/>
<path d="M93.4847 134.45C89.6247 138.31 86.2448 141.17 85.9248 140.85C85.6048 140.53 88.4748 137.14 92.3248 133.29C96.1848 129.43 99.5648 126.57 99.8848 126.89C100.205 127.21 97.3347 130.6 93.4847 134.45Z" fill="#FFFAD1"/>
<path d="M92.3248 134.45C96.1848 138.31 99.5648 141.17 99.8848 140.85C100.205 140.53 97.3347 137.14 93.4847 133.29C89.6247 129.43 86.2448 126.57 85.9248 126.89C85.6048 127.21 88.4748 130.6 92.3248 134.45Z" fill="#FFFAD1"/>
</g>
<g style="mix-blend-mode:color-dodge" opacity="0.6">
<path d="M105.655 189.14C113.459 189.14 119.785 188.616 119.785 187.97C119.785 187.324 113.459 186.8 105.655 186.8C97.8516 186.8 91.5254 187.324 91.5254 187.97C91.5254 188.616 97.8516 189.14 105.655 189.14Z" fill="#FFFAD1"/>
<path d="M106.826 187.97C106.826 195.77 106.296 202.1 105.656 202.1C105.016 202.1 104.486 195.77 104.486 187.97C104.486 180.17 105.016 173.84 105.656 173.84C106.296 173.84 106.826 180.17 106.826 187.97Z" fill="#FFFAD1"/>
<path d="M106.486 188.8C100.966 194.32 96.1261 198.42 95.6661 197.96C95.2061 197.5 99.3061 192.66 104.826 187.14C110.346 181.62 115.186 177.52 115.646 177.98C116.106 178.44 112.006 183.28 106.486 188.8Z" fill="#FFFAD1"/>
<path d="M104.826 188.8C110.346 194.32 115.186 198.42 115.646 197.96C116.106 197.5 112.006 192.66 106.486 187.14C100.966 181.62 96.1261 177.52 95.6661 177.98C95.2061 178.44 99.3061 183.28 104.826 188.8Z" fill="#FFFAD1"/>
</g>
<defs>
<linearGradient id="paint0_linear_118_858" x1="95.8911" y1="151.02" x2="95.8911" y2="37.8" gradientUnits="userSpaceOnUse">
<stop offset="0.18" stop-color="#8400A8"/>
<stop offset="0.67" stop-color="#3C3CF0"/>
<stop offset="0.73" stop-color="#3B33E0"/>
<stop offset="0.85" stop-color="#3B1EB7"/>
<stop offset="1" stop-color="#3B007D"/>
</linearGradient>
<linearGradient id="paint1_linear_118_858" x1="95.8903" y1="158.1" x2="95.8903" y2="30.73" gradientUnits="userSpaceOnUse">
<stop offset="0.19" stop-color="#FF00F2"/>
<stop offset="0.67" stop-color="#6161FF"/>
<stop offset="0.74" stop-color="#515AFE"/>
<stop offset="0.88" stop-color="#294AFC"/>
<stop offset="1" stop-color="#003AFA"/>
</linearGradient>
<linearGradient id="paint2_linear_118_858" x1="95.8906" y1="150.77" x2="95.8906" y2="38.05" gradientUnits="userSpaceOnUse">
<stop offset="0.19" stop-color="#BF16FF"/>
<stop offset="0.67" stop-color="#6B6BFF"/>
<stop offset="0.74" stop-color="#5B73FE"/>
<stop offset="0.89" stop-color="#3389FB"/>
<stop offset="1" stop-color="#0F9EFA"/>
</linearGradient>
<linearGradient id="paint3_linear_118_858" x1="95.8902" y1="150.5" x2="95.8902" y2="38.3199" gradientUnits="userSpaceOnUse">
<stop offset="0.18" stop-color="#EE92FF"/>
<stop offset="0.49" stop-color="#F9DAFF"/>
<stop offset="0.66" stop-color="white"/>
<stop offset="0.71" stop-color="#EFF8FF"/>
<stop offset="0.82" stop-color="#C6E9FF"/>
<stop offset="0.97" stop-color="#85CFFF"/>
<stop offset="0.99" stop-color="#7ACBFF"/>
</linearGradient>
<linearGradient id="paint4_linear_118_858" x1="95.8907" y1="156.04" x2="95.8907" y2="32.78" gradientUnits="userSpaceOnUse">
<stop offset="0.18" stop-color="#8400A8"/>
<stop offset="0.67" stop-color="#3C3CF0"/>
<stop offset="0.73" stop-color="#3B33E0"/>
<stop offset="0.85" stop-color="#3B1EB7"/>
<stop offset="1" stop-color="#3B007D"/>
</linearGradient>
<linearGradient id="paint5_linear_118_858" x1="0.309765" y1="163.75" x2="1.30977" y2="25.0801" gradientUnits="userSpaceOnUse">
<stop offset="0.19" stop-color="#FF00F2"/>
<stop offset="0.67" stop-color="#6161FF"/>
<stop offset="0.74" stop-color="#515AFE"/>
<stop offset="0.88" stop-color="#294AFC"/>
<stop offset="1" stop-color="#003AFA"/>
</linearGradient>
<linearGradient id="paint6_linear_118_858" x1="0.310007" y1="155.78" x2="95.89" y2="33.05" gradientUnits="userSpaceOnUse">
<stop offset="0.19" stop-color="#BF16FF"/>
<stop offset="0.67" stop-color="#6B6BFF"/>
<stop offset="0.74" stop-color="#5B73FE"/>
<stop offset="0.89" stop-color="#3389FB"/>
<stop offset="1" stop-color="#0F9EFA"/>
</linearGradient>
<linearGradient id="paint7_linear_118_858" x1="0.308831" y1="155.48" x2="95.8888" y2="33.3401" gradientUnits="userSpaceOnUse">
<stop offset="0.18" stop-color="#EE92FF"/>
<stop offset="0.49" stop-color="#F9DAFF"/>
<stop offset="0.66" stop-color="white"/>
<stop offset="0.71" stop-color="#EFF8FF"/>
<stop offset="0.82" stop-color="#C6E9FF"/>
<stop offset="0.97" stop-color="#85CFFF"/>
<stop offset="0.99" stop-color="#7ACBFF"/>
</linearGradient>
<linearGradient id="paint8_linear_118_858" x1="95.8916" y1="161.49" x2="95.8916" y2="27.3299" gradientUnits="userSpaceOnUse">
<stop offset="0.18" stop-color="#8400A8"/>
<stop offset="0.67" stop-color="#3C3CF0"/>
<stop offset="0.73" stop-color="#3B33E0"/>
<stop offset="0.85" stop-color="#3B1EB7"/>
<stop offset="1" stop-color="#3B007D"/>
</linearGradient>
<linearGradient id="paint9_linear_118_858" x1="95.8912" y1="169.88" x2="95.8912" y2="18.9399" gradientUnits="userSpaceOnUse">
<stop offset="0.19" stop-color="#FF00F2"/>
<stop offset="0.67" stop-color="#6161FF"/>
<stop offset="0.74" stop-color="#515AFE"/>
<stop offset="0.88" stop-color="#294AFC"/>
<stop offset="1" stop-color="#003AFA"/>
</linearGradient>
<linearGradient id="paint10_linear_118_858" x1="0.310619" y1="161.2" x2="95.8906" y2="27.6199" gradientUnits="userSpaceOnUse">
<stop offset="0.19" stop-color="#BF16FF"/>
<stop offset="0.67" stop-color="#6B6BFF"/>
<stop offset="0.74" stop-color="#5B73FE"/>
<stop offset="0.89" stop-color="#3389FB"/>
<stop offset="1" stop-color="#0F9EFA"/>
</linearGradient>
<linearGradient id="paint11_linear_118_858" x1="0.311171" y1="160.88" x2="95.8912" y2="27.9399" gradientUnits="userSpaceOnUse">
<stop offset="0.18" stop-color="#EE92FF"/>
<stop offset="0.49" stop-color="#F9DAFF"/>
<stop offset="0.66" stop-color="white"/>
<stop offset="0.71" stop-color="#EFF8FF"/>
<stop offset="0.82" stop-color="#C6E9FF"/>
<stop offset="0.97" stop-color="#85CFFF"/>
<stop offset="0.99" stop-color="#7ACBFF"/>
</linearGradient>
<linearGradient id="paint12_linear_118_858" x1="95.8912" y1="167.43" x2="95.8912" y2="21.39" gradientUnits="userSpaceOnUse">
<stop offset="0.18" stop-color="#8400A8"/>
<stop offset="0.67" stop-color="#3C3CF0"/>
<stop offset="0.73" stop-color="#3B33E0"/>
<stop offset="0.85" stop-color="#3B1EB7"/>
<stop offset="1" stop-color="#3B007D"/>
</linearGradient>
<linearGradient id="paint13_linear_118_858" x1="95.8903" y1="176.55" x2="95.8903" y2="12.27" gradientUnits="userSpaceOnUse">
<stop offset="0.19" stop-color="#FF00F2"/>
<stop offset="0.67" stop-color="#6161FF"/>
<stop offset="0.74" stop-color="#515AFE"/>
<stop offset="0.88" stop-color="#294AFC"/>
<stop offset="1" stop-color="#003AFA"/>
</linearGradient>
<linearGradient id="paint14_linear_118_858" x1="95.8898" y1="167.11" x2="95.8898" y2="21.71" gradientUnits="userSpaceOnUse">
<stop offset="0.19" stop-color="#BF16FF"/>
<stop offset="0.67" stop-color="#6B6BFF"/>
<stop offset="0.74" stop-color="#5B73FE"/>
<stop offset="0.89" stop-color="#3389FB"/>
<stop offset="1" stop-color="#0F9EFA"/>
</linearGradient>
<linearGradient id="paint15_linear_118_858" x1="0.311098" y1="166.76" x2="95.8911" y2="22.06" gradientUnits="userSpaceOnUse">
<stop offset="0.18" stop-color="#EE92FF"/>
<stop offset="0.49" stop-color="#F9DAFF"/>
<stop offset="0.66" stop-color="white"/>
<stop offset="0.71" stop-color="#EFF8FF"/>
<stop offset="0.82" stop-color="#C6E9FF"/>
<stop offset="0.97" stop-color="#85CFFF"/>
<stop offset="0.99" stop-color="#7ACBFF"/>
</linearGradient>
<linearGradient id="paint16_linear_118_858" x1="95.8902" y1="173.89" x2="95.8902" y2="14.9299" gradientUnits="userSpaceOnUse">
<stop offset="0.18" stop-color="#8400A8"/>
<stop offset="0.67" stop-color="#3C3CF0"/>
<stop offset="0.73" stop-color="#3B33E0"/>
<stop offset="0.85" stop-color="#3B1EB7"/>
<stop offset="1" stop-color="#3B007D"/>
</linearGradient>
<linearGradient id="paint17_linear_118_858" x1="0.310548" y1="183.82" x2="1.31055" y2="5" gradientUnits="userSpaceOnUse">
<stop offset="0.19" stop-color="#FF00F2"/>
<stop offset="0.67" stop-color="#6161FF"/>
<stop offset="0.74" stop-color="#515AFE"/>
<stop offset="0.88" stop-color="#294AFC"/>
<stop offset="1" stop-color="#003AFA"/>
</linearGradient>
<linearGradient id="paint18_linear_118_858" x1="0.309846" y1="173.54" x2="95.8899" y2="15.28" gradientUnits="userSpaceOnUse">
<stop offset="0.19" stop-color="#BF16FF"/>
<stop offset="0.67" stop-color="#6B6BFF"/>
<stop offset="0.74" stop-color="#5B73FE"/>
<stop offset="0.89" stop-color="#3389FB"/>
<stop offset="1" stop-color="#0F9EFA"/>
</linearGradient>
<linearGradient id="paint19_linear_118_858" x1="0.310708" y1="173.16" x2="95.8907" y2="15.66" gradientUnits="userSpaceOnUse">
<stop offset="0.18" stop-color="#EE92FF"/>
<stop offset="0.49" stop-color="#F9DAFF"/>
<stop offset="0.66" stop-color="white"/>
<stop offset="0.71" stop-color="#EFF8FF"/>
<stop offset="0.82" stop-color="#C6E9FF"/>
<stop offset="0.97" stop-color="#85CFFF"/>
<stop offset="0.99" stop-color="#7ACBFF"/>
</linearGradient>
<linearGradient id="paint20_linear_118_858" x1="131.695" y1="182.202" x2="167.813" y2="182.202" gradientUnits="userSpaceOnUse">
<stop stop-color="#737373"/>
<stop offset="0.07" stop-color="#827F81"/>
<stop offset="0.21" stop-color="#AC9EA7"/>
<stop offset="0.28" stop-color="#C2AFBC"/>
<stop offset="0.31" stop-color="#C4B2BF"/>
<stop offset="0.34" stop-color="#CDBDC8"/>
<stop offset="0.37" stop-color="#DBD0D8"/>
<stop offset="0.4" stop-color="#EFEAEE"/>
<stop offset="0.42" stop-color="white"/>
<stop offset="0.52" stop-color="#FBFBFB"/>
<stop offset="0.62" stop-color="#F0F0F0"/>
<stop offset="0.72" stop-color="#DDDDDD"/>
<stop offset="0.81" stop-color="#C2C2C2"/>
<stop offset="0.9" stop-color="#A0A0A0"/>
<stop offset="0.99" stop-color="#777777"/>
<stop offset="1" stop-color="#737373"/>
</linearGradient>
<linearGradient id="paint21_linear_118_858" x1="61.2451" y1="182.202" x2="25.127" y2="182.202" gradientUnits="userSpaceOnUse">
<stop stop-color="#5E6873"/>
<stop offset="0.07" stop-color="#6D7782"/>
<stop offset="0.21" stop-color="#97A0AA"/>
<stop offset="0.28" stop-color="#AFB8C2"/>
<stop offset="0.31" stop-color="#B2BBC4"/>
<stop offset="0.34" stop-color="#BDC5CD"/>
<stop offset="0.37" stop-color="#D0D5DB"/>
<stop offset="0.4" stop-color="#EAEDEF"/>
<stop offset="0.42" stop-color="white"/>
<stop offset="0.52" stop-color="#FBFBFB"/>
<stop offset="0.61" stop-color="#F0F1F2"/>
<stop offset="0.7" stop-color="#DDDFE1"/>
<stop offset="0.78" stop-color="#C2C6CA"/>
<stop offset="0.87" stop-color="#A0A6AC"/>
<stop offset="0.95" stop-color="#777F89"/>
<stop offset="1" stop-color="#5E6873"/>
</linearGradient>
<linearGradient id="paint22_linear_118_858" x1="462.973" y1="160.915" x2="465.399" y2="160.915" gradientUnits="userSpaceOnUse">
<stop stop-color="#254BD9"/>
<stop offset="0.2" stop-color="#1A3363"/>
<stop offset="0.23" stop-color="#192959"/>
<stop offset="0.31" stop-color="#171848"/>
<stop offset="0.39" stop-color="#170E3E"/>
<stop offset="0.5" stop-color="#170B3B"/>
<stop offset="0.54" stop-color="#1D0B40"/>
<stop offset="0.59" stop-color="#2F0E50"/>
<stop offset="0.65" stop-color="#4C136A"/>
<stop offset="0.71" stop-color="#75198E"/>
<stop offset="0.78" stop-color="#A821BC"/>
<stop offset="0.81" stop-color="#BE25CF"/>
<stop offset="0.84" stop-color="#B624CC"/>
<stop offset="0.87" stop-color="#A022C4"/>
<stop offset="0.92" stop-color="#7C1FB6"/>
<stop offset="0.98" stop-color="#4B1BA4"/>
<stop offset="1" stop-color="#331A9C"/>
</linearGradient>
<linearGradient id="paint23_linear_118_858" x1="-72.7616" y1="162.249" x2="-70.9911" y2="162.249" gradientUnits="userSpaceOnUse">
<stop stop-color="#737373"/>
<stop offset="0.07" stop-color="#827F81"/>
<stop offset="0.21" stop-color="#AC9EA7"/>
<stop offset="0.28" stop-color="#C2AFBC"/>
<stop offset="0.31" stop-color="#C4B2BF"/>
<stop offset="0.34" stop-color="#CDBDC8"/>
<stop offset="0.37" stop-color="#DBD0D8"/>
<stop offset="0.4" stop-color="#EFEAEE"/>
<stop offset="0.42" stop-color="white"/>
<stop offset="0.52" stop-color="#FBFBFB"/>
<stop offset="0.62" stop-color="#F0F0F0"/>
<stop offset="0.72" stop-color="#DDDDDD"/>
<stop offset="0.81" stop-color="#C2C2C2"/>
<stop offset="0.9" stop-color="#A0A0A0"/>
<stop offset="0.99" stop-color="#777777"/>
<stop offset="1" stop-color="#737373"/>
</linearGradient>
<linearGradient id="paint24_linear_118_858" x1="11.7427" y1="143.764" x2="183.546" y2="143.764" gradientUnits="userSpaceOnUse">
<stop stop-color="#E0B44B"/>
<stop offset="0.12" stop-color="#C48000"/>
<stop offset="0.38" stop-color="#F7E27F"/>
<stop offset="0.62" stop-color="#EAC450"/>
<stop offset="0.83" stop-color="#CC8A00"/>
<stop offset="0.94" stop-color="#D59D23"/>
<stop offset="1" stop-color="#D9A532"/>
</linearGradient>
<linearGradient id="paint25_linear_118_858" x1="266.587" y1="162.249" x2="264.817" y2="162.249" gradientUnits="userSpaceOnUse">
<stop stop-color="#5E6873"/>
<stop offset="0.07" stop-color="#6D7782"/>
<stop offset="0.21" stop-color="#97A0AA"/>
<stop offset="0.28" stop-color="#AFB8C2"/>
<stop offset="0.31" stop-color="#B2BBC4"/>
<stop offset="0.34" stop-color="#BDC5CD"/>
<stop offset="0.37" stop-color="#D0D5DB"/>
<stop offset="0.4" stop-color="#EAEDEF"/>
<stop offset="0.42" stop-color="white"/>
<stop offset="0.52" stop-color="#FBFBFB"/>
<stop offset="0.61" stop-color="#F0F1F2"/>
<stop offset="0.7" stop-color="#DDDFE1"/>
<stop offset="0.78" stop-color="#C2C6CA"/>
<stop offset="0.87" stop-color="#A0A6AC"/>
<stop offset="0.95" stop-color="#777F89"/>
<stop offset="1" stop-color="#5E6873"/>
</linearGradient>
<linearGradient id="paint26_linear_118_858" x1="121.658" y1="150.652" x2="171.338" y2="150.652" gradientUnits="userSpaceOnUse">
<stop stop-color="#AA87C5"/>
<stop offset="0.05" stop-color="#C09BD9"/>
<stop offset="0.11" stop-color="#D2ABEA"/>
<stop offset="0.18" stop-color="#DEB7F6"/>
<stop offset="0.28" stop-color="#E5BEFD"/>
<stop offset="0.5" stop-color="#E8C0FF"/>
<stop offset="0.63" stop-color="#E4BCFB"/>
<stop offset="0.76" stop-color="#D9B2F1"/>
<stop offset="0.88" stop-color="#C6A1DF"/>
<stop offset="0.99" stop-color="#AC88C6"/>
<stop offset="1" stop-color="#AA87C5"/>
</linearGradient>
<linearGradient id="paint27_linear_118_858" x1="21.6074" y1="-109.893" x2="71.2875" y2="-109.893" gradientUnits="userSpaceOnUse">
<stop stop-color="#AA87C5"/>
<stop offset="0.05" stop-color="#C09BD9"/>
<stop offset="0.11" stop-color="#D2ABEA"/>
<stop offset="0.18" stop-color="#DEB7F6"/>
<stop offset="0.28" stop-color="#E5BEFD"/>
<stop offset="0.5" stop-color="#E8C0FF"/>
<stop offset="0.63" stop-color="#E4BCFB"/>
<stop offset="0.76" stop-color="#D9B2F1"/>
<stop offset="0.88" stop-color="#C6A1DF"/>
<stop offset="0.99" stop-color="#AC88C6"/>
<stop offset="1" stop-color="#AA87C5"/>
</linearGradient>
<linearGradient id="paint28_linear_118_858" x1="87.3645" y1="-3.12504" x2="87.3645" y2="26.8801" gradientUnits="userSpaceOnUse">
<stop offset="0.0128" stop-color="#FED33C"/>
<stop offset="0.1633" stop-color="#FEC831"/>
<stop offset="0.708" stop-color="#FFA50E"/>
<stop offset="1" stop-color="#FF9800"/>
</linearGradient>
<linearGradient id="paint29_linear_118_858" x1="107.387" y1="-3.12504" x2="107.387" y2="26.8801" gradientUnits="userSpaceOnUse">
<stop offset="0.0128" stop-color="#FED33C"/>
<stop offset="0.1633" stop-color="#FEC831"/>
<stop offset="0.708" stop-color="#FFA50E"/>
<stop offset="1" stop-color="#FF9800"/>
</linearGradient>
<linearGradient id="paint30_linear_118_858" x1="97.3803" y1="33.3317" x2="97.3803" y2="38.5566" gradientUnits="userSpaceOnUse">
<stop offset="0.0128" stop-color="#FED33C"/>
<stop offset="0.1633" stop-color="#FEC831"/>
<stop offset="0.708" stop-color="#FFA50E"/>
<stop offset="1" stop-color="#FF9800"/>
</linearGradient>
<linearGradient id="paint31_linear_118_858" x1="97.3788" y1="6.04135" x2="97.3788" y2="38.5941" gradientUnits="userSpaceOnUse">
<stop offset="0.0128" stop-color="#FED33C"/>
<stop offset="0.1633" stop-color="#FEC831"/>
<stop offset="0.708" stop-color="#FFA50E"/>
<stop offset="1" stop-color="#FF9800"/>
</linearGradient>
<linearGradient id="paint32_linear_118_858" x1="97.3785" y1="-0.416692" x2="97.3785" y2="7.4997" gradientUnits="userSpaceOnUse">
<stop offset="0.0128" stop-color="#FED33C"/>
<stop offset="0.1633" stop-color="#FEC831"/>
<stop offset="0.708" stop-color="#FFA50E"/>
<stop offset="1" stop-color="#FF9800"/>
</linearGradient>
<linearGradient id="paint33_linear_118_858" x1="124.326" y1="7.29133" x2="124.326" y2="16.1347" gradientUnits="userSpaceOnUse">
<stop offset="0.0128" stop-color="#FED33C"/>
<stop offset="0.1633" stop-color="#FEC831"/>
<stop offset="0.708" stop-color="#FFA50E"/>
<stop offset="1" stop-color="#FF9800"/>
</linearGradient>
<linearGradient id="paint34_linear_118_858" x1="70.4319" y1="6.87464" x2="70.4319" y2="15.002" gradientUnits="userSpaceOnUse">
<stop offset="0.0128" stop-color="#FED33C"/>
<stop offset="0.1633" stop-color="#FEC831"/>
<stop offset="0.708" stop-color="#FFA50E"/>
<stop offset="1" stop-color="#FF9800"/>
</linearGradient>
<linearGradient id="paint35_linear_118_858" x1="72.1859" y1="194.7" x2="117.936" y2="148.96" gradientUnits="userSpaceOnUse">
<stop stop-color="#995629"/>
<stop offset="0.21" stop-color="#692924"/>
<stop offset="0.83" stop-color="#AB4C48"/>
<stop offset="0.84" stop-color="#AB4D47"/>
<stop offset="0.94" stop-color="#B5732F"/>
<stop offset="1" stop-color="#BA8227"/>
</linearGradient>
<linearGradient id="paint36_linear_118_858" x1="72.9257" y1="191.89" x2="118.686" y2="146.14" gradientUnits="userSpaceOnUse">
<stop stop-color="#FFF7AE"/>
<stop offset="0.11" stop-color="#F2C550"/>
<stop offset="0.17" stop-color="#E4AF2C"/>
<stop offset="0.3" stop-color="#FFF7AE"/>
<stop offset="0.48" stop-color="#FFF7AE"/>
<stop offset="0.62" stop-color="#FFE17D"/>
<stop offset="0.71" stop-color="#E4B951"/>
<stop offset="0.72" stop-color="#E7C161"/>
<stop offset="0.79" stop-color="#F4E09F"/>
<stop offset="0.83" stop-color="#FBF3C5"/>
<stop offset="0.86" stop-color="#FFFBD4"/>
<stop offset="0.89" stop-color="#FCEFB9"/>
<stop offset="0.96" stop-color="#F5D374"/>
<stop offset="1" stop-color="#F2C550"/>
</linearGradient>
<linearGradient id="paint37_linear_118_858" x1="74.1955" y1="190.62" x2="117.405" y2="147.41" gradientUnits="userSpaceOnUse">
<stop stop-color="#E0B44B"/>
<stop offset="0.12" stop-color="#C48000"/>
<stop offset="0.38" stop-color="#F7E27F"/>
<stop offset="0.62" stop-color="#EAC450"/>
<stop offset="0.83" stop-color="#CC8A00"/>
<stop offset="0.94" stop-color="#D59D23"/>
<stop offset="1" stop-color="#D9A532"/>
</linearGradient>
<linearGradient id="paint38_linear_118_858" x1="79.2357" y1="150.4" x2="99.8257" y2="129.82" gradientUnits="userSpaceOnUse">
<stop stop-color="#C88D2A"/>
<stop offset="0.21" stop-color="#85150D"/>
<stop offset="0.83" stop-color="#AB221C"/>
<stop offset="0.84" stop-color="#AC241C"/>
<stop offset="0.91" stop-color="#C46225"/>
<stop offset="0.97" stop-color="#D3882B"/>
<stop offset="1" stop-color="#D9972E"/>
</linearGradient>
</defs>
</svg>
