<svg width="163" height="176" viewBox="0 0 163 176" fill="none" xmlns="http://www.w3.org/2000/svg">
<g style="mix-blend-mode:screen">
<g opacity="0.2">
<path d="M107.988 125.137C107.682 125.137 107.384 124.984 107.214 124.703C106.95 124.277 107.086 123.724 107.512 123.46C122.517 114.259 131.48 98.2744 131.48 80.6981C131.48 53.061 108.993 30.5735 81.3555 30.5735C53.7185 30.5735 31.2309 53.061 31.2309 80.6981C31.2309 98.283 40.1936 114.268 55.1995 123.46C55.6251 123.724 55.7613 124.277 55.4974 124.703C55.2335 125.128 54.6803 125.265 54.2547 125.001C46.8156 120.439 40.5851 114.029 36.2528 106.454C31.7842 98.6489 29.418 89.7373 29.418 80.6896C29.418 66.8157 34.8228 53.776 44.6281 43.9707C54.4335 34.1653 67.4732 28.7605 81.347 28.7605C95.2209 28.7605 108.261 34.1653 118.066 43.9707C127.871 53.776 133.276 66.8157 133.276 80.6896C133.276 89.7373 130.91 98.6489 126.441 106.454C122.109 114.021 115.878 120.439 108.439 125.001C108.295 125.094 108.133 125.137 107.971 125.137H107.988Z" fill="url(#paint0_linear_118_859)"/>
<path d="M107.989 131.163C105.657 131.163 103.384 129.989 102.082 127.852C100.082 124.592 101.103 120.328 104.371 118.328C117.581 110.233 125.463 96.1636 125.463 80.6981C125.463 56.3806 105.682 36.5997 81.3647 36.5997C57.0471 36.5997 37.2663 56.3806 37.2663 80.6981C37.2663 96.1636 45.148 110.233 58.3579 118.328C61.6179 120.328 62.6392 124.592 60.6475 127.852C58.6473 131.112 54.383 132.133 51.1231 130.142C42.8243 125.052 35.8789 117.902 31.0443 109.459C26.0566 100.743 23.418 90.8013 23.418 80.7066C23.418 72.8845 24.9501 65.3007 27.9717 58.151C30.8911 51.2481 35.0703 45.0517 40.39 39.7319C45.7098 34.4122 51.9062 30.233 58.809 27.3136C65.9588 24.292 73.5511 22.7599 81.3647 22.7599C89.1783 22.7599 96.7706 24.292 103.92 27.3136C110.823 30.233 117.02 34.4122 122.339 39.7319C127.659 45.0517 131.838 51.2481 134.758 58.151C137.779 65.3007 139.311 72.893 139.311 80.7066C139.311 90.8013 136.673 100.743 131.685 109.459C126.85 117.902 119.905 125.06 111.606 130.142C110.474 130.831 109.232 131.163 107.997 131.163H107.989Z" fill="url(#paint1_linear_118_859)"/>
<path d="M107.98 124.924C107.751 124.924 107.521 124.805 107.385 124.592C107.18 124.269 107.291 123.835 107.614 123.639C122.688 114.404 131.685 98.3511 131.685 80.6981C131.685 52.9504 109.104 30.3692 81.3562 30.3692C53.6085 30.3692 31.0273 52.9504 31.0273 80.6981C31.0273 98.3511 40.024 114.404 55.098 123.639C55.4214 123.843 55.5236 124.269 55.3278 124.592C55.1235 124.916 54.698 125.018 54.3745 124.822C46.961 120.277 40.7645 113.893 36.4492 106.352C31.9976 98.5809 29.6484 89.7034 29.6484 80.6896C29.6484 66.8753 35.0277 53.8867 44.799 44.1154C54.5703 34.3442 67.5589 28.9648 81.3732 28.9648C95.1875 28.9648 108.176 34.3442 117.947 44.1154C127.719 53.8867 133.098 66.8753 133.098 80.6896C133.098 89.7034 130.749 98.5724 126.297 106.352C121.982 113.893 115.777 120.277 108.372 124.822C108.261 124.89 108.134 124.924 108.006 124.924H107.98Z" fill="url(#paint2_linear_118_859)"/>
<path d="M107.979 124.694C107.826 124.694 107.673 124.618 107.588 124.473C107.451 124.252 107.519 123.971 107.741 123.835C122.883 114.557 131.922 98.4277 131.922 80.6896C131.922 52.8142 109.239 30.1309 81.3634 30.1309C53.488 30.1309 30.8047 52.8142 30.8047 80.6896C30.8047 98.4277 39.844 114.549 54.9861 123.835C55.2074 123.971 55.2755 124.252 55.1393 124.473C55.0031 124.694 54.7222 124.762 54.5009 124.626C47.1214 120.107 40.9505 113.749 36.6522 106.241C32.2176 98.5043 29.877 89.6693 29.877 80.6981C29.877 66.9434 35.2307 54.0144 44.9594 44.2942C54.6882 34.5654 67.6172 29.2117 81.3634 29.2117C95.1096 29.2117 108.047 34.5654 117.767 44.2942C127.496 54.0229 132.85 66.9519 132.85 80.6981C132.85 89.6693 130.509 98.5043 126.075 106.241C121.776 113.749 115.605 120.107 108.226 124.626C108.149 124.669 108.064 124.694 107.988 124.694H107.979Z" fill="url(#paint3_linear_118_859)"/>
</g>
<g opacity="0.4">
<path d="M110.346 129.41C110.015 129.41 109.691 129.24 109.504 128.942C109.223 128.482 109.368 127.869 109.827 127.588C126.169 117.57 135.924 100.173 135.924 81.0301C135.924 50.9418 111.444 26.4625 81.3561 26.4625C51.2677 26.4625 26.7884 50.9418 26.7884 81.0301C26.7884 100.173 36.5427 117.579 52.8849 127.588C53.3445 127.869 53.4892 128.474 53.2083 128.942C52.9274 129.401 52.3231 129.546 51.855 129.265C43.752 124.303 36.9768 117.315 32.2614 109.076C27.3928 100.573 24.8223 90.878 24.8223 81.0301C24.8223 65.9306 30.7038 51.7333 41.3773 41.0513C52.0593 30.3693 66.2566 24.4963 81.3561 24.4963C96.4556 24.4963 110.653 30.3778 121.335 41.0513C132.017 51.7333 137.89 65.9306 137.89 81.0301C137.89 90.878 135.319 100.581 130.451 109.076C125.735 117.315 118.952 124.303 110.857 129.265C110.695 129.367 110.517 129.41 110.346 129.41Z" fill="url(#paint4_linear_118_859)"/>
<path d="M110.355 135.972C107.818 135.972 105.342 134.695 103.92 132.372C101.741 128.823 102.856 124.184 106.406 122.005C120.79 113.195 129.37 97.8745 129.37 81.0301C129.37 54.5591 107.827 33.0164 81.356 33.0164C54.885 33.0164 33.3423 54.5591 33.3423 81.0301C33.3423 97.8745 41.9304 113.187 56.3065 122.005C59.8558 124.184 60.9708 128.823 58.7918 132.372C56.6129 135.921 51.9741 137.036 48.4247 134.857C39.3855 129.316 31.8272 121.528 26.567 112.336C21.1367 102.845 18.2598 92.0185 18.2598 81.0301C18.2598 72.5185 19.928 64.2538 23.222 56.4742C26.3968 48.9585 30.9505 42.2174 36.7384 36.421C42.5262 30.6246 49.2759 26.0794 56.7916 22.9046C64.5712 19.6106 72.8359 17.9424 81.3475 17.9424C89.859 17.9424 98.1238 19.6106 105.903 22.9046C113.419 26.0794 120.16 30.6331 125.957 36.421C131.744 42.2088 136.298 48.9585 139.473 56.4742C142.767 64.2538 144.435 72.5185 144.435 81.0301C144.435 92.0185 141.567 102.845 136.128 112.336C130.868 121.528 123.301 129.316 114.27 134.857C113.045 135.606 111.683 135.972 110.338 135.972H110.355Z" fill="url(#paint5_linear_118_859)"/>
<path d="M110.344 129.189C110.089 129.189 109.842 129.061 109.698 128.831C109.476 128.474 109.595 128.005 109.944 127.793C126.355 117.74 136.152 100.258 136.152 81.0386C136.152 50.8226 111.57 26.2412 81.3541 26.2412C51.138 26.2412 26.5651 50.8141 26.5651 81.0301C26.5651 100.249 36.3619 117.732 52.7722 127.784C53.1297 128.005 53.2404 128.465 53.0191 128.823C52.7978 129.18 52.3382 129.291 51.9807 129.069C43.9117 124.124 37.162 117.17 32.4637 108.957C27.6206 100.496 25.0586 90.8354 25.0586 81.0216C25.0586 65.9817 30.9145 51.844 41.554 41.2045C52.1849 30.5736 66.3312 24.7091 81.3711 24.7091C96.411 24.7091 110.549 30.5651 121.188 41.2045C131.819 51.8355 137.684 65.9817 137.684 81.0216C137.684 90.8354 135.122 100.496 130.279 108.957C125.58 117.17 118.83 124.116 110.762 129.069C110.642 129.146 110.506 129.18 110.37 129.18L110.344 129.189Z" fill="url(#paint6_linear_118_859)"/>
<path d="M110.343 128.933C110.173 128.933 110.011 128.848 109.909 128.695C109.764 128.457 109.841 128.15 110.079 128.005C126.566 117.902 136.405 100.343 136.405 81.0387C136.405 50.6865 111.713 25.9944 81.3611 25.9944C51.0089 25.9944 26.3084 50.6779 26.3084 81.0302C26.3084 100.343 36.1477 117.894 52.6346 127.997C52.8729 128.142 52.9495 128.457 52.8049 128.686C52.6602 128.925 52.3452 129.001 52.1154 128.857C44.0805 123.937 37.3649 117.009 32.6835 108.837C27.8575 100.411 25.3125 90.7929 25.3125 81.0302C25.3125 66.0583 31.1429 51.9802 41.7313 41.3918C52.3197 30.8034 66.3978 24.973 81.3697 24.973C96.3415 24.973 110.42 30.8034 121.008 41.3918C131.596 51.9802 137.427 66.0583 137.427 81.0302C137.427 90.7929 134.873 100.411 130.056 108.837C125.374 117.009 118.659 123.937 110.624 128.857C110.539 128.908 110.454 128.933 110.36 128.933H110.343Z" fill="url(#paint7_linear_118_859)"/>
</g>
<g opacity="0.6">
<path d="M112.911 134.049C112.553 134.049 112.196 133.87 112 133.538C111.693 133.036 111.847 132.372 112.357 132.065C130.146 121.162 140.76 102.224 140.76 81.3876C140.76 48.6351 114.119 21.9939 81.3667 21.9939C48.6142 21.9939 21.9645 48.6436 21.9645 81.3876C21.9645 102.224 32.587 121.171 50.3676 132.065C50.8698 132.372 51.0315 133.036 50.7251 133.538C50.4187 134.04 49.7548 134.202 49.2526 133.895C40.4346 128.491 33.0551 120.89 27.9226 111.919C22.6284 102.667 19.8281 92.1122 19.8281 81.3876C19.8281 64.9518 26.2288 49.4948 37.8556 37.8765C49.4824 26.2497 64.9309 19.849 81.3667 19.849C97.8026 19.849 113.26 26.2497 124.878 37.8765C136.496 49.5033 142.905 64.9518 142.905 81.3876C142.905 92.1122 140.105 102.667 134.811 111.919C129.678 120.89 122.299 128.491 113.481 133.895C113.311 134.006 113.115 134.057 112.919 134.057L112.911 134.049Z" fill="url(#paint8_linear_118_859)"/>
<path d="M112.92 141.19C110.163 141.19 107.464 139.794 105.915 137.275C103.549 133.41 104.758 128.363 108.622 125.988C124.275 116.396 133.62 99.7215 133.62 81.3961C133.62 52.576 110.18 29.1351 81.3595 29.1351C52.5393 29.1351 29.0985 52.576 29.0985 81.3961C29.0985 99.73 38.4442 116.396 54.097 125.988C57.9612 128.354 59.1698 133.41 56.8036 137.275C54.4374 141.139 49.3815 142.347 45.5173 139.981C35.6779 133.955 27.4558 125.478 21.719 115.468C15.8034 105.143 12.6797 93.3549 12.6797 81.3961C12.6797 72.127 14.4926 63.1388 18.076 54.6613C21.5317 46.4817 26.4854 39.1362 32.7925 32.8377C39.0996 26.5306 46.4365 21.5854 54.6162 18.1212C63.0852 14.5378 72.0819 12.7249 81.351 12.7249C90.6201 12.7249 99.6083 14.5378 108.086 18.1212C116.265 21.5769 123.611 26.5306 129.909 32.8377C136.216 39.1447 141.162 46.4817 144.626 54.6613C148.209 63.1303 150.022 72.127 150.022 81.3961C150.022 93.3549 146.899 105.143 140.983 115.468C135.255 125.478 127.024 133.955 117.185 139.981C115.848 140.798 114.367 141.19 112.903 141.19H112.92Z" fill="url(#paint9_linear_118_859)"/>
<path d="M112.91 133.802C112.629 133.802 112.365 133.666 112.203 133.41C111.965 133.019 112.084 132.517 112.476 132.278C130.333 121.332 140.998 102.309 140.998 81.3877C140.998 48.499 114.246 21.7472 81.3575 21.7472C48.4688 21.7472 21.717 48.5075 21.717 81.3877C21.717 102.309 32.3819 121.332 50.2392 132.278C50.6307 132.517 50.7499 133.019 50.5116 133.41C50.2732 133.802 49.7711 133.921 49.3795 133.683C40.5956 128.303 33.2501 120.728 28.1347 111.791C22.8575 102.582 20.0742 92.0612 20.0742 81.3877C20.0742 65.02 26.4494 49.6226 38.0251 38.0468C49.6008 26.4711 64.9897 20.0959 81.366 20.0959C97.7422 20.0959 113.131 26.4711 124.707 38.0468C136.283 49.6226 142.658 65.0115 142.658 81.3877C142.658 92.0697 139.866 102.582 134.597 111.791C129.482 120.728 122.136 128.295 113.352 133.683C113.216 133.768 113.072 133.802 112.927 133.802H112.91Z" fill="url(#paint10_linear_118_859)"/>
<path d="M112.91 133.53C112.722 133.53 112.544 133.436 112.442 133.266C112.28 133.01 112.365 132.67 112.62 132.508C130.563 121.511 141.27 102.403 141.27 81.3877C141.27 48.3458 114.391 21.4748 81.3573 21.4748C48.3239 21.4748 21.4444 48.3543 21.4444 81.3877C21.4444 102.403 32.1519 121.52 50.0943 132.508C50.3497 132.67 50.4348 133.002 50.2731 133.266C50.1113 133.521 49.7794 133.606 49.5155 133.444C40.7742 128.082 33.4542 120.549 28.3643 111.655C23.1127 102.479 20.3379 92.0186 20.3379 81.3877C20.3379 65.088 26.6875 49.7672 38.2122 38.2426C49.7368 26.7179 65.0576 20.3683 81.3573 20.3683C97.6569 20.3683 112.978 26.7179 124.502 38.2426C136.027 49.7672 142.377 65.088 142.377 81.3877C142.377 92.0186 139.602 102.488 134.35 111.655C129.26 120.549 121.94 128.082 113.199 133.444C113.105 133.495 113.012 133.53 112.91 133.53Z" fill="url(#paint11_linear_118_859)"/>
</g>
<g opacity="0.8">
<path d="M115.699 139.104C115.307 139.104 114.924 138.909 114.703 138.551C114.362 138.007 114.541 137.283 115.086 136.951C134.441 125.086 146 104.462 146 81.7876C146 46.1412 117.001 17.1423 81.3544 17.1423C45.708 17.1423 16.7091 46.1327 16.7091 81.7791C16.7091 104.454 28.2678 125.077 47.6231 136.943C48.1679 137.275 48.3466 137.998 48.0061 138.543C47.6742 139.087 46.9507 139.266 46.406 138.926C36.8049 133.044 28.7785 124.771 23.1864 115.008C17.4241 104.939 14.377 93.4485 14.377 81.7791C14.377 63.8878 21.3479 47.069 33.9961 34.4208C46.6443 21.7726 63.4631 14.8016 81.3544 14.8016C99.2458 14.8016 116.065 21.7726 128.713 34.4208C141.361 47.069 148.332 63.8878 148.332 81.7791C148.332 93.4485 145.285 104.939 139.522 115.008C133.93 124.771 125.904 133.044 116.303 138.926C116.116 139.045 115.903 139.096 115.699 139.096V139.104Z" fill="url(#paint12_linear_118_859)"/>
<path d="M115.705 146.867C112.7 146.867 109.764 145.352 108.078 142.603C105.499 138.398 106.819 132.9 111.023 130.321C128.064 119.877 138.235 101.73 138.235 81.7792C138.235 50.4141 112.717 24.8964 81.3521 24.8964C49.987 24.8964 24.4693 50.4141 24.4693 81.7792C24.4693 101.73 34.6406 119.877 51.6808 130.321C55.8855 132.9 57.2048 138.398 54.6258 142.603C52.0468 146.808 46.5483 148.127 42.3436 145.548C31.636 138.985 22.6819 129.759 16.4429 118.864C10.0081 107.62 6.60352 94.7933 6.60352 81.7792C6.60352 71.693 8.5782 61.9047 12.485 52.6781C16.2471 43.775 21.6349 35.7827 28.5038 28.9223C35.3641 22.062 43.3564 16.6742 52.2595 12.9036C61.4776 9.00529 71.2659 7.02209 81.3606 7.02209C91.4553 7.02209 101.235 8.99678 110.462 12.9036C119.365 16.6657 127.357 22.0535 134.217 28.9223C141.078 35.7827 146.466 43.775 150.236 52.6781C154.134 61.8961 156.118 71.6844 156.118 81.7792C156.118 94.8019 152.713 107.629 146.278 118.864C140.039 129.759 131.085 138.985 120.378 145.548C118.922 146.442 117.313 146.867 115.722 146.867H115.705Z" fill="url(#paint13_linear_118_859)"/>
<path d="M115.696 138.832C115.399 138.832 115.101 138.679 114.93 138.407C114.675 137.981 114.803 137.436 115.228 137.172C134.669 125.256 146.27 104.548 146.27 81.7791C146.27 45.9795 117.143 16.8614 81.3523 16.8614C45.5612 16.8614 16.4346 45.988 16.4346 81.7791C16.4346 104.548 28.0444 125.256 47.4763 137.172C47.9019 137.428 48.0295 137.981 47.7742 138.407C47.5188 138.832 46.9656 138.96 46.54 138.704C36.9815 132.848 28.9807 124.609 23.4141 114.881C17.6773 104.854 14.6387 93.4059 14.6387 81.7876C14.6387 63.9644 21.5756 47.2136 34.1812 34.6165C46.7783 22.0194 63.5376 15.074 81.3523 15.074C99.167 15.074 115.926 22.0109 128.523 34.6165C141.121 47.2136 148.066 63.9729 148.066 81.7876C148.066 93.4144 145.027 104.854 139.291 114.881C133.724 124.609 125.723 132.848 116.165 138.704C116.02 138.798 115.858 138.841 115.696 138.841V138.832Z" fill="url(#paint14_linear_118_859)"/>
<path d="M115.697 138.534C115.492 138.534 115.297 138.432 115.186 138.245C115.016 137.964 115.101 137.598 115.382 137.428C134.907 125.46 146.568 104.658 146.568 81.7792C146.568 45.8178 117.314 16.5636 81.3525 16.5636C45.3912 16.5636 16.1369 45.8263 16.1369 81.7792C16.1369 104.658 27.7978 125.46 47.3233 137.428C47.6042 137.598 47.6893 137.964 47.5191 138.245C47.3488 138.526 46.9828 138.611 46.702 138.441C37.186 132.61 29.2192 124.405 23.6782 114.727C17.9669 104.743 14.9453 93.3549 14.9453 81.7792C14.9453 64.0411 21.8567 47.3584 34.3942 34.8209C46.9403 22.2748 63.6144 15.3719 81.3525 15.3719C99.0906 15.3719 115.765 22.2833 128.311 34.8209C140.857 47.3669 147.76 64.0411 147.76 81.7792C147.76 93.3464 144.738 104.743 139.027 114.727C133.486 124.414 125.519 132.61 116.003 138.441C115.909 138.5 115.799 138.526 115.688 138.526L115.697 138.534Z" fill="url(#paint15_linear_118_859)"/>
</g>
<path d="M118.737 144.603C118.312 144.603 117.895 144.39 117.656 143.999C117.29 143.403 117.478 142.62 118.074 142.254C139.148 129.342 151.728 106.897 151.728 82.2133C151.728 43.4091 120.159 11.8482 81.3632 11.8482C42.5675 11.8482 10.9896 43.4091 10.9896 82.2133C10.9896 106.897 23.5697 129.342 44.6443 142.254C45.2401 142.62 45.4274 143.403 45.0614 143.999C44.6954 144.595 43.9123 144.782 43.3165 144.416C32.8643 138.015 24.1314 129.01 18.0457 118.379C11.7726 107.416 8.45312 94.9125 8.45312 82.2133C8.45312 62.7388 16.0369 44.4304 29.8086 30.6587C43.5803 16.887 61.8887 9.30322 81.3632 9.30322C100.838 9.30322 119.146 16.887 132.918 30.6587C146.689 44.4304 154.273 62.7388 154.273 82.2133C154.273 94.9125 150.954 107.425 144.681 118.379C138.595 129.01 129.854 138.015 119.41 144.416C119.206 144.543 118.976 144.603 118.746 144.603H118.737Z" fill="url(#paint16_linear_118_859)"/>
<path d="M118.745 153.055C115.476 153.055 112.285 151.404 110.446 148.408C107.637 143.828 109.076 137.845 113.655 135.036C132.202 123.673 143.267 103.918 143.267 82.2047C143.267 48.0648 115.493 20.2916 81.3535 20.2916C47.2136 20.2916 19.4404 48.0734 19.4404 82.2132C19.4404 103.935 30.514 123.682 49.0521 135.044C53.6314 137.853 55.0698 143.837 52.261 148.416C49.4522 152.995 43.4686 154.434 38.8893 151.625C27.237 144.484 17.4828 134.44 10.699 122.584C3.70253 110.344 0 96.385 0 82.2132C0 71.2333 2.15343 60.5768 6.4007 50.5417C10.4948 40.8555 16.3677 32.1567 23.8324 24.6836C31.297 17.2189 40.0043 11.3545 49.6905 7.25189C59.7256 3.00462 70.3821 0.851196 81.362 0.851196C92.3419 0.851196 102.998 3.00462 113.034 7.25189C122.72 11.346 131.419 17.2189 138.892 24.6836C146.356 32.1482 152.229 40.8555 156.323 50.5417C160.571 60.5768 162.724 71.2333 162.724 82.2132C162.724 96.385 159.022 110.344 152.017 122.584C145.224 134.44 135.479 144.484 123.826 151.625C122.243 152.595 120.49 153.055 118.753 153.055H118.745Z" fill="url(#paint17_linear_118_859)"/>
<path d="M118.736 144.305C118.404 144.305 118.09 144.143 117.902 143.837C117.621 143.377 117.766 142.782 118.226 142.492C139.385 129.529 152.017 106.982 152.017 82.1962C152.017 43.2303 120.32 11.5332 81.3536 11.5332C42.3877 11.5332 10.6991 43.2473 10.6991 82.2133C10.6991 106.999 23.3303 129.538 44.4901 142.509C44.9497 142.79 45.0944 143.394 44.8135 143.854C44.5326 144.314 43.9283 144.458 43.4687 144.177C33.059 137.802 24.3602 128.831 18.3 118.243C12.0525 107.331 8.75 94.8699 8.75 82.2218C8.75 62.8239 16.2998 44.5921 30.0204 30.88C43.7325 17.1679 61.9728 9.60962 81.3621 9.60962C100.751 9.60962 118.992 17.1594 132.704 30.88C146.416 44.5921 153.974 62.8324 153.974 82.2218C153.974 94.8699 150.672 107.331 144.424 118.243C138.364 128.831 129.657 137.794 119.256 144.177C119.094 144.271 118.924 144.322 118.745 144.322L118.736 144.305Z" fill="url(#paint18_linear_118_859)"/>
<path d="M118.737 143.982C118.516 143.982 118.303 143.871 118.184 143.675C117.997 143.369 118.09 142.969 118.397 142.782C139.65 129.759 152.341 107.11 152.341 82.2133C152.341 43.0686 120.499 11.2268 81.3544 11.2268C42.2097 11.2268 10.3765 43.0686 10.3765 82.2133C10.3765 107.11 23.0672 129.759 44.3206 142.782C44.627 142.969 44.7206 143.369 44.5334 143.675C44.3461 143.982 43.9461 144.075 43.6397 143.888C33.2811 137.538 24.6163 128.61 18.5816 118.072C12.3597 107.203 9.07422 94.8019 9.07422 82.2133C9.07422 62.909 16.5899 44.7539 30.2425 31.1013C43.895 17.4488 62.0502 9.92456 81.3544 9.92456C100.659 9.92456 118.814 17.4403 132.466 31.0928C146.119 44.7454 153.635 62.9005 153.635 82.2048C153.635 94.8019 150.349 107.203 144.127 118.064C138.092 128.601 129.428 137.53 119.069 143.88C118.967 143.948 118.848 143.973 118.729 143.973L118.737 143.982Z" fill="url(#paint19_linear_118_859)"/>
</g>
<path d="M155.2 154.39C155.2 161.639 122.363 167.516 81.8559 167.516C41.3486 167.516 8.51172 161.639 8.51172 154.39V124.748H155.215V154.39H155.2Z" fill="#254BD9"/>
<path style="mix-blend-mode:hard-light" opacity="0.5" d="M111.828 165.512C118.127 162.287 112.175 144.354 115.927 141.807C124.502 141.28 137.552 138.838 142.57 137.829C140.084 141.822 142.766 158.354 140.626 161.247C134.131 163.447 122.181 165.029 111.828 165.512Z" fill="url(#paint20_linear_118_859)"/>
<path style="mix-blend-mode:hard-light" opacity="0.5" d="M51.8633 165.512C45.5641 162.287 51.5166 144.354 47.7643 141.807C39.1896 141.28 26.1393 138.838 21.1211 137.829C23.6076 141.822 20.9252 158.354 23.0651 161.247C29.5601 163.447 41.5104 165.029 51.8633 165.512Z" fill="url(#paint21_linear_118_859)"/>
<path d="M155.202 137.181C155.202 142.847 122.365 147.428 81.8578 147.428C41.3505 147.428 8.51367 142.847 8.51367 137.181V117.997H155.217V137.181H155.202Z" fill="url(#paint22_linear_118_859)"/>
<path style="mix-blend-mode:hard-light" opacity="0.5" d="M111.83 146.132C118.129 143.661 112.177 128.259 115.929 126.3C124.504 125.893 137.554 124.025 142.572 123.256C140.086 126.315 142.768 140.647 140.628 142.862C134.133 144.55 122.183 145.77 111.83 146.132Z" fill="url(#paint23_linear_118_859)"/>
<path d="M155.202 117.937C155.202 123.181 122.365 127.431 81.8578 127.431C41.3505 127.431 8.51367 123.181 8.51367 117.937C8.51367 112.692 41.3505 109.799 81.8578 109.799C122.365 109.799 155.202 112.692 155.202 117.937Z" fill="url(#paint24_linear_118_859)"/>
<path style="mix-blend-mode:hard-light" opacity="0.5" d="M51.8652 146.132C45.5661 143.661 51.5186 128.259 47.7663 126.3C39.1916 125.893 26.1413 124.025 21.123 123.256C23.6095 126.315 20.9271 140.647 23.067 142.862C29.5621 144.55 41.5123 145.77 51.8652 146.132Z" fill="url(#paint25_linear_118_859)"/>
<path d="M145.575 122.638C137.663 124.552 118.464 126.722 103.289 127.024C117.666 126.451 135.538 124.417 145.575 122.638Z" fill="url(#paint26_linear_118_859)"/>
<path d="M18.127 122.638C26.0385 124.552 45.2373 126.722 60.4125 127.024C46.036 126.451 28.1634 124.417 18.127 122.638Z" fill="url(#paint27_linear_118_859)"/>
<g style="mix-blend-mode:screen" opacity="0.3">
<g style="mix-blend-mode:color-dodge">
<path d="M142.35 123.733C151.982 123.733 159.791 104.443 159.791 80.6471C159.791 56.8516 151.982 37.5615 142.35 37.5615C132.718 37.5615 124.91 56.8516 124.91 80.6471C124.91 104.443 132.718 123.733 142.35 123.733Z" fill="#000144"/>
</g>
</g>
<g style="mix-blend-mode:screen" opacity="0.3">
<g style="mix-blend-mode:color-dodge">
<path d="M20.8464 123.733C30.4784 123.733 38.2866 104.443 38.2866 80.6471C38.2866 56.8516 30.4784 37.5615 20.8464 37.5615C11.2145 37.5615 3.40625 56.8516 3.40625 80.6471C3.40625 104.443 11.2145 123.733 20.8464 123.733Z" fill="#0C0D61"/>
</g>
</g>
<path d="M70.8117 7.72827L82.6095 20.2451V29.0079L65.8047 23.891L70.8117 7.72827Z" fill="url(#paint28_linear_118_859)"/>
<path d="M94.4052 7.72827L82.6074 20.2451V29.0079L99.4123 23.891L94.4052 7.72827Z" fill="url(#paint29_linear_118_859)"/>
<path d="M97.3621 29.0078H67.8359V32.1393H97.3621V29.0078Z" fill="url(#paint30_linear_118_859)"/>
<path d="M91.5517 19.1531L82.606 3.6582L73.6513 19.1531L59.9883 9.75871L67.8384 29.0078H82.606H97.3646L105.215 9.75871L91.5517 19.1531Z" fill="url(#paint31_linear_118_859)"/>
<path d="M86.0581 3.65827C86.0581 1.75411 84.5098 0.210938 82.5994 0.210938C80.6889 0.210938 79.1406 1.75411 79.1406 3.65827C79.1406 5.56242 80.6889 7.1056 82.5994 7.1056C84.5098 7.09657 86.0581 5.55339 86.0581 3.65827Z" fill="url(#paint32_linear_118_859)"/>
<path d="M108.675 9.75885C108.675 7.8547 107.127 6.31152 105.217 6.31152C103.306 6.31152 101.758 7.8547 101.758 9.75885C101.758 11.663 103.306 13.2062 105.217 13.2062C107.127 13.2062 108.675 11.663 108.675 9.75885Z" fill="url(#paint33_linear_118_859)"/>
<path d="M63.4468 9.75873C63.4468 7.85458 61.8985 6.3114 59.9881 6.3114C58.0776 6.3114 56.5293 7.85458 56.5293 9.75873C56.5293 11.6629 58.0776 13.2061 59.9881 13.2061C61.8985 13.2061 63.4468 11.6629 63.4468 9.75873Z" fill="url(#paint34_linear_118_859)"/>
<path d="M82.6074 16.3376L79.6738 20.9942L82.6074 25.6508L85.532 20.9942L82.6074 16.3376Z" fill="#FFC107"/>
<path d="M82.6088 16.3376L82.1289 20.9942L82.6088 25.6508L85.5333 20.9942L82.6088 16.3376Z" fill="#C79606"/>
<g clip-path="url(#clip0_118_859)">
<path d="M58.3105 174.38V165.473C58.3105 165.053 58.4752 164.653 58.7736 164.346C60.5331 162.532 66.8096 156.095 67.2623 155.644C75.2675 147.403 81.1941 141.099 84.5485 134.99C86.5035 131.013 86.7504 128.102 85.3305 125.858C84.0443 124.054 81.6263 122.967 78.8687 122.967C74.3414 122.967 70.7504 124.279 66.1408 126.247C65.9761 126.319 65.5749 126.493 65.1427 126.678C64.299 127.036 63.3215 126.637 62.9819 125.786L58.897 115.362C58.8147 115.157 58.7839 114.931 58.7839 114.726C58.7839 114.122 58.8044 111.703 58.8044 110.893C58.8044 110.37 60.4302 112.861 60.6359 112.738C66.1511 109.489 72.016 107.91 78.5909 107.91C90.506 107.91 102.678 120.169 102.678 125.868V129.527C102.678 141.95 93.315 151.616 83.9105 160.482H100.127C101.022 160.482 101.752 161.209 101.752 162.101V174.391C101.752 175.282 101.022 176.01 100.127 176.01H59.9363C59.0411 176 58.3105 175.272 58.3105 174.38Z" fill="url(#paint35_linear_118_859)"/>
<path d="M58.3105 170.721V161.814C58.3105 161.394 58.4752 160.994 58.7736 160.687C60.5331 158.872 66.8096 152.436 67.2623 151.985C75.2675 143.744 81.1941 137.44 84.5485 131.331C86.5035 127.354 86.7504 124.443 85.3305 122.199C84.0443 120.395 81.6263 119.308 78.8687 119.308C74.3414 119.308 70.7504 120.62 66.1408 122.588C65.9761 122.66 65.5749 122.834 65.1427 123.019C64.299 123.377 63.3215 122.978 62.9819 122.127L58.897 111.703C58.6192 110.985 58.8868 110.165 59.5453 109.745C59.9877 109.468 60.4302 109.192 60.6359 109.069C66.1511 105.819 72.016 104.241 78.5909 104.241C91.1646 104.241 102.678 112.082 102.678 125.858C102.678 138.281 93.315 147.946 83.9105 156.812H100.127C101.022 156.812 101.752 157.54 101.752 158.432V170.721C101.752 171.613 101.022 172.341 100.127 172.341H59.9363C59.0411 172.341 58.3105 171.613 58.3105 170.721Z" fill="url(#paint36_linear_118_859)"/>
<path d="M78.5608 118.119C73.2103 118.263 69.8251 119.698 64.2688 122.086C61.9743 116.223 61.3672 114.665 59.9061 110.944C63.7955 108.454 69.8148 105.461 77.7993 105.45C78.0463 105.45 78.3035 105.45 78.5608 105.45C87.5948 105.655 93.6759 108.761 98.1106 114.819C100.436 118.355 101.455 122.096 101.455 125.858C101.455 130.573 99.901 135.308 97.3801 139.726C95.0752 143.334 89.3543 150.324 82.3061 156.607C81.7505 157.099 82.1003 158.012 82.8514 158.012H100.529V171.101H59.5254C59.5254 165.699 59.5254 162.358 59.5254 161.609C62.5505 158.35 65.8739 155.09 68.117 152.815C76.3074 144.379 82.2135 138.076 85.6193 131.864C87.2038 128.646 88.4283 124.782 86.3395 121.502C84.6932 119.165 81.627 117.996 78.5608 118.078V118.119Z" fill="url(#paint37_linear_118_859)"/>
<path d="M77.7995 105.932C78.0464 105.932 78.3037 105.932 78.5609 105.932C87.595 106.137 93.676 109.243 98.1108 115.3C100.395 118.765 101.403 122.424 101.455 126.104C101.455 126.022 101.455 125.94 101.455 125.868C101.455 122.106 100.436 118.365 98.1108 114.829C93.6863 108.782 87.595 105.676 78.5609 105.461C78.3037 105.461 78.0567 105.461 77.7995 105.461C69.8149 105.461 63.8059 108.454 59.9062 110.954C59.9577 111.088 60.0091 111.211 60.0606 111.334C63.9603 108.853 69.9178 105.942 77.7995 105.932Z" fill="url(#paint38_linear_118_859)"/>
<path d="M85.6193 132.377C86.6379 130.316 87.5022 127.99 87.4405 125.724C87.3788 127.836 86.5659 129.988 85.6193 131.905C82.2135 138.117 76.3177 144.42 68.117 152.856C65.8739 155.131 62.5505 158.391 59.5254 161.65V162.122C62.5505 158.862 65.8739 155.603 68.117 153.327C76.3074 144.892 82.2135 138.588 85.6193 132.377Z" fill="url(#paint39_linear_118_859)"/>
<path d="M82.0704 157.458C81.916 157.94 82.2556 158.514 82.8421 158.514H100.519V158.042H82.8421C82.4511 158.042 82.163 157.786 82.0704 157.468V157.458Z" fill="url(#paint40_linear_118_859)"/>
<g style="mix-blend-mode:color-dodge" opacity="0.6">
<path d="M73.4867 105.737C68.5066 105.737 64.4629 105.399 64.4629 104.989C64.4629 104.579 68.5066 104.241 73.4867 104.241C78.4667 104.241 82.5105 104.579 82.5105 104.989C82.5105 105.399 78.4667 105.737 73.4867 105.737Z" fill="white"/>
<path d="M74.2386 104.989C74.2386 109.95 73.899 113.978 73.4875 113.978C73.0759 113.978 72.7363 109.95 72.7363 104.989C72.7363 100.028 73.0759 96 73.4875 96C73.899 96 74.2386 100.028 74.2386 104.989Z" fill="white"/>
<path d="M74.0123 105.512C70.4934 109.017 67.3963 111.631 67.0979 111.344C66.8098 111.057 69.4233 107.972 72.9525 104.456C76.4715 100.951 79.5686 98.337 79.867 98.624C80.1551 98.911 77.5416 101.996 74.0123 105.512Z" fill="white"/>
<path d="M72.9525 105.512C76.4715 109.017 79.5686 111.631 79.867 111.344C80.1551 111.057 77.5416 107.972 74.0123 104.456C70.4934 100.951 67.3963 98.337 67.0979 98.624C66.8098 98.911 69.4233 101.996 72.9525 105.512Z" fill="white"/>
</g>
<g style="mix-blend-mode:color-dodge" opacity="0.6">
<path d="M93.3976 158.524C86.267 158.524 80.4844 158.042 80.4844 157.458C80.4844 156.874 86.267 156.392 93.3976 156.392C100.528 156.392 106.311 156.874 106.311 157.458C106.311 158.042 100.528 158.524 93.3976 158.524Z" fill="white"/>
<path d="M94.4683 157.458C94.4683 164.561 93.9847 170.322 93.3982 170.322C92.8117 170.322 92.3281 164.561 92.3281 157.458C92.3281 150.355 92.8117 144.594 93.3982 144.594C93.9847 144.594 94.4683 150.355 94.4683 157.458Z" fill="white"/>
<path d="M94.1588 158.216C89.117 163.239 84.6926 166.97 84.2707 166.55C83.8488 166.129 87.5942 161.722 92.636 156.7C97.6778 151.677 102.102 147.946 102.524 148.366C102.946 148.787 99.2006 153.194 94.1588 158.216Z" fill="white"/>
<path d="M92.6457 158.216C97.6875 163.239 102.112 166.97 102.534 166.55C102.956 166.129 99.2104 161.722 94.1686 156.7C89.1268 151.677 84.7023 147.946 84.2805 148.366C83.8586 148.787 87.6039 153.194 92.6457 158.216Z" fill="white"/>
</g>
</g>
<defs>
<linearGradient id="paint0_linear_118_859" x1="81.3555" y1="125.137" x2="81.3555" y2="28.769" gradientUnits="userSpaceOnUse">
<stop offset="0.18" stop-color="#8400A8"/>
<stop offset="0.67" stop-color="#3C3CF0"/>
<stop offset="0.73" stop-color="#3B33E0"/>
<stop offset="0.85" stop-color="#3B1EB7"/>
<stop offset="1" stop-color="#3B007D"/>
</linearGradient>
<linearGradient id="paint1_linear_118_859" x1="81.3562" y1="131.163" x2="81.3562" y2="22.7514" gradientUnits="userSpaceOnUse">
<stop offset="0.19" stop-color="#FF00F2"/>
<stop offset="0.67" stop-color="#6161FF"/>
<stop offset="0.74" stop-color="#515AFE"/>
<stop offset="0.88" stop-color="#294AFC"/>
<stop offset="1" stop-color="#003AFA"/>
</linearGradient>
<linearGradient id="paint2_linear_118_859" x1="81.3562" y1="124.924" x2="81.3562" y2="28.9819" gradientUnits="userSpaceOnUse">
<stop offset="0.19" stop-color="#BF16FF"/>
<stop offset="0.67" stop-color="#6B6BFF"/>
<stop offset="0.74" stop-color="#5B73FE"/>
<stop offset="0.89" stop-color="#3389FB"/>
<stop offset="1" stop-color="#0F9EFA"/>
</linearGradient>
<linearGradient id="paint3_linear_118_859" x1="81.3549" y1="124.694" x2="81.3549" y2="29.2117" gradientUnits="userSpaceOnUse">
<stop offset="0.18" stop-color="#EE92FF"/>
<stop offset="0.49" stop-color="#F9DAFF"/>
<stop offset="0.66" stop-color="white"/>
<stop offset="0.71" stop-color="#EFF8FF"/>
<stop offset="0.82" stop-color="#C6E9FF"/>
<stop offset="0.97" stop-color="#85CFFF"/>
<stop offset="0.99" stop-color="#7ACBFF"/>
</linearGradient>
<linearGradient id="paint4_linear_118_859" x1="81.3561" y1="129.41" x2="81.3561" y2="24.4963" gradientUnits="userSpaceOnUse">
<stop offset="0.18" stop-color="#8400A8"/>
<stop offset="0.67" stop-color="#3C3CF0"/>
<stop offset="0.73" stop-color="#3B33E0"/>
<stop offset="0.85" stop-color="#3B1EB7"/>
<stop offset="1" stop-color="#3B007D"/>
</linearGradient>
<linearGradient id="paint5_linear_118_859" x1="0.00246123" y1="135.972" x2="0.853618" y2="17.9424" gradientUnits="userSpaceOnUse">
<stop offset="0.19" stop-color="#FF00F2"/>
<stop offset="0.67" stop-color="#6161FF"/>
<stop offset="0.74" stop-color="#515AFE"/>
<stop offset="0.88" stop-color="#294AFC"/>
<stop offset="1" stop-color="#003AFA"/>
</linearGradient>
<linearGradient id="paint6_linear_118_859" x1="0.000557259" y1="129.189" x2="81.3541" y2="24.7261" gradientUnits="userSpaceOnUse">
<stop offset="0.19" stop-color="#BF16FF"/>
<stop offset="0.67" stop-color="#6B6BFF"/>
<stop offset="0.74" stop-color="#5B73FE"/>
<stop offset="0.89" stop-color="#3389FB"/>
<stop offset="1" stop-color="#0F9EFA"/>
</linearGradient>
<linearGradient id="paint7_linear_118_859" x1="-0.000886034" y1="128.933" x2="81.3526" y2="24.973" gradientUnits="userSpaceOnUse">
<stop offset="0.18" stop-color="#EE92FF"/>
<stop offset="0.49" stop-color="#F9DAFF"/>
<stop offset="0.66" stop-color="white"/>
<stop offset="0.71" stop-color="#EFF8FF"/>
<stop offset="0.82" stop-color="#C6E9FF"/>
<stop offset="0.97" stop-color="#85CFFF"/>
<stop offset="0.99" stop-color="#7ACBFF"/>
</linearGradient>
<linearGradient id="paint8_linear_118_859" x1="81.3582" y1="134.049" x2="81.3582" y2="19.8575" gradientUnits="userSpaceOnUse">
<stop offset="0.18" stop-color="#8400A8"/>
<stop offset="0.67" stop-color="#3C3CF0"/>
<stop offset="0.73" stop-color="#3B33E0"/>
<stop offset="0.85" stop-color="#3B1EB7"/>
<stop offset="1" stop-color="#3B007D"/>
</linearGradient>
<linearGradient id="paint9_linear_118_859" x1="81.3595" y1="141.19" x2="81.3595" y2="12.7163" gradientUnits="userSpaceOnUse">
<stop offset="0.19" stop-color="#FF00F2"/>
<stop offset="0.67" stop-color="#6161FF"/>
<stop offset="0.74" stop-color="#515AFE"/>
<stop offset="0.88" stop-color="#294AFC"/>
<stop offset="1" stop-color="#003AFA"/>
</linearGradient>
<linearGradient id="paint10_linear_118_859" x1="0.00394713" y1="133.802" x2="81.3575" y2="20.1045" gradientUnits="userSpaceOnUse">
<stop offset="0.19" stop-color="#BF16FF"/>
<stop offset="0.67" stop-color="#6B6BFF"/>
<stop offset="0.74" stop-color="#5B73FE"/>
<stop offset="0.89" stop-color="#3389FB"/>
<stop offset="1" stop-color="#0F9EFA"/>
</linearGradient>
<linearGradient id="paint11_linear_118_859" x1="0.00376466" y1="133.53" x2="81.3573" y2="20.3768" gradientUnits="userSpaceOnUse">
<stop offset="0.18" stop-color="#EE92FF"/>
<stop offset="0.49" stop-color="#F9DAFF"/>
<stop offset="0.66" stop-color="white"/>
<stop offset="0.71" stop-color="#EFF8FF"/>
<stop offset="0.82" stop-color="#C6E9FF"/>
<stop offset="0.97" stop-color="#85CFFF"/>
<stop offset="0.99" stop-color="#7ACBFF"/>
</linearGradient>
<linearGradient id="paint12_linear_118_859" x1="81.3544" y1="139.104" x2="81.3544" y2="14.8016" gradientUnits="userSpaceOnUse">
<stop offset="0.18" stop-color="#8400A8"/>
<stop offset="0.67" stop-color="#3C3CF0"/>
<stop offset="0.73" stop-color="#3B33E0"/>
<stop offset="0.85" stop-color="#3B1EB7"/>
<stop offset="1" stop-color="#3B007D"/>
</linearGradient>
<linearGradient id="paint13_linear_118_859" x1="81.3521" y1="146.867" x2="81.3521" y2="7.03911" gradientUnits="userSpaceOnUse">
<stop offset="0.19" stop-color="#FF00F2"/>
<stop offset="0.67" stop-color="#6161FF"/>
<stop offset="0.74" stop-color="#515AFE"/>
<stop offset="0.88" stop-color="#294AFC"/>
<stop offset="1" stop-color="#003AFA"/>
</linearGradient>
<linearGradient id="paint14_linear_118_859" x1="81.3523" y1="138.832" x2="81.3523" y2="15.074" gradientUnits="userSpaceOnUse">
<stop offset="0.19" stop-color="#BF16FF"/>
<stop offset="0.67" stop-color="#6B6BFF"/>
<stop offset="0.74" stop-color="#5B73FE"/>
<stop offset="0.89" stop-color="#3389FB"/>
<stop offset="1" stop-color="#0F9EFA"/>
</linearGradient>
<linearGradient id="paint15_linear_118_859" x1="-0.000988373" y1="138.534" x2="81.3525" y2="15.3719" gradientUnits="userSpaceOnUse">
<stop offset="0.18" stop-color="#EE92FF"/>
<stop offset="0.49" stop-color="#F9DAFF"/>
<stop offset="0.66" stop-color="white"/>
<stop offset="0.71" stop-color="#EFF8FF"/>
<stop offset="0.82" stop-color="#C6E9FF"/>
<stop offset="0.97" stop-color="#85CFFF"/>
<stop offset="0.99" stop-color="#7ACBFF"/>
</linearGradient>
<linearGradient id="paint16_linear_118_859" x1="81.3547" y1="144.603" x2="81.3547" y2="9.30322" gradientUnits="userSpaceOnUse">
<stop offset="0.18" stop-color="#8400A8"/>
<stop offset="0.67" stop-color="#3C3CF0"/>
<stop offset="0.73" stop-color="#3B33E0"/>
<stop offset="0.85" stop-color="#3B1EB7"/>
<stop offset="1" stop-color="#3B007D"/>
</linearGradient>
<linearGradient id="paint17_linear_118_859" x1="1.16526e-06" y1="153.055" x2="0.851158" y2="0.851193" gradientUnits="userSpaceOnUse">
<stop offset="0.19" stop-color="#FF00F2"/>
<stop offset="0.67" stop-color="#6161FF"/>
<stop offset="0.74" stop-color="#515AFE"/>
<stop offset="0.88" stop-color="#294AFC"/>
<stop offset="1" stop-color="#003AFA"/>
</linearGradient>
<linearGradient id="paint18_linear_118_859" x1="0.000114735" y1="144.305" x2="81.3536" y2="9.6011" gradientUnits="userSpaceOnUse">
<stop offset="0.19" stop-color="#BF16FF"/>
<stop offset="0.67" stop-color="#6B6BFF"/>
<stop offset="0.74" stop-color="#5B73FE"/>
<stop offset="0.89" stop-color="#3389FB"/>
<stop offset="1" stop-color="#0F9EFA"/>
</linearGradient>
<linearGradient id="paint19_linear_118_859" x1="0.000895785" y1="143.982" x2="81.3544" y2="9.92455" gradientUnits="userSpaceOnUse">
<stop offset="0.18" stop-color="#EE92FF"/>
<stop offset="0.49" stop-color="#F9DAFF"/>
<stop offset="0.66" stop-color="white"/>
<stop offset="0.71" stop-color="#EFF8FF"/>
<stop offset="0.82" stop-color="#C6E9FF"/>
<stop offset="0.97" stop-color="#85CFFF"/>
<stop offset="0.99" stop-color="#7ACBFF"/>
</linearGradient>
<linearGradient id="paint20_linear_118_859" x1="111.828" y1="151.678" x2="142.57" y2="151.678" gradientUnits="userSpaceOnUse">
<stop stop-color="#737373"/>
<stop offset="0.07" stop-color="#827F81"/>
<stop offset="0.21" stop-color="#AC9EA7"/>
<stop offset="0.28" stop-color="#C2AFBC"/>
<stop offset="0.31" stop-color="#C4B2BF"/>
<stop offset="0.34" stop-color="#CDBDC8"/>
<stop offset="0.37" stop-color="#DBD0D8"/>
<stop offset="0.4" stop-color="#EFEAEE"/>
<stop offset="0.42" stop-color="white"/>
<stop offset="0.52" stop-color="#FBFBFB"/>
<stop offset="0.62" stop-color="#F0F0F0"/>
<stop offset="0.72" stop-color="#DDDDDD"/>
<stop offset="0.81" stop-color="#C2C2C2"/>
<stop offset="0.9" stop-color="#A0A0A0"/>
<stop offset="0.99" stop-color="#777777"/>
<stop offset="1" stop-color="#737373"/>
</linearGradient>
<linearGradient id="paint21_linear_118_859" x1="51.8633" y1="151.678" x2="21.1211" y2="151.678" gradientUnits="userSpaceOnUse">
<stop stop-color="#5E6873"/>
<stop offset="0.07" stop-color="#6D7782"/>
<stop offset="0.21" stop-color="#97A0AA"/>
<stop offset="0.28" stop-color="#AFB8C2"/>
<stop offset="0.31" stop-color="#B2BBC4"/>
<stop offset="0.34" stop-color="#BDC5CD"/>
<stop offset="0.37" stop-color="#D0D5DB"/>
<stop offset="0.4" stop-color="#EAEDEF"/>
<stop offset="0.42" stop-color="white"/>
<stop offset="0.52" stop-color="#FBFBFB"/>
<stop offset="0.61" stop-color="#F0F1F2"/>
<stop offset="0.7" stop-color="#DDDFE1"/>
<stop offset="0.78" stop-color="#C2C6CA"/>
<stop offset="0.87" stop-color="#A0A6AC"/>
<stop offset="0.95" stop-color="#777F89"/>
<stop offset="1" stop-color="#5E6873"/>
</linearGradient>
<linearGradient id="paint22_linear_118_859" x1="393.8" y1="133.559" x2="395.865" y2="133.559" gradientUnits="userSpaceOnUse">
<stop stop-color="#254BD9"/>
<stop offset="0.2" stop-color="#1A3363"/>
<stop offset="0.23" stop-color="#192959"/>
<stop offset="0.31" stop-color="#171848"/>
<stop offset="0.39" stop-color="#170E3E"/>
<stop offset="0.5" stop-color="#170B3B"/>
<stop offset="0.54" stop-color="#1D0B40"/>
<stop offset="0.59" stop-color="#2F0E50"/>
<stop offset="0.65" stop-color="#4C136A"/>
<stop offset="0.71" stop-color="#75198E"/>
<stop offset="0.78" stop-color="#A821BC"/>
<stop offset="0.81" stop-color="#BE25CF"/>
<stop offset="0.84" stop-color="#B624CC"/>
<stop offset="0.87" stop-color="#A022C4"/>
<stop offset="0.92" stop-color="#7C1FB6"/>
<stop offset="0.98" stop-color="#4B1BA4"/>
<stop offset="1" stop-color="#331A9C"/>
</linearGradient>
<linearGradient id="paint23_linear_118_859" x1="-62.1947" y1="134.694" x2="-60.6877" y2="134.694" gradientUnits="userSpaceOnUse">
<stop stop-color="#737373"/>
<stop offset="0.07" stop-color="#827F81"/>
<stop offset="0.21" stop-color="#AC9EA7"/>
<stop offset="0.28" stop-color="#C2AFBC"/>
<stop offset="0.31" stop-color="#C4B2BF"/>
<stop offset="0.34" stop-color="#CDBDC8"/>
<stop offset="0.37" stop-color="#DBD0D8"/>
<stop offset="0.4" stop-color="#EFEAEE"/>
<stop offset="0.42" stop-color="white"/>
<stop offset="0.52" stop-color="#FBFBFB"/>
<stop offset="0.62" stop-color="#F0F0F0"/>
<stop offset="0.72" stop-color="#DDDDDD"/>
<stop offset="0.81" stop-color="#C2C2C2"/>
<stop offset="0.9" stop-color="#A0A0A0"/>
<stop offset="0.99" stop-color="#777777"/>
<stop offset="1" stop-color="#737373"/>
</linearGradient>
<linearGradient id="paint24_linear_118_859" x1="9.73266" y1="118.961" x2="155.965" y2="118.961" gradientUnits="userSpaceOnUse">
<stop stop-color="#E0B44B"/>
<stop offset="0.12" stop-color="#C48000"/>
<stop offset="0.38" stop-color="#F7E27F"/>
<stop offset="0.62" stop-color="#EAC450"/>
<stop offset="0.83" stop-color="#CC8A00"/>
<stop offset="0.94" stop-color="#D59D23"/>
<stop offset="1" stop-color="#D9A532"/>
</linearGradient>
<linearGradient id="paint25_linear_118_859" x1="226.643" y1="134.694" x2="225.136" y2="134.694" gradientUnits="userSpaceOnUse">
<stop stop-color="#5E6873"/>
<stop offset="0.07" stop-color="#6D7782"/>
<stop offset="0.21" stop-color="#97A0AA"/>
<stop offset="0.28" stop-color="#AFB8C2"/>
<stop offset="0.31" stop-color="#B2BBC4"/>
<stop offset="0.34" stop-color="#BDC5CD"/>
<stop offset="0.37" stop-color="#D0D5DB"/>
<stop offset="0.4" stop-color="#EAEDEF"/>
<stop offset="0.42" stop-color="white"/>
<stop offset="0.52" stop-color="#FBFBFB"/>
<stop offset="0.61" stop-color="#F0F1F2"/>
<stop offset="0.7" stop-color="#DDDFE1"/>
<stop offset="0.78" stop-color="#C2C6CA"/>
<stop offset="0.87" stop-color="#A0A6AC"/>
<stop offset="0.95" stop-color="#777F89"/>
<stop offset="1" stop-color="#5E6873"/>
</linearGradient>
<linearGradient id="paint26_linear_118_859" x1="103.289" y1="124.824" x2="145.575" y2="124.824" gradientUnits="userSpaceOnUse">
<stop stop-color="#AA87C5"/>
<stop offset="0.05" stop-color="#C09BD9"/>
<stop offset="0.11" stop-color="#D2ABEA"/>
<stop offset="0.18" stop-color="#DEB7F6"/>
<stop offset="0.28" stop-color="#E5BEFD"/>
<stop offset="0.5" stop-color="#E8C0FF"/>
<stop offset="0.63" stop-color="#E4BCFB"/>
<stop offset="0.76" stop-color="#D9B2F1"/>
<stop offset="0.88" stop-color="#C6A1DF"/>
<stop offset="0.99" stop-color="#AC88C6"/>
<stop offset="1" stop-color="#AA87C5"/>
</linearGradient>
<linearGradient id="paint27_linear_118_859" x1="18.127" y1="-96.9411" x2="60.4125" y2="-96.9411" gradientUnits="userSpaceOnUse">
<stop stop-color="#AA87C5"/>
<stop offset="0.05" stop-color="#C09BD9"/>
<stop offset="0.11" stop-color="#D2ABEA"/>
<stop offset="0.18" stop-color="#DEB7F6"/>
<stop offset="0.28" stop-color="#E5BEFD"/>
<stop offset="0.5" stop-color="#E8C0FF"/>
<stop offset="0.63" stop-color="#E4BCFB"/>
<stop offset="0.76" stop-color="#D9B2F1"/>
<stop offset="0.88" stop-color="#C6A1DF"/>
<stop offset="0.99" stop-color="#AC88C6"/>
<stop offset="1" stop-color="#AA87C5"/>
</linearGradient>
<linearGradient id="paint28_linear_118_859" x1="74.2045" y1="-2.41166" x2="74.2045" y2="22.7693" gradientUnits="userSpaceOnUse">
<stop offset="0.0128" stop-color="#FEFEFE"/>
<stop offset="0.1633" stop-color="#BEBEBE"/>
<stop offset="0.708" stop-color="#BFBFBF"/>
<stop offset="1" stop-color="#8C8C8C"/>
</linearGradient>
<linearGradient id="paint29_linear_118_859" x1="91.0063" y1="-2.41166" x2="91.0063" y2="22.7693" gradientUnits="userSpaceOnUse">
<stop offset="0.0128" stop-color="white"/>
<stop offset="0.1633" stop-color="white"/>
<stop offset="0.708" stop-color="#A4A4A4"/>
<stop offset="1" stop-color="#9A9A9A"/>
</linearGradient>
<linearGradient id="paint30_linear_118_859" x1="82.6005" y1="28.1836" x2="82.6005" y2="32.5684" gradientUnits="userSpaceOnUse">
<stop offset="0.0128" stop-color="#BCBCBC"/>
<stop offset="0.1633" stop-color="#7A7A7A"/>
<stop offset="0.708" stop-color="#DADADA"/>
<stop offset="1" stop-color="#B9B9B9"/>
</linearGradient>
<linearGradient id="paint31_linear_118_859" x1="82.6029" y1="5.28088" x2="82.6029" y2="32.5998" gradientUnits="userSpaceOnUse">
<stop offset="0.0128" stop-color="#BABABA"/>
<stop offset="0.1633" stop-color="white"/>
<stop offset="0.708" stop-color="#DADADA"/>
<stop offset="1" stop-color="#949494"/>
</linearGradient>
<linearGradient id="paint32_linear_118_859" x1="82.6054" y1="-0.138759" x2="82.6054" y2="6.50484" gradientUnits="userSpaceOnUse">
<stop offset="0.0128" stop-color="#CBCBCB"/>
<stop offset="0.1633" stop-color="#B8B8B8"/>
<stop offset="0.708" stop-color="#CCCCCC"/>
<stop offset="1" stop-color="#ECECEC"/>
</linearGradient>
<linearGradient id="paint33_linear_118_859" x1="105.219" y1="6.33002" x2="105.219" y2="13.7515" gradientUnits="userSpaceOnUse">
<stop offset="0.0128" stop-color="#F8F8F8"/>
<stop offset="0.1633" stop-color="#E7E7E7"/>
<stop offset="0.708" stop-color="#ACACAC"/>
<stop offset="1" stop-color="#B9B9B9"/>
</linearGradient>
<linearGradient id="paint34_linear_118_859" x1="59.9881" y1="5.98021" x2="59.9881" y2="12.8009" gradientUnits="userSpaceOnUse">
<stop offset="0.0128" stop-color="#EAEAEA"/>
<stop offset="0.1633" stop-color="#AFAFAF"/>
<stop offset="0.708" stop-color="#C0C0C0"/>
<stop offset="1" stop-color="#E1E1E1"/>
</linearGradient>
<linearGradient id="paint35_linear_118_859" x1="53.1761" y1="169.942" x2="101.75" y2="121.181" gradientUnits="userSpaceOnUse">
<stop stop-color="#80797C"/>
<stop offset="0.21" stop-color="#29181F"/>
<stop offset="0.83" stop-color="#5E4650"/>
<stop offset="0.87" stop-color="#6C555E"/>
<stop offset="0.95" stop-color="#907B83"/>
<stop offset="1" stop-color="#9E8A92"/>
</linearGradient>
<linearGradient id="paint36_linear_118_859" x1="53.989" y1="167.093" x2="103.249" y2="117.642" gradientUnits="userSpaceOnUse">
<stop stop-color="#FCFCFC"/>
<stop offset="0.11" stop-color="#C7C7C7"/>
<stop offset="0.17" stop-color="#5E5E5E"/>
<stop offset="0.3" stop-color="#FCFCFC"/>
<stop offset="0.48" stop-color="#FCFCFC"/>
<stop offset="0.62" stop-color="#FCFCFC"/>
<stop offset="0.71" stop-color="#828282"/>
<stop offset="0.72" stop-color="#8C8C8C"/>
<stop offset="0.78" stop-color="#CACACA"/>
<stop offset="0.83" stop-color="#F0F0F0"/>
<stop offset="0.86" stop-color="white"/>
<stop offset="0.93" stop-color="#E4E4E4"/>
<stop offset="1" stop-color="#C7C7C7"/>
</linearGradient>
<linearGradient id="paint37_linear_118_859" x1="54.7717" y1="166.386" x2="102.351" y2="118.623" gradientUnits="userSpaceOnUse">
<stop stop-color="#D3D3D3"/>
<stop offset="0.12" stop-color="#454545"/>
<stop offset="0.38" stop-color="#EAEAEA"/>
<stop offset="0.62" stop-color="#DDDDDD"/>
<stop offset="0.83" stop-color="#6B6B6B"/>
<stop offset="0.9" stop-color="#979797"/>
<stop offset="0.97" stop-color="#BDBDBD"/>
<stop offset="1" stop-color="#CCCCCC"/>
</linearGradient>
<linearGradient id="paint38_linear_118_859" x1="73.9821" y1="125.202" x2="91.3965" y2="107.72" gradientUnits="userSpaceOnUse">
<stop stop-color="#666666"/>
<stop offset="0.12" stop-color="#3D3D3D"/>
<stop offset="0.38" stop-color="#333333"/>
<stop offset="0.62" stop-color="#8F8F8F"/>
<stop offset="0.83" stop-color="#404040"/>
<stop offset="0.91" stop-color="#4F4F4F"/>
<stop offset="1" stop-color="#5E5E5E"/>
</linearGradient>
<linearGradient id="paint39_linear_118_859" x1="57.3749" y1="159.969" x2="89.4772" y2="127.743" gradientUnits="userSpaceOnUse">
<stop stop-color="#666666"/>
<stop offset="0.12" stop-color="#3D3D3D"/>
<stop offset="0.38" stop-color="#333333"/>
<stop offset="0.62" stop-color="#8F8F8F"/>
<stop offset="0.83" stop-color="#404040"/>
<stop offset="0.91" stop-color="#4F4F4F"/>
<stop offset="1" stop-color="#5E5E5E"/>
</linearGradient>
<linearGradient id="paint40_linear_118_859" x1="86.6389" y1="162.624" x2="95.8535" y2="153.384" gradientUnits="userSpaceOnUse">
<stop stop-color="#666666"/>
<stop offset="0.12" stop-color="#3D3D3D"/>
<stop offset="0.38" stop-color="#333333"/>
<stop offset="0.62" stop-color="#8F8F8F"/>
<stop offset="0.83" stop-color="#404040"/>
<stop offset="0.91" stop-color="#4F4F4F"/>
<stop offset="1" stop-color="#5E5E5E"/>
</linearGradient>
<clipPath id="clip0_118_859">
<rect width="48" height="80" fill="white" transform="translate(58.3105 96)"/>
</clipPath>
</defs>
</svg>
