<svg width="159" height="173" viewBox="0 0 159 173" fill="none" xmlns="http://www.w3.org/2000/svg">
<g style="mix-blend-mode:screen">
<g opacity="0.2">
<path d="M105.231 123.583C104.934 123.583 104.644 123.434 104.479 123.161C104.222 122.748 104.355 122.21 104.768 121.954C119.348 113.014 128.056 97.4834 128.056 80.4062C128.056 53.5541 106.207 31.7052 79.3551 31.7052C52.5029 31.7052 30.654 53.5541 30.654 80.4062C30.654 97.4917 39.3622 113.022 53.9419 121.954C54.3554 122.21 54.4877 122.748 54.2313 123.161C53.975 123.575 53.4374 123.707 53.0239 123.451C45.7961 119.018 39.7426 112.791 35.5332 105.431C31.1916 97.8473 28.8926 89.1888 28.8926 80.3979C28.8926 66.9181 34.1439 54.2487 43.6708 44.7219C53.1976 35.1951 65.867 29.9437 79.3468 29.9437C92.8266 29.9437 105.496 35.1951 115.023 44.7219C124.55 54.2487 129.801 66.9181 129.801 80.3979C129.801 89.1888 127.502 97.8473 123.16 105.431C118.951 112.783 112.897 119.018 105.67 123.451C105.529 123.542 105.372 123.583 105.215 123.583H105.231Z" fill="url(#paint0_linear_118_860)"/>
<path d="M105.231 129.438C102.966 129.438 100.758 128.297 99.4922 126.221C97.5488 123.054 98.5412 118.911 101.717 116.967C114.552 109.103 122.209 95.4325 122.209 80.4062C122.209 56.7793 102.99 37.5603 79.3635 37.5603C55.7366 37.5603 36.5175 56.7793 36.5175 80.4062C36.5175 95.4325 44.1754 109.103 57.0101 116.967C60.1775 118.911 61.1699 123.054 59.2347 126.221C57.2913 129.388 53.1481 130.381 49.9808 128.446C41.9177 123.5 35.1695 116.554 30.4723 108.35C25.6261 99.8817 23.0625 90.2225 23.0625 80.4145C23.0625 72.8145 24.5511 65.4461 27.4869 58.4995C30.3234 51.7926 34.3839 45.7722 39.5525 40.6036C44.7212 35.4349 50.7416 31.3744 57.4484 28.5379C64.3951 25.6021 71.7718 24.1135 79.3635 24.1135C86.9552 24.1135 94.3319 25.6021 101.279 28.5379C107.985 31.3744 114.006 35.4349 119.174 40.6036C124.343 45.7722 128.404 51.7926 131.24 58.4995C134.176 65.4461 135.664 72.8228 135.664 80.4145C135.664 90.2225 133.101 99.8817 128.255 108.35C123.557 116.554 116.809 123.509 108.746 128.446C107.646 129.116 106.439 129.438 105.24 129.438H105.231Z" fill="url(#paint1_linear_118_860)"/>
<path d="M105.224 123.376C105.001 123.376 104.778 123.261 104.646 123.054C104.447 122.74 104.555 122.318 104.869 122.128C119.515 113.155 128.256 97.5579 128.256 80.4063C128.256 53.4467 106.316 31.5069 79.3564 31.5069C52.3967 31.5069 30.4569 53.4467 30.4569 80.4063C30.4569 97.5579 39.1981 113.155 53.844 122.128C54.1582 122.326 54.2575 122.74 54.0672 123.054C53.8688 123.368 53.4553 123.467 53.141 123.277C45.938 118.861 39.9176 112.659 35.7248 105.332C31.3997 97.7812 29.1172 89.1558 29.1172 80.3981C29.1172 66.9761 34.3437 54.3564 43.8375 44.8626C53.3312 35.3689 65.951 30.1423 79.3729 30.1423C92.7948 30.1423 105.415 35.3689 114.908 44.8626C124.402 54.3564 129.629 66.9761 129.629 80.3981C129.629 89.1558 127.346 97.773 123.021 105.332C118.828 112.659 112.8 118.861 105.605 123.277C105.497 123.343 105.373 123.376 105.249 123.376H105.224Z" fill="url(#paint2_linear_118_860)"/>
<path d="M105.222 123.153C105.073 123.153 104.924 123.079 104.841 122.938C104.709 122.723 104.775 122.45 104.99 122.318C119.702 113.304 128.485 97.6323 128.485 80.398C128.485 53.3143 106.446 31.2752 79.3621 31.2752C52.2784 31.2752 30.2393 53.3143 30.2393 80.398C30.2393 97.6323 39.0219 113.295 53.7339 122.318C53.9489 122.45 54.0151 122.723 53.8827 122.938C53.7504 123.153 53.4775 123.219 53.2625 123.087C46.0926 118.696 40.0969 112.518 35.9207 105.224C31.6121 97.7067 29.3379 89.1227 29.3379 80.4063C29.3379 67.0422 34.5396 54.4804 43.992 45.0362C53.4444 35.5838 66.0063 30.3821 79.3621 30.3821C92.7178 30.3821 105.288 35.5838 114.732 45.0362C124.185 54.4886 129.386 67.0505 129.386 80.4063C129.386 89.1227 127.112 97.7067 122.803 105.224C118.627 112.518 112.632 118.696 105.462 123.087C105.387 123.128 105.305 123.153 105.23 123.153H105.222Z" fill="url(#paint3_linear_118_860)"/>
</g>
<g opacity="0.4">
<path d="M107.523 127.735C107.2 127.735 106.886 127.569 106.704 127.28C106.431 126.833 106.572 126.238 107.018 125.965C122.897 116.231 132.374 99.3277 132.374 80.7289C132.374 51.495 108.59 27.711 79.3559 27.711C50.1221 27.711 26.3381 51.495 26.3381 80.7289C26.3381 99.3277 35.8153 116.239 51.6934 125.965C52.1399 126.238 52.2805 126.825 52.0076 127.28C51.7347 127.726 51.1475 127.867 50.6927 127.594C42.8198 122.773 36.237 115.983 31.6556 107.978C26.9252 99.7164 24.4277 90.297 24.4277 80.7289C24.4277 66.0582 30.1422 52.2641 40.5125 41.8855C50.8912 31.5068 64.6852 25.8007 79.3559 25.8007C94.0266 25.8007 107.821 31.5151 118.199 41.8855C128.578 52.2641 134.284 66.0582 134.284 80.7289C134.284 90.297 131.787 99.7246 127.056 107.978C122.475 115.983 115.884 122.773 108.019 127.594C107.862 127.693 107.688 127.735 107.523 127.735Z" fill="url(#paint4_linear_118_860)"/>
<path d="M107.53 134.111C105.066 134.111 102.659 132.87 101.278 130.612C99.1612 127.164 100.245 122.657 103.693 120.54C117.669 111.98 126.005 97.0948 126.005 80.7288C126.005 55.0097 105.074 34.0787 79.355 34.0787C53.6358 34.0787 32.7049 55.0097 32.7049 80.7288C32.7049 97.0948 41.0492 111.972 55.0169 120.54C58.4654 122.657 59.5488 127.164 57.4317 130.612C55.3146 134.061 50.8076 135.144 47.359 133.027C38.5765 127.644 31.2329 120.077 26.1221 111.145C20.846 101.924 18.0508 91.4052 18.0508 80.7288C18.0508 72.459 19.6717 64.429 22.8721 56.8704C25.9567 49.5681 30.3811 43.0184 36.0046 37.3867C41.6281 31.7549 48.186 27.3388 55.4883 24.2542C63.0469 21.0537 71.0769 19.4329 79.3467 19.4329C87.6166 19.4329 95.6466 21.0537 103.205 24.2542C110.507 27.3388 117.057 31.7632 122.689 37.3867C128.312 43.0101 132.737 49.5681 135.821 56.8704C139.022 64.429 140.643 72.459 140.643 80.7288C140.643 91.4052 137.856 101.924 132.571 111.145C127.461 120.077 120.109 127.644 111.334 133.027C110.144 133.755 108.82 134.111 107.514 134.111H107.53Z" fill="url(#paint5_linear_118_860)"/>
<path d="M107.522 127.519C107.274 127.519 107.034 127.395 106.893 127.172C106.678 126.825 106.794 126.37 107.133 126.163C123.077 116.397 132.596 99.4103 132.596 80.737C132.596 51.3791 108.713 27.4959 79.3548 27.4959C49.997 27.4959 26.122 51.3709 26.122 80.7288C26.122 99.402 35.6405 116.388 51.5848 126.155C51.9321 126.37 52.0396 126.816 51.8246 127.164C51.6096 127.511 51.163 127.619 50.8157 127.404C42.9759 122.599 36.4179 115.842 31.853 107.862C27.1474 99.6419 24.6582 90.2556 24.6582 80.7205C24.6582 66.1077 30.3478 52.3715 40.6851 42.0342C51.0141 31.7052 64.7586 26.0073 79.3714 26.0073C93.9842 26.0073 107.72 31.697 118.058 42.0342C128.387 52.3633 134.085 66.1077 134.085 80.7205C134.085 90.2556 131.595 99.6419 126.89 107.862C122.325 115.842 115.767 122.591 107.927 127.404C107.811 127.478 107.679 127.511 107.547 127.511L107.522 127.519Z" fill="url(#paint6_linear_118_860)"/>
<path d="M107.52 127.271C107.354 127.271 107.197 127.189 107.098 127.04C106.958 126.808 107.032 126.511 107.263 126.37C123.282 116.554 132.842 99.4931 132.842 80.7371C132.842 51.2469 108.851 27.2562 79.3611 27.2562C49.8709 27.2562 25.8719 51.2387 25.8719 80.7289C25.8719 99.4931 35.4318 116.545 51.4504 126.362C51.682 126.502 51.7564 126.808 51.6158 127.032C51.4753 127.263 51.1693 127.338 50.946 127.197C43.1393 122.417 36.6144 115.685 32.066 107.746C27.377 99.5593 24.9043 90.2144 24.9043 80.7289C24.9043 66.1822 30.5691 52.504 40.8568 42.2163C51.1445 31.9286 64.8228 26.2638 79.3694 26.2638C93.916 26.2638 107.594 31.9286 117.882 42.2163C128.17 52.504 133.834 66.1822 133.834 80.7289C133.834 90.2144 131.354 99.5593 126.673 107.746C122.124 115.685 115.599 122.417 107.793 127.197C107.71 127.247 107.627 127.271 107.536 127.271H107.52Z" fill="url(#paint7_linear_118_860)"/>
</g>
<g opacity="0.6">
<path d="M110.013 132.242C109.666 132.242 109.318 132.068 109.128 131.745C108.83 131.258 108.979 130.613 109.476 130.315C126.759 119.721 137.072 101.321 137.072 81.0762C137.072 49.254 111.187 23.3694 79.3651 23.3694C47.5428 23.3694 21.6499 49.2622 21.6499 81.0762C21.6499 101.321 31.9707 119.729 49.2464 130.315C49.7343 130.613 49.8914 131.258 49.5937 131.745C49.296 132.233 48.6509 132.391 48.163 132.093C39.5955 126.841 32.4255 119.457 27.4388 110.74C22.295 101.751 19.5742 91.4962 19.5742 81.0762C19.5742 65.1072 25.7931 50.0892 37.0897 38.8009C48.3863 27.5043 63.396 21.2854 79.3651 21.2854C95.3341 21.2854 110.352 27.5043 121.64 38.8009C132.929 50.0975 139.156 65.1072 139.156 81.0762C139.156 91.4962 136.435 101.751 131.291 110.74C126.305 119.457 119.135 126.841 110.567 132.093C110.402 132.2 110.212 132.25 110.021 132.25L110.013 132.242Z" fill="url(#paint8_linear_118_860)"/>
<path d="M110.023 139.18C107.343 139.18 104.722 137.824 103.217 135.376C100.918 131.621 102.092 126.717 105.846 124.41C121.055 115.09 130.135 98.8894 130.135 81.0845C130.135 53.0828 107.36 30.3077 79.3581 30.3077C51.3565 30.3077 28.5814 53.0828 28.5814 81.0845C28.5814 98.8977 37.6617 115.09 52.8699 124.41C56.6244 126.709 57.7987 131.621 55.4997 135.376C53.2007 139.13 48.2884 140.305 44.5339 138.006C34.974 132.151 26.9853 123.914 21.4115 114.189C15.6639 104.157 12.6289 92.7036 12.6289 81.0845C12.6289 72.0786 14.3904 63.3457 17.872 55.109C21.2295 47.1617 26.0426 40.0248 32.1705 33.9051C38.2984 27.7772 45.427 22.9724 53.3743 19.6066C61.6028 16.125 70.344 14.3635 79.3499 14.3635C88.3557 14.3635 97.0886 16.125 105.325 19.6066C113.273 22.9641 120.41 27.7772 126.529 33.9051C132.657 40.0331 137.462 47.1617 140.828 55.109C144.309 63.3374 146.071 72.0786 146.071 81.0845C146.071 92.7036 143.036 104.157 137.288 114.189C131.723 123.914 123.726 132.151 114.166 138.006C112.867 138.8 111.429 139.18 110.006 139.18H110.023Z" fill="url(#paint9_linear_118_860)"/>
<path d="M110.013 132.002C109.741 132.002 109.484 131.869 109.327 131.621C109.096 131.241 109.211 130.753 109.592 130.521C126.942 119.886 137.304 101.403 137.304 81.0762C137.304 49.1216 111.312 23.1295 79.3572 23.1295C47.4026 23.1295 21.4105 49.1298 21.4105 81.0762C21.4105 101.403 31.7726 119.886 49.1227 130.521C49.5031 130.753 49.6189 131.241 49.3874 131.621C49.1558 132.002 48.6679 132.118 48.2875 131.886C39.753 126.659 32.6161 119.299 27.646 110.616C22.5187 101.668 19.8145 91.4465 19.8145 81.0762C19.8145 65.1733 26.0086 50.2132 37.2555 38.9662C48.5025 27.7192 63.4543 21.5251 79.3655 21.5251C95.2766 21.5251 110.228 27.7192 121.475 38.9662C132.722 50.2132 138.916 65.165 138.916 81.0762C138.916 91.4548 136.204 101.668 131.085 110.616C126.115 119.299 118.978 126.651 110.443 131.886C110.311 131.969 110.171 132.002 110.03 132.002H110.013Z" fill="url(#paint10_linear_118_860)"/>
<path d="M110.013 131.737C109.831 131.737 109.657 131.646 109.558 131.481C109.401 131.233 109.484 130.902 109.732 130.745C127.165 120.06 137.568 101.494 137.568 81.0762C137.568 48.9727 111.452 22.8649 79.3567 22.8649C47.2615 22.8649 21.1454 48.981 21.1454 81.0762C21.1454 101.494 31.5488 120.068 48.9816 130.745C49.2297 130.902 49.3124 131.224 49.1553 131.481C48.9982 131.729 48.6756 131.812 48.4193 131.654C39.9262 126.444 32.8141 119.126 27.8688 110.484C22.7663 101.569 20.0703 91.4052 20.0703 81.0762C20.0703 65.2395 26.2396 50.3538 37.4369 39.1564C48.6343 27.9591 63.52 21.7898 79.3567 21.7898C95.1934 21.7898 110.079 27.9591 121.276 39.1564C132.474 50.3538 138.643 65.2395 138.643 81.0762C138.643 91.4052 135.947 101.577 130.845 110.484C125.899 119.126 118.787 126.444 110.294 131.654C110.203 131.704 110.112 131.737 110.013 131.737Z" fill="url(#paint11_linear_118_860)"/>
</g>
<g opacity="0.8">
<path d="M112.723 137.154C112.343 137.154 111.971 136.964 111.756 136.616C111.425 136.087 111.599 135.384 112.128 135.061C130.933 123.533 142.164 103.496 142.164 81.4648C142.164 46.8307 113.989 18.6554 79.3546 18.6554C44.7205 18.6554 16.5452 46.8225 16.5452 81.4565C16.5452 103.487 27.7757 123.525 46.5812 135.053C47.1105 135.376 47.2842 136.079 46.9534 136.608C46.6309 137.137 45.9279 137.311 45.3987 136.98C36.0703 131.266 28.2718 123.227 22.8386 113.742C17.2399 103.959 14.2793 92.7944 14.2793 81.4565C14.2793 64.0733 21.0523 47.7321 33.3412 35.4432C45.6302 23.1542 61.9714 16.3812 79.3546 16.3812C96.7377 16.3812 113.079 23.1542 125.368 35.4432C137.657 47.7321 144.43 64.0733 144.43 81.4565C144.43 92.7944 141.469 103.959 135.871 113.742C130.437 123.227 122.639 131.266 113.31 136.98C113.129 137.096 112.922 137.145 112.723 137.145V137.154Z" fill="url(#paint12_linear_118_860)"/>
<path d="M112.729 144.696C109.81 144.696 106.957 143.224 105.319 140.553C102.814 136.467 104.096 131.125 108.181 128.619C124.737 118.472 134.619 100.841 134.619 81.4565C134.619 50.9822 109.826 26.1893 79.3522 26.1893C48.8779 26.1893 24.0849 50.9822 24.0849 81.4565C24.0849 100.841 33.9674 118.472 50.5236 128.619C54.6089 131.125 55.8907 136.467 53.3849 140.553C50.8792 144.638 45.5369 145.92 41.4516 143.414C31.0481 137.038 22.3483 128.074 16.2865 117.488C10.0345 106.564 6.72656 94.1011 6.72656 81.4565C6.72656 71.6568 8.64516 62.1465 12.441 53.182C16.0963 44.5317 21.3311 36.7664 28.0048 30.1009C34.6703 23.4354 42.4357 18.2006 51.0859 14.5371C60.0421 10.7495 69.5524 8.82263 79.3604 8.82263C89.1685 8.82263 98.6705 10.7412 107.635 14.5371C116.285 18.1923 124.051 23.4271 130.716 30.1009C137.382 36.7664 142.616 44.5317 146.28 53.182C150.067 62.1382 151.994 71.6485 151.994 81.4565C151.994 94.1094 148.686 106.572 142.434 117.488C136.373 128.074 127.673 137.038 117.269 143.414C115.855 144.282 114.292 144.696 112.746 144.696H112.729Z" fill="url(#paint13_linear_118_860)"/>
<path d="M112.721 136.889C112.431 136.889 112.142 136.74 111.977 136.476C111.728 136.062 111.853 135.533 112.266 135.277C131.154 123.699 142.426 103.578 142.426 81.4565C142.426 46.6736 114.127 18.3825 79.3521 18.3825C44.5775 18.3825 16.2781 46.6819 16.2781 81.4565C16.2781 103.578 27.5582 123.699 46.4382 135.277C46.8517 135.525 46.9757 136.062 46.7276 136.476C46.4795 136.889 45.942 137.013 45.5285 136.765C36.2415 131.075 28.4679 123.07 23.0594 113.618C17.4855 103.876 14.5332 92.7531 14.5332 81.4648C14.5332 64.1478 21.2731 47.8727 33.5207 35.6334C45.7601 23.3941 62.0434 16.6459 79.3521 16.6459C96.6609 16.6459 112.944 23.3858 125.183 35.6334C137.423 47.8727 144.171 64.156 144.171 81.4648C144.171 92.7614 141.219 103.876 135.645 113.618C130.236 123.07 122.463 131.075 113.176 136.765C113.035 136.856 112.878 136.897 112.721 136.897V136.889Z" fill="url(#paint14_linear_118_860)"/>
<path d="M112.722 136.6C112.523 136.6 112.333 136.5 112.226 136.319C112.06 136.046 112.143 135.69 112.416 135.525C131.387 123.897 142.717 103.686 142.717 81.4565C142.717 46.5165 114.293 18.0931 79.3532 18.0931C44.4132 18.0931 15.9898 46.5247 15.9898 81.4565C15.9898 103.686 27.3195 123.897 46.2905 135.525C46.5634 135.69 46.6461 136.046 46.4807 136.319C46.3153 136.591 45.9597 136.674 45.6868 136.509C36.4411 130.844 28.7005 122.872 23.3169 113.469C17.7678 103.768 14.832 92.7035 14.832 81.4565C14.832 64.2222 21.5471 48.0133 33.7286 35.8319C45.9183 23.6421 62.1189 16.9353 79.3532 16.9353C96.5875 16.9353 112.788 23.6504 124.978 35.8319C137.168 48.0216 143.874 64.2222 143.874 81.4565C143.874 92.6952 140.939 103.768 135.39 113.469C130.006 122.88 122.265 130.844 113.02 136.509C112.929 136.567 112.821 136.591 112.714 136.591L112.722 136.6Z" fill="url(#paint15_linear_118_860)"/>
</g>
<path d="M115.676 142.496C115.262 142.496 114.857 142.289 114.625 141.909C114.27 141.33 114.452 140.569 115.031 140.214C135.507 127.668 147.729 105.861 147.729 81.8783C147.729 44.1761 117.057 13.5116 79.3628 13.5116C41.6689 13.5116 10.9878 44.1761 10.9878 81.8783C10.9878 105.861 23.2106 127.668 43.6867 140.214C44.2656 140.569 44.4476 141.33 44.092 141.909C43.7364 142.488 42.9755 142.67 42.3966 142.314C32.2413 136.095 23.7565 127.346 17.8435 117.017C11.7487 106.365 8.52344 94.2169 8.52344 81.8783C8.52344 62.9569 15.8919 45.1685 29.2724 31.7879C42.653 18.4074 60.4414 11.0389 79.3628 11.0389C98.2841 11.0389 116.073 18.4074 129.453 31.7879C142.834 45.1685 150.202 62.9569 150.202 81.8783C150.202 94.2169 146.977 106.373 140.882 117.017C134.969 127.346 126.476 136.095 116.329 142.314C116.13 142.438 115.907 142.496 115.684 142.496H115.676Z" fill="url(#paint16_linear_118_860)"/>
<path d="M115.683 150.708C112.507 150.708 109.406 149.104 107.62 146.193C104.891 141.744 106.288 135.93 110.738 133.201C128.757 122.161 139.508 102.966 139.508 81.87C139.508 48.6998 112.524 21.7153 79.3535 21.7153C46.1833 21.7153 19.1988 48.708 19.1988 81.8783C19.1988 102.983 29.9579 122.169 47.9696 133.209C52.4187 135.938 53.8163 141.752 51.0873 146.201C48.3582 150.65 42.5445 152.048 38.0954 149.319C26.774 142.38 17.2968 132.622 10.7057 121.102C3.90792 109.21 0.310547 95.6476 0.310547 81.8783C0.310547 71.2102 2.40281 60.8564 6.52946 51.1063C10.5072 41.6952 16.2134 33.2434 23.4661 25.9825C30.7187 18.7299 39.1787 13.032 48.5898 9.04594C58.3399 4.91929 68.6937 2.82703 79.3618 2.82703C90.0299 2.82703 100.384 4.91929 110.134 9.04594C119.545 13.0237 127.997 18.7299 135.258 25.9825C142.51 33.2352 148.216 41.6952 152.194 51.1063C156.321 60.8564 158.413 71.2102 158.413 81.8783C158.413 95.6476 154.816 109.21 148.01 121.102C141.41 132.622 131.941 142.38 120.62 149.319C119.082 150.261 117.378 150.708 115.691 150.708H115.683Z" fill="url(#paint17_linear_118_860)"/>
<path d="M115.675 142.207C115.353 142.207 115.047 142.05 114.865 141.752C114.592 141.305 114.732 140.726 115.179 140.445C135.738 127.85 148.01 105.943 148.01 81.8617C148.01 44.0025 117.213 13.2057 79.3541 13.2057C41.4949 13.2057 10.7063 44.019 10.7063 81.8783C10.7063 105.96 22.9787 127.859 43.5375 140.462C43.9841 140.735 44.1247 141.322 43.8518 141.768C43.5789 142.215 42.9917 142.356 42.5451 142.083C32.4311 135.889 23.9794 127.172 18.0912 116.884C12.0212 106.283 8.8125 94.1755 8.8125 81.8866C8.8125 63.0396 16.1478 45.3257 29.4788 32.003C42.8015 18.6803 60.5237 11.3367 79.3624 11.3367C98.2011 11.3367 115.923 18.672 129.246 32.003C142.569 45.3257 149.912 63.0479 149.912 81.8866C149.912 94.1755 146.704 106.283 140.634 116.884C134.745 127.172 126.285 135.88 116.18 142.083C116.023 142.174 115.857 142.223 115.683 142.223L115.675 142.207Z" fill="url(#paint18_linear_118_860)"/>
<path d="M115.675 141.892C115.46 141.892 115.254 141.785 115.138 141.595C114.956 141.297 115.047 140.908 115.345 140.726C135.994 128.073 148.325 106.067 148.325 81.8782C148.325 43.8453 117.387 12.9079 79.3543 12.9079C41.3214 12.9079 10.3922 43.8453 10.3922 81.8782C10.3922 106.067 22.7225 128.073 43.3723 140.726C43.67 140.908 43.761 141.297 43.579 141.595C43.3971 141.892 43.0084 141.983 42.7107 141.801C32.6463 135.632 24.2277 126.957 18.3643 116.719C12.3191 106.158 9.12695 94.1093 9.12695 81.8782C9.12695 63.1222 16.4292 45.4827 29.694 32.2179C42.9588 18.9531 60.5984 11.6426 79.3543 11.6426C98.1103 11.6426 115.75 18.9448 129.015 32.2096C142.279 45.4744 149.582 63.114 149.582 81.8699C149.582 94.1093 146.39 106.158 140.344 116.711C134.481 126.949 126.062 135.624 115.998 141.793C115.899 141.859 115.783 141.884 115.667 141.884L115.675 141.892Z" fill="url(#paint19_linear_118_860)"/>
</g>
<path d="M151.104 152.005C151.104 159.048 119.2 164.758 79.8431 164.758C40.4863 164.758 8.58203 159.048 8.58203 152.005V123.205H151.119V152.005H151.104Z" fill="#254BD9"/>
<path style="mix-blend-mode:hard-light" opacity="0.5" d="M108.965 162.811C115.085 159.678 109.302 142.254 112.947 139.78C121.278 139.267 133.958 136.895 138.834 135.914C136.418 139.794 139.024 155.856 136.945 158.667C130.635 160.805 119.024 162.342 108.965 162.811Z" fill="url(#paint20_linear_118_860)"/>
<path style="mix-blend-mode:hard-light" opacity="0.5" d="M50.703 162.811C44.5828 159.678 50.3663 142.254 46.7205 139.78C38.3894 139.267 25.7097 136.895 20.834 135.914C23.2499 139.794 20.6436 155.856 22.7228 158.667C29.0333 160.805 40.6442 162.342 50.703 162.811Z" fill="url(#paint21_linear_118_860)"/>
<path d="M151.104 135.285C151.104 140.79 119.2 145.241 79.8431 145.241C40.4863 145.241 8.58203 140.79 8.58203 135.285V116.646H151.119V135.285H151.104Z" fill="url(#paint22_linear_118_860)"/>
<path style="mix-blend-mode:hard-light" opacity="0.5" d="M108.965 143.982C115.085 141.58 109.302 126.617 112.947 124.713C121.278 124.318 133.958 122.502 138.834 121.756C136.418 124.728 139.024 138.652 136.945 140.804C130.635 142.444 119.024 143.63 108.965 143.982Z" fill="url(#paint23_linear_118_860)"/>
<path d="M151.104 116.587C151.104 121.682 119.2 125.811 79.8431 125.811C40.4863 125.811 8.58203 121.682 8.58203 116.587C8.58203 111.492 40.4863 108.681 79.8431 108.681C119.2 108.681 151.104 111.492 151.104 116.587Z" fill="url(#paint24_linear_118_860)"/>
<path style="mix-blend-mode:hard-light" opacity="0.5" d="M50.703 143.982C44.5828 141.58 50.3663 126.617 46.7205 124.713C38.3894 124.318 25.7097 122.502 20.834 121.756C23.2499 124.728 20.6436 138.652 22.7228 140.804C29.0333 142.444 40.6442 143.63 50.703 143.982Z" fill="url(#paint25_linear_118_860)"/>
<path d="M141.751 121.156C134.064 123.015 115.41 125.123 100.666 125.416C114.634 124.86 131.999 122.883 141.751 121.156Z" fill="url(#paint26_linear_118_860)"/>
<path d="M17.9238 121.156C25.6107 123.015 44.2642 125.123 59.0084 125.416C45.0402 124.86 27.6752 122.883 17.9238 121.156Z" fill="url(#paint27_linear_118_860)"/>
<g style="mix-blend-mode:screen" opacity="0.3">
<g style="mix-blend-mode:color-dodge">
<path d="M138.619 122.218C147.977 122.218 155.564 103.476 155.564 80.3566C155.564 57.2369 147.977 38.4948 138.619 38.4948C129.26 38.4948 121.674 57.2369 121.674 80.3566C121.674 103.476 129.26 122.218 138.619 122.218Z" fill="#000144"/>
</g>
</g>
<g style="mix-blend-mode:screen" opacity="0.3">
<g style="mix-blend-mode:color-dodge">
<path d="M20.566 122.218C29.9244 122.218 37.5108 103.476 37.5108 80.3566C37.5108 57.2369 29.9244 38.4948 20.566 38.4948C11.2076 38.4948 3.62109 57.2369 3.62109 80.3566C3.62109 103.476 11.2076 122.218 20.566 122.218Z" fill="#0C0D61"/>
</g>
</g>
<g style="mix-blend-mode:screen" opacity="0.3">
<g style="mix-blend-mode:color-dodge">
<path d="M80.7851 43.5972C111.409 43.5972 136.234 34.2854 136.234 22.7986C136.234 11.3119 111.409 2 80.7851 2C50.1614 2 25.3359 11.3119 25.3359 22.7986C25.3359 34.2854 50.1614 43.5972 80.7851 43.5972Z" fill="#001736"/>
</g>
</g>
<path d="M68.7935 7.64941L80.7988 20.3865V29.3033L63.6984 24.0965L68.7935 7.64941Z" fill="url(#paint28_linear_118_860)"/>
<path d="M93.0737 7.64941L81.0684 20.3865V29.3033L98.1688 24.0965L93.0737 7.64941Z" fill="url(#paint29_linear_118_860)"/>
<path d="M96.0885 29.3035H66.043V32.49H96.0885V29.3035Z" fill="url(#paint30_linear_118_860)"/>
<path d="M90.1733 19.2755L81.0703 3.50806L71.958 19.2755L58.0547 9.71587L66.0429 29.3036H81.0703H96.0884L104.077 9.71587L90.1733 19.2755Z" fill="url(#paint31_linear_118_860)"/>
<path d="M84.5822 3.50797C84.5822 1.57032 83.0066 0 81.0626 0C79.1185 0 77.543 1.57032 77.543 3.50797C77.543 5.44562 79.1185 7.01594 81.0626 7.01594C83.0066 7.00675 84.5822 5.43643 84.5822 3.50797Z" fill="url(#paint32_linear_118_860)"/>
<path d="M107.299 10.1897C107.299 8.25208 105.723 6.68176 103.779 6.68176C101.835 6.68176 100.26 8.25208 100.26 10.1897C100.26 12.1274 101.835 13.6977 103.779 13.6977C105.723 13.6885 107.299 12.1182 107.299 10.1897Z" fill="url(#paint33_linear_118_860)"/>
<path d="M61.8634 10.1897C61.8634 8.25208 60.2879 6.68176 58.3438 6.68176C56.3997 6.68176 54.8242 8.25208 54.8242 10.1897C54.8242 12.1274 56.3997 13.6977 58.3438 13.6977C60.2879 13.6885 61.8634 12.1182 61.8634 10.1897Z" fill="url(#paint34_linear_118_860)"/>
<path d="M81.0711 16.4104L78.0859 21.1489L81.0711 25.8874L84.0471 21.1489L81.0711 16.4104Z" fill="white"/>
<path d="M81.0723 16.4104L80.584 21.1489L81.0723 25.8874L84.0483 21.1489L81.0723 16.4104Z" fill="#BEBDBE"/>
<g clip-path="url(#clip0_118_860)">
<path d="M82.3805 170.2C75.2105 169.95 70.4805 168.27 65.9205 166.66C65.4205 166.48 64.3205 166.11 63.3905 165.79C62.7305 165.56 62.3105 164.97 62.3105 164.33C62.3105 163.93 62.3105 161.22 62.3105 160.7L66.3905 153.26C66.6905 152.46 67.5705 152.05 68.3805 152.33C70.4905 153.06 74.4905 154.39 77.5805 155.04C79.3005 155.32 80.7705 155.46 82.0705 155.46C85.6505 155.46 87.9105 154.44 89.6305 152.05C90.7805 150.25 91.1205 148.47 90.6105 146.89C90.0405 145.13 88.4605 143.69 86.0405 142.73C82.5205 141.51 78.9005 141.41 74.5505 141.41H74.0105C73.1405 141.41 72.4305 140.7 72.4305 139.83V128.53C72.4305 127.66 73.1305 126.95 74.0005 126.95C74.4305 126.95 74.8205 126.95 74.9905 126.95C83.9005 126.86 86.6105 125.92 88.1205 124.34C89.1905 123.04 89.2905 120.71 88.3605 119.22C87.1405 117.53 83.9805 117.45 83.3605 117.45C80.2805 117.45 75.8805 118.45 70.3605 120.42C70.1705 120.49 69.8205 120.62 69.4405 120.77C68.6205 121.09 67.7005 120.69 67.3805 119.86L63.5305 109.75C63.4605 109.57 63.4305 109.38 63.4305 109.19C63.4305 108.63 63.4405 106.4 63.4405 105.43C63.4405 105.04 64.8905 107.44 65.0405 107.37C70.3805 104.57 77.2805 102.73 83.4905 102.73C96.7105 102.73 105.031 110.38 105.031 117.1V120.67C105.031 123.55 104.571 126.43 103.311 129.06L103.291 129.11C102.331 130.89 101.181 132.41 99.6405 133.92C105.251 138.79 106.871 141.75 106.871 145.66V149.23C106.871 158.73 99.5805 170.2 82.4405 170.2H82.3905H82.3805Z" fill="url(#paint35_linear_118_860)"/>
<path d="M82.3809 166.63C75.2109 166.38 70.4809 164.7 65.9209 163.09C65.4209 162.91 64.3209 162.54 63.3909 162.22C62.5509 161.93 62.1109 161 62.4309 160.17L66.4109 149.7C66.7109 148.9 67.5909 148.49 68.4009 148.77C70.5109 149.5 74.5109 150.83 77.6009 151.48C79.3209 151.76 80.7909 151.9 82.0909 151.9C85.6709 151.9 87.9309 150.88 89.6509 148.49C90.8009 146.69 91.1409 144.91 90.6309 143.33C90.0609 141.57 88.4809 140.13 86.0609 139.17C82.5409 137.95 78.9209 137.85 74.5709 137.85H74.0309C73.1609 137.85 72.4509 137.14 72.4509 136.27V124.97C72.4509 124.1 73.1509 123.39 74.0209 123.39C74.4509 123.39 74.8409 123.39 75.0109 123.39C83.9209 123.3 86.6309 122.36 88.1409 120.78C89.2109 119.48 89.3109 117.15 88.3809 115.66C87.1609 113.97 84.0009 113.89 83.3809 113.89C80.3009 113.89 75.9009 114.89 70.3809 116.86C70.1909 116.93 69.8409 117.06 69.4609 117.21C68.6409 117.53 67.7209 117.13 67.4009 116.3L63.5309 106.18C63.2509 105.45 63.5509 104.63 64.2309 104.25C64.5709 104.06 64.8909 103.88 65.0409 103.8C70.3809 101 77.2809 99.1599 83.4909 99.1599C97.1509 99.1599 105.031 106.84 105.031 117.1C105.031 119.98 104.571 122.86 103.311 125.49L103.291 125.54C102.331 127.32 101.181 128.84 99.6409 130.35C105.631 135.55 106.871 140.99 106.871 145.66C106.871 155.16 99.5809 166.63 82.4409 166.63H82.3909H82.3809Z" fill="url(#paint36_linear_118_860)"/>
<path d="M98.5011 130.95C98.1511 130.66 98.1211 130.12 98.4411 129.8C99.5211 128.69 101.331 126.67 102.231 124.99C104.871 119.49 104.171 112.84 100.771 107.82C96.8311 102.57 91.2511 100.55 83.4511 100.36C83.2711 100.36 83.0811 100.36 82.8911 100.36C77.5611 100.36 70.1011 102.23 64.5011 105.46C66.8811 111.85 68.5811 116.17 68.6111 116.25C71.9511 114.9 77.9411 112.89 83.0911 112.7C83.6111 112.68 87.6511 112.65 89.3111 114.99C90.5211 116.89 90.4411 119.81 88.9811 121.56C87.0711 123.59 83.8811 124.58 73.5911 124.58V136.66C77.9511 136.66 82.2711 136.6 86.4311 138.05C92.0211 140.26 93.4011 144.78 90.5911 149.15C87.9811 152.81 84.0911 153.76 77.3411 152.64C73.2111 151.78 69.5911 150.48 67.6311 149.74C67.6311 149.74 65.6211 155.2 63.3711 160.98C69.0911 162.89 73.9411 165.17 82.4011 165.47C84.6511 165.47 95.4311 165.28 102.151 156.57C105.671 151.5 105.651 147.02 105.661 145.68C105.721 137.64 100.701 132.8 98.4911 130.97L98.5011 130.95Z" fill="url(#paint37_linear_118_860)"/>
<g opacity="0.5">
<path d="M73.6113 124.57V125.03C83.9013 125.03 87.1013 124.04 89.0013 122.01C89.8313 121.02 90.2213 119.64 90.1713 118.28C90.1213 119.48 89.7413 120.66 89.0013 121.54C87.0913 123.57 83.9013 124.56 73.6113 124.56V124.57Z" fill="url(#paint38_linear_118_860)"/>
<path d="M98.5009 130.95C98.3809 130.85 98.3009 130.72 98.2509 130.58C98.1609 130.87 98.2509 131.21 98.5009 131.42C100.691 133.24 105.651 138.02 105.661 145.95C105.661 145.84 105.661 145.74 105.661 145.66C105.721 137.62 100.701 132.78 98.4909 130.95H98.5009Z" fill="url(#paint39_linear_118_860)"/>
<path d="M82.8998 100.81C83.0898 100.81 83.2798 100.81 83.4598 100.81C91.2598 101.01 96.8298 103.02 100.78 108.27C102.74 111.17 103.8 114.6 103.85 118.05C103.9 114.45 102.83 110.84 100.78 107.81C96.8398 102.56 91.2598 100.54 83.4598 100.35C83.2798 100.35 83.0898 100.35 82.8998 100.35C77.5698 100.35 70.1098 102.22 64.5098 105.45C64.5598 105.58 64.6098 105.71 64.6498 105.83C70.2298 102.65 77.5998 100.81 82.8898 100.81H82.8998Z" fill="url(#paint40_linear_118_860)"/>
<path d="M67.6506 150.19C69.6106 150.93 73.2306 152.23 77.3606 153.09C84.1006 154.21 88.0006 153.26 90.6106 149.6C91.6006 148.06 92.0706 146.51 92.0206 145.04C91.9706 146.37 91.5006 147.76 90.6106 149.13C88.0006 152.79 84.1106 153.74 77.3606 152.62C73.2306 151.76 69.6106 150.46 67.6506 149.72C67.6506 149.72 65.6406 155.18 63.3906 160.96C63.4406 160.98 63.5006 161 63.5506 161.01C65.7306 155.39 67.6506 150.19 67.6506 150.19Z" fill="url(#paint41_linear_118_860)"/>
</g>
<g style="mix-blend-mode:color-dodge" opacity="0.6">
<path d="M79.6606 100.5C74.8206 100.5 70.8906 100.17 70.8906 99.77C70.8906 99.37 74.8206 99.04 79.6606 99.04C84.5006 99.04 88.4306 99.37 88.4306 99.77C88.4306 100.17 84.5006 100.5 79.6606 100.5Z" fill="#FFFAD1"/>
<path d="M79.6597 108.54C80.0629 108.54 80.3897 104.614 80.3897 99.77C80.3897 94.9265 80.0629 91 79.6597 91C79.2565 91 78.9297 94.9265 78.9297 99.77C78.9297 104.614 79.2565 108.54 79.6597 108.54Z" fill="#FFFAD1"/>
<path d="M80.1708 100.28C76.7508 103.7 73.7408 106.25 73.4508 105.97C73.1708 105.69 75.7108 102.68 79.1408 99.25C82.5608 95.83 85.5708 93.28 85.8608 93.56C86.1408 93.84 83.6008 96.85 80.1708 100.28Z" fill="#FFFAD1"/>
<path d="M79.1408 100.28C82.5608 103.7 85.5708 106.25 85.8608 105.97C86.1508 105.69 83.6008 102.68 80.1708 99.25C76.7508 95.83 73.7408 93.28 73.4508 93.56C73.1708 93.84 75.7108 96.85 79.1408 100.28Z" fill="#FFFAD1"/>
</g>
<g style="mix-blend-mode:color-dodge" opacity="0.6">
<path d="M100.23 160.91C93.2997 160.91 87.6797 160.44 87.6797 159.87C87.6797 159.3 93.2997 158.83 100.23 158.83C107.16 158.83 112.78 159.3 112.78 159.87C112.78 160.44 107.16 160.91 100.23 160.91Z" fill="#FFFAD1"/>
<path d="M101.269 159.86C101.269 166.79 100.799 172.41 100.229 172.41C99.6595 172.41 99.1895 166.79 99.1895 159.86C99.1895 152.93 99.6595 147.31 100.229 147.31C100.799 147.31 101.269 152.93 101.269 159.86Z" fill="#FFFAD1"/>
<path d="M100.97 160.6C96.0696 165.5 91.7696 169.14 91.3596 168.73C90.9496 168.32 94.5896 164.02 99.4896 159.12C104.39 154.22 108.69 150.58 109.1 150.99C109.51 151.4 105.87 155.7 100.97 160.6Z" fill="#FFFAD1"/>
<path d="M99.4994 160.6C104.399 165.5 108.699 169.14 109.109 168.73C109.519 168.32 105.879 164.02 100.979 159.12C96.0794 154.22 91.7794 150.58 91.3694 150.99C90.9594 151.4 94.5994 155.7 99.4994 160.6Z" fill="#FFFAD1"/>
</g>
</g>
<defs>
<linearGradient id="paint0_linear_118_860" x1="79.3551" y1="123.583" x2="79.3551" y2="29.952" gradientUnits="userSpaceOnUse">
<stop offset="0.18" stop-color="#8400A8"/>
<stop offset="0.67" stop-color="#3C3CF0"/>
<stop offset="0.73" stop-color="#3B33E0"/>
<stop offset="0.85" stop-color="#3B1EB7"/>
<stop offset="1" stop-color="#3B007D"/>
</linearGradient>
<linearGradient id="paint1_linear_118_860" x1="79.3552" y1="129.438" x2="79.3552" y2="24.1053" gradientUnits="userSpaceOnUse">
<stop offset="0.19" stop-color="#FF00F2"/>
<stop offset="0.67" stop-color="#6161FF"/>
<stop offset="0.74" stop-color="#515AFE"/>
<stop offset="0.88" stop-color="#294AFC"/>
<stop offset="1" stop-color="#003AFA"/>
</linearGradient>
<linearGradient id="paint2_linear_118_860" x1="79.3564" y1="123.376" x2="79.3564" y2="30.1589" gradientUnits="userSpaceOnUse">
<stop offset="0.19" stop-color="#BF16FF"/>
<stop offset="0.67" stop-color="#6B6BFF"/>
<stop offset="0.74" stop-color="#5B73FE"/>
<stop offset="0.89" stop-color="#3389FB"/>
<stop offset="1" stop-color="#0F9EFA"/>
</linearGradient>
<linearGradient id="paint3_linear_118_860" x1="79.3538" y1="123.153" x2="79.3538" y2="30.3821" gradientUnits="userSpaceOnUse">
<stop offset="0.18" stop-color="#EE92FF"/>
<stop offset="0.49" stop-color="#F9DAFF"/>
<stop offset="0.66" stop-color="white"/>
<stop offset="0.71" stop-color="#EFF8FF"/>
<stop offset="0.82" stop-color="#C6E9FF"/>
<stop offset="0.97" stop-color="#85CFFF"/>
<stop offset="0.99" stop-color="#7ACBFF"/>
</linearGradient>
<linearGradient id="paint4_linear_118_860" x1="79.3559" y1="127.735" x2="79.3559" y2="25.8007" gradientUnits="userSpaceOnUse">
<stop offset="0.18" stop-color="#8400A8"/>
<stop offset="0.67" stop-color="#3C3CF0"/>
<stop offset="0.73" stop-color="#3B33E0"/>
<stop offset="0.85" stop-color="#3B1EB7"/>
<stop offset="1" stop-color="#3B007D"/>
</linearGradient>
<linearGradient id="paint5_linear_118_860" x1="0.312003" y1="134.111" x2="1.13899" y2="19.4329" gradientUnits="userSpaceOnUse">
<stop offset="0.19" stop-color="#FF00F2"/>
<stop offset="0.67" stop-color="#6161FF"/>
<stop offset="0.74" stop-color="#515AFE"/>
<stop offset="0.88" stop-color="#294AFC"/>
<stop offset="1" stop-color="#003AFA"/>
</linearGradient>
<linearGradient id="paint6_linear_118_860" x1="0.31184" y1="127.519" x2="79.3548" y2="26.0239" gradientUnits="userSpaceOnUse">
<stop offset="0.19" stop-color="#BF16FF"/>
<stop offset="0.67" stop-color="#6B6BFF"/>
<stop offset="0.74" stop-color="#5B73FE"/>
<stop offset="0.89" stop-color="#3389FB"/>
<stop offset="1" stop-color="#0F9EFA"/>
</linearGradient>
<linearGradient id="paint7_linear_118_860" x1="0.309836" y1="127.271" x2="79.3528" y2="26.2638" gradientUnits="userSpaceOnUse">
<stop offset="0.18" stop-color="#EE92FF"/>
<stop offset="0.49" stop-color="#F9DAFF"/>
<stop offset="0.66" stop-color="white"/>
<stop offset="0.71" stop-color="#EFF8FF"/>
<stop offset="0.82" stop-color="#C6E9FF"/>
<stop offset="0.97" stop-color="#85CFFF"/>
<stop offset="0.99" stop-color="#7ACBFF"/>
</linearGradient>
<linearGradient id="paint8_linear_118_860" x1="79.3568" y1="132.242" x2="79.3568" y2="21.2937" gradientUnits="userSpaceOnUse">
<stop offset="0.18" stop-color="#8400A8"/>
<stop offset="0.67" stop-color="#3C3CF0"/>
<stop offset="0.73" stop-color="#3B33E0"/>
<stop offset="0.85" stop-color="#3B1EB7"/>
<stop offset="1" stop-color="#3B007D"/>
</linearGradient>
<linearGradient id="paint9_linear_118_860" x1="79.3581" y1="139.18" x2="79.3581" y2="14.3553" gradientUnits="userSpaceOnUse">
<stop offset="0.19" stop-color="#FF00F2"/>
<stop offset="0.67" stop-color="#6161FF"/>
<stop offset="0.74" stop-color="#515AFE"/>
<stop offset="0.88" stop-color="#294AFC"/>
<stop offset="1" stop-color="#003AFA"/>
</linearGradient>
<linearGradient id="paint10_linear_118_860" x1="0.314198" y1="132.002" x2="79.3572" y2="21.5334" gradientUnits="userSpaceOnUse">
<stop offset="0.19" stop-color="#BF16FF"/>
<stop offset="0.67" stop-color="#6B6BFF"/>
<stop offset="0.74" stop-color="#5B73FE"/>
<stop offset="0.89" stop-color="#3389FB"/>
<stop offset="1" stop-color="#0F9EFA"/>
</linearGradient>
<linearGradient id="paint11_linear_118_860" x1="0.313696" y1="131.737" x2="79.3567" y2="21.7981" gradientUnits="userSpaceOnUse">
<stop offset="0.18" stop-color="#EE92FF"/>
<stop offset="0.49" stop-color="#F9DAFF"/>
<stop offset="0.66" stop-color="white"/>
<stop offset="0.71" stop-color="#EFF8FF"/>
<stop offset="0.82" stop-color="#C6E9FF"/>
<stop offset="0.97" stop-color="#85CFFF"/>
<stop offset="0.99" stop-color="#7ACBFF"/>
</linearGradient>
<linearGradient id="paint12_linear_118_860" x1="79.3546" y1="137.154" x2="79.3546" y2="16.3812" gradientUnits="userSpaceOnUse">
<stop offset="0.18" stop-color="#8400A8"/>
<stop offset="0.67" stop-color="#3C3CF0"/>
<stop offset="0.73" stop-color="#3B33E0"/>
<stop offset="0.85" stop-color="#3B1EB7"/>
<stop offset="1" stop-color="#3B007D"/>
</linearGradient>
<linearGradient id="paint13_linear_118_860" x1="79.3522" y1="144.696" x2="79.3522" y2="8.83917" gradientUnits="userSpaceOnUse">
<stop offset="0.19" stop-color="#FF00F2"/>
<stop offset="0.67" stop-color="#6161FF"/>
<stop offset="0.74" stop-color="#515AFE"/>
<stop offset="0.88" stop-color="#294AFC"/>
<stop offset="1" stop-color="#003AFA"/>
</linearGradient>
<linearGradient id="paint14_linear_118_860" x1="79.3521" y1="136.889" x2="79.3521" y2="16.6459" gradientUnits="userSpaceOnUse">
<stop offset="0.19" stop-color="#BF16FF"/>
<stop offset="0.67" stop-color="#6B6BFF"/>
<stop offset="0.74" stop-color="#5B73FE"/>
<stop offset="0.89" stop-color="#3389FB"/>
<stop offset="1" stop-color="#0F9EFA"/>
</linearGradient>
<linearGradient id="paint15_linear_118_860" x1="0.31022" y1="136.6" x2="79.3532" y2="16.9353" gradientUnits="userSpaceOnUse">
<stop offset="0.18" stop-color="#EE92FF"/>
<stop offset="0.49" stop-color="#F9DAFF"/>
<stop offset="0.66" stop-color="white"/>
<stop offset="0.71" stop-color="#EFF8FF"/>
<stop offset="0.82" stop-color="#C6E9FF"/>
<stop offset="0.97" stop-color="#85CFFF"/>
<stop offset="0.99" stop-color="#7ACBFF"/>
</linearGradient>
<linearGradient id="paint16_linear_118_860" x1="79.3545" y1="142.496" x2="79.3545" y2="11.0389" gradientUnits="userSpaceOnUse">
<stop offset="0.18" stop-color="#8400A8"/>
<stop offset="0.67" stop-color="#3C3CF0"/>
<stop offset="0.73" stop-color="#3B33E0"/>
<stop offset="0.85" stop-color="#3B1EB7"/>
<stop offset="1" stop-color="#3B007D"/>
</linearGradient>
<linearGradient id="paint17_linear_118_860" x1="0.310548" y1="150.708" x2="1.13753" y2="2.82702" gradientUnits="userSpaceOnUse">
<stop offset="0.19" stop-color="#FF00F2"/>
<stop offset="0.67" stop-color="#6161FF"/>
<stop offset="0.74" stop-color="#515AFE"/>
<stop offset="0.88" stop-color="#294AFC"/>
<stop offset="1" stop-color="#003AFA"/>
</linearGradient>
<linearGradient id="paint18_linear_118_860" x1="0.31112" y1="142.207" x2="79.3541" y2="11.3284" gradientUnits="userSpaceOnUse">
<stop offset="0.19" stop-color="#BF16FF"/>
<stop offset="0.67" stop-color="#6B6BFF"/>
<stop offset="0.74" stop-color="#5B73FE"/>
<stop offset="0.89" stop-color="#3389FB"/>
<stop offset="1" stop-color="#0F9EFA"/>
</linearGradient>
<linearGradient id="paint19_linear_118_860" x1="0.311322" y1="141.892" x2="79.3543" y2="11.6426" gradientUnits="userSpaceOnUse">
<stop offset="0.18" stop-color="#EE92FF"/>
<stop offset="0.49" stop-color="#F9DAFF"/>
<stop offset="0.66" stop-color="white"/>
<stop offset="0.71" stop-color="#EFF8FF"/>
<stop offset="0.82" stop-color="#C6E9FF"/>
<stop offset="0.97" stop-color="#85CFFF"/>
<stop offset="0.99" stop-color="#7ACBFF"/>
</linearGradient>
<linearGradient id="paint20_linear_118_860" x1="108.965" y1="149.37" x2="138.834" y2="149.37" gradientUnits="userSpaceOnUse">
<stop stop-color="#737373"/>
<stop offset="0.07" stop-color="#827F81"/>
<stop offset="0.21" stop-color="#AC9EA7"/>
<stop offset="0.28" stop-color="#C2AFBC"/>
<stop offset="0.31" stop-color="#C4B2BF"/>
<stop offset="0.34" stop-color="#CDBDC8"/>
<stop offset="0.37" stop-color="#DBD0D8"/>
<stop offset="0.4" stop-color="#EFEAEE"/>
<stop offset="0.42" stop-color="white"/>
<stop offset="0.52" stop-color="#FBFBFB"/>
<stop offset="0.62" stop-color="#F0F0F0"/>
<stop offset="0.72" stop-color="#DDDDDD"/>
<stop offset="0.81" stop-color="#C2C2C2"/>
<stop offset="0.9" stop-color="#A0A0A0"/>
<stop offset="0.99" stop-color="#777777"/>
<stop offset="1" stop-color="#737373"/>
</linearGradient>
<linearGradient id="paint21_linear_118_860" x1="50.703" y1="149.37" x2="20.834" y2="149.37" gradientUnits="userSpaceOnUse">
<stop stop-color="#5E6873"/>
<stop offset="0.07" stop-color="#6D7782"/>
<stop offset="0.21" stop-color="#97A0AA"/>
<stop offset="0.28" stop-color="#AFB8C2"/>
<stop offset="0.31" stop-color="#B2BBC4"/>
<stop offset="0.34" stop-color="#BDC5CD"/>
<stop offset="0.37" stop-color="#D0D5DB"/>
<stop offset="0.4" stop-color="#EAEDEF"/>
<stop offset="0.42" stop-color="white"/>
<stop offset="0.52" stop-color="#FBFBFB"/>
<stop offset="0.61" stop-color="#F0F1F2"/>
<stop offset="0.7" stop-color="#DDDFE1"/>
<stop offset="0.78" stop-color="#C2C6CA"/>
<stop offset="0.87" stop-color="#A0A6AC"/>
<stop offset="0.95" stop-color="#777F89"/>
<stop offset="1" stop-color="#5E6873"/>
</linearGradient>
<linearGradient id="paint22_linear_118_860" x1="382.926" y1="131.766" x2="384.932" y2="131.766" gradientUnits="userSpaceOnUse">
<stop stop-color="#254BD9"/>
<stop offset="0.2" stop-color="#1A3363"/>
<stop offset="0.23" stop-color="#192959"/>
<stop offset="0.31" stop-color="#171848"/>
<stop offset="0.39" stop-color="#170E3E"/>
<stop offset="0.5" stop-color="#170B3B"/>
<stop offset="0.54" stop-color="#1D0B40"/>
<stop offset="0.59" stop-color="#2F0E50"/>
<stop offset="0.65" stop-color="#4C136A"/>
<stop offset="0.71" stop-color="#75198E"/>
<stop offset="0.78" stop-color="#A821BC"/>
<stop offset="0.81" stop-color="#BE25CF"/>
<stop offset="0.84" stop-color="#B624CC"/>
<stop offset="0.87" stop-color="#A022C4"/>
<stop offset="0.92" stop-color="#7C1FB6"/>
<stop offset="0.98" stop-color="#4B1BA4"/>
<stop offset="1" stop-color="#331A9C"/>
</linearGradient>
<linearGradient id="paint23_linear_118_860" x1="-60.1174" y1="132.869" x2="-58.6533" y2="132.869" gradientUnits="userSpaceOnUse">
<stop stop-color="#737373"/>
<stop offset="0.07" stop-color="#827F81"/>
<stop offset="0.21" stop-color="#AC9EA7"/>
<stop offset="0.28" stop-color="#C2AFBC"/>
<stop offset="0.31" stop-color="#C4B2BF"/>
<stop offset="0.34" stop-color="#CDBDC8"/>
<stop offset="0.37" stop-color="#DBD0D8"/>
<stop offset="0.4" stop-color="#EFEAEE"/>
<stop offset="0.42" stop-color="white"/>
<stop offset="0.52" stop-color="#FBFBFB"/>
<stop offset="0.62" stop-color="#F0F0F0"/>
<stop offset="0.72" stop-color="#DDDDDD"/>
<stop offset="0.81" stop-color="#C2C2C2"/>
<stop offset="0.9" stop-color="#A0A0A0"/>
<stop offset="0.99" stop-color="#777777"/>
<stop offset="1" stop-color="#737373"/>
</linearGradient>
<linearGradient id="paint24_linear_118_860" x1="9.7664" y1="117.582" x2="151.845" y2="117.582" gradientUnits="userSpaceOnUse">
<stop stop-color="#E0B44B"/>
<stop offset="0.12" stop-color="#C48000"/>
<stop offset="0.38" stop-color="#F7E27F"/>
<stop offset="0.62" stop-color="#EAC450"/>
<stop offset="0.83" stop-color="#CC8A00"/>
<stop offset="0.94" stop-color="#D59D23"/>
<stop offset="1" stop-color="#D9A532"/>
</linearGradient>
<linearGradient id="paint25_linear_118_860" x1="220.517" y1="132.869" x2="219.053" y2="132.869" gradientUnits="userSpaceOnUse">
<stop stop-color="#5E6873"/>
<stop offset="0.07" stop-color="#6D7782"/>
<stop offset="0.21" stop-color="#97A0AA"/>
<stop offset="0.28" stop-color="#AFB8C2"/>
<stop offset="0.31" stop-color="#B2BBC4"/>
<stop offset="0.34" stop-color="#BDC5CD"/>
<stop offset="0.37" stop-color="#D0D5DB"/>
<stop offset="0.4" stop-color="#EAEDEF"/>
<stop offset="0.42" stop-color="white"/>
<stop offset="0.52" stop-color="#FBFBFB"/>
<stop offset="0.61" stop-color="#F0F1F2"/>
<stop offset="0.7" stop-color="#DDDFE1"/>
<stop offset="0.78" stop-color="#C2C6CA"/>
<stop offset="0.87" stop-color="#A0A6AC"/>
<stop offset="0.95" stop-color="#777F89"/>
<stop offset="1" stop-color="#5E6873"/>
</linearGradient>
<linearGradient id="paint26_linear_118_860" x1="100.666" y1="123.279" x2="141.751" y2="123.279" gradientUnits="userSpaceOnUse">
<stop stop-color="#AA87C5"/>
<stop offset="0.05" stop-color="#C09BD9"/>
<stop offset="0.11" stop-color="#D2ABEA"/>
<stop offset="0.18" stop-color="#DEB7F6"/>
<stop offset="0.28" stop-color="#E5BEFD"/>
<stop offset="0.5" stop-color="#E8C0FF"/>
<stop offset="0.63" stop-color="#E4BCFB"/>
<stop offset="0.76" stop-color="#D9B2F1"/>
<stop offset="0.88" stop-color="#C6A1DF"/>
<stop offset="0.99" stop-color="#AC88C6"/>
<stop offset="1" stop-color="#AA87C5"/>
</linearGradient>
<linearGradient id="paint27_linear_118_860" x1="17.9238" y1="-92.1877" x2="59.0084" y2="-92.1877" gradientUnits="userSpaceOnUse">
<stop stop-color="#AA87C5"/>
<stop offset="0.05" stop-color="#C09BD9"/>
<stop offset="0.11" stop-color="#D2ABEA"/>
<stop offset="0.18" stop-color="#DEB7F6"/>
<stop offset="0.28" stop-color="#E5BEFD"/>
<stop offset="0.5" stop-color="#E8C0FF"/>
<stop offset="0.63" stop-color="#E4BCFB"/>
<stop offset="0.76" stop-color="#D9B2F1"/>
<stop offset="0.88" stop-color="#C6A1DF"/>
<stop offset="0.99" stop-color="#AC88C6"/>
<stop offset="1" stop-color="#AA87C5"/>
</linearGradient>
<linearGradient id="paint28_linear_118_860" x1="72.2522" y1="-2.66888" x2="72.2522" y2="22.955" gradientUnits="userSpaceOnUse">
<stop offset="0.0128" stop-color="#8A4400"/>
<stop offset="0.1633" stop-color="#BB8B05"/>
<stop offset="0.708" stop-color="#E28E00"/>
<stop offset="1" stop-color="#C27400"/>
</linearGradient>
<linearGradient id="paint29_linear_118_860" x1="89.615" y1="-2.66888" x2="89.615" y2="22.955" gradientUnits="userSpaceOnUse">
<stop offset="0.0128" stop-color="#8A4400"/>
<stop offset="0.1633" stop-color="#BB8B05"/>
<stop offset="0.708" stop-color="#E28E00"/>
<stop offset="1" stop-color="#C27400"/>
</linearGradient>
<linearGradient id="paint30_linear_118_860" x1="81.0672" y1="28.4648" x2="81.0672" y2="32.9267" gradientUnits="userSpaceOnUse">
<stop offset="0.0128" stop-color="#D76D00"/>
<stop offset="0.1633" stop-color="#DB6D00"/>
<stop offset="0.708" stop-color="#C96900"/>
<stop offset="1" stop-color="#9F4E00"/>
</linearGradient>
<linearGradient id="paint31_linear_118_860" x1="81.0671" y1="5.15928" x2="81.0671" y2="32.9587" gradientUnits="userSpaceOnUse">
<stop offset="0.0128" stop-color="#E18700"/>
<stop offset="0.1633" stop-color="#D57300"/>
<stop offset="0.708" stop-color="#F98105"/>
<stop offset="1" stop-color="#FF9800"/>
<stop offset="1" stop-color="#985B00"/>
</linearGradient>
<linearGradient id="paint32_linear_118_860" x1="81.0686" y1="-0.355848" x2="81.0686" y2="6.40461" gradientUnits="userSpaceOnUse">
<stop offset="0.0128" stop-color="#FF9901"/>
<stop offset="0.1633" stop-color="#F5C02C"/>
<stop offset="0.708" stop-color="#D28B14"/>
<stop offset="1" stop-color="#A36100"/>
</linearGradient>
<linearGradient id="paint33_linear_118_860" x1="103.785" y1="6.32592" x2="103.785" y2="13.0864" gradientUnits="userSpaceOnUse">
<stop offset="0.0128" stop-color="#FF9901"/>
<stop offset="0.1633" stop-color="#F5C02C"/>
<stop offset="0.708" stop-color="#D28B14"/>
<stop offset="1" stop-color="#A36100"/>
</linearGradient>
<linearGradient id="paint34_linear_118_860" x1="58.3499" y1="6.32592" x2="58.3499" y2="13.0864" gradientUnits="userSpaceOnUse">
<stop offset="0.0128" stop-color="#FF9901"/>
<stop offset="0.1633" stop-color="#F5C02C"/>
<stop offset="0.708" stop-color="#D28B14"/>
<stop offset="1" stop-color="#A36100"/>
</linearGradient>
<linearGradient id="paint35_linear_118_860" x1="56.9805" y1="159.62" x2="104.351" y2="112.25" gradientUnits="userSpaceOnUse">
<stop stop-color="#C86520"/>
<stop offset="0.21" stop-color="#85073C"/>
<stop offset="0.83" stop-color="#AB145B"/>
<stop offset="0.89" stop-color="#BD3644"/>
<stop offset="0.96" stop-color="#D15C2C"/>
<stop offset="1" stop-color="#D96B23"/>
</linearGradient>
<linearGradient id="paint36_linear_118_860" x1="57.7609" y1="156.83" x2="104.871" y2="109.72" gradientUnits="userSpaceOnUse">
<stop stop-color="#F5DA9B"/>
<stop offset="0.11" stop-color="#E89341"/>
<stop offset="0.17" stop-color="#DA791F"/>
<stop offset="0.3" stop-color="#F5DA9B"/>
<stop offset="0.48" stop-color="#F5DA9B"/>
<stop offset="0.62" stop-color="#F5B96C"/>
<stop offset="0.71" stop-color="#DA8A43"/>
<stop offset="0.72" stop-color="#DC914D"/>
<stop offset="0.78" stop-color="#E9BE8B"/>
<stop offset="0.83" stop-color="#F1DAB1"/>
<stop offset="0.86" stop-color="#F5E5C0"/>
<stop offset="0.89" stop-color="#F2D3A5"/>
<stop offset="0.97" stop-color="#EBA760"/>
<stop offset="1" stop-color="#E89341"/>
</linearGradient>
<linearGradient id="paint37_linear_118_860" x1="58.4411" y1="156.02" x2="103.841" y2="110.62" gradientUnits="userSpaceOnUse">
<stop stop-color="#E38D41"/>
<stop offset="0.12" stop-color="#9C4109"/>
<stop offset="0.38" stop-color="#FFCB76"/>
<stop offset="0.62" stop-color="#ED9F46"/>
<stop offset="0.83" stop-color="#9C4815"/>
<stop offset="0.87" stop-color="#AE581F"/>
<stop offset="0.96" stop-color="#D47A34"/>
<stop offset="1" stop-color="#E3873D"/>
</linearGradient>
<linearGradient id="paint38_linear_118_860" x1="76.5913" y1="128.01" x2="88.2413" y2="116.36" gradientUnits="userSpaceOnUse">
<stop stop-color="#BE581E"/>
<stop offset="0.21" stop-color="#7B0644"/>
<stop offset="0.83" stop-color="#A11365"/>
<stop offset="0.88" stop-color="#AE2950"/>
<stop offset="0.96" stop-color="#C64F2E"/>
<stop offset="1" stop-color="#CF5E21"/>
</linearGradient>
<linearGradient id="paint39_linear_118_860" x1="99.9709" y1="140.25" x2="103.961" y2="136.26" gradientUnits="userSpaceOnUse">
<stop stop-color="#BE581E"/>
<stop offset="0.21" stop-color="#7B0644"/>
<stop offset="0.83" stop-color="#A11365"/>
<stop offset="0.88" stop-color="#AE2950"/>
<stop offset="0.96" stop-color="#C64F2E"/>
<stop offset="1" stop-color="#CF5E21"/>
</linearGradient>
<linearGradient id="paint40_linear_118_860" x1="77.3798" y1="118.55" x2="94.5798" y2="101.35" gradientUnits="userSpaceOnUse">
<stop stop-color="#BE581E"/>
<stop offset="0.21" stop-color="#7B0644"/>
<stop offset="0.83" stop-color="#A11365"/>
<stop offset="0.88" stop-color="#AE2950"/>
<stop offset="0.96" stop-color="#C64F2E"/>
<stop offset="1" stop-color="#CF5E21"/>
</linearGradient>
<linearGradient id="paint41_linear_118_860" x1="65.6606" y1="163.23" x2="87.9406" y2="140.96" gradientUnits="userSpaceOnUse">
<stop stop-color="#BE581E"/>
<stop offset="0.21" stop-color="#7B0644"/>
<stop offset="0.83" stop-color="#A11365"/>
<stop offset="0.88" stop-color="#AE2950"/>
<stop offset="0.96" stop-color="#C64F2E"/>
<stop offset="1" stop-color="#CF5E21"/>
</linearGradient>
<clipPath id="clip0_118_860">
<rect width="50.47" height="81.41" fill="white" transform="translate(62.3105 91)"/>
</clipPath>
</defs>
</svg>
