<svg width="247" height="247" viewBox="0 0 247 247" fill="none" xmlns="http://www.w3.org/2000/svg">
<g filter="url(#filter0_d_90_5707)">
<circle cx="123.5" cy="119.5" r="119.5" fill="url(#paint0_linear_90_5707)"/>
<mask id="mask0_90_5707" style="mask-type:alpha" maskUnits="userSpaceOnUse" x="4" y="0" width="239" height="239">
<circle cx="123.5" cy="119.5" r="119.5" fill="url(#paint1_linear_90_5707)"/>
</mask>
<g mask="url(#mask0_90_5707)">
<g style="mix-blend-mode:overlay">
<path d="M15.9879 10.8297C16.8447 10.8297 17.6356 10.1479 17.7674 9.29014C17.8992 8.4324 17.306 7.75061 16.4712 7.75061C15.6364 7.75061 14.8235 8.4324 14.6917 9.29014C14.5599 10.1479 15.153 10.8297 15.9879 10.8297Z" fill="#C2C2C2"/>
<path d="M30.6196 10.9616C31.5423 10.9616 32.3991 10.2139 32.5529 9.29015C32.6847 8.36643 32.0696 7.61865 31.1469 7.61865C30.2242 7.61865 29.3673 8.36643 29.2136 9.29015C29.0817 10.2139 29.6969 10.9616 30.6196 10.9616Z" fill="#C2C2C2"/>
<path d="M45.229 11.0716C46.2176 11.0716 47.1403 10.2798 47.2941 9.29012C47.4479 8.30043 46.7668 7.50867 45.7782 7.50867C44.7896 7.50867 43.8669 8.30043 43.7131 9.29012C43.5593 10.2798 44.2403 11.0716 45.229 11.0716Z" fill="#C2C2C2"/>
<path d="M59.8607 11.1595C60.8933 11.1595 61.8599 10.3238 62.0137 9.29009C62.1675 8.2564 61.4645 7.42065 60.4319 7.42065C59.3994 7.42065 58.4327 8.2564 58.2789 9.29009C58.1251 10.3238 58.8281 11.1595 59.8607 11.1595Z" fill="#C2C2C2"/>
<path d="M74.4922 11.2474C75.5687 11.2474 76.5793 10.3677 76.7331 9.29005C76.9088 8.21238 76.1619 7.33264 75.0854 7.33264C74.0089 7.33264 72.9983 8.21238 72.8445 9.29005C72.6687 10.3677 73.4157 11.2474 74.4922 11.2474Z" fill="#C2C2C2"/>
<path d="M89.124 11.2474C90.2005 11.2474 91.2111 10.3677 91.3649 9.29005C91.5407 8.21238 90.7937 7.33264 89.7172 7.33264C88.6407 7.33264 87.6301 8.21238 87.4763 9.29005C87.3006 10.3677 88.0475 11.2474 89.124 11.2474Z" fill="#C2C2C2"/>
<path d="M103.755 11.2474C104.832 11.2474 105.842 10.3677 105.996 9.29005C106.172 8.21238 105.425 7.33264 104.349 7.33264C103.272 7.33264 102.261 8.21238 102.108 9.29005C101.932 10.3677 102.679 11.2474 103.755 11.2474Z" fill="#C2C2C2"/>
<path d="M118.409 11.2474C119.486 11.2474 120.496 10.3677 120.65 9.29005C120.826 8.21238 120.079 7.33264 119.002 7.33264C117.926 7.33264 116.915 8.21238 116.761 9.29005C116.586 10.3677 117.333 11.2474 118.409 11.2474Z" fill="#C2C2C2"/>
<path d="M133.063 11.1595C134.095 11.1595 135.062 10.3238 135.216 9.29009C135.37 8.2564 134.667 7.42065 133.634 7.42065C132.601 7.42065 131.635 8.2564 131.481 9.29009C131.327 10.3238 132.03 11.1595 133.063 11.1595Z" fill="#C2C2C2"/>
<path d="M147.716 11.0716C148.705 11.0716 149.628 10.2798 149.781 9.29012C149.935 8.30043 149.254 7.50867 148.266 7.50867C147.277 7.50867 146.354 8.30043 146.2 9.29012C146.047 10.2798 146.728 11.0716 147.716 11.0716Z" fill="#C2C2C2"/>
<path d="M162.37 10.9836C163.315 10.9836 164.194 10.2138 164.347 9.26808C164.501 8.32237 163.842 7.55261 162.898 7.55261C161.953 7.55261 161.074 8.32237 160.92 9.26808C160.766 10.2138 161.426 10.9836 162.37 10.9836Z" fill="#C2C2C2"/>
<path d="M177.024 10.8297C177.88 10.8297 178.671 10.1479 178.803 9.29014C178.935 8.4324 178.342 7.75061 177.507 7.75061C176.672 7.75061 175.859 8.4324 175.727 9.29014C175.596 10.1479 176.189 10.8297 177.024 10.8297Z" fill="#C2C2C2"/>
<path d="M191.677 10.6976C192.468 10.6976 193.193 10.0598 193.325 9.26807C193.457 8.47631 192.907 7.8385 192.116 7.8385C191.326 7.8385 190.601 8.47631 190.469 9.26807C190.337 10.0598 190.886 10.6976 191.677 10.6976Z" fill="#C2C2C2"/>
<path d="M206.353 10.5437C207.056 10.5437 207.693 9.97191 207.803 9.29012C207.913 8.58634 207.429 8.0365 206.748 8.0365C206.067 8.0365 205.408 8.60833 205.298 9.29012C205.188 9.99391 205.672 10.5437 206.353 10.5437Z" fill="#C2C2C2"/>
<path d="M221.006 10.3898C221.621 10.3898 222.171 9.9059 222.28 9.29009C222.368 8.67428 221.951 8.19043 221.358 8.19043C220.765 8.19043 220.193 8.67428 220.083 9.29009C219.996 9.9059 220.413 10.3898 221.006 10.3898Z" fill="#C2C2C2"/>
<path d="M235.682 10.1698C236.165 10.1698 236.626 9.7739 236.714 9.26806C236.78 8.7842 236.451 8.36633 235.967 8.36633C235.484 8.36633 235.023 8.76221 234.935 9.26806C234.869 9.75191 235.198 10.1698 235.682 10.1698Z" fill="#C2C2C2"/>
<path d="M6.36532 25.6971C7.33198 25.6971 8.23272 24.9053 8.38651 23.9596C8.54029 22.9919 7.88121 22.2222 6.91456 22.2222C5.94791 22.2222 5.04715 23.0139 4.89336 23.9596C4.73958 24.9273 5.39867 25.6971 6.36532 25.6971Z" fill="#C2C2C2"/>
<path d="M20.9749 25.851C22.0295 25.851 23.0181 24.9933 23.1719 23.9376C23.3257 22.8819 22.6227 22.0242 21.5681 22.0242C20.5136 22.0242 19.525 22.8819 19.3712 23.9376C19.2174 24.9933 19.9204 25.851 20.9749 25.851Z" fill="#C2C2C2"/>
<path d="M35.6063 25.983C36.7267 25.983 37.7813 25.0813 37.957 23.9597C38.1328 22.838 37.3639 21.9363 36.2434 21.9363C35.123 21.9363 34.0685 22.838 33.8927 23.9597C33.7169 25.0813 34.4859 25.983 35.6063 25.983Z" fill="#C2C2C2"/>
<path d="M50.216 26.0929C51.4023 26.0929 52.5228 25.1252 52.6985 23.9376C52.8743 22.7499 52.0614 21.7822 50.8751 21.7822C49.6887 21.7822 48.5683 22.7499 48.3925 23.9376C48.2168 25.1252 49.0297 26.0929 50.216 26.0929Z" fill="#C2C2C2"/>
<path d="M64.8479 26.181C66.0782 26.181 67.2426 25.1693 67.4184 23.9377C67.6161 22.706 66.7593 21.6943 65.529 21.6943C64.2987 21.6943 63.1343 22.706 62.9586 23.9377C62.7608 25.1693 63.6177 26.181 64.8479 26.181Z" fill="#C2C2C2"/>
<path d="M79.4796 26.269C80.7539 26.269 81.9622 25.2353 82.1599 23.9597C82.3576 22.6841 81.4789 21.6504 80.2046 21.6504C78.9304 21.6504 77.7221 22.6841 77.5244 23.9597C77.3266 25.2353 78.2054 26.269 79.4796 26.269Z" fill="#C2C2C2"/>
<path d="M94.111 26.269C95.3852 26.269 96.5935 25.2353 96.7913 23.9597C96.989 22.6841 96.1102 21.6504 94.836 21.6504C93.5618 21.6504 92.3534 22.6841 92.1557 23.9597C91.958 25.2353 92.8368 26.269 94.111 26.269Z" fill="#C2C2C2"/>
<path d="M108.765 26.269C110.039 26.269 111.247 25.2353 111.445 23.9597C111.643 22.6841 110.764 21.6504 109.49 21.6504C108.216 21.6504 107.007 22.6841 106.81 23.9597C106.612 25.2353 107.491 26.269 108.765 26.269Z" fill="#C2C2C2"/>
<path d="M123.396 26.2249C124.649 26.2249 125.835 25.2133 126.033 23.9596C126.23 22.706 125.373 21.6943 124.121 21.6943C122.869 21.6943 121.683 22.706 121.485 23.9596C121.287 25.2133 122.144 26.2249 123.396 26.2249Z" fill="#C2C2C2"/>
<path d="M138.05 26.1369C139.258 26.1369 140.4 25.1472 140.576 23.9376C140.774 22.728 139.939 21.7383 138.731 21.7383C137.522 21.7383 136.38 22.728 136.204 23.9376C136.007 25.1472 136.841 26.1369 138.05 26.1369Z" fill="#C2C2C2"/>
<path d="M152.703 26.005C153.846 26.005 154.922 25.0813 155.098 23.9376C155.274 22.794 154.483 21.8702 153.34 21.8702C152.198 21.8702 151.122 22.794 150.946 23.9376C150.77 25.0813 151.561 26.005 152.703 26.005Z" fill="#C2C2C2"/>
<path d="M167.379 25.851C168.434 25.851 169.422 24.9933 169.576 23.9376C169.73 22.8819 169.027 22.0242 167.972 22.0242C166.918 22.0242 165.929 22.8819 165.775 23.9376C165.622 24.9933 166.325 25.851 167.379 25.851Z" fill="#C2C2C2"/>
<path d="M182.033 25.719C183.021 25.719 183.944 24.9273 184.098 23.9376C184.252 22.9479 183.571 22.1561 182.582 22.1561C181.593 22.1561 180.671 22.9479 180.517 23.9376C180.363 24.9273 181.044 25.719 182.033 25.719Z" fill="#C2C2C2"/>
<path d="M196.708 25.5212C197.587 25.5212 198.4 24.8174 198.532 23.9376C198.663 23.0579 198.07 22.3541 197.191 22.3541C196.313 22.3541 195.5 23.0579 195.368 23.9376C195.236 24.8174 195.829 25.5212 196.708 25.5212Z" fill="#C2C2C2"/>
<path d="M211.384 25.3672C212.175 25.3672 212.899 24.7294 213.031 23.9376C213.163 23.1459 212.614 22.5081 211.823 22.5081C211.032 22.5081 210.307 23.1459 210.175 23.9376C210.043 24.7294 210.593 25.3672 211.384 25.3672Z" fill="#C2C2C2"/>
<path d="M226.037 25.1693C226.719 25.1693 227.334 24.6194 227.444 23.9596C227.553 23.2778 227.092 22.75 226.411 22.75C225.73 22.75 225.115 23.2998 225.005 23.9596C224.895 24.6414 225.356 25.1693 226.037 25.1693Z" fill="#C2C2C2"/>
<path d="M240.713 24.9493C241.284 24.9493 241.789 24.4874 241.877 23.9376C241.965 23.3658 241.57 22.9259 241.02 22.9259C240.471 22.9259 239.944 23.3878 239.856 23.9376C239.768 24.5094 240.164 24.9493 240.713 24.9493Z" fill="#C2C2C2"/>
<path d="M11.3523 40.7184C12.5167 40.7184 13.6151 39.7727 13.7909 38.6071C13.9666 37.4415 13.1758 36.4957 12.0114 36.4957C10.847 36.4957 9.74853 37.4415 9.57277 38.6071C9.39702 39.7727 10.1879 40.7184 11.3523 40.7184Z" fill="#C2C2C2"/>
<path d="M25.9621 40.9164C27.2363 40.9164 28.4446 39.8828 28.6423 38.6072C28.8401 37.3315 27.9613 36.2979 26.6871 36.2979C25.4128 36.2979 24.2045 37.3315 24.0068 38.6072C23.8091 39.8828 24.6878 40.9164 25.9621 40.9164Z" fill="#C2C2C2"/>
<path d="M40.5938 41.0264C41.9339 41.0264 43.2081 39.9268 43.4059 38.5852C43.6036 37.2436 42.7028 36.1439 41.3407 36.1439C39.9786 36.1439 38.7264 37.2436 38.5286 38.5852C38.3309 39.9268 39.2317 41.0264 40.5938 41.0264Z" fill="#C2C2C2"/>
<path d="M55.2032 41.1583C56.6092 41.1583 57.9274 40.0147 58.1471 38.6071C58.3668 37.1996 57.4001 36.0559 55.9941 36.0559C54.588 36.0559 53.2479 37.1996 53.0502 38.6071C52.8305 40.0147 53.7971 41.1583 55.2032 41.1583Z" fill="#C2C2C2"/>
<path d="M69.8349 41.2464C71.2849 41.2464 72.647 40.0588 72.8887 38.6072C73.1083 37.1557 72.1197 35.968 70.6698 35.968C69.2198 35.968 67.8577 37.1557 67.616 38.6072C67.3963 40.0588 68.3849 41.2464 69.8349 41.2464Z" fill="#C2C2C2"/>
<path d="M84.4667 41.2903C85.9386 41.2903 87.3227 40.0807 87.5643 38.6071C87.784 37.1336 86.7734 35.924 85.3015 35.924C83.8295 35.924 82.4455 37.1336 82.2038 38.6071C81.9841 40.0807 82.9947 41.2903 84.4667 41.2903Z" fill="#C2C2C2"/>
<path d="M99.098 41.2903C100.57 41.2903 101.954 40.0807 102.196 38.6071C102.415 37.1336 101.405 35.924 99.9329 35.924C98.4609 35.924 97.0768 37.1336 96.8352 38.6071C96.6155 40.0807 97.6261 41.2903 99.098 41.2903Z" fill="#C2C2C2"/>
<path d="M113.752 41.2464C115.202 41.2464 116.564 40.0588 116.806 38.6072C117.025 37.1557 116.037 35.968 114.587 35.968C113.137 35.968 111.775 37.1557 111.533 38.6072C111.313 40.0588 112.302 41.2464 113.752 41.2464Z" fill="#C2C2C2"/>
<path d="M128.405 41.1583C129.811 41.1583 131.152 40.0147 131.349 38.6071C131.569 37.1996 130.602 36.0559 129.196 36.0559C127.79 36.0559 126.45 37.1996 126.252 38.6071C126.033 40.0147 126.999 41.1583 128.405 41.1583Z" fill="#C2C2C2"/>
<path d="M143.059 41.0703C144.421 41.0703 145.717 39.9707 145.915 38.5851C146.134 37.2215 145.19 36.0999 143.828 36.0999C142.466 36.0999 141.169 37.1995 140.972 38.5851C140.752 39.9487 141.697 41.0703 143.059 41.0703Z" fill="#C2C2C2"/>
<path d="M157.713 40.9164C158.987 40.9164 160.195 39.8828 160.393 38.6072C160.591 37.3315 159.712 36.2979 158.438 36.2979C157.163 36.2979 155.955 37.3315 155.757 38.6072C155.56 39.8828 156.438 40.9164 157.713 40.9164Z" fill="#C2C2C2"/>
<path d="M172.388 40.7405C173.574 40.7405 174.695 39.7728 174.87 38.5852C175.046 37.3975 174.233 36.4298 173.047 36.4298C171.861 36.4298 170.74 37.3975 170.564 38.5852C170.389 39.7728 171.202 40.7405 172.388 40.7405Z" fill="#C2C2C2"/>
<path d="M187.063 40.5426C188.14 40.5426 189.151 39.6629 189.304 38.5852C189.48 37.5075 188.733 36.6278 187.657 36.6278C186.58 36.6278 185.57 37.5075 185.416 38.5852C185.24 39.6629 185.987 40.5426 187.063 40.5426Z" fill="#C2C2C2"/>
<path d="M201.739 40.3446C202.706 40.3446 203.607 39.5528 203.761 38.6071C203.914 37.6394 203.255 36.8696 202.289 36.8696C201.322 36.8696 200.421 37.6614 200.267 38.6071C200.114 39.5748 200.773 40.3446 201.739 40.3446Z" fill="#C2C2C2"/>
<path d="M216.393 40.1467C217.249 40.1467 218.04 39.4649 218.172 38.6072C218.304 37.7494 217.711 37.0676 216.876 37.0676C216.041 37.0676 215.228 37.7494 215.096 38.6072C214.965 39.4649 215.558 40.1467 216.393 40.1467Z" fill="#C2C2C2"/>
<path d="M231.068 39.9048C231.793 39.9048 232.452 39.333 232.562 38.6072C232.672 37.8814 232.189 37.3096 231.464 37.3096C230.739 37.3096 230.079 37.8814 229.97 38.6072C229.86 39.333 230.343 39.9048 231.068 39.9048Z" fill="#C2C2C2"/>
<path d="M1.72965 55.5639C3.00387 55.5639 4.21219 54.5302 4.40992 53.2546C4.60764 51.979 3.72887 50.9453 2.45464 50.9453C1.18042 50.9453 -0.0279038 51.979 -0.225628 53.2546C-0.423353 54.5302 0.455422 55.5639 1.72965 55.5639Z" fill="#C2C2C2"/>
<path d="M16.3394 55.7619C17.7235 55.7619 19.0417 54.6403 19.2394 53.2327C19.4591 51.8471 18.4924 50.7035 17.1084 50.7035C15.7243 50.7035 14.4061 51.8251 14.2084 53.2327C13.9887 54.6183 14.9554 55.7619 16.3394 55.7619Z" fill="#C2C2C2"/>
<path d="M30.9493 55.9818C32.4432 55.9818 33.8492 54.7722 34.0909 53.2546C34.3326 51.7591 33.3 50.5275 31.7841 50.5275C30.2682 50.5275 28.8842 51.7371 28.6425 53.2546C28.4008 54.7502 29.4334 55.9818 30.9493 55.9818Z" fill="#C2C2C2"/>
<path d="M45.5587 56.1358C47.1405 56.1358 48.6345 54.8382 48.8981 53.2546C49.1398 51.6711 48.0633 50.3735 46.4595 50.3735C44.8557 50.3735 43.3838 51.6711 43.1201 53.2546C42.8565 54.8382 43.955 56.1358 45.5587 56.1358Z" fill="#C2C2C2"/>
<path d="M60.1903 56.2677C61.86 56.2677 63.3978 54.9261 63.6615 53.2547C63.9251 51.5832 62.7827 50.2416 61.113 50.2416C59.4433 50.2416 57.9055 51.5832 57.6419 53.2547C57.3782 54.9261 58.5206 56.2677 60.1683 56.2677L60.1903 56.2677Z" fill="#C2C2C2"/>
<path d="M74.8221 56.3118C76.5137 56.3118 78.0735 54.9482 78.3372 53.2547C78.6008 51.5612 77.4364 50.1976 75.7667 50.1976C74.0971 50.1976 72.5153 51.5612 72.2516 53.2547C71.988 54.9482 73.1524 56.3118 74.8221 56.3118Z" fill="#C2C2C2"/>
<path d="M89.4533 56.3337C91.1669 56.3337 92.7487 54.9481 93.0124 53.2546C93.276 51.5391 92.1116 50.1755 90.398 50.1755C88.6844 50.1755 87.1026 51.5611 86.839 53.2546C86.5754 54.9701 87.7397 56.3337 89.4533 56.3337Z" fill="#C2C2C2"/>
<path d="M104.107 56.3118C105.799 56.3118 107.359 54.9482 107.622 53.2547C107.886 51.5612 106.722 50.1976 105.052 50.1976C103.382 50.1976 101.8 51.5612 101.537 53.2547C101.273 54.9482 102.438 56.3118 104.107 56.3118Z" fill="#C2C2C2"/>
<path d="M118.739 56.2677C120.408 56.2677 121.946 54.9261 122.21 53.2547C122.473 51.5832 121.331 50.2416 119.661 50.2416C117.992 50.2416 116.454 51.5832 116.19 53.2547C115.927 54.9261 117.069 56.2677 118.739 56.2677Z" fill="#C2C2C2"/>
<path d="M133.392 56.1358C134.974 56.1358 136.468 54.8382 136.732 53.2546C136.995 51.6711 135.897 50.3735 134.293 50.3735C132.689 50.3735 131.217 51.6711 130.954 53.2546C130.69 54.8382 131.788 56.1358 133.392 56.1358Z" fill="#C2C2C2"/>
<path d="M148.068 55.9818C149.562 55.9818 150.968 54.7722 151.21 53.2546C151.451 51.7591 150.419 50.5275 148.903 50.5275C147.387 50.5275 146.003 51.7371 145.761 53.2546C145.519 54.7502 146.552 55.9818 148.068 55.9818Z" fill="#C2C2C2"/>
<path d="M162.722 55.8059C164.128 55.8059 165.446 54.6623 165.666 53.2547C165.885 51.8471 164.919 50.7035 163.513 50.7035C162.107 50.7035 160.766 51.8471 160.569 53.2547C160.349 54.6623 161.316 55.8059 162.722 55.8059Z" fill="#C2C2C2"/>
<path d="M177.397 55.6079C178.693 55.6079 179.924 54.5522 180.121 53.2546C180.319 51.957 179.44 50.9014 178.122 50.9014C176.804 50.9014 175.596 51.957 175.398 53.2546C175.2 54.5522 176.079 55.6079 177.397 55.6079Z" fill="#C2C2C2"/>
<path d="M192.073 55.366C193.237 55.366 194.335 54.4203 194.511 53.2547C194.687 52.089 193.896 51.1433 192.732 51.1433C191.567 51.1433 190.469 52.089 190.293 53.2547C190.117 54.4203 190.908 55.366 192.073 55.366Z" fill="#C2C2C2"/>
<path d="M206.748 55.1241C207.78 55.1241 208.747 54.2884 208.901 53.2547C209.055 52.221 208.352 51.3853 207.319 51.3853C206.287 51.3853 205.32 52.221 205.166 53.2547C205.012 54.2884 205.715 55.1241 206.748 55.1241Z" fill="#C2C2C2"/>
<path d="M221.424 54.9261C222.346 54.9261 223.203 54.1783 223.357 53.2546C223.511 52.3309 222.874 51.5831 221.951 51.5831C221.028 51.5831 220.171 52.3309 220.018 53.2546C219.864 54.1783 220.501 54.9261 221.424 54.9261Z" fill="#C2C2C2"/>
<path d="M236.099 54.6842C236.89 54.6842 237.615 54.0464 237.747 53.2546C237.879 52.4629 237.33 51.8251 236.539 51.8251C235.748 51.8251 235.023 52.4629 234.891 53.2546C234.759 54.0464 235.309 54.6842 236.099 54.6842Z" fill="#C2C2C2"/>
<path d="M6.71686 70.6294C8.21078 70.6294 9.61682 69.4198 9.85848 67.9022C10.1001 66.4067 9.06759 65.175 7.55171 65.175C6.03582 65.175 4.65174 66.3847 4.41008 67.9022C4.16842 69.3978 5.20097 70.6294 6.71686 70.6294Z" fill="#C2C2C2"/>
<path d="M21.3266 70.8713C22.9524 70.8713 24.4902 69.5517 24.7539 67.9022C25.0175 66.2527 23.8971 64.9331 22.2493 64.9331C20.6016 64.9331 19.0858 66.2527 18.8221 67.9022C18.5585 69.5297 19.6789 70.8713 21.3266 70.8713Z" fill="#C2C2C2"/>
<path d="M35.9362 71.0472C37.6718 71.0472 39.2755 69.6397 39.5392 67.9242C39.8028 66.2087 38.6165 64.8011 36.9028 64.8011C35.1892 64.8011 33.5635 66.2087 33.2999 67.9242C33.0362 69.6617 34.2226 71.0472 35.9362 71.0472Z" fill="#C2C2C2"/>
<path d="M50.5456 71.2011C52.369 71.2011 54.0607 69.7276 54.3463 67.9021C54.6319 66.0767 53.3796 64.6031 51.5781 64.6031C49.7766 64.6031 48.063 66.0767 47.7774 67.9021C47.4918 69.7276 48.7441 71.2011 50.5456 71.2011Z" fill="#C2C2C2"/>
<path d="M65.1772 71.3332C67.0666 71.3332 68.8242 69.8156 69.1098 67.9242C69.3954 66.0328 68.1211 64.5153 66.2318 64.5153C64.3424 64.5153 62.5849 66.0328 62.2993 67.9242C62.0137 69.8156 63.2879 71.3332 65.1772 71.3332Z" fill="#C2C2C2"/>
<path d="M79.7868 71.3991C81.7201 71.3991 83.5216 69.8376 83.8291 67.9022C84.1367 65.9668 82.8185 64.4053 80.8852 64.4053C78.9519 64.4053 77.1504 65.9668 76.8429 67.9022C76.5353 69.8376 77.8535 71.3991 79.7868 71.3991Z" fill="#C2C2C2"/>
<path d="M94.4406 71.3991C96.3739 71.3991 98.1754 69.8376 98.4829 67.9022C98.7905 65.9668 97.4724 64.4053 95.539 64.4053C93.6057 64.4053 91.8043 65.9668 91.4967 67.9022C91.1891 69.8376 92.5073 71.3991 94.4406 71.3991Z" fill="#C2C2C2"/>
<path d="M109.094 71.3332C110.984 71.3332 112.741 69.8156 113.027 67.9242C113.312 66.0328 112.038 64.5153 110.149 64.5153C108.259 64.5153 106.502 66.0328 106.216 67.9242C105.931 69.8156 107.205 71.3332 109.094 71.3332Z" fill="#C2C2C2"/>
<path d="M123.748 71.2452C125.593 71.2452 127.307 69.7496 127.592 67.9022C127.878 66.0548 126.626 64.5592 124.78 64.5592C122.935 64.5592 121.221 66.0548 120.936 67.9022C120.65 69.7496 121.902 71.2452 123.748 71.2452Z" fill="#C2C2C2"/>
<path d="M138.401 71.0692C140.159 71.0692 141.785 69.6396 142.07 67.9021C142.334 66.1427 141.147 64.7351 139.39 64.7351C137.632 64.7351 136.007 66.1647 135.721 67.9021C135.435 69.6396 136.644 71.0692 138.401 71.0692Z" fill="#C2C2C2"/>
<path d="M153.077 70.8713C154.702 70.8713 156.24 69.5517 156.504 67.9022C156.767 66.2527 155.647 64.9331 153.999 64.9331C152.352 64.9331 150.836 66.2527 150.572 67.9022C150.308 69.5297 151.429 70.8713 153.077 70.8713Z" fill="#C2C2C2"/>
<path d="M167.752 70.6733C169.268 70.6733 170.696 69.4417 170.938 67.9021C171.18 66.3846 170.125 65.131 168.609 65.131C167.093 65.131 165.665 66.3626 165.424 67.9021C165.182 69.4197 166.237 70.6733 167.752 70.6733Z" fill="#C2C2C2"/>
<path d="M182.428 70.4314C183.812 70.4314 185.13 69.3097 185.328 67.9022C185.547 66.5166 184.603 65.3729 183.197 65.3729C181.791 65.3729 180.495 66.4946 180.297 67.9022C180.077 69.2877 181.044 70.4314 182.428 70.4314Z" fill="#C2C2C2"/>
<path d="M197.103 70.1454C198.334 70.1454 199.498 69.1558 199.674 67.9021C199.849 66.6485 199.015 65.6588 197.784 65.6588C196.554 65.6588 195.39 66.6485 195.214 67.9021C195.016 69.1338 195.873 70.1454 197.103 70.1454Z" fill="#C2C2C2"/>
<path d="M211.779 69.9035C212.878 69.9035 213.91 69.0018 214.086 67.9022C214.262 66.8025 213.515 65.9008 212.416 65.9008C211.318 65.9008 210.285 66.8025 210.11 67.9022C209.934 69.0018 210.681 69.9035 211.779 69.9035Z" fill="#C2C2C2"/>
<path d="M226.455 69.6616C227.421 69.6616 228.322 68.8698 228.476 67.9241C228.63 66.9564 227.971 66.1866 227.004 66.1866C226.037 66.1866 225.137 66.9784 224.983 67.9241C224.829 68.8918 225.488 69.6616 226.455 69.6616Z" fill="#C2C2C2"/>
<path d="M241.152 69.3757C241.965 69.3757 242.712 68.7159 242.844 67.9022C242.976 67.0884 242.426 66.4286 241.614 66.4286C240.801 66.4286 240.054 67.0884 239.922 67.9022C239.79 68.7159 240.339 69.3757 241.152 69.3757Z" fill="#C2C2C2"/>
<path d="M14.1828 84.7183C15.572 83.4313 15.8098 81.4268 14.7137 80.2411C13.6177 79.0554 11.603 79.1374 10.2137 80.4244C8.82445 81.7114 8.58675 83.7159 9.68278 84.9016C10.7788 86.0873 12.7935 86.0052 14.1828 84.7183Z" fill="#C2C2C2"/>
<path d="M26.2915 85.9806C28.1809 85.9806 29.9384 84.4631 30.224 82.5717C30.5096 80.6803 29.2354 79.1627 27.346 79.1627C25.4567 79.1627 23.6991 80.6803 23.4135 82.5717C23.1279 84.4631 24.4021 85.9806 26.2915 85.9806Z" fill="#C2C2C2"/>
<path d="M40.9013 86.1785C42.9005 86.1785 44.7679 84.551 45.0755 82.5716C45.383 80.5702 44.0209 78.9647 42.0217 78.9647C40.0225 78.9647 38.1551 80.5922 37.8475 82.5716C37.54 84.573 38.9021 86.1785 40.9013 86.1785Z" fill="#C2C2C2"/>
<path d="M55.5107 86.3545C57.5978 86.3545 59.5531 84.661 59.8826 82.5717C60.2121 80.4823 58.7841 78.7888 56.697 78.7888C54.6099 78.7888 52.6547 80.4823 52.3251 82.5717C51.9956 84.661 53.4236 86.3545 55.5107 86.3545Z" fill="#C2C2C2"/>
<path d="M70.1424 86.4205C72.2734 86.4205 74.2726 84.683 74.6022 82.5497C74.9317 80.4163 73.4818 78.6788 71.3507 78.6788C69.2197 78.6788 67.2205 80.4163 66.8909 82.5497C66.5614 84.683 68.0114 86.4205 70.1424 86.4205Z" fill="#C2C2C2"/>
<path d="M84.7741 86.4645C86.9271 86.4645 88.9483 84.727 89.2778 82.5717C89.6074 80.4163 88.1354 78.6788 85.9824 78.6788C83.8294 78.6788 81.8083 80.4163 81.4787 82.5717C81.1492 84.727 82.6211 86.4645 84.7741 86.4645Z" fill="#C2C2C2"/>
<path d="M99.4275 86.4205C101.559 86.4205 103.558 84.683 103.887 82.5497C104.217 80.4163 102.767 78.6788 100.636 78.6788C98.5048 78.6788 96.5056 80.4163 96.1761 82.5497C95.8465 84.683 97.2965 86.4205 99.4275 86.4205Z" fill="#C2C2C2"/>
<path d="M114.081 86.3545C116.168 86.3545 118.123 84.661 118.453 82.5717C118.782 80.4823 117.354 78.7888 115.267 78.7888C113.18 78.7888 111.225 80.4823 110.895 82.5717C110.566 84.661 111.994 86.3545 114.081 86.3545Z" fill="#C2C2C2"/>
<path d="M128.735 86.1785C130.734 86.1785 132.601 84.551 132.909 82.5716C133.217 80.5702 131.854 78.9647 129.855 78.9647C127.856 78.9647 125.989 80.5922 125.681 82.5716C125.373 84.551 126.736 86.1785 128.735 86.1785Z" fill="#C2C2C2"/>
<path d="M143.41 85.9806C145.3 85.9806 147.057 84.4631 147.343 82.5717C147.628 80.6803 146.354 79.1627 144.465 79.1627C142.575 79.1627 140.818 80.6803 140.532 82.5717C140.247 84.4631 141.521 85.9806 143.41 85.9806Z" fill="#C2C2C2"/>
<path d="M158.086 85.7387C159.844 85.7387 161.469 84.3092 161.755 82.5717C162.019 80.8122 160.832 79.4047 159.075 79.4047C157.317 79.4047 155.691 80.8342 155.406 82.5717C155.142 84.3312 156.328 85.7387 158.086 85.7387Z" fill="#C2C2C2"/>
<path d="M172.761 85.4968C174.365 85.4968 175.881 84.1772 176.145 82.5717C176.408 80.9662 175.288 79.6466 173.684 79.6466C172.08 79.6466 170.565 80.9662 170.301 82.5717C170.059 84.1772 171.158 85.4968 172.761 85.4968Z" fill="#C2C2C2"/>
<path d="M187.459 85.2109C188.909 85.2109 190.271 84.0233 190.513 82.5717C190.755 81.1201 189.744 79.9325 188.294 79.9325C186.844 79.9325 185.482 81.1201 185.24 82.5717C184.999 84.0233 186.009 85.2109 187.459 85.2109Z" fill="#C2C2C2"/>
<path d="M202.134 84.9249C203.431 84.9249 204.661 83.8693 204.859 82.5717C205.056 81.2741 204.178 80.2184 202.859 80.2184C201.541 80.2184 200.333 81.2741 200.135 82.5717C199.937 83.8693 200.816 84.9249 202.134 84.9249Z" fill="#C2C2C2"/>
<path d="M216.81 84.639C217.953 84.639 219.029 83.7153 219.205 82.5716C219.381 81.428 218.59 80.5043 217.447 80.5043C216.305 80.5043 215.229 81.428 215.053 82.5716C214.877 83.7153 215.668 84.639 216.81 84.639Z" fill="#C2C2C2"/>
<path d="M231.508 84.3531C232.496 84.3531 233.419 83.5613 233.573 82.5716C233.727 81.5819 233.046 80.7902 232.057 80.7902C231.068 80.7902 230.146 81.5819 229.992 82.5716C229.838 83.5613 230.519 84.3531 231.508 84.3531Z" fill="#C2C2C2"/>
<path d="M2.0812 100.518C3.90466 100.518 5.59632 99.0446 5.88192 97.2192C6.16752 95.3937 4.91526 93.9202 3.11377 93.9202C1.31228 93.9202 -0.401327 95.3937 -0.686929 97.2192C-0.972531 99.0446 0.279712 100.518 2.0812 100.518Z" fill="#C2C2C2"/>
<path d="M16.6689 100.804C18.6461 100.804 20.4916 99.1986 20.7992 97.2192C21.1067 95.2398 19.7446 93.6343 17.7893 93.6343C15.8341 93.6343 13.9667 95.2398 13.6591 97.2192C13.3515 99.1986 14.7136 100.804 16.6689 100.804Z" fill="#C2C2C2"/>
<path d="M31.2786 101.09C33.4096 101.09 35.4089 99.3525 35.7384 97.2192C36.0679 95.0858 34.618 93.3484 32.4869 93.3484C30.3559 93.3484 28.3567 95.0858 28.0272 97.2192C27.6976 99.3525 29.1476 101.09 31.2786 101.09Z" fill="#C2C2C2"/>
<path d="M45.8884 101.288C48.1293 101.288 50.2383 99.4625 50.5679 97.2191C50.9194 94.9758 49.3815 93.1504 47.1407 93.1504C44.8998 93.1504 42.7907 94.9758 42.4612 97.2191C42.1097 99.4625 43.6475 101.288 45.8884 101.288Z" fill="#C2C2C2"/>
<path d="M60.498 101.442C62.8268 101.442 65.0237 99.5504 65.3753 97.2192C65.7268 94.8879 64.145 92.9965 61.8162 92.9965C59.4875 92.9965 57.2905 94.8879 56.939 97.2192C56.5875 99.5504 58.1693 101.442 60.498 101.442Z" fill="#C2C2C2"/>
<path d="M75.1295 101.53C77.5022 101.53 79.7211 99.5945 80.0946 97.2192C80.4681 94.844 78.8424 92.9086 76.4697 92.9086C74.097 92.9086 71.878 94.844 71.5046 97.2192C71.1311 99.5945 72.7568 101.53 75.1295 101.53Z" fill="#C2C2C2"/>
<path d="M89.7612 101.574C92.1559 101.574 94.3968 99.6164 94.7703 97.2192C95.1437 94.8219 93.496 92.8645 91.1014 92.8645C88.7067 92.8645 86.4658 94.8219 86.0924 97.2192C85.7189 99.6164 87.3666 101.574 89.7612 101.574Z" fill="#C2C2C2"/>
<path d="M104.415 101.486C106.765 101.486 108.984 99.5725 109.336 97.2192C109.709 94.8659 108.084 92.9525 105.733 92.9525C103.382 92.9525 101.163 94.8659 100.812 97.2192C100.438 99.5725 102.064 101.486 104.415 101.486Z" fill="#C2C2C2"/>
<path d="M119.068 101.332C121.331 101.332 123.462 99.4845 123.814 97.2192C124.165 94.9539 122.606 93.1064 120.343 93.1064C118.08 93.1064 115.949 94.9539 115.597 97.2192C115.246 99.4845 116.806 101.332 119.068 101.332Z" fill="#C2C2C2"/>
<path d="M133.744 101.09C135.875 101.09 137.874 99.3525 138.204 97.2192C138.533 95.0858 137.083 93.3484 134.952 93.3484C132.821 93.3484 130.822 95.0858 130.492 97.2192C130.163 99.3525 131.613 101.09 133.744 101.09Z" fill="#C2C2C2"/>
<path d="M148.419 100.826C150.419 100.826 152.286 99.1986 152.594 97.2192C152.901 95.2178 151.539 93.6123 149.54 93.6123C147.541 93.6123 145.673 95.2398 145.366 97.2192C145.058 99.2206 146.42 100.826 148.419 100.826Z" fill="#C2C2C2"/>
<path d="M163.117 100.562C164.962 100.562 166.676 99.0666 166.961 97.2192C167.247 95.3718 165.995 93.8762 164.149 93.8762C162.304 93.8762 160.59 95.3718 160.305 97.2192C160.019 99.0666 161.271 100.562 163.117 100.562Z" fill="#C2C2C2"/>
<path d="M177.792 100.276C179.484 100.276 181.044 98.9127 181.307 97.2192C181.571 95.5257 180.407 94.1621 178.737 94.1621C177.067 94.1621 175.485 95.5257 175.222 97.2192C174.958 98.9127 176.123 100.276 177.792 100.276Z" fill="#C2C2C2"/>
<path d="M192.49 99.9464C193.984 99.9464 195.39 98.7368 195.632 97.2192C195.874 95.7237 194.841 94.4921 193.325 94.4921C191.809 94.4921 190.425 95.7017 190.184 97.2192C189.942 98.7148 190.974 99.9464 192.49 99.9464Z" fill="#C2C2C2"/>
<path d="M207.166 99.6164C208.484 99.6164 209.736 98.5388 209.934 97.2192C210.131 95.8996 209.231 94.8219 207.913 94.8219C206.594 94.8219 205.342 95.8996 205.144 97.2192C204.947 98.5388 205.847 99.6164 207.166 99.6164Z" fill="#C2C2C2"/>
<path d="M221.863 99.2866C223.005 99.2866 224.082 98.3629 224.258 97.2192C224.433 96.0756 223.643 95.1519 222.5 95.1519C221.358 95.1519 220.281 96.0756 220.106 97.2192C219.93 98.3629 220.721 99.2866 221.863 99.2866Z" fill="#C2C2C2"/>
<path d="M236.561 99.0007C237.549 99.0007 238.472 98.2089 238.626 97.2192C238.779 96.2295 238.098 95.4377 237.11 95.4377C236.121 95.4377 235.198 96.2295 235.045 97.2192C234.891 98.2089 235.572 99.0007 236.561 99.0007Z" fill="#C2C2C2"/>
<path d="M9.96572 114.406C11.6043 112.888 11.8839 110.523 10.5901 109.123C9.29625 107.723 6.91905 107.819 5.28044 109.337C3.64183 110.855 3.36231 113.22 4.65612 114.62C5.94993 116.02 8.32711 115.924 9.96572 114.406Z" fill="#C2C2C2"/>
<path d="M21.656 115.935C23.8969 115.935 26.0059 114.11 26.3355 111.867C26.687 109.623 25.1491 107.798 22.9083 107.798C20.6674 107.798 18.5583 109.623 18.2288 111.867C17.8772 114.11 19.4151 115.935 21.656 115.935Z" fill="#C2C2C2"/>
<path d="M36.2437 116.221C38.6383 116.221 40.8792 114.264 41.2527 111.867C41.6262 109.469 39.9785 107.512 37.5838 107.512C35.1891 107.512 32.9483 109.469 32.5748 111.867C32.2013 114.264 33.849 116.221 36.2437 116.221Z" fill="#C2C2C2"/>
<path d="M50.8535 116.419C53.358 116.419 55.7087 114.374 56.1041 111.867C56.4996 109.359 54.764 107.314 52.2595 107.314C49.755 107.314 47.4043 109.359 47.0088 111.867C46.6134 114.374 48.3489 116.419 50.8535 116.419Z" fill="#C2C2C2"/>
<path d="M65.4631 116.595C68.0555 116.595 70.4941 114.484 70.9115 111.889C71.307 109.293 69.5274 107.182 66.9351 107.182C64.3427 107.182 61.9041 109.293 61.4866 111.889C61.0912 114.484 62.8707 116.595 65.4631 116.595Z" fill="#C2C2C2"/>
<path d="M80.0946 116.661C82.7309 116.661 85.2134 114.506 85.6309 111.867C86.0483 109.227 84.2248 107.072 81.5885 107.072C78.9521 107.072 76.4696 109.227 76.0522 111.867C75.6348 114.506 77.4582 116.661 80.0946 116.661Z" fill="#C2C2C2"/>
<path d="M94.748 116.639C97.3623 116.639 99.8229 114.506 100.24 111.889C100.658 109.272 98.8563 107.138 96.2199 107.138C93.5836 107.138 91.145 109.272 90.7276 111.889C90.3102 114.506 92.1117 116.639 94.748 116.639Z" fill="#C2C2C2"/>
<path d="M109.402 116.463C111.928 116.463 114.301 114.418 114.696 111.867C115.092 109.316 113.356 107.27 110.83 107.27C108.303 107.27 105.931 109.316 105.535 111.867C105.14 114.396 106.875 116.463 109.402 116.463Z" fill="#C2C2C2"/>
<path d="M124.077 116.221C126.472 116.221 128.713 114.264 129.086 111.867C129.46 109.469 127.812 107.512 125.417 107.512C123.023 107.512 120.782 109.469 120.408 111.867C120.035 114.264 121.683 116.221 124.077 116.221Z" fill="#C2C2C2"/>
<path d="M138.775 115.935C141.016 115.935 143.125 114.11 143.454 111.867C143.806 109.623 142.268 107.798 140.027 107.798C137.786 107.798 135.677 109.623 135.347 111.867C134.996 114.11 136.534 115.935 138.775 115.935Z" fill="#C2C2C2"/>
<path d="M153.451 115.65C155.538 115.65 157.493 113.956 157.823 111.867C158.152 109.777 156.724 108.084 154.637 108.084C152.55 108.084 150.595 109.777 150.265 111.867C149.936 113.956 151.364 115.65 153.451 115.65Z" fill="#C2C2C2"/>
<path d="M168.148 115.298C170.037 115.298 171.795 113.78 172.08 111.889C172.366 109.997 171.092 108.48 169.202 108.48C167.313 108.48 165.556 109.997 165.27 111.889C164.984 113.78 166.259 115.298 168.148 115.298Z" fill="#C2C2C2"/>
<path d="M182.845 114.968C184.559 114.968 186.141 113.582 186.404 111.889C186.668 110.173 185.504 108.81 183.79 108.81C182.076 108.81 180.495 110.195 180.231 111.889C179.967 113.604 181.132 114.968 182.845 114.968Z" fill="#C2C2C2"/>
<path d="M197.521 114.638C199.037 114.638 200.465 113.406 200.707 111.867C200.948 110.349 199.894 109.096 198.378 109.096C196.862 109.096 195.434 110.327 195.192 111.867C194.951 113.384 196.005 114.638 197.521 114.638Z" fill="#C2C2C2"/>
<path d="M212.218 114.264C213.536 114.264 214.789 113.186 214.986 111.867C215.184 110.547 214.283 109.469 212.965 109.469C211.647 109.469 210.395 110.547 210.197 111.867C209.999 113.186 210.9 114.264 212.218 114.264Z" fill="#C2C2C2"/>
<path d="M226.916 113.956C228.059 113.956 229.135 113.032 229.311 111.889C229.487 110.745 228.696 109.821 227.553 109.821C226.411 109.821 225.334 110.745 225.159 111.889C224.983 113.032 225.774 113.956 226.916 113.956Z" fill="#C2C2C2"/>
<path d="M241.592 113.67C242.58 113.67 243.503 112.878 243.657 111.889C243.811 110.899 243.13 110.107 242.141 110.107C241.152 110.107 240.23 110.899 240.076 111.889C239.922 112.878 240.603 113.67 241.592 113.67Z" fill="#C2C2C2"/>
<path d="M12.0333 130.671C14.3181 130.671 16.4711 128.824 16.8226 126.536C17.1741 124.249 15.6143 122.401 13.3295 122.401C11.0447 122.401 8.89168 124.249 8.54017 126.536C8.18866 128.824 9.74848 130.671 12.0333 130.671Z" fill="#C2C2C2"/>
<path d="M26.6212 131.045C29.1037 131.045 31.4324 129.021 31.8279 126.536C32.2233 124.051 30.5097 122.028 28.0272 122.028C25.5446 122.028 23.2159 124.051 22.8204 126.536C22.425 129.021 24.1386 131.045 26.6212 131.045Z" fill="#C2C2C2"/>
<path d="M41.2088 131.375C43.8671 131.375 46.3716 129.219 46.789 126.536C47.2064 123.875 45.383 121.698 42.7027 121.698C40.0224 121.698 37.5399 123.853 37.1225 126.536C36.7051 129.197 38.5285 131.375 41.2088 131.375Z" fill="#C2C2C2"/>
<path d="M55.8185 131.617C58.6306 131.617 61.2449 129.351 61.6843 126.536C62.1237 123.721 60.1904 121.456 57.4003 121.456C54.6102 121.456 51.9738 123.721 51.5345 126.536C51.0951 129.351 53.0284 131.617 55.8185 131.617Z" fill="#C2C2C2"/>
<path d="M70.4281 131.771C73.3281 131.771 76.0303 129.417 76.4697 126.536C76.9091 123.633 74.9319 121.302 72.0539 121.302C69.1759 121.302 66.4517 123.655 66.0123 126.536C65.5729 129.439 67.5502 131.771 70.4281 131.771Z" fill="#C2C2C2"/>
<path d="M85.0595 131.771C87.9594 131.771 90.6617 129.417 91.101 126.536C91.5404 123.633 89.5632 121.302 86.6852 121.302C83.8072 121.302 81.083 123.655 80.6436 126.536C80.2042 129.439 82.1815 131.771 85.0595 131.771Z" fill="#C2C2C2"/>
<path d="M99.7355 131.617C102.548 131.617 105.162 129.351 105.601 126.536C106.041 123.721 104.107 121.456 101.317 121.456C98.5272 121.456 95.8908 123.721 95.4514 126.536C95.0121 129.351 96.9454 131.617 99.7355 131.617Z" fill="#C2C2C2"/>
<path d="M114.411 131.375C117.069 131.375 119.574 129.219 119.991 126.536C120.409 123.875 118.585 121.698 115.905 121.698C113.225 121.698 110.742 123.853 110.325 126.536C109.907 129.197 111.731 131.375 114.411 131.375Z" fill="#C2C2C2"/>
<path d="M129.086 131.089C131.591 131.089 133.942 129.043 134.337 126.536C134.733 124.029 132.997 121.984 130.492 121.984C127.988 121.984 125.637 124.029 125.242 126.536C124.846 129.043 126.582 131.089 129.086 131.089Z" fill="#C2C2C2"/>
<path d="M143.784 130.715C146.09 130.715 148.265 128.845 148.617 126.536C148.968 124.227 147.387 122.357 145.08 122.357C142.773 122.357 140.598 124.227 140.247 126.536C139.895 128.845 141.477 130.715 143.784 130.715Z" fill="#C2C2C2"/>
<path d="M158.481 130.341C160.59 130.341 162.568 128.626 162.897 126.514C163.227 124.403 161.777 122.687 159.668 122.687C157.559 122.687 155.581 124.403 155.252 126.514C154.922 128.626 156.372 130.341 158.481 130.341Z" fill="#C2C2C2"/>
<path d="M173.179 129.989C175.09 129.989 176.87 128.45 177.156 126.536C177.441 124.623 176.145 123.083 174.234 123.083C172.322 123.083 170.543 124.623 170.257 126.536C169.972 128.45 171.268 129.989 173.179 129.989Z" fill="#C2C2C2"/>
<path d="M187.877 129.615C189.59 129.615 191.172 128.23 191.436 126.536C191.699 124.843 190.535 123.457 188.821 123.457C187.108 123.457 185.526 124.843 185.262 126.536C184.999 128.252 186.163 129.615 187.877 129.615Z" fill="#C2C2C2"/>
<path d="M202.574 129.263C204.068 129.263 205.474 128.054 205.715 126.536C205.957 125.041 204.925 123.809 203.409 123.809C201.893 123.809 200.509 125.019 200.267 126.536C200.025 128.032 201.058 129.263 202.574 129.263Z" fill="#C2C2C2"/>
<path d="M217.272 128.889C218.568 128.889 219.798 127.834 219.996 126.536C220.194 125.239 219.315 124.183 217.997 124.183C216.678 124.183 215.47 125.239 215.272 126.536C215.075 127.834 215.953 128.889 217.272 128.889Z" fill="#C2C2C2"/>
<path d="M231.969 128.56C233.09 128.56 234.144 127.658 234.32 126.536C234.496 125.415 233.727 124.513 232.606 124.513C231.486 124.513 230.431 125.415 230.255 126.536C230.08 127.658 230.849 128.56 231.969 128.56Z" fill="#C2C2C2"/>
<path d="M2.4547 145.34C4.73952 145.34 6.8925 143.493 7.24401 141.206C7.59552 138.918 6.03571 137.071 3.75089 137.071C1.46607 137.071 -0.686932 138.918 -1.03844 141.206C-1.38995 143.493 0.169883 145.34 2.4547 145.34Z" fill="#C2C2C2"/>
<path d="M17.0204 145.736C19.525 145.736 21.8757 143.691 22.2711 141.184C22.6666 138.676 20.931 136.631 18.4265 136.631C15.922 136.631 13.5713 138.676 13.1758 141.184C12.7804 143.691 14.5159 145.736 17.0204 145.736Z" fill="#C2C2C2"/>
<path d="M31.608 146.154C34.3322 146.154 36.9026 143.933 37.3201 141.206C37.7375 138.457 35.8701 136.257 33.1459 136.257C30.4217 136.257 27.8512 138.479 27.4338 141.206C27.0164 143.955 28.8838 146.154 31.608 146.154Z" fill="#C2C2C2"/>
<path d="M46.1739 146.506C49.1178 146.506 51.8639 144.131 52.3253 141.184C52.7867 138.237 50.7655 135.861 47.8435 135.861C44.9216 135.861 42.1535 138.237 41.6921 141.184C41.2307 144.131 43.2519 146.506 46.1739 146.506Z" fill="#C2C2C2"/>
<path d="M60.7835 146.792C63.8812 146.792 66.7812 144.285 67.2645 141.184C67.7478 138.083 65.6168 135.575 62.5411 135.575C59.4654 135.575 56.5434 138.083 56.0601 141.184C55.5768 144.285 57.7078 146.792 60.7835 146.792Z" fill="#C2C2C2"/>
<path d="M75.3932 146.924C78.5568 146.924 81.5227 144.351 82.006 141.184C82.4893 138.017 80.3363 135.443 77.1727 135.443C74.0091 135.443 71.0433 138.017 70.56 141.184C70.0766 144.351 72.2296 146.924 75.3932 146.924Z" fill="#C2C2C2"/>
<path d="M94.4484 144.989C96.9063 142.712 97.3222 139.161 95.3774 137.057C93.4326 134.953 89.8634 135.093 87.4055 137.37C84.9476 139.647 84.5317 143.198 86.4765 145.302C88.4213 147.406 91.9905 147.266 94.4484 144.989Z" fill="#C2C2C2"/>
<path d="M104.744 146.55C107.71 146.55 110.478 144.153 110.939 141.184C111.401 138.215 109.38 135.817 106.414 135.817C103.448 135.817 100.68 138.215 100.218 141.184C99.7571 144.153 101.778 146.55 104.744 146.55Z" fill="#C2C2C2"/>
<path d="M119.442 146.176C122.21 146.176 124.78 143.933 125.22 141.184C125.637 138.413 123.77 136.191 121.002 136.191C118.234 136.191 115.663 138.435 115.224 141.184C114.806 143.955 116.674 146.176 119.442 146.176Z" fill="#C2C2C2"/>
<path d="M134.139 145.78C136.666 145.78 139.038 143.735 139.434 141.184C139.829 138.655 138.094 136.587 135.567 136.587C133.041 136.587 130.668 138.633 130.272 141.184C129.877 143.713 131.613 145.78 134.139 145.78Z" fill="#C2C2C2"/>
<path d="M148.837 145.406C151.166 145.406 153.363 143.515 153.714 141.184C154.066 138.852 152.484 136.961 150.155 136.961C147.826 136.961 145.629 138.852 145.278 141.184C144.926 143.515 146.508 145.406 148.837 145.406Z" fill="#C2C2C2"/>
<path d="M163.535 145.011C165.644 145.011 167.621 143.295 167.95 141.184C168.28 139.072 166.83 137.357 164.721 137.357C162.612 137.357 160.635 139.072 160.305 141.184C159.975 143.295 161.425 145.011 163.535 145.011Z" fill="#C2C2C2"/>
<path d="M178.232 144.593C180.121 144.593 181.879 143.075 182.164 141.184C182.45 139.292 181.176 137.775 179.286 137.775C177.397 137.775 175.64 139.292 175.354 141.184C175.068 143.075 176.343 144.593 178.232 144.593Z" fill="#C2C2C2"/>
<path d="M192.952 144.197C194.621 144.197 196.159 142.855 196.423 141.184C196.686 139.512 195.544 138.171 193.874 138.171C192.205 138.171 190.667 139.512 190.403 141.184C190.139 142.855 191.282 144.197 192.93 144.197L192.952 144.197Z" fill="#C2C2C2"/>
<path d="M207.649 143.823C209.099 143.823 210.461 142.635 210.703 141.184C210.922 139.732 209.934 138.545 208.484 138.545C207.034 138.545 205.672 139.732 205.43 141.184C205.21 142.635 206.199 143.823 207.649 143.823Z" fill="#C2C2C2"/>
<path d="M222.324 143.471C223.577 143.471 224.763 142.459 224.961 141.206C225.159 139.952 224.302 138.94 223.049 138.94C221.797 138.94 220.611 139.952 220.413 141.206C220.215 142.459 221.072 143.471 222.324 143.471Z" fill="#C2C2C2"/>
<path d="M237.022 143.141C238.098 143.141 239.109 142.261 239.263 141.184C239.439 140.106 238.692 139.226 237.615 139.226C236.539 139.226 235.528 140.106 235.374 141.184C235.199 142.261 235.945 143.141 237.022 143.141Z" fill="#C2C2C2"/>
<path d="M7.44195 160.362C9.92449 160.362 12.2533 158.338 12.6487 155.853C13.0442 153.368 11.3305 151.345 8.84799 151.345C6.36545 151.345 4.03669 153.368 3.64124 155.853C3.24579 158.338 4.95941 160.362 7.44195 160.362Z" fill="#C2C2C2"/>
<path d="M22.0074 160.802C24.7316 160.802 27.302 158.58 27.7195 155.853C28.1369 153.104 26.2695 150.905 23.5453 150.905C20.8211 150.905 18.2507 153.126 17.8332 155.853C17.4158 158.58 19.2832 160.802 22.0074 160.802Z" fill="#C2C2C2"/>
<path d="M36.5952 161.198C39.5611 161.198 42.3292 158.8 42.7906 155.831C43.2519 152.862 41.2307 150.465 38.2649 150.465C35.299 150.465 32.5309 152.862 32.0695 155.831C31.6081 158.8 33.6293 161.198 36.5952 161.198Z" fill="#C2C2C2"/>
<path d="M55.7327 159.805C58.2797 157.445 58.7077 153.762 56.6887 151.578C54.6697 149.393 50.9682 149.535 48.4213 151.895C45.8743 154.254 45.4463 157.938 47.4653 160.122C49.4843 162.306 53.1857 162.164 55.7327 159.805Z" fill="#C2C2C2"/>
<path d="M65.7485 161.989C69.1318 161.989 72.2954 159.24 72.8227 155.853C73.3499 152.466 71.0212 149.717 67.6379 149.717C64.2546 149.717 61.091 152.466 60.5637 155.853C60.0365 159.24 62.3652 161.989 65.7485 161.989Z" fill="#C2C2C2"/>
<path d="M80.3804 162.011C83.7856 162.011 86.9712 159.24 87.4984 155.831C88.0257 152.422 85.6969 149.651 82.2917 149.651C78.8864 149.651 75.7009 152.422 75.1736 155.831C74.6463 159.24 76.9751 162.011 80.3804 162.011Z" fill="#C2C2C2"/>
<path d="M95.0778 161.703C98.3073 161.703 101.339 159.086 101.822 155.853C102.328 152.62 100.109 150.003 96.8793 150.003C93.6498 150.003 90.618 152.62 90.1347 155.853C89.6294 159.086 91.8483 161.703 95.0778 161.703Z" fill="#C2C2C2"/>
<path d="M109.775 161.286C112.785 161.286 115.597 158.844 116.058 155.831C116.52 152.818 114.477 150.377 111.467 150.377C108.457 150.377 105.645 152.818 105.184 155.831C104.722 158.844 106.765 161.286 109.775 161.286Z" fill="#C2C2C2"/>
<path d="M124.473 160.846C127.241 160.846 129.811 158.602 130.251 155.853C130.668 153.082 128.801 150.861 126.033 150.861C123.264 150.861 120.694 153.104 120.255 155.853C119.837 158.624 121.705 160.846 124.473 160.846Z" fill="#C2C2C2"/>
<path d="M139.192 160.384C141.697 160.384 144.048 158.339 144.443 155.831C144.838 153.324 143.103 151.279 140.598 151.279C138.094 151.279 135.743 153.324 135.348 155.831C134.952 158.339 136.688 160.384 139.192 160.384Z" fill="#C2C2C2"/>
<path d="M153.89 159.944C156.153 159.944 158.284 158.097 158.635 155.831C158.987 153.566 157.427 151.719 155.164 151.719C152.901 151.719 150.77 153.566 150.419 155.831C150.067 158.097 151.627 159.944 153.89 159.944Z" fill="#C2C2C2"/>
<path d="M168.609 159.548C170.652 159.548 172.564 157.899 172.871 155.853C173.179 153.808 171.795 152.158 169.752 152.158C167.708 152.158 165.797 153.808 165.49 155.853C165.182 157.899 166.566 159.548 168.609 159.548Z" fill="#C2C2C2"/>
<path d="M183.307 159.13C185.13 159.13 186.822 157.657 187.108 155.831C187.393 154.006 186.141 152.532 184.339 152.532C182.538 152.532 180.824 154.006 180.539 155.831C180.253 157.657 181.505 159.13 183.307 159.13Z" fill="#C2C2C2"/>
<path d="M198.004 158.778C199.608 158.778 201.124 157.459 201.387 155.853C201.629 154.248 200.531 152.928 198.927 152.928C197.323 152.928 195.807 154.248 195.544 155.853C195.302 157.459 196.4 158.778 198.004 158.778Z" fill="#C2C2C2"/>
<path d="M212.702 158.36C214.086 158.36 215.404 157.239 215.602 155.831C215.821 154.446 214.855 153.302 213.471 153.302C212.087 153.302 210.768 154.424 210.571 155.831C210.351 157.217 211.296 158.36 212.702 158.36Z" fill="#C2C2C2"/>
<path d="M227.4 157.987C228.586 157.987 229.706 157.019 229.882 155.831C230.058 154.644 229.245 153.676 228.059 153.676C226.872 153.676 225.752 154.644 225.576 155.831C225.4 157.019 226.213 157.987 227.4 157.987Z" fill="#C2C2C2"/>
<path d="M242.097 157.679C243.108 157.679 244.052 156.865 244.206 155.853C244.36 154.842 243.679 154.028 242.668 154.028C241.658 154.028 240.713 154.842 240.559 155.853C240.405 156.865 241.087 157.679 242.097 157.679Z" fill="#C2C2C2"/>
<path d="M12.451 175.295C15.0873 175.295 17.5699 173.14 17.9873 170.501C18.4047 167.862 16.5813 165.706 13.9449 165.706C11.3086 165.706 8.82606 167.862 8.40865 170.501C7.99123 173.14 9.81468 175.295 12.451 175.295Z" fill="#C2C2C2"/>
<path d="M27.0165 175.735C29.9165 175.735 32.6187 173.382 33.0581 170.501C33.4975 167.62 31.5202 165.266 28.6422 165.266C25.7643 165.266 23.04 167.62 22.6007 170.501C22.1613 173.382 24.1385 175.735 27.0165 175.735Z" fill="#C2C2C2"/>
<path d="M41.5822 176.219C44.7458 176.219 47.7117 173.646 48.195 170.479C48.6783 167.312 46.5253 164.739 43.3617 164.739C40.1981 164.739 37.2322 167.312 36.7489 170.479C36.2656 173.646 38.4186 176.219 41.5822 176.219Z" fill="#C2C2C2"/>
<path d="M56.1478 176.725C59.5751 176.725 62.7826 173.932 63.3318 170.501C63.8591 167.07 61.5084 164.277 58.0811 164.277C54.6539 164.277 51.4464 167.07 50.8971 170.501C50.3699 173.932 52.7206 176.725 56.1478 176.725Z" fill="#C2C2C2"/>
<path d="M70.7358 177.033C74.3387 177.033 77.722 174.108 78.2932 170.479C78.8644 166.872 76.3819 163.925 72.7789 163.925C69.1759 163.925 65.7926 166.85 65.2214 170.479C64.6502 174.086 67.1328 177.033 70.7358 177.033Z" fill="#C2C2C2"/>
<path d="M85.411 176.747C88.8602 176.747 92.0897 173.954 92.6389 170.479C93.1662 167.026 90.8154 164.211 87.3663 164.211C83.9171 164.211 80.6876 167.004 80.1383 170.479C79.6111 173.932 81.9618 176.747 85.411 176.747Z" fill="#C2C2C2"/>
<path d="M100.13 176.263C103.316 176.263 106.304 173.69 106.787 170.501C107.292 167.312 105.096 164.739 101.91 164.739C98.7244 164.739 95.7366 167.312 95.2532 170.501C94.7699 173.69 96.9449 176.263 100.13 176.263Z" fill="#C2C2C2"/>
<path d="M114.85 175.779C117.772 175.779 120.496 173.404 120.958 170.501C121.419 167.598 119.42 165.222 116.498 165.222C113.576 165.222 110.852 167.598 110.39 170.501C109.929 173.404 111.928 175.779 114.85 175.779Z" fill="#C2C2C2"/>
<path d="M129.548 175.339C132.206 175.339 134.71 173.184 135.128 170.501C135.545 167.84 133.722 165.662 131.042 165.662C128.361 165.662 125.879 167.818 125.461 170.501C125.044 173.162 126.867 175.339 129.548 175.339Z" fill="#C2C2C2"/>
<path d="M144.267 174.877C146.684 174.877 148.947 172.92 149.342 170.479C149.715 168.059 148.068 166.08 145.629 166.08C143.191 166.08 140.95 168.037 140.554 170.479C140.181 172.898 141.828 174.877 144.267 174.877Z" fill="#C2C2C2"/>
<path d="M158.965 174.438C161.14 174.438 163.183 172.678 163.512 170.501C163.842 168.323 162.37 166.564 160.195 166.564C158.02 166.564 155.977 168.323 155.647 170.501C155.318 172.678 156.79 174.438 158.965 174.438Z" fill="#C2C2C2"/>
<path d="M173.684 174.042C175.639 174.042 177.463 172.458 177.77 170.501C178.078 168.543 176.738 166.96 174.783 166.96C172.827 166.96 171.004 168.543 170.696 170.501C170.389 172.458 171.729 174.042 173.684 174.042Z" fill="#C2C2C2"/>
<path d="M188.382 173.624C190.118 173.624 191.721 172.216 191.985 170.501C192.249 168.763 191.062 167.378 189.349 167.378C187.635 167.378 186.009 168.785 185.746 170.501C185.482 172.216 186.668 173.624 188.382 173.624Z" fill="#C2C2C2"/>
<path d="M203.079 173.228C204.573 173.228 205.979 172.018 206.221 170.501C206.462 169.005 205.43 167.774 203.914 167.774C202.398 167.774 201.014 168.983 200.772 170.501C200.531 171.996 201.563 173.228 203.079 173.228Z" fill="#C2C2C2"/>
<path d="M217.777 172.854C219.073 172.854 220.303 171.798 220.501 170.501C220.699 169.203 219.82 168.147 218.502 168.147C217.184 168.147 215.975 169.203 215.778 170.501C215.58 171.798 216.459 172.854 217.777 172.854Z" fill="#C2C2C2"/>
<path d="M232.474 172.524C233.595 172.524 234.649 171.622 234.825 170.501C235.001 169.379 234.232 168.477 233.112 168.477C231.991 168.477 230.937 169.379 230.761 170.501C230.585 171.622 231.354 172.524 232.474 172.524Z" fill="#C2C2C2"/>
<path d="M2.8941 189.657C5.37664 189.657 7.70541 187.633 8.10085 185.148C8.4963 182.663 6.78268 180.64 4.30014 180.64C1.8176 180.64 -0.511163 182.663 -0.906612 185.148C-1.30206 187.633 0.411559 189.657 2.8941 189.657Z" fill="#C2C2C2"/>
<path d="M17.4596 190.119C20.2057 190.119 22.7542 187.897 23.1716 185.17C23.589 182.421 21.7216 180.222 18.9974 180.222C16.2732 180.222 13.7028 182.443 13.2854 185.17C12.868 187.897 14.7354 190.119 17.4596 190.119Z" fill="#C2C2C2"/>
<path d="M32.0258 190.559C35.0136 190.559 37.8037 188.139 38.2651 185.148C38.7264 182.157 36.6833 179.738 33.6954 179.738C30.7076 179.738 27.9175 182.157 27.4561 185.148C26.9948 188.139 29.0379 190.559 32.0258 190.559Z" fill="#C2C2C2"/>
<path d="M51.1575 189.105C53.7045 186.745 54.1325 183.062 52.1135 180.878C50.0945 178.694 46.393 178.836 43.8461 181.195C41.2991 183.554 40.8711 187.238 42.8901 189.422C44.9091 191.606 48.6105 191.464 51.1575 189.105Z" fill="#C2C2C2"/>
<path d="M61.2007 191.328C64.6059 191.328 67.7915 188.557 68.3187 185.148C68.846 181.739 66.5172 178.968 63.112 178.968C59.7067 178.968 56.5212 181.739 55.9939 185.148C55.4666 188.557 57.7954 191.328 61.2007 191.328Z" fill="#C2C2C2"/>
<path d="M75.8324 191.372C79.2596 191.372 82.4672 188.579 83.0164 185.148C83.5437 181.717 81.1929 178.924 77.7657 178.924C74.3385 178.924 71.1309 181.717 70.5817 185.148C70.0544 188.579 72.4052 191.372 75.8324 191.372Z" fill="#C2C2C2"/>
<path d="M90.508 191.042C93.7595 191.042 96.8132 188.403 97.3185 185.148C97.8238 181.893 95.6049 179.254 92.3534 179.254C89.102 179.254 86.0482 181.893 85.5429 185.148C85.0376 188.403 87.2565 191.042 90.508 191.042Z" fill="#C2C2C2"/>
<path d="M105.227 190.603C108.237 190.603 111.049 188.161 111.511 185.148C111.972 182.135 109.929 179.694 106.919 179.694C103.909 179.694 101.097 182.135 100.636 185.148C100.174 188.161 102.218 190.603 105.227 190.603Z" fill="#C2C2C2"/>
<path d="M119.925 190.163C122.693 190.163 125.263 187.919 125.703 185.17C126.12 182.399 124.253 180.178 121.485 180.178C118.717 180.178 116.146 182.421 115.707 185.17C115.289 187.941 117.157 190.163 119.925 190.163Z" fill="#C2C2C2"/>
<path d="M134.644 189.701C137.149 189.701 139.5 187.656 139.895 185.148C140.291 182.641 138.555 180.596 136.051 180.596C133.546 180.596 131.195 182.641 130.8 185.148C130.404 187.656 132.14 189.701 134.644 189.701Z" fill="#C2C2C2"/>
<path d="M149.342 189.305C151.627 189.305 153.78 187.458 154.131 185.17C154.483 182.883 152.923 181.036 150.638 181.036C148.353 181.036 146.2 182.883 145.849 185.17C145.497 187.458 147.057 189.305 149.342 189.305Z" fill="#C2C2C2"/>
<path d="M164.062 188.843C166.105 188.843 168.016 187.194 168.324 185.148C168.631 183.103 167.247 181.453 165.204 181.453C163.161 181.453 161.25 183.103 160.942 185.148C160.635 187.194 162.019 188.843 164.062 188.843Z" fill="#C2C2C2"/>
<path d="M178.759 188.447C180.582 188.447 182.274 186.974 182.56 185.148C182.845 183.323 181.593 181.849 179.792 181.849C177.99 181.849 176.276 183.323 175.991 185.148C175.705 186.974 176.957 188.447 178.759 188.447Z" fill="#C2C2C2"/>
<path d="M193.457 188.073C195.06 188.073 196.576 186.754 196.84 185.148C197.103 183.543 195.983 182.223 194.379 182.223C192.776 182.223 191.26 183.543 190.996 185.148C190.732 186.754 191.853 188.073 193.457 188.073Z" fill="#C2C2C2"/>
<path d="M208.154 187.677C209.538 187.677 210.856 186.556 211.054 185.148C211.274 183.763 210.329 182.619 208.923 182.619C207.517 182.619 206.221 183.741 206.023 185.148C205.803 186.534 206.748 187.677 208.154 187.677Z" fill="#C2C2C2"/>
<path d="M222.852 187.304C224.038 187.304 225.159 186.336 225.334 185.148C225.51 183.961 224.697 182.993 223.511 182.993C222.324 182.993 221.204 183.961 221.028 185.148C220.853 186.336 221.665 187.304 222.852 187.304Z" fill="#C2C2C2"/>
<path d="M237.549 186.974C238.56 186.974 239.505 186.16 239.658 185.148C239.812 184.137 239.131 183.323 238.12 183.323C237.11 183.323 236.165 184.137 236.011 185.148C235.858 186.16 236.539 186.974 237.549 186.974Z" fill="#C2C2C2"/>
<path d="M7.92522 204.392C10.4517 204.392 12.8244 202.347 13.2198 199.796C13.6153 197.267 11.8797 195.199 9.35323 195.199C6.82675 195.199 4.45405 197.245 4.0586 199.796C3.66315 202.325 5.39874 204.392 7.92522 204.392Z" fill="#C2C2C2"/>
<path d="M22.5127 204.81C25.2809 204.81 27.8513 202.567 28.2907 199.818C28.7081 197.047 26.8407 194.825 24.0726 194.825C21.3044 194.825 18.734 197.069 18.2946 199.818C17.8772 202.589 19.7446 204.81 22.5127 204.81Z" fill="#C2C2C2"/>
<path d="M37.0786 205.184C40.0445 205.184 42.8126 202.787 43.274 199.818C43.7353 196.849 41.7141 194.451 38.7483 194.451C35.7824 194.451 33.0143 196.849 32.5529 199.818C32.0915 202.787 34.1127 205.184 37.0786 205.184Z" fill="#C2C2C2"/>
<path d="M51.6883 205.448C54.8079 205.448 57.7298 202.919 58.2132 199.796C58.6965 196.673 56.5655 194.144 53.4458 194.144C50.3262 194.144 47.4042 196.673 46.9209 199.796C46.4376 202.919 48.5686 205.448 51.6883 205.448Z" fill="#C2C2C2"/>
<path d="M66.2979 205.58C69.4835 205.58 72.4713 203.007 72.9547 199.818C73.438 196.629 71.263 194.056 68.0774 194.056C64.8919 194.056 61.904 196.629 61.4207 199.818C60.9374 203.007 63.1124 205.58 66.2979 205.58Z" fill="#C2C2C2"/>
<path d="M80.9514 205.448C84.0711 205.448 86.993 202.919 87.4764 199.796C87.9597 196.673 85.8287 194.144 82.709 194.144C79.5893 194.144 76.6674 196.673 76.1841 199.796C75.7008 202.919 77.8318 205.448 80.9514 205.448Z" fill="#C2C2C2"/>
<path d="M95.6488 205.206C98.6367 205.206 101.427 202.787 101.888 199.796C102.349 196.805 100.306 194.385 97.3185 194.385C94.3306 194.385 91.5405 196.805 91.0792 199.796C90.6178 202.787 92.661 205.206 95.6488 205.206Z" fill="#C2C2C2"/>
<path d="M114.285 203.249C116.494 201.203 116.868 198.012 115.121 196.122C113.374 194.232 110.167 194.358 107.958 196.404C105.75 198.45 105.376 201.641 107.123 203.531C108.87 205.421 112.076 205.294 114.285 203.249Z" fill="#C2C2C2"/>
<path d="M125.044 204.436C127.592 204.436 129.987 202.369 130.382 199.796C130.778 197.245 129.02 195.155 126.472 195.155C123.923 195.155 121.529 197.223 121.133 199.796C120.738 202.347 122.495 204.436 125.044 204.436Z" fill="#C2C2C2"/>
<path d="M143.071 202.692C144.924 200.976 145.236 198.298 143.769 196.712C142.302 195.125 139.612 195.229 137.759 196.945C135.907 198.661 135.594 201.339 137.061 202.926C138.528 204.513 141.219 204.408 143.071 202.692Z" fill="#C2C2C2"/>
<path d="M154.439 203.623C156.548 203.623 158.525 201.907 158.855 199.796C159.184 197.684 157.734 195.969 155.625 195.969C153.516 195.969 151.539 197.684 151.209 199.796C150.88 201.907 152.33 203.623 154.439 203.623Z" fill="#C2C2C2"/>
<path d="M169.137 203.227C171.026 203.227 172.784 201.709 173.069 199.818C173.355 197.926 172.081 196.409 170.191 196.409C168.302 196.409 166.544 197.926 166.259 199.818C165.973 201.709 167.247 203.227 169.137 203.227Z" fill="#C2C2C2"/>
<path d="M183.834 202.853C185.526 202.853 187.086 201.489 187.349 199.796C187.613 198.102 186.449 196.739 184.779 196.739C183.109 196.739 181.527 198.102 181.264 199.796C181 201.489 182.165 202.853 183.834 202.853Z" fill="#C2C2C2"/>
<path d="M198.553 202.457C200.003 202.457 201.366 201.269 201.607 199.818C201.849 198.366 200.838 197.179 199.388 197.179C197.938 197.179 196.576 198.366 196.335 199.818C196.093 201.269 197.103 202.457 198.553 202.457Z" fill="#C2C2C2"/>
<path d="M213.229 202.127C214.503 202.127 215.712 201.093 215.909 199.818C216.107 198.542 215.228 197.508 213.954 197.508C212.68 197.508 211.472 198.542 211.274 199.818C211.076 201.093 211.955 202.127 213.229 202.127Z" fill="#C2C2C2"/>
<path d="M227.927 201.753C229.003 201.753 230.014 200.873 230.168 199.796C230.343 198.718 229.596 197.838 228.52 197.838C227.443 197.838 226.433 198.718 226.279 199.796C226.103 200.873 226.85 201.753 227.927 201.753Z" fill="#C2C2C2"/>
<path d="M242.624 201.445C243.525 201.445 244.36 200.72 244.491 199.818C244.623 198.916 244.008 198.19 243.129 198.19C242.251 198.19 241.394 198.916 241.262 199.818C241.13 200.72 241.745 201.445 242.624 201.445Z" fill="#C2C2C2"/>
<path d="M12.978 219.018C15.4825 219.018 17.8332 216.973 18.2287 214.465C18.6241 211.958 16.8885 209.913 14.384 209.913C11.8795 209.913 9.52877 211.958 9.13332 214.465C8.73788 216.973 10.4735 219.018 12.978 219.018Z" fill="#C2C2C2"/>
<path d="M27.5657 219.304C30.224 219.304 32.7285 217.149 33.1459 214.465C33.5633 211.804 31.7399 209.627 29.0596 209.627C26.3794 209.627 23.8968 211.782 23.4794 214.465C23.062 217.149 24.8854 219.304 27.5657 219.304Z" fill="#C2C2C2"/>
<path d="M42.1754 219.59C45.0094 219.59 47.6458 217.302 48.0852 214.465C48.5245 211.628 46.5912 209.341 43.7572 209.341C40.9231 209.341 38.2868 211.628 37.8474 214.465C37.408 217.302 39.3413 219.59 42.1754 219.59Z" fill="#C2C2C2"/>
<path d="M56.7848 219.744C59.7067 219.744 62.4309 217.368 62.8923 214.465C63.3536 211.562 61.3544 209.187 58.4325 209.187C55.5106 209.187 52.7864 211.562 52.325 214.465C51.8636 217.368 53.8628 219.744 56.7848 219.744Z" fill="#C2C2C2"/>
<path d="M71.4166 219.744C74.3386 219.744 77.0628 217.368 77.5241 214.465C77.9855 211.562 75.9863 209.187 73.0643 209.187C70.1424 209.187 67.4182 211.562 66.9568 214.465C66.4955 217.368 68.4947 219.744 71.4166 219.744Z" fill="#C2C2C2"/>
<path d="M86.0924 219.59C88.9264 219.59 91.5628 217.302 92.0021 214.465C92.4415 211.628 90.5082 209.341 87.6742 209.341C84.8401 209.341 82.2038 211.628 81.7644 214.465C81.325 217.302 83.2583 219.59 86.0924 219.59Z" fill="#C2C2C2"/>
<path d="M100.768 219.348C103.448 219.348 105.975 217.171 106.392 214.465C106.809 211.782 104.964 209.583 102.284 209.583C99.6034 209.583 97.0769 211.76 96.6595 214.465C96.2421 217.149 98.0875 219.348 100.768 219.348Z" fill="#C2C2C2"/>
<path d="M115.465 219.018C117.97 219.018 120.321 216.973 120.716 214.465C121.111 211.958 119.376 209.913 116.871 209.913C114.367 209.913 112.016 211.958 111.621 214.465C111.225 216.973 112.961 219.018 115.465 219.018Z" fill="#C2C2C2"/>
<path d="M130.141 218.688C132.47 218.688 134.667 216.797 135.018 214.465C135.37 212.134 133.788 210.243 131.459 210.243C129.131 210.243 126.934 212.134 126.582 214.465C126.231 216.797 127.812 218.688 130.141 218.688Z" fill="#C2C2C2"/>
<path d="M144.838 218.336C146.969 218.336 148.968 216.599 149.298 214.465C149.628 212.332 148.178 210.594 146.047 210.594C143.915 210.594 141.916 212.332 141.587 214.465C141.257 216.599 142.707 218.336 144.838 218.336Z" fill="#C2C2C2"/>
<path d="M159.536 217.918C161.447 217.918 163.227 216.379 163.513 214.465C163.798 212.552 162.502 211.012 160.591 211.012C158.679 211.012 156.9 212.552 156.614 214.465C156.329 216.379 157.625 217.918 159.536 217.918Z" fill="#C2C2C2"/>
<path d="M174.234 217.544C175.947 217.544 177.529 216.159 177.793 214.465C178.056 212.772 176.892 211.386 175.178 211.386C173.465 211.386 171.883 212.772 171.619 214.465C171.356 216.181 172.52 217.544 174.234 217.544Z" fill="#C2C2C2"/>
<path d="M188.931 217.192C190.425 217.192 191.831 215.983 192.073 214.465C192.315 212.97 191.282 211.738 189.766 211.738C188.25 211.738 186.866 212.948 186.624 214.465C186.383 215.961 187.415 217.192 188.931 217.192Z" fill="#C2C2C2"/>
<path d="M205.506 216.087C206.557 215.114 206.734 213.595 205.901 212.694C205.069 211.794 203.542 211.853 202.492 212.826C201.441 213.8 201.264 215.319 202.096 216.219C202.928 217.12 204.455 217.061 205.506 216.087Z" fill="#C2C2C2"/>
<path d="M218.326 216.489C219.446 216.489 220.501 215.587 220.677 214.465C220.853 213.344 220.084 212.442 218.963 212.442C217.843 212.442 216.788 213.344 216.612 214.465C216.437 215.587 217.206 216.489 218.326 216.489Z" fill="#C2C2C2"/>
<path d="M233.024 216.181C233.968 216.181 234.847 215.411 235.001 214.465C235.155 213.52 234.496 212.75 233.551 212.75C232.606 212.75 231.727 213.52 231.574 214.465C231.42 215.411 232.079 216.181 233.024 216.181Z" fill="#C2C2C2"/>
<path d="M3.46537 233.182C5.70625 233.182 7.8153 231.356 8.14484 229.113C8.49636 226.87 6.9585 225.044 4.71762 225.044C2.47674 225.044 0.367672 226.87 0.0381305 229.113C-0.29141 231.356 1.22449 233.182 3.46537 233.182Z" fill="#C2C2C2"/>
<path d="M18.0528 233.467C20.4474 233.467 22.6883 231.51 23.0618 229.113C23.4353 226.716 21.7876 224.758 19.3929 224.758C16.9982 224.758 14.7573 226.716 14.3839 229.113C14.0104 231.51 15.6581 233.467 18.0528 233.467Z" fill="#C2C2C2"/>
<path d="M32.6625 233.709C35.189 233.709 37.5617 231.664 37.9571 229.113C38.3526 226.584 36.617 224.516 34.0905 224.516C31.564 224.516 29.1914 226.562 28.7959 229.113C28.4005 231.642 30.136 233.709 32.6625 233.709Z" fill="#C2C2C2"/>
<path d="M47.2724 233.885C49.8867 233.885 52.3473 231.752 52.7647 229.135C53.1822 226.518 51.3807 224.384 48.7443 224.384C46.108 224.384 43.6694 226.518 43.252 229.135C42.8346 231.752 44.6361 233.885 47.2724 233.885Z" fill="#C2C2C2"/>
<path d="M61.9041 233.951C64.5624 233.951 67.0669 231.796 67.4843 229.113C67.9017 226.43 66.0783 224.274 63.398 224.274C60.7177 224.274 58.2352 226.43 57.8178 229.113C57.4004 231.774 59.2238 233.951 61.9041 233.951Z" fill="#C2C2C2"/>
<path d="M76.5355 233.907C79.1718 233.907 81.6544 231.752 82.0718 229.113C82.4892 226.474 80.6657 224.318 78.0294 224.318C75.3931 224.318 72.9105 226.474 72.4931 229.113C72.0757 231.752 73.8992 233.907 76.5355 233.907Z" fill="#C2C2C2"/>
<path d="M91.2112 233.753C93.7597 233.753 96.1544 231.686 96.5498 229.113C96.9453 226.562 95.1877 224.472 92.6393 224.472C90.0908 224.472 87.6961 226.54 87.3007 229.113C86.9052 231.664 88.6628 233.753 91.2112 233.753Z" fill="#C2C2C2"/>
<path d="M105.887 233.512C108.303 233.512 110.566 231.554 110.962 229.113C111.335 226.694 109.687 224.714 107.249 224.714C104.81 224.714 102.569 226.672 102.174 229.113C101.8 231.532 103.448 233.512 105.887 233.512Z" fill="#C2C2C2"/>
<path d="M120.562 233.226C122.825 233.226 124.956 231.378 125.308 229.113C125.659 226.848 124.099 225 121.836 225C119.574 225 117.442 226.848 117.091 229.113C116.739 231.378 118.299 233.226 120.562 233.226Z" fill="#C2C2C2"/>
<path d="M135.26 232.896C137.347 232.896 139.302 231.202 139.632 229.113C139.961 227.023 138.533 225.33 136.446 225.33C134.359 225.33 132.404 227.023 132.074 229.113C131.745 231.202 133.173 232.896 135.26 232.896Z" fill="#C2C2C2"/>
<path d="M149.957 232.566C151.869 232.566 153.648 231.026 153.934 229.113C154.22 227.199 152.923 225.66 151.012 225.66C149.101 225.66 147.321 227.199 147.036 229.113C146.75 231.026 148.046 232.566 149.957 232.566Z" fill="#C2C2C2"/>
<path d="M164.655 232.214C166.369 232.214 167.95 230.828 168.214 229.135C168.478 227.441 167.313 226.056 165.6 226.056C163.886 226.056 162.304 227.441 162.041 229.135C161.777 230.85 162.941 232.214 164.655 232.214Z" fill="#C2C2C2"/>
<path d="M179.331 231.884C180.846 231.884 182.274 230.652 182.516 229.113C182.758 227.595 181.703 226.342 180.187 226.342C178.671 226.342 177.243 227.573 177.002 229.113C176.76 230.63 177.815 231.884 179.331 231.884Z" fill="#C2C2C2"/>
<path d="M194.028 231.554C195.368 231.554 196.642 230.454 196.84 229.113C197.037 227.771 196.137 226.672 194.775 226.672C193.412 226.672 192.16 227.771 191.963 229.113C191.743 230.454 192.666 231.554 194.028 231.554Z" fill="#C2C2C2"/>
<path d="M208.725 231.224C209.89 231.224 210.988 230.278 211.164 229.113C211.34 227.947 210.549 227.001 209.384 227.001C208.22 227.001 207.122 227.947 206.946 229.113C206.77 230.278 207.561 231.224 208.725 231.224Z" fill="#C2C2C2"/>
<path d="M223.401 230.916C224.389 230.916 225.312 230.125 225.466 229.135C225.62 228.145 224.939 227.353 223.95 227.353C222.961 227.353 222.039 228.145 221.885 229.135C221.731 230.125 222.412 230.916 223.401 230.916Z" fill="#C2C2C2"/>
<path d="M238.098 230.586C238.911 230.586 239.658 229.927 239.79 229.113C239.922 228.299 239.373 227.639 238.56 227.639C237.747 227.639 237 228.299 236.868 229.113C236.736 229.927 237.286 230.586 238.098 230.586Z" fill="#C2C2C2"/>
</g>
</g>
<path d="M124 118.574V107.223C124 103.822 125.037 101.059 127.112 98.9333L131.468 94.4696L127.112 90.0058C125.037 87.8802 124 85.1169 124 81.7159V73.4261C124 59.142 130.97 52 144.911 52H162.089C176.03 52 183 59.142 183 73.4261V81.7159C183 85.1169 181.963 87.8802 179.888 90.0058L175.532 94.4696L179.888 98.9333C181.963 101.059 183 103.822 183 107.223V118.574C183 132.858 176.03 140 162.089 140H144.911C130.97 140 124 132.858 124 118.574ZM141.924 119.594C141.924 122.145 143.169 123.42 145.658 123.42H161.342C163.831 123.42 165.076 122.145 165.076 119.594V106.841C165.076 104.29 163.831 103.014 161.342 103.014H145.658C143.169 103.014 141.924 104.29 141.924 106.841V119.594ZM141.924 82.6087C141.924 85.1594 143.169 86.4348 145.658 86.4348H161.342C163.831 86.4348 165.076 85.1594 165.076 82.6087V72.4058C165.076 69.8551 163.831 68.5797 161.342 68.5797H145.658C143.169 68.5797 141.924 69.8551 141.924 72.4058V82.6087Z" fill="#1D2F8C"/>
</g>
<defs>
<filter id="filter0_d_90_5707" x="0" y="0" width="247" height="247" filterUnits="userSpaceOnUse" color-interpolation-filters="sRGB">
<feFlood flood-opacity="0" result="BackgroundImageFix"/>
<feColorMatrix in="SourceAlpha" type="matrix" values="0 0 0 0 0 0 0 0 0 0 0 0 0 0 0 0 0 0 127 0" result="hardAlpha"/>
<feOffset dy="4"/>
<feGaussianBlur stdDeviation="2"/>
<feComposite in2="hardAlpha" operator="out"/>
<feColorMatrix type="matrix" values="0 0 0 0 0 0 0 0 0 0 0 0 0 0 0 0 0 0 0.25 0"/>
<feBlend mode="normal" in2="BackgroundImageFix" result="effect1_dropShadow_90_5707"/>
<feBlend mode="normal" in="SourceGraphic" in2="effect1_dropShadow_90_5707" result="shape"/>
</filter>
<linearGradient id="paint0_linear_90_5707" x1="223.717" y1="36.3932" x2="58.0466" y2="191.2" gradientUnits="userSpaceOnUse">
<stop stop-color="#254BFF"/>
<stop offset="1" stop-color="#D9D9D9" stop-opacity="0"/>
</linearGradient>
<linearGradient id="paint1_linear_90_5707" x1="223.717" y1="36.3932" x2="58.0466" y2="191.2" gradientUnits="userSpaceOnUse">
<stop stop-color="#254BFF"/>
<stop offset="1" stop-color="#D9D9D9" stop-opacity="0"/>
</linearGradient>
</defs>
</svg>
