<svg width="184" height="184" viewBox="0 0 184 184" fill="none" xmlns="http://www.w3.org/2000/svg">
<circle cx="65.5" cy="65.5" r="65.5" transform="matrix(0.615274 0.788314 0.788314 -0.615274 -0.000488281 80.6008)" fill="url(#paint0_linear_90_5706)"/>
<mask id="mask0_90_5706" style="mask-type:alpha" maskUnits="userSpaceOnUse" x="26" y="26" width="132" height="132">
<circle cx="65.5" cy="65.5" r="65.5" transform="matrix(0.615274 0.788314 0.788314 -0.615274 -0.000488281 80.6008)" fill="url(#paint1_linear_90_5706)"/>
</mask>
<g mask="url(#mask0_90_5706)">
<g style="mix-blend-mode:overlay">
<path d="M28.6461 149.471C28.7042 149.546 28.7002 149.669 28.6354 149.739C28.5608 149.798 28.4697 149.809 28.4116 149.734C28.3534 149.66 28.3574 149.537 28.4223 149.466C28.4968 149.408 28.588 149.397 28.6461 149.471Z" fill="#C2C2C2"/>
<path d="M32.7367 137.552C32.8142 137.652 32.8047 137.819 32.715 137.909C32.6253 137.999 32.4899 138.005 32.4125 137.905C32.335 137.806 32.3445 137.639 32.4342 137.549C32.5239 137.459 32.6592 137.453 32.7367 137.552Z" fill="#C2C2C2"/>
<path d="M39.2524 145.746C39.359 145.883 39.3537 146.107 39.2267 146.226C39.1095 146.357 38.9202 146.345 38.8136 146.209C38.7071 146.072 38.7124 145.848 38.8393 145.729C38.9566 145.598 39.1459 145.61 39.2524 145.746Z" fill="#C2C2C2"/>
<path d="M45.7896 153.943C45.9348 154.129 45.931 154.432 45.7517 154.612C45.5847 154.782 45.3263 154.784 45.181 154.598C45.0358 154.412 45.0396 154.109 45.219 153.929C45.3859 153.759 45.6443 153.757 45.7896 153.943Z" fill="#C2C2C2"/>
<path d="M30.2902 117.436C30.3483 117.511 30.3443 117.634 30.2794 117.704C30.2049 117.762 30.1137 117.774 30.0556 117.699C29.9975 117.625 30.0015 117.502 30.0663 117.431C30.1409 117.373 30.232 117.362 30.2902 117.436Z" fill="#C2C2C2"/>
<path d="M36.8276 125.633C36.9245 125.757 36.922 125.959 36.8074 126.068C36.7026 126.19 36.5354 126.181 36.4289 126.044C36.3223 125.908 36.3345 125.719 36.4491 125.609C36.5539 125.487 36.7211 125.497 36.8276 125.633Z" fill="#C2C2C2"/>
<path d="M43.343 133.827C43.4689 133.989 43.4582 134.257 43.316 134.408C43.1739 134.558 42.9501 134.553 42.8242 134.392C42.6983 134.231 42.709 133.963 42.8511 133.812C42.9933 133.661 43.2171 133.666 43.343 133.827Z" fill="#C2C2C2"/>
<path d="M49.8954 141.992C50.0698 142.216 50.0578 142.584 49.8535 142.784C49.659 142.995 49.3467 142.98 49.1724 142.756C48.9981 142.533 49.0101 142.164 49.2143 141.965C49.4185 141.765 49.7211 141.769 49.8954 141.992Z" fill="#C2C2C2"/>
<path d="M56.4234 150.177C56.6365 150.45 56.6163 150.885 56.3693 151.157C56.1251 151.408 55.7438 151.406 55.5307 151.133C55.3176 150.86 55.3378 150.425 55.5848 150.152C55.8291 149.902 56.2104 149.904 56.4234 150.177Z" fill="#C2C2C2"/>
<path d="M27.8531 97.3329C27.8531 97.3329 27.8933 97.4612 27.8533 97.5124C27.8036 97.5512 27.747 97.5555 27.7083 97.5058C27.6695 97.4562 27.668 97.3775 27.7081 97.3263C27.7577 97.2875 27.8144 97.2832 27.8531 97.3329Z" fill="#C2C2C2"/>
<path d="M34.3561 105.537C34.4239 105.624 34.4171 105.769 34.3398 105.849C34.2626 105.929 34.1396 105.925 34.0718 105.839C34.004 105.752 34.0108 105.607 34.088 105.526C34.1653 105.446 34.2883 105.45 34.3561 105.537Z" fill="#C2C2C2"/>
<path d="M40.9062 113.724C41.0128 113.86 41.0075 114.084 40.8805 114.203C40.7633 114.335 40.574 114.323 40.4674 114.186C40.3609 114.05 40.3662 113.826 40.4931 113.707C40.6104 113.575 40.7997 113.587 40.9062 113.724Z" fill="#C2C2C2"/>
<path d="M47.4341 121.908C47.5794 122.094 47.5756 122.397 47.3962 122.577C47.2292 122.747 46.9709 122.749 46.8256 122.563C46.6803 122.377 46.6841 122.074 46.8635 121.894C47.0305 121.724 47.2888 121.722 47.4341 121.908Z" fill="#C2C2C2"/>
<path d="M53.9862 130.073C54.1799 130.321 54.1624 130.734 53.943 130.965C53.7236 131.196 53.3768 131.188 53.1831 130.939C52.9894 130.691 53.0069 130.278 53.2263 130.047C53.4457 129.816 53.7925 129.825 53.9862 130.073Z" fill="#C2C2C2"/>
<path d="M60.5387 138.238C60.7905 138.561 60.7524 139.05 60.4806 139.342C60.1964 139.643 59.7736 139.614 59.5314 139.304C59.2893 138.993 59.3177 138.492 59.5895 138.2C59.8738 137.898 60.2966 137.928 60.5387 138.238Z" fill="#C2C2C2"/>
<path d="M67.0791 146.413C67.3696 146.785 67.333 147.353 67.0088 147.705C66.6845 148.058 66.183 148.03 65.9021 147.671C65.6212 147.311 65.6482 146.731 65.9724 146.378C66.2967 146.025 66.7982 146.053 67.0791 146.413Z" fill="#C2C2C2"/>
<path d="M73.6316 154.578C73.9706 155.012 73.9327 155.68 73.556 156.094C73.1696 156.496 72.599 156.482 72.26 156.047C71.921 155.613 71.9589 154.944 72.3356 154.531C72.722 154.129 73.2926 154.143 73.6316 154.578Z" fill="#C2C2C2"/>
<path d="M31.8941 85.4526C31.8941 85.4526 31.9344 85.581 31.8944 85.6322C31.8447 85.671 31.788 85.6752 31.7493 85.6256C31.7105 85.576 31.7091 85.4972 31.7491 85.446C31.7988 85.4073 31.8554 85.403 31.8941 85.4526Z" fill="#C2C2C2"/>
<path d="M38.4223 93.6369C38.4998 93.7362 38.4903 93.9034 38.4006 93.9933C38.3109 94.0833 38.1755 94.0891 38.098 93.9899C38.0205 93.8906 38.03 93.7235 38.1197 93.6335C38.2094 93.5435 38.3448 93.5377 38.4223 93.6369Z" fill="#C2C2C2"/>
<path d="M44.9719 101.824C45.0881 101.973 45.0801 102.219 44.9504 102.36C44.8207 102.501 44.619 102.499 44.4931 102.338C44.3671 102.176 44.3848 101.943 44.5145 101.802C44.6442 101.66 44.8459 101.663 44.9719 101.824Z" fill="#C2C2C2"/>
<path d="M51.4998 110.008C51.6548 110.207 51.6482 110.531 51.4564 110.721C51.2867 110.913 50.9966 110.9 50.8416 110.702C50.6866 110.503 50.6932 110.179 50.885 109.989C51.0547 109.797 51.3448 109.81 51.4998 110.008Z" fill="#C2C2C2"/>
<path d="M58.0773 118.154C58.2903 118.427 58.2701 118.862 58.0231 119.135C57.7789 119.385 57.3976 119.383 57.1845 119.11C56.9714 118.837 56.9916 118.402 57.2386 118.13C57.4829 117.879 57.8642 117.881 58.0773 118.154Z" fill="#C2C2C2"/>
<path d="M64.62 126.306C64.8912 126.654 64.8601 127.177 64.5607 127.511C64.2516 127.832 63.7942 127.81 63.5327 127.475C63.2712 127.14 63.2927 126.604 63.5921 126.27C63.9012 125.949 64.3585 125.971 64.62 126.306Z" fill="#C2C2C2"/>
<path d="M71.185 134.461C71.5047 134.871 71.4722 135.495 71.1107 135.877C70.7492 136.259 70.2131 136.238 69.8935 135.829C69.5739 135.419 69.6063 134.795 69.9678 134.413C70.3294 134.031 70.8654 134.052 71.185 134.461Z" fill="#C2C2C2"/>
<path d="M77.7376 142.627C78.1057 143.098 78.0596 143.833 77.658 144.266C77.2441 144.709 76.6196 144.678 76.2515 144.206C75.8835 143.734 75.9296 143 76.3311 142.566C76.7451 142.123 77.3696 142.155 77.7376 142.627Z" fill="#C2C2C2"/>
<path d="M84.3149 150.772C84.7411 151.318 84.6909 152.176 84.2246 152.68C83.7458 153.193 83.0204 153.16 82.5942 152.614C82.1681 152.068 82.2182 151.21 82.6846 150.707C83.1634 150.193 83.8887 150.226 84.3149 150.772Z" fill="#C2C2C2"/>
<path d="M29.4342 65.3686C29.4342 65.3686 29.454 65.3939 29.4287 65.4137C29.416 65.4236 29.4033 65.4335 29.3835 65.4081C29.3638 65.3828 29.3638 65.3828 29.3891 65.363C29.4018 65.3531 29.4145 65.3432 29.4342 65.3686Z" fill="#C2C2C2"/>
<path d="M35.9449 73.5846C35.9449 73.5846 35.9851 73.7129 35.9451 73.7641C35.8954 73.8029 35.8388 73.8072 35.8001 73.7576C35.7613 73.7079 35.7598 73.6292 35.7998 73.578C35.8495 73.5392 35.9062 73.5349 35.9449 73.5846Z" fill="#C2C2C2"/>
<path d="M42.4853 81.7594C42.5627 81.8587 42.5533 82.0258 42.4636 82.1158C42.3739 82.2058 42.2385 82.2116 42.161 82.1123C42.0835 82.013 42.093 81.8459 42.1827 81.7559C42.2724 81.6659 42.4078 81.6601 42.4853 81.7594Z" fill="#C2C2C2"/>
<path d="M49.0129 89.9437C49.1291 90.0926 49.1211 90.3385 48.9914 90.4796C48.8617 90.6208 48.66 90.6185 48.5341 90.4572C48.4082 90.2958 48.4259 90.0624 48.5556 89.9212C48.6853 89.78 48.887 89.7824 49.0129 89.9437Z" fill="#C2C2C2"/>
<path d="M55.5657 98.1088C55.7304 98.3197 55.7211 98.6664 55.5293 98.8561C55.3472 99.0581 55.057 99.045 54.8827 98.8216C54.7083 98.5982 54.7273 98.2639 54.9191 98.0743C55.1109 97.8846 55.3914 97.8854 55.5657 98.1088Z" fill="#C2C2C2"/>
<path d="M62.1432 106.254C62.366 106.54 62.343 106.997 62.0961 107.269C61.8491 107.542 61.4581 107.528 61.2256 107.23C60.9932 106.932 61.0258 106.487 61.2728 106.215C61.5198 105.942 61.9108 105.956 62.1432 106.254Z" fill="#C2C2C2"/>
<path d="M68.7081 114.409C68.989 114.769 68.9551 115.315 68.6433 115.658C68.3217 115.989 67.852 115.976 67.5711 115.616C67.2902 115.256 67.3241 114.711 67.636 114.368C67.9575 114.037 68.4272 114.049 68.7081 114.409Z" fill="#C2C2C2"/>
<path d="M75.276 122.542C75.615 122.977 75.5771 123.645 75.2004 124.059C74.814 124.461 74.2434 124.447 73.9044 124.012C73.5654 123.578 73.6033 122.909 73.98 122.496C74.3567 122.082 74.937 122.108 75.276 122.542Z" fill="#C2C2C2"/>
<path d="M81.8532 130.688C82.2503 131.197 82.2084 131.988 81.7571 132.46C81.3059 132.932 80.6248 132.905 80.2374 132.408C79.8499 131.912 79.8822 131.108 80.3334 130.636C80.7846 130.164 81.4657 130.192 81.8532 130.688Z" fill="#C2C2C2"/>
<path d="M88.4211 138.821C88.8763 139.404 88.8304 140.319 88.3143 140.861C87.7982 141.404 87.0162 141.375 86.561 140.792C86.1058 140.209 86.1517 139.294 86.6678 138.752C87.1839 138.209 87.9659 138.238 88.4211 138.821Z" fill="#C2C2C2"/>
<path d="M94.9983 146.967C95.5117 147.624 95.4618 148.662 94.8808 149.275C94.2999 149.888 93.417 149.858 92.9037 149.201C92.3904 148.543 92.4403 147.506 93.0212 146.892C93.6022 146.279 94.485 146.309 94.9983 146.967Z" fill="#C2C2C2"/>
<path d="M101.551 155.132C102.113 155.852 102.061 156.99 101.428 157.664C100.795 158.338 99.8235 158.297 99.2617 157.577C98.7 156.858 98.7512 155.72 99.3845 155.045C100.018 154.371 100.989 154.412 101.551 155.132Z" fill="#C2C2C2"/>
<path d="M33.4748 53.4879C33.4748 53.4879 33.4946 53.5133 33.4692 53.5331C33.4565 53.543 33.4438 53.5529 33.4241 53.5275C33.4043 53.5022 33.4043 53.5022 33.4297 53.4824C33.4423 53.4725 33.455 53.4626 33.4748 53.4879Z" fill="#C2C2C2"/>
<path d="M39.9986 61.6947C39.9986 61.6947 40.0388 61.8231 39.9988 61.8742C39.9492 61.913 39.8925 61.9173 39.8538 61.8677C39.815 61.818 39.8136 61.7393 39.8536 61.6881C39.9033 61.6493 39.9599 61.6451 39.9986 61.6947Z" fill="#C2C2C2"/>
<path d="M46.5263 69.8791C46.6037 69.9784 46.5943 70.1456 46.5046 70.2355C46.4149 70.3255 46.2795 70.3313 46.202 70.2321C46.1245 70.1328 46.134 69.9656 46.2237 69.8757C46.3134 69.7857 46.4488 69.7799 46.5263 69.8791Z" fill="#C2C2C2"/>
<path d="M53.0788 78.044C53.2047 78.2054 53.194 78.4733 53.0519 78.6242C52.9098 78.7751 52.6859 78.77 52.56 78.6087C52.4341 78.4474 52.4449 78.1794 52.587 78.0286C52.7291 77.8777 52.9529 77.8827 53.0788 78.044Z" fill="#C2C2C2"/>
<path d="M59.6441 86.1993C59.8184 86.4227 59.8064 86.7915 59.6022 86.9909C59.4076 87.2026 59.0954 87.1867 58.921 86.9634C58.7467 86.74 58.7587 86.3712 58.963 86.1718C59.1575 85.9601 59.4698 85.976 59.6441 86.1993Z" fill="#C2C2C2"/>
<path d="M66.1967 94.3642C66.4195 94.6496 66.3965 95.1068 66.1495 95.3795C65.9025 95.6521 65.4991 95.6475 65.2666 95.3497C65.0342 95.0518 65.0668 94.607 65.3262 94.3247C65.5732 94.052 65.9642 94.0664 66.1967 94.3642Z" fill="#C2C2C2"/>
<path d="M72.7739 102.51C73.0645 102.882 73.0278 103.45 72.7036 103.803C72.3793 104.156 71.8778 104.128 71.5969 103.768C71.316 103.408 71.343 102.828 71.6672 102.475C71.9915 102.122 72.493 102.15 72.7739 102.51Z" fill="#C2C2C2"/>
<path d="M79.3665 110.623C79.7249 111.083 79.6815 111.795 79.28 112.229C78.8785 112.662 78.2636 112.642 77.9053 112.183C77.5469 111.724 77.5903 111.011 77.9918 110.578C78.3934 110.145 79.0082 110.164 79.3665 110.623Z" fill="#C2C2C2"/>
<path d="M85.944 118.769C86.3604 119.303 86.313 120.138 85.8467 120.642C85.3803 121.146 84.6549 121.113 84.2384 120.579C83.822 120.046 83.8694 119.21 84.3357 118.706C84.8021 118.202 85.5275 118.235 85.944 118.769Z" fill="#C2C2C2"/>
<path d="M92.512 126.902C92.9866 127.51 92.9352 128.469 92.3942 129.031C91.863 129.605 91.0368 129.571 90.5622 128.963C90.0876 128.355 90.139 127.396 90.6799 126.834C91.2112 126.26 92.0374 126.294 92.512 126.902Z" fill="#C2C2C2"/>
<path d="M99.1141 135.028C99.6565 135.723 99.6108 136.817 98.9802 137.469C98.3717 138.124 97.4225 138.086 96.8801 137.391C96.3377 136.696 96.3834 135.602 97.014 134.95C97.6225 134.295 98.5717 134.333 99.1141 135.028Z" fill="#C2C2C2"/>
<path d="M105.682 143.161C106.282 143.931 106.232 145.148 105.537 145.87C104.841 146.593 103.814 146.556 103.213 145.787C102.613 145.018 102.662 143.801 103.358 143.078C104.031 142.353 105.081 142.392 105.682 143.161Z" fill="#C2C2C2"/>
<path d="M112.259 151.307C112.918 152.151 112.855 153.478 112.104 154.284C111.366 155.08 110.215 155.039 109.546 154.183C108.878 153.327 108.951 152.012 109.702 151.206C110.44 150.41 111.591 150.451 112.259 151.307Z" fill="#C2C2C2"/>
<path d="M37.5383 41.6103C37.5383 41.6103 37.558 41.6356 37.5327 41.6554C37.52 41.6653 37.5073 41.6752 37.4875 41.6498C37.4678 41.6245 37.4678 41.6245 37.4931 41.6047C37.5058 41.5948 37.5185 41.5849 37.5383 41.6103Z" fill="#C2C2C2"/>
<path d="M44.0396 49.8143C44.0396 49.8143 44.0799 49.9427 44.0399 49.9939C43.9902 50.0327 43.9335 50.0369 43.8948 49.9873C43.856 49.9377 43.8546 49.8589 43.8946 49.8077C43.9443 49.769 44.0009 49.7647 44.0396 49.8143Z" fill="#C2C2C2"/>
<path d="M50.5673 57.9985C50.6448 58.0978 50.6353 58.2649 50.5456 58.3549C50.4559 58.4449 50.3205 58.4507 50.243 58.3514C50.1655 58.2522 50.175 58.085 50.2647 57.995C50.3544 57.9051 50.4898 57.8992 50.5673 57.9985Z" fill="#C2C2C2"/>
<path d="M57.1174 66.1857C57.2336 66.3347 57.2256 66.5805 57.0959 66.7217C56.9662 66.8629 56.7645 66.8606 56.6386 66.6992C56.5127 66.5379 56.5303 66.3044 56.66 66.1633C56.7898 66.0221 56.9915 66.0244 57.1174 66.1857Z" fill="#C2C2C2"/>
<path d="M63.6851 74.3187C63.8595 74.5421 63.8475 74.9109 63.6432 75.1102C63.4487 75.322 63.1364 75.3061 62.9621 75.0827C62.7877 74.8594 62.7997 74.4906 63.004 74.2912C63.1985 74.0795 63.5108 74.0954 63.6851 74.3187Z" fill="#C2C2C2"/>
<path d="M70.2377 82.4838C70.4605 82.7692 70.4375 83.2265 70.1905 83.4991C69.9435 83.7718 69.5401 83.7671 69.3077 83.4693C69.0752 83.1715 69.1079 82.7267 69.3673 82.4443C69.6142 82.1717 70.0052 82.186 70.2377 82.4838Z" fill="#C2C2C2"/>
<path d="M76.8401 90.6099C77.1403 90.9946 77.101 91.5845 76.7767 91.9374C76.44 92.3 75.9385 92.2721 75.6382 91.8874C75.338 91.5027 75.3774 90.9129 75.7016 90.56C76.0383 90.1973 76.5398 90.2252 76.8401 90.6099Z" fill="#C2C2C2"/>
<path d="M83.4075 98.743C83.7659 99.2022 83.7225 99.9149 83.321 100.348C82.9195 100.781 82.3046 100.762 81.9463 100.303C81.5879 99.8437 81.6313 99.1309 82.0328 98.6977C82.4344 98.2645 83.0492 98.2839 83.4075 98.743Z" fill="#C2C2C2"/>
<path d="M90.0097 106.869C90.4359 107.415 90.3858 108.273 89.9194 108.777C89.4406 109.29 88.7152 109.257 88.2891 108.711C87.8629 108.165 87.913 107.307 88.3794 106.804C88.8582 106.29 89.5836 106.323 90.0097 106.869Z" fill="#C2C2C2"/>
<path d="M96.6026 114.983C97.0965 115.616 97.0521 116.609 96.496 117.203C95.9399 117.797 95.0916 117.76 94.5977 117.127C94.1037 116.494 94.1481 115.501 94.7042 114.907C95.2603 114.313 96.1086 114.35 96.6026 114.983Z" fill="#C2C2C2"/>
<path d="M103.195 123.097C103.757 123.816 103.706 124.955 103.072 125.629C102.439 126.303 101.468 126.262 100.906 125.542C100.344 124.823 100.395 123.684 101.029 123.01C101.662 122.336 102.633 122.377 103.195 123.097Z" fill="#C2C2C2"/>
<path d="M109.797 131.223C110.427 132.03 110.359 133.3 109.658 134.067C108.948 134.822 107.854 134.777 107.224 133.97C106.594 133.164 106.662 131.893 107.363 131.126C108.064 130.359 109.168 130.416 109.797 131.223Z" fill="#C2C2C2"/>
<path d="M116.39 139.337C117.088 140.23 117.013 141.646 116.235 142.493C115.457 143.34 114.24 143.292 113.533 142.386C112.825 141.48 112.91 140.076 113.688 139.229C114.476 138.395 115.683 138.431 116.39 139.337Z" fill="#C2C2C2"/>
<path d="M123.509 149.313C123.394 150.665 122.367 151.683 121.214 151.587C120.061 151.49 119.219 150.316 119.334 148.964C119.448 147.612 120.476 146.594 121.629 146.69C122.782 146.787 123.623 147.961 123.509 149.313Z" fill="#C2C2C2"/>
<path d="M129.56 155.596C130.393 156.663 130.311 158.325 129.368 159.32C128.426 160.315 127.007 160.264 126.174 159.197C125.341 158.13 125.424 156.468 126.366 155.473C127.308 154.478 128.727 154.529 129.56 155.596Z" fill="#C2C2C2"/>
<path d="M41.5793 29.73C41.5793 29.73 41.599 29.7553 41.5737 29.7751C41.5483 29.7949 41.5483 29.7949 41.5286 29.7696C41.5088 29.7443 41.5088 29.7443 41.5341 29.7245C41.5468 29.7146 41.5595 29.7047 41.5793 29.73Z" fill="#C2C2C2"/>
<path d="M48.0779 37.9561C48.0779 37.9561 48.1111 38.0499 48.0614 38.0887C48.0242 38.1178 47.9675 38.1221 47.9385 38.0848C47.9094 38.0476 47.9052 37.991 47.9549 37.9522C47.9922 37.9231 48.0488 37.9188 48.0779 37.9561Z" fill="#C2C2C2"/>
<path d="M54.6061 46.1404C54.6739 46.2272 54.6671 46.3723 54.5898 46.4526C54.5126 46.5329 54.3896 46.529 54.3218 46.4421C54.254 46.3552 54.2607 46.2102 54.338 46.1299C54.4153 46.0497 54.5383 46.0535 54.6061 46.1404Z" fill="#C2C2C2"/>
<path d="M61.1584 54.3051C61.2746 54.454 61.2666 54.6999 61.1369 54.8411C61.0072 54.9823 60.8055 54.9799 60.6796 54.8186C60.5537 54.6573 60.5714 54.4238 60.7011 54.2827C60.8308 54.1415 61.0325 54.1438 61.1584 54.3051Z" fill="#C2C2C2"/>
<path d="M67.711 62.4702C67.8756 62.6812 67.8664 63.0279 67.6745 63.2175C67.4827 63.4072 67.2023 63.4064 67.0279 63.183C66.8536 62.9597 66.8725 62.6254 67.0644 62.4357C67.2465 62.2337 67.5366 62.2468 67.711 62.4702Z" fill="#C2C2C2"/>
<path d="M74.3012 70.6061C74.5239 70.8915 74.501 71.3488 74.2416 71.6311C73.9946 71.9038 73.6036 71.8894 73.3711 71.5916C73.1387 71.2938 73.1713 70.849 73.4183 70.5763C73.6653 70.3037 74.0687 70.3083 74.3012 70.6061Z" fill="#C2C2C2"/>
<path d="M80.8686 78.7393C81.1592 79.1116 81.1226 79.6793 80.7983 80.0322C80.474 80.3852 79.9725 80.3573 79.6916 79.9974C79.4107 79.6375 79.4377 79.0574 79.762 78.7044C80.0862 78.3515 80.5878 78.3794 80.8686 78.7393Z" fill="#C2C2C2"/>
<path d="M87.471 86.8653C87.8294 87.3245 87.786 88.0373 87.3845 88.4705C86.9829 88.9037 86.3681 88.8843 86.0098 88.4252C85.6514 87.966 85.6948 87.2532 86.0963 86.82C86.4978 86.3868 87.1127 86.4062 87.471 86.8653Z" fill="#C2C2C2"/>
<path d="M94.0634 94.9792C94.4896 95.5252 94.4395 96.383 93.9731 96.8868C93.4943 97.4003 92.7689 97.3674 92.3428 96.8213C91.9166 96.2753 91.9667 95.4175 92.4331 94.9137C92.9119 94.4002 93.6373 94.4331 94.0634 94.9792Z" fill="#C2C2C2"/>
<path d="M100.668 103.083C101.172 103.729 101.125 104.744 100.556 105.347C99.9879 105.951 99.1175 105.911 98.6138 105.266C98.1102 104.621 98.1574 103.605 98.7259 103.002C99.2944 102.398 100.165 102.438 100.668 103.083Z" fill="#C2C2C2"/>
<path d="M107.261 111.197C107.833 111.929 107.779 113.089 107.133 113.773C106.487 114.457 105.503 114.426 104.922 113.681C104.341 112.937 104.405 111.789 105.05 111.105C105.696 110.421 106.68 110.452 107.261 111.197Z" fill="#C2C2C2"/>
<path d="M113.888 119.304C114.537 120.135 114.464 121.45 113.738 122.236C113.003 123.01 111.874 122.972 111.225 122.141C110.576 121.31 110.649 119.995 111.375 119.208C112.11 118.435 113.239 118.472 113.888 119.304Z" fill="#C2C2C2"/>
<path d="M120.506 127.398C121.242 128.341 121.162 129.801 120.334 130.687C119.506 131.573 118.245 131.519 117.518 130.588C116.792 129.658 116.862 128.185 117.69 127.299C118.518 126.413 119.779 126.467 120.506 127.398Z" fill="#C2C2C2"/>
<path d="M127.098 135.512C127.902 136.542 127.816 138.147 126.911 139.113C126.005 140.079 124.621 140.021 123.827 139.004C123.033 137.986 123.109 136.369 124.015 135.403C124.92 134.436 126.304 134.494 127.098 135.512Z" fill="#C2C2C2"/>
<path d="M133.691 143.625C134.562 144.742 134.469 146.493 133.487 147.539C132.504 148.585 130.997 148.524 130.135 147.419C129.273 146.315 129.357 144.552 130.339 143.506C131.321 142.459 132.829 142.521 133.691 143.625Z" fill="#C2C2C2"/>
<path d="M140.293 151.752C141.233 152.955 141.133 154.851 140.073 155.977C139.013 157.104 137.393 157.051 136.453 155.847C135.514 154.643 135.614 152.748 136.673 151.622C137.733 150.495 139.354 150.548 140.293 151.752Z" fill="#C2C2C2"/>
<path d="M58.6442 34.2822C58.7023 34.3566 58.6983 34.4796 58.6334 34.5501C58.5589 34.6083 58.4677 34.6196 58.4096 34.5451C58.3515 34.4707 58.3555 34.3477 58.4203 34.2771C58.4949 34.219 58.586 34.2077 58.6442 34.2822Z" fill="#C2C2C2"/>
<path d="M65.1968 42.4471C65.3033 42.5836 65.298 42.8073 65.1711 42.9264C65.0538 43.0579 64.8645 43.0458 64.758 42.9093C64.6514 42.7728 64.6567 42.5491 64.7837 42.43C64.9009 42.2985 65.0902 42.3105 65.1968 42.4471Z" fill="#C2C2C2"/>
<path d="M71.7493 50.612C71.9043 50.8106 71.8977 51.1352 71.7059 51.3248C71.5362 51.5172 71.2461 51.504 71.0911 51.3055C70.9361 51.1069 70.9427 50.7823 71.1345 50.5927C71.3042 50.4003 71.5943 50.4135 71.7493 50.612Z" fill="#C2C2C2"/>
<path d="M78.317 58.7454C78.5301 59.0184 78.5099 59.4535 78.2629 59.7261C78.0159 59.9988 77.6373 59.9748 77.4242 59.7017C77.2112 59.4287 77.2314 58.9936 77.4784 58.721C77.7226 58.4704 78.1039 58.4724 78.317 58.7454Z" fill="#C2C2C2"/>
<path d="M84.8947 66.8908C85.1755 67.2506 85.1416 67.7963 84.8298 68.1395C84.5083 68.4703 84.0385 68.4576 83.7577 68.0977C83.4768 67.7378 83.5107 67.1922 83.8225 66.849C84.144 66.5181 84.6138 66.5309 84.8947 66.8908Z" fill="#C2C2C2"/>
<path d="M91.4869 75.0044C91.8355 75.4511 91.7949 76.1418 91.4058 76.5653C91.0167 76.9888 90.4143 76.9598 90.0656 76.513C89.7169 76.0663 89.7576 75.3756 90.1467 74.9521C90.5358 74.5286 91.1382 74.5576 91.4869 75.0044Z" fill="#C2C2C2"/>
<path d="M98.1044 83.0989C98.5306 83.6449 98.4805 84.5028 98.0141 85.0065C97.5353 85.52 96.8099 85.4871 96.3838 84.9411C95.9576 84.3951 96.0077 83.5373 96.4741 83.0335C96.9529 82.52 97.6783 82.5529 98.1044 83.0989Z" fill="#C2C2C2"/>
<path d="M104.707 91.2249C105.201 91.8577 105.157 92.8509 104.601 93.4447C104.044 94.0384 103.196 94.0017 102.702 93.3688C102.208 92.7359 102.253 91.7427 102.809 91.149C103.365 90.5552 104.213 90.592 104.707 91.2249Z" fill="#C2C2C2"/>
<path d="M111.337 99.3096C111.918 100.054 111.861 101.237 111.203 101.93C110.545 102.623 109.539 102.59 108.958 101.845C108.377 101.101 108.433 99.9182 109.092 99.2247C109.75 98.5313 110.756 98.565 111.337 99.3096Z" fill="#C2C2C2"/>
<path d="M117.954 107.404C118.613 108.248 118.549 109.575 117.799 110.381C117.06 111.177 115.91 111.136 115.241 110.28C114.573 109.424 114.646 108.109 115.397 107.303C116.135 106.507 117.286 106.548 117.954 107.404Z" fill="#C2C2C2"/>
<path d="M124.572 115.498C125.318 116.454 125.235 117.936 124.395 118.832C123.554 119.727 122.271 119.67 121.535 118.727C120.799 117.784 120.872 116.29 121.712 115.394C122.552 114.499 123.836 114.555 124.572 115.498Z" fill="#C2C2C2"/>
<path d="M131.204 123.561C132.037 124.628 131.955 126.29 131.013 127.285C130.07 128.28 128.651 128.23 127.818 127.162C126.985 126.095 127.068 124.433 128.01 123.438C128.953 122.443 130.371 122.494 131.204 123.561Z" fill="#C2C2C2"/>
<path d="M138.418 133.843C138.283 135.438 137.071 136.638 135.71 136.525C134.349 136.411 133.355 135.026 133.49 133.431C133.625 131.836 134.838 130.636 136.199 130.749C137.56 130.863 138.554 132.248 138.418 133.843Z" fill="#C2C2C2"/>
<path d="M144.436 139.772C145.424 141.037 145.323 143.033 144.201 144.208C143.089 145.396 141.38 145.332 140.392 144.066C139.404 142.801 139.505 140.805 140.627 139.629C141.739 138.442 143.448 138.506 144.436 139.772Z" fill="#C2C2C2"/>
<path d="M151.029 147.885C152.085 149.238 151.967 151.367 150.777 152.634C149.588 153.902 147.756 153.834 146.7 152.482C145.645 151.129 145.762 149.001 146.952 147.733C148.141 146.465 149.973 146.533 151.029 147.885Z" fill="#C2C2C2"/>
<path d="M157.582 156.05C158.686 157.465 158.567 159.695 157.325 161.023C156.083 162.352 154.162 162.273 153.058 160.859C151.954 159.444 152.073 157.214 153.315 155.886C154.557 154.557 156.477 154.636 157.582 156.05Z" fill="#C2C2C2"/>
<path d="M69.1977 30.6179C69.2849 30.7296 69.2851 30.9091 69.1705 31.0185C69.0684 31.1182 68.9109 31.1213 68.8237 31.0096C68.7366 30.8979 68.7364 30.7183 68.8509 30.609C68.953 30.5093 69.1105 30.5062 69.1977 30.6179Z" fill="#C2C2C2"/>
<path d="M75.7629 38.7731C75.8985 38.9468 75.885 39.2369 75.7305 39.3975C75.5759 39.558 75.33 39.5503 75.1944 39.3765C75.0588 39.2028 75.0723 38.9127 75.2268 38.7522C75.3814 38.5916 75.6273 38.5993 75.7629 38.7731Z" fill="#C2C2C2"/>
<path d="M82.3304 46.9062C82.5241 47.1544 82.5066 47.5674 82.2872 47.7986C82.0678 48.0297 81.721 48.0208 81.5273 47.7726C81.3336 47.5244 81.3511 47.1114 81.5705 46.8803C81.7899 46.6491 82.1367 46.658 82.3304 46.9062Z" fill="#C2C2C2"/>
<path d="M88.9325 55.0323C89.2037 55.3798 89.1726 55.9033 88.8732 56.2369C88.5641 56.558 88.1067 56.5355 87.8452 56.2005C87.5837 55.8654 87.6052 55.3295 87.9046 54.9959C88.2137 54.6748 88.671 54.6973 88.9325 55.0323Z" fill="#C2C2C2"/>
<path d="M95.5251 63.1461C95.8641 63.5805 95.8262 64.249 95.4495 64.6628C95.0632 65.0643 94.4926 65.0503 94.1536 64.616C93.8146 64.1817 93.8525 63.5131 94.2292 63.0993C94.6155 62.6979 95.1861 62.7118 95.5251 63.1461Z" fill="#C2C2C2"/>
<path d="M102.118 71.2599C102.525 71.7811 102.48 72.5947 102.026 73.0888C101.563 73.5705 100.869 73.5527 100.462 73.0315C100.055 72.5103 100.1 71.6967 100.554 71.2026C101.018 70.7209 101.711 70.7387 102.118 71.2599Z" fill="#C2C2C2"/>
<path d="M108.723 79.3639C109.207 79.9844 109.153 80.9652 108.61 81.5493C108.066 82.1333 107.227 82.1089 106.743 81.4885C106.259 80.868 106.313 79.8872 106.857 79.3032C107.4 78.7191 108.239 78.7435 108.723 79.3639Z" fill="#C2C2C2"/>
<path d="M115.365 87.4389C115.937 88.171 115.883 89.3314 115.237 90.0151C114.591 90.6989 113.607 90.6679 113.026 89.9233C112.445 89.1788 112.509 88.0309 113.154 87.3471C113.8 86.6634 114.784 86.6943 115.365 87.4389Z" fill="#C2C2C2"/>
<path d="M121.983 95.5333C122.632 96.3647 122.559 97.6798 121.833 98.4659C121.097 99.2396 119.969 99.2021 119.32 98.3707C118.671 97.5392 118.744 96.2242 119.47 95.438C120.205 94.6643 121.334 94.7019 121.983 95.5333Z" fill="#C2C2C2"/>
<path d="M128.612 103.618C129.358 104.573 129.276 106.056 128.435 106.951C127.595 107.847 126.311 107.79 125.575 106.847C124.839 105.904 124.912 104.409 125.752 103.514C126.593 102.618 127.876 102.675 128.612 103.618Z" fill="#C2C2C2"/>
<path d="M135.255 111.693C136.088 112.76 136.006 114.422 135.063 115.417C134.121 116.412 132.702 116.362 131.869 115.294C131.036 114.227 131.118 112.565 132.061 111.57C133.003 110.575 134.422 110.626 135.255 111.693Z" fill="#C2C2C2"/>
<path d="M141.897 119.768C142.817 120.947 142.722 122.798 141.688 123.905C140.653 125.012 139.067 124.952 138.146 123.773C137.226 122.594 137.321 120.743 138.356 119.636C139.391 118.529 140.977 118.589 141.897 119.768Z" fill="#C2C2C2"/>
<path d="M148.517 127.84C149.525 129.131 149.43 131.161 148.293 132.368C147.156 133.575 145.425 133.508 144.418 132.218C143.411 130.927 143.505 128.897 144.642 127.69C145.779 126.483 147.51 126.55 148.517 127.84Z" fill="#C2C2C2"/>
<path d="M155.16 135.915C156.254 137.317 156.138 139.525 154.908 140.844C153.679 142.163 151.781 142.087 150.686 140.685C149.592 139.282 149.708 137.075 150.937 135.756C152.167 134.437 154.065 134.513 155.16 135.915Z" fill="#C2C2C2"/>
<path d="M161.777 144.009C162.949 145.511 162.836 147.876 161.504 149.294C160.185 150.703 158.151 150.633 156.97 149.119C155.788 147.605 155.911 145.253 157.243 143.834C158.562 142.425 160.596 142.495 161.777 144.009Z" fill="#C2C2C2"/>
<path d="M79.7541 26.9315C79.8703 27.0804 79.8623 27.3263 79.7326 27.4674C79.6029 27.6086 79.4012 27.6063 79.2753 27.445C79.1494 27.2836 79.1671 27.0502 79.2968 26.909C79.4265 26.7678 79.6282 26.7702 79.7541 26.9315Z" fill="#C2C2C2"/>
<path d="M86.3316 35.0771C86.5059 35.3005 86.4939 35.6693 86.2897 35.8687C86.0951 36.0804 85.7829 36.0645 85.6086 35.8412C85.4342 35.6178 85.4462 35.249 85.6505 35.0496C85.845 34.8379 86.1573 34.8538 86.3316 35.0771Z" fill="#C2C2C2"/>
<path d="M92.924 43.1909C93.1758 43.5135 93.1377 44.0026 92.8659 44.2946C92.5816 44.5963 92.1588 44.5669 91.9167 44.2567C91.6745 43.9464 91.703 43.445 91.9748 43.1529C92.2591 42.8512 92.6819 42.8807 92.924 43.1909Z" fill="#C2C2C2"/>
<path d="M99.5264 51.317C99.846 51.7265 99.8135 52.3509 99.452 52.7329C99.0905 53.1149 98.5544 53.094 98.2348 52.6845C97.9152 52.275 97.9476 51.6506 98.3091 51.2686C98.6707 50.8866 99.2067 50.9075 99.5264 51.317Z" fill="#C2C2C2"/>
<path d="M106.119 59.4308C106.507 59.9272 106.467 60.6966 106.029 61.1589C105.59 61.6212 104.931 61.5964 104.543 61.1C104.156 60.6036 104.195 59.8342 104.634 59.3719C105.073 58.9096 105.732 58.9344 106.119 59.4308Z" fill="#C2C2C2"/>
<path d="M112.737 67.525C113.202 68.1207 113.153 69.0572 112.625 69.6095C112.096 70.1618 111.302 70.1428 110.837 69.5472C110.372 68.9515 110.42 68.0149 110.949 67.4627C111.477 66.9104 112.272 66.9294 112.737 67.525Z" fill="#C2C2C2"/>
<path d="M119.354 75.6197C119.897 76.3146 119.839 77.4183 119.22 78.0605C118.612 78.7152 117.663 78.6773 117.12 77.9823C116.578 77.2874 116.636 76.1837 117.254 75.5415C117.863 74.8868 118.812 74.9248 119.354 75.6197Z" fill="#C2C2C2"/>
<path d="M125.984 83.7042C126.614 84.5108 126.546 85.7817 125.845 86.5484C125.134 87.3027 124.04 87.2582 123.411 86.4516C122.781 85.645 122.849 84.3741 123.55 83.6074C124.26 82.8531 125.355 82.8976 125.984 83.7042Z" fill="#C2C2C2"/>
<path d="M132.651 91.7597C133.387 92.7028 133.307 94.163 132.479 95.0488C131.651 95.9346 130.39 95.8807 129.654 94.9376C128.918 93.9945 128.998 92.5344 129.826 91.6486C130.653 90.7628 131.915 90.8166 132.651 91.7597Z" fill="#C2C2C2"/>
<path d="M139.284 99.8223C140.107 100.877 140.015 102.526 139.097 103.502C138.167 104.488 136.761 104.427 135.938 103.372C135.114 102.318 135.206 100.668 136.124 99.6926C137.054 98.7071 138.46 98.7675 139.284 99.8223Z" fill="#C2C2C2"/>
<path d="M145.938 107.888C146.859 109.066 146.764 110.917 145.729 112.025C144.694 113.132 143.108 113.072 142.188 111.893C141.268 110.714 141.362 108.863 142.397 107.756C143.432 106.649 145.018 106.709 145.938 107.888Z" fill="#C2C2C2"/>
<path d="M152.58 115.962C153.588 117.253 153.493 119.284 152.356 120.49C151.219 121.697 149.488 121.631 148.481 120.34C147.474 119.05 147.568 117.019 148.705 115.812C149.842 114.605 151.573 114.672 152.58 115.962Z" fill="#C2C2C2"/>
<path d="M159.226 124.015C160.33 125.43 160.211 127.659 158.969 128.988C157.727 130.317 155.807 130.238 154.702 128.823C153.598 127.409 153.717 125.179 154.959 123.851C156.201 122.522 158.121 122.601 159.226 124.015Z" fill="#C2C2C2"/>
<path d="M96.9225 31.3839C97.1355 31.6569 97.1153 32.092 96.8683 32.3647C96.6241 32.6152 96.2428 32.6133 96.0297 32.3403C95.8166 32.0673 95.8368 31.6322 96.0838 31.3595C96.3281 31.109 96.7094 31.1109 96.9225 31.3839Z" fill="#C2C2C2"/>
<path d="M103.515 39.4975C103.806 39.8697 103.769 40.4375 103.445 40.7904C103.121 41.1433 102.619 41.1155 102.338 40.7556C102.057 40.3957 102.084 39.8156 102.408 39.4626C102.733 39.1097 103.234 39.1376 103.515 39.4975Z" fill="#C2C2C2"/>
<path d="M110.108 47.6114C110.466 48.0706 110.423 48.7834 110.021 49.2166C109.62 49.6498 109.005 49.6304 108.646 49.1713C108.288 48.7121 108.331 47.9993 108.733 47.5661C109.135 47.1329 109.749 47.1523 110.108 47.6114Z" fill="#C2C2C2"/>
<path d="M116.725 55.7058C117.161 56.2643 117.121 57.1345 116.63 57.6577C116.138 58.1809 115.391 58.1452 114.955 57.5868C114.519 57.0284 114.56 56.1581 115.051 55.635C115.542 55.1118 116.29 55.1474 116.725 55.7058Z" fill="#C2C2C2"/>
<path d="M123.352 63.8124C123.866 64.4701 123.816 65.5075 123.235 66.1206C122.654 66.7338 121.771 66.704 121.258 66.0463C120.744 65.3886 120.794 64.3512 121.375 63.738C121.956 63.1249 122.839 63.1547 123.352 63.8124Z" fill="#C2C2C2"/>
<path d="M129.973 71.8847C130.573 72.6541 130.523 73.871 129.828 74.5935C129.155 75.3188 128.105 75.2797 127.504 74.5103C126.904 73.7409 126.953 72.524 127.649 71.8014C128.322 71.0762 129.372 71.1153 129.973 71.8847Z" fill="#C2C2C2"/>
<path d="M136.64 79.9401C137.337 80.8336 137.263 82.2495 136.485 83.0965C135.697 83.9311 134.489 83.8951 133.782 82.9892C133.075 82.0833 133.159 80.6798 133.937 79.8328C134.725 78.9982 135.933 79.0342 136.64 79.9401Z" fill="#C2C2C2"/>
<path d="M143.269 88.0249C144.063 89.0424 143.98 90.6255 143.087 91.5819C142.194 92.5383 140.832 92.4833 140.038 91.4657C139.243 90.4481 139.327 88.8651 140.22 87.9087C141.113 86.9523 142.475 87.0073 143.269 88.0249Z" fill="#C2C2C2"/>
<path d="M149.927 96.0681C150.818 97.2097 150.732 98.9944 149.724 100.06C148.717 101.126 147.188 101.062 146.306 99.9324C145.425 98.8031 145.501 97.006 146.509 95.9403C147.516 94.8745 149.046 94.9388 149.927 96.0681Z" fill="#C2C2C2"/>
<path d="M156.582 104.133C157.569 105.399 157.468 107.395 156.346 108.57C155.234 109.758 153.525 109.694 152.537 108.428C151.549 107.162 151.651 105.166 152.772 103.991C153.885 102.804 155.594 102.867 156.582 104.133Z" fill="#C2C2C2"/>
<path d="M163.264 112.157C164.359 113.559 164.242 115.767 163.013 117.086C161.783 118.405 159.885 118.329 158.791 116.927C157.696 115.524 157.812 113.317 159.042 111.998C160.271 110.679 162.17 110.755 163.264 112.157Z" fill="#C2C2C2"/>
<path d="M107.504 27.6783C107.765 28.0133 107.724 28.5244 107.45 28.8386C107.153 29.15 106.718 29.1303 106.456 28.7952C106.195 28.4602 106.236 27.949 106.51 27.6349C106.807 27.3235 107.242 27.3432 107.504 27.6783Z" fill="#C2C2C2"/>
<path d="M114.106 35.804C114.435 36.2259 114.4 36.8724 114.026 37.2641C113.652 37.6558 113.094 37.6322 112.765 37.2102C112.435 36.7883 112.471 36.1419 112.844 35.7501C113.218 35.3584 113.777 35.3821 114.106 35.804Z" fill="#C2C2C2"/>
<path d="M120.699 43.918C121.096 44.4268 121.054 45.2183 120.603 45.6903C120.152 46.1623 119.47 46.1348 119.083 45.6384C118.696 45.1421 118.728 44.3382 119.179 43.8662C119.63 43.3942 120.311 43.4217 120.699 43.918Z" fill="#C2C2C2"/>
<path d="M127.316 52.0123C127.791 52.6203 127.739 53.579 127.198 54.141C126.667 54.7153 125.841 54.6813 125.366 54.0732C124.892 53.4651 124.943 52.5065 125.484 51.9445C126.015 51.3701 126.842 51.4042 127.316 52.0123Z" fill="#C2C2C2"/>
<path d="M133.946 60.0971C134.508 60.8168 134.457 61.955 133.823 62.6291C133.19 63.3031 132.219 63.2624 131.657 62.5427C131.095 61.823 131.146 60.6847 131.78 60.0107C132.413 59.3366 133.384 59.3773 133.946 60.0971Z" fill="#C2C2C2"/>
<path d="M140.588 68.1719C141.237 69.0033 141.164 70.3183 140.438 71.1045C139.703 71.8782 138.574 71.8406 137.925 71.0092C137.276 70.1778 137.349 68.8627 138.075 68.0766C138.811 67.3029 139.939 67.3404 140.588 68.1719Z" fill="#C2C2C2"/>
<path d="M147.233 76.2248C147.989 77.1927 147.903 78.697 147.063 79.5925C146.21 80.4977 144.927 80.4412 144.171 79.4732C143.416 78.5053 143.501 77.001 144.342 76.1055C145.194 75.2003 146.478 75.2568 147.233 76.2248Z" fill="#C2C2C2"/>
<path d="M153.901 84.2805C154.753 85.3725 154.665 87.0785 153.708 88.1055C152.75 89.1324 151.287 89.0763 150.435 87.9842C149.582 86.8922 149.67 85.1863 150.628 84.1593C151.585 83.1323 153.048 83.1885 153.901 84.2805Z" fill="#C2C2C2"/>
<path d="M160.546 92.3333C161.495 93.5494 161.404 95.457 160.332 96.5933C159.26 97.7297 157.63 97.6642 156.681 96.4481C155.731 95.232 155.822 93.3244 156.894 92.188C157.966 91.0517 159.596 91.1172 160.546 92.3333Z" fill="#C2C2C2"/>
<path d="M124.662 32.1179C125.021 32.577 124.977 33.2898 124.576 33.723C124.174 34.1562 123.56 34.1369 123.201 33.6777C122.843 33.2186 122.886 32.5058 123.288 32.0726C123.689 31.6394 124.304 31.6587 124.662 32.1179Z" fill="#C2C2C2"/>
<path d="M131.289 40.2248C131.725 40.7832 131.685 41.6534 131.194 42.1766C130.702 42.6998 129.955 42.6641 129.519 42.1057C129.083 41.5473 129.124 40.6771 129.615 40.1539C130.106 39.6307 130.854 39.6663 131.289 40.2248Z" fill="#C2C2C2"/>
<path d="M138.245 49.5591C138.168 50.4605 137.481 51.1389 136.709 51.0744C135.938 51.01 135.374 50.227 135.451 49.3256C135.527 48.4242 136.214 47.7458 136.986 47.8102C137.757 47.8747 138.321 48.6577 138.245 49.5591Z" fill="#C2C2C2"/>
<path d="M144.527 56.3914C145.128 57.1608 145.078 58.3777 144.383 59.1003C143.687 59.8228 142.659 59.7864 142.059 59.017C141.458 58.2476 141.508 57.0307 142.203 56.3082C142.877 55.5829 143.927 55.622 144.527 56.3914Z" fill="#C2C2C2"/>
<path d="M151.182 64.4566C151.879 65.3501 151.805 66.766 151.027 67.613C150.239 68.4476 149.031 68.4116 148.324 67.5057C147.617 66.5998 147.701 65.1963 148.48 64.3493C149.258 63.5023 150.475 63.5507 151.182 64.4566Z" fill="#C2C2C2"/>
<path d="M157.824 72.5315C158.619 73.549 158.535 75.1321 157.642 76.0885C156.749 77.0448 155.387 76.9898 154.593 75.9723C153.799 74.9547 153.882 73.3717 154.775 72.4153C155.668 71.4589 157.03 71.5139 157.824 72.5315Z" fill="#C2C2C2"/>
<path d="M135.229 28.444C135.616 28.9404 135.577 29.7098 135.138 30.1721C134.699 30.6344 134.04 30.6096 133.653 30.1132C133.265 29.6168 133.305 28.8474 133.743 28.3851C134.182 27.9228 134.841 27.9476 135.229 28.444Z" fill="#C2C2C2"/>
<path d="M141.833 36.5482C142.298 37.1438 142.25 38.0804 141.721 38.6327C141.193 39.185 140.398 39.166 139.933 38.5703C139.469 37.9747 139.517 37.0381 140.046 36.4859C140.574 35.9336 141.369 35.9526 141.833 36.5482Z" fill="#C2C2C2"/>
<path d="M148.476 44.6229C149.028 45.3303 148.979 46.4464 148.358 47.1107C147.738 47.7751 146.788 47.7371 146.236 47.0298C145.684 46.3225 145.733 45.2063 146.354 44.542C146.975 43.8776 147.924 43.9156 148.476 44.6229Z" fill="#C2C2C2"/>
<path d="M155.118 52.698C155.757 53.517 155.687 54.8099 154.974 55.5864C154.26 56.3628 153.144 56.3156 152.505 55.4966C151.865 54.6775 151.936 53.3846 152.649 52.6081C153.362 51.8317 154.479 51.879 155.118 52.698Z" fill="#C2C2C2"/>
<path d="M161.748 60.7826C162.484 61.7257 162.404 63.1858 161.577 64.0716C160.749 64.9574 159.487 64.9036 158.761 63.9729C158.034 63.0422 158.105 61.5697 158.932 60.6839C159.76 59.7981 161.022 59.8519 161.748 60.7826Z" fill="#C2C2C2"/>
<path d="M145.795 24.77C146.211 25.3036 146.164 26.1393 145.697 26.6431C145.231 27.1469 144.506 27.114 144.089 26.5804C143.673 26.0468 143.72 25.211 144.186 24.7072C144.653 24.2034 145.378 24.2364 145.795 24.77Z" fill="#C2C2C2"/>
<path d="M152.387 32.8836C152.872 33.5041 152.817 34.4848 152.274 35.0689C151.73 35.653 150.891 35.6286 150.407 35.0081C149.923 34.3877 149.977 33.4069 150.521 32.8228C151.064 32.2388 151.903 32.2631 152.387 32.8836Z" fill="#C2C2C2"/>
<path d="M159.017 40.9684C159.588 41.7006 159.534 42.8609 158.889 43.5447C158.243 44.2284 157.259 44.1974 156.678 43.4529C156.097 42.7083 156.161 41.5604 156.806 40.8767C157.452 40.1929 158.436 40.2239 159.017 40.9684Z" fill="#C2C2C2"/>
</g>
</g>
<path d="M53 105.716V78.2841C53 70.0947 57.1974 66 65.5923 66H76.4077C84.8026 66 89 70.0947 89 78.2841V105.716C89 113.905 84.8026 118 76.4077 118H65.5923C57.1974 118 53 113.905 53 105.716ZM62.5021 106.394C62.5021 108.555 63.6094 109.635 65.824 109.635H76.176C78.3906 109.635 79.4979 108.555 79.4979 106.394V77.6058C79.4979 75.4454 78.3906 74.3652 76.176 74.3652H65.824C63.6094 74.3652 62.5021 75.4454 62.5021 77.6058V106.394Z" fill="#051461"/>
<defs>
<linearGradient id="paint0_linear_90_5706" x1="120.431" y1="19.9477" x2="29.6239" y2="104.8" gradientUnits="userSpaceOnUse">
<stop stop-color="#254BFF"/>
<stop offset="1" stop-color="#D9D9D9" stop-opacity="0"/>
</linearGradient>
<linearGradient id="paint1_linear_90_5706" x1="120.431" y1="19.9477" x2="29.6239" y2="104.8" gradientUnits="userSpaceOnUse">
<stop stop-color="#254BFF"/>
<stop offset="1" stop-color="#D9D9D9" stop-opacity="0"/>
</linearGradient>
</defs>
</svg>
