<svg width="120" height="120" viewBox="0 0 120 120" fill="none" xmlns="http://www.w3.org/2000/svg">
<g clip-path="url(#clip0_90_5772)">
<path d="M98.8846 14.5364C97.6422 14.2441 96.3999 14.0377 95.1486 13.913C95.3 11.774 95.3757 9.58051 95.3757 7.67142C95.3757 5.02986 95.2778 3.11298 94.9928 -0.00390625H25.1809C24.8959 3.11298 24.6733 5.02986 24.6733 7.67142C24.6733 9.57272 24.749 11.6883 24.8915 13.8234C23.618 13.948 22.3489 14.1974 21.0843 14.4935C5.2722 18.2065 -3.55781 34.2506 1.36259 50.3143C6.283 66.3779 23.0881 76.4026 38.9002 72.6974C39.9021 72.4636 40.9084 72.1792 41.8569 71.848C45.3791 77.1701 49.2753 81.0117 53.6124 82.0753L52.5571 109.095H30.7381C27.9061 109.095 25.5371 110.575 25.5371 113.053V114.69C25.5371 117.168 27.9061 120.004 30.7381 120.004H89.3243C92.1563 120.004 95.0061 117.168 95.0061 114.69V113.053C95.0061 110.575 92.1563 109.095 89.3243 109.095H67.7369L66.6281 82.0714C70.6312 81.0039 74.6076 77.2169 78.1298 71.8753C79.1184 72.2299 80.0802 72.4987 81.1355 72.7441C96.9476 76.4493 113.726 66.4169 118.646 50.3571C123.567 34.2935 114.706 18.2493 98.8935 14.5441L98.8846 14.5364ZM35.7208 62.3221C25.555 64.7065 14.7434 58.2662 11.5819 47.9376C8.42037 37.6091 14.0978 27.3039 24.2681 24.9195C24.8692 24.7792 25.4748 24.6701 26.0804 24.5883C27.9506 37.0753 31.6153 51.0389 36.5758 62.1C36.2952 62.1779 36.0147 62.2558 35.7253 62.3221H35.7208ZM70.0657 61.3909C70.0657 62.8091 68.4226 63.5026 66.8018 63.5026H56.48C54.8592 63.5026 53.5901 62.8091 53.5901 61.3909V32.6415C51.3637 34.313 47.5253 35.6493 44.1056 36.6389C43.8028 36.7247 43.4955 36.7675 43.1883 36.7675C42.5782 36.7675 42.173 36.6 41.6654 36.2805C40.9039 35.7974 40.6813 35.0221 40.6813 34.2V26.0026C40.6813 24.8922 41.2602 23.9143 42.4714 23.5675C44.8314 22.8935 47.3339 21.561 50.2104 19.6013C52.9489 17.7351 54.7167 15.9234 55.7097 13.4961C56.1283 12.4753 57.1925 12.0779 58.4304 12.0779H66.8062C68.427 12.0779 70.0702 12.6584 70.0702 14.0766V61.3909H70.0657ZM108.387 47.9376C105.225 58.2662 94.4184 64.7065 84.248 62.3221C83.9141 62.2441 83.5846 62.1584 83.2595 62.061C88.2467 51.0078 91.996 37.0675 93.9241 24.5922C94.5163 24.674 95.113 24.7792 95.7052 24.9156C105.871 27.3 111.553 37.6052 108.387 47.9338V47.9376Z" fill="url(#paint0_linear_90_5772)"/>
</g>
<defs>
<linearGradient id="paint0_linear_90_5772" x1="60.003" y1="-0.00390625" x2="60.003" y2="120.004" gradientUnits="userSpaceOnUse">
<stop stop-color="#0C53FF"/>
<stop offset="1" stop-color="#E011FF"/>
</linearGradient>
<clipPath id="clip0_90_5772">
<rect width="120" height="120" fill="white"/>
</clipPath>
</defs>
</svg>
