<svg width="102" height="102" viewBox="0 0 102 102" fill="none" xmlns="http://www.w3.org/2000/svg">
<path d="M4.30974 6.116e-07C1.92953 6.116e-07 0 1.98552 0 4.43478C0 6.88405 1.92953 8.86957 4.30974 8.86957H11.978C12.6055 8.86957 13.2171 9.07273 13.7261 9.45029C14.2352 9.82784 14.6158 10.3606 14.8142 10.9732L29.0234 54.8458C29.6544 56.7937 29.7346 58.891 29.2507 60.883L28.0806 65.7075C26.3639 72.7738 31.7092 79.8261 38.7876 79.8261H90.5045C92.8847 79.8261 94.8142 77.8406 94.8142 75.3913C94.8142 72.942 92.8847 70.9565 90.5045 70.9565H38.7876C37.1095 70.9565 36.0322 69.5396 36.4392 67.8643L37.3215 64.238C37.471 63.6235 37.8158 63.0781 38.301 62.6884C38.7863 62.2986 39.3842 62.087 39.9997 62.087H86.1947C88.0504 62.088 89.6984 60.8667 90.2856 59.0554L101.775 23.5771C102.706 20.7043 100.627 17.7377 97.6846 17.7391H28.249C27.6215 17.7391 27.0099 17.536 26.5009 17.1584C25.9918 16.7809 25.6111 16.2481 25.4127 15.6355L21.3298 3.03159C20.7426 1.22025 19.0946 -0.000997702 17.2389 6.116e-07H4.30974ZM34.4779 84.2609C29.7175 84.2609 25.8584 88.2319 25.8584 93.1304C25.8584 98.029 29.7175 102 34.4779 102C39.2383 102 43.0974 98.029 43.0974 93.1304C43.0974 88.2319 39.2383 84.2609 34.4779 84.2609ZM86.1947 84.2609C81.4343 84.2609 77.5753 88.2319 77.5753 93.1304C77.5753 98.029 81.4343 102 86.1947 102C90.9551 102 94.8142 98.029 94.8142 93.1304C94.8142 88.2319 90.9551 84.2609 86.1947 84.2609Z" fill="url(#paint0_linear_33_999)"/>
<g clip-path="url(#clip0_33_999)">
<path d="M70.0737 37.1951C69.5332 36.6646 68.8329 36.3101 67.9754 36.1316C68.4397 35.5761 68.748 35.0481 68.9003 34.5488C69.1013 33.8772 69.1138 33.2094 68.9365 32.5466C68.6319 31.4081 67.9317 30.583 66.8382 30.0713C65.7447 29.5607 64.263 29.5545 62.3944 30.055C60.9838 30.4333 59.9303 31.0387 59.2338 31.8713C58.3438 32.9497 58.0642 34.1056 58.3949 35.3377C58.5959 36.0879 58.9642 36.6995 59.4997 37.1739C59.8929 37.5209 60.4396 37.7843 61.1411 37.9615C60.4346 38.5033 59.9715 39.1236 59.7506 39.8264C59.5296 40.5279 59.5359 41.3106 59.7668 42.1756C60.004 43.0594 60.4221 43.8059 61.02 44.4138C61.6192 45.0217 62.3582 45.4049 63.2395 45.5634C64.1195 45.722 65.3003 45.6034 66.7808 45.2064C67.5684 44.9955 68.2887 44.7146 68.9403 44.3638C69.5919 44.0131 70.1049 43.6012 70.4794 43.1281C70.8526 42.655 71.1147 42.0546 71.2645 41.3293C71.4143 40.6041 71.3906 39.8726 71.1921 39.1349C70.9874 38.3709 70.6154 37.7243 70.0749 37.1938L70.0737 37.1951ZM62.8912 35.7109C62.5055 35.48 62.2446 35.1105 62.1085 34.6012C61.9762 34.1056 62.0149 33.6625 62.2271 33.2718C62.4393 32.8811 62.7801 32.6227 63.2507 32.4966C63.715 32.3718 64.1382 32.4292 64.5227 32.6676C64.9071 32.9061 65.1668 33.2793 65.3028 33.7886C65.4339 34.2779 65.3977 34.7148 65.1942 35.0993C64.9908 35.4837 64.6662 35.7359 64.2218 35.8557C63.72 35.9905 63.2757 35.9418 62.8912 35.7121V35.7109ZM67.1203 41.7512C66.8644 42.2693 66.5037 42.5901 66.0393 42.7136C65.5562 42.8435 65.0719 42.7523 64.5863 42.4403C64.1007 42.1282 63.7712 41.6476 63.5965 40.9985C63.413 40.3145 63.4479 39.7241 63.6988 39.226C63.9497 38.7279 64.3179 38.4134 64.801 38.2848C65.2903 38.1537 65.7759 38.2461 66.2602 38.5619C66.7433 38.8777 67.0716 39.3608 67.2464 40.0099C67.4186 40.6528 67.3762 41.2332 67.1203 41.7512ZM61.4994 22C51.8353 22 44 29.8353 44 39.5006C44 49.1659 51.8353 57 61.4994 57C71.1634 57 78.9987 49.1647 78.9987 39.5006C78.9987 29.8366 71.1647 22 61.4994 22ZM48.0681 47.5307C47.0695 45.1939 46.1121 42.439 46.1121 39.4881C46.1121 31.4531 51.5595 24.8648 58.5285 24.2256C52.3584 28.3986 48.0681 37.2662 48.0681 47.5307ZM64.4453 48.2085C58.6596 48.2085 53.9699 43.5188 53.9699 37.7331C53.9699 31.9474 58.6596 27.2577 64.4453 27.2577C70.231 27.2577 74.9207 31.9474 74.9207 37.7331C74.9207 43.5188 70.231 48.2085 64.4453 48.2085Z" fill="white" fill-opacity="0.69"/>
</g>
<defs>
<linearGradient id="paint0_linear_33_999" x1="51" y1="0" x2="51" y2="102" gradientUnits="userSpaceOnUse">
<stop stop-color="#0C53FF"/>
<stop offset="1" stop-color="#E011FF"/>
</linearGradient>
<clipPath id="clip0_33_999">
<rect width="35" height="35" fill="white" transform="translate(44 22)"/>
</clipPath>
</defs>
</svg>
