<svg width="90" height="79" viewBox="0 0 90 79" fill="none" xmlns="http://www.w3.org/2000/svg">
<path d="M86.5825 0H23.5184C22.0549 0 20.9053 1.14961 20.9053 2.61315V67.9419C20.9053 70.8164 18.5536 73.1682 15.679 73.1682C14.2154 73.1682 13.0658 74.3178 13.0658 75.7814C13.0658 76.5131 9.72097 77.1402 6.42822 77.5582C7.68254 78.1332 9.04137 78.3945 10.4526 78.3945H76.1299C83.3421 78.3945 89.1956 72.5411 89.1956 65.3288V2.61315C89.1956 1.14961 88.046 0 86.5825 0Z" fill="url(#paint0_linear_90_5784)"/>
<path d="M2.61315 52.2631C1.16999 52.2631 0 53.4331 0 54.8762V67.942C0 72.2275 2.66541 75.9903 6.37591 77.5582C6.42818 77.6105 6.42818 77.5582 6.42818 77.5582C7.60706 78.0988 8.87844 78.362 10.199 78.3918C16.0853 78.524 20.9052 73.2798 20.9052 67.3918V52.2631H2.61315ZM31.532 41.8105H52.4372C53.8816 41.8105 55.0504 40.6417 55.0504 39.1973V18.2921C55.0504 16.8477 53.8816 15.679 52.4372 15.679H31.532C30.0876 15.679 28.9189 16.8477 28.9189 18.2921V39.1973C28.9189 40.6417 30.0876 41.8105 31.532 41.8105ZM63.064 20.9053H78.743C80.1873 20.9053 81.3561 19.7365 81.3561 18.2921C81.3561 16.8477 80.1873 15.679 78.743 15.679H63.064C61.6197 15.679 60.4509 16.8477 60.4509 18.2921C60.4509 19.7365 61.6197 20.9053 63.064 20.9053ZM78.743 26.1316H63.064C61.6197 26.1316 60.4509 27.3003 60.4509 28.7447C60.4509 30.1891 61.6197 31.3579 63.064 31.3579H78.743C80.1873 31.3579 81.3561 30.1891 81.3561 28.7447C81.3561 27.3003 80.1873 26.1316 78.743 26.1316ZM78.743 36.5842H63.064C61.6197 36.5842 60.4509 37.7529 60.4509 39.1973C60.4509 40.6417 61.6197 41.8105 63.064 41.8105H78.743C80.1873 41.8105 81.3561 40.6417 81.3561 39.1973C81.3561 37.7529 80.1873 36.5842 78.743 36.5842ZM78.743 47.0368H31.532C30.0876 47.0368 28.9189 48.2055 28.9189 49.6499C28.9189 51.0943 30.0876 52.2631 31.532 52.2631H78.743C80.1873 52.2631 81.3561 51.0943 81.3561 49.6499C81.3561 48.2055 80.1873 47.0368 78.743 47.0368ZM78.743 57.4894H31.532C30.0876 57.4894 28.9189 58.6581 28.9189 60.1025C28.9189 61.5469 30.0876 62.7157 31.532 62.7157H78.743C80.1873 62.7157 81.3561 61.5469 81.3561 60.1025C81.3561 58.6581 80.1873 57.4894 78.743 57.4894Z" fill="url(#paint1_linear_90_5784)"/>
<defs>
<linearGradient id="paint0_linear_90_5784" x1="47.812" y1="78.3945" x2="47.812" y2="0" gradientUnits="userSpaceOnUse">
<stop stop-color="#E011FF"/>
<stop offset="1" stop-color="#0C53FF"/>
</linearGradient>
<linearGradient id="paint1_linear_90_5784" x1="40.6781" y1="78.3942" x2="40.6781" y2="15.679" gradientUnits="userSpaceOnUse">
<stop stop-color="#B81EFF"/>
<stop offset="0.5028" stop-color="#EAF6FF"/>
<stop offset="1" stop-color="#EAF6FF"/>
</linearGradient>
</defs>
</svg>
