<svg width="97" height="120" viewBox="0 0 97 120" fill="none" xmlns="http://www.w3.org/2000/svg">
<g clip-path="url(#clip0_90_5775)">
<path d="M67.6273 60.2119C51.4042 60.2119 38.255 73.5946 38.255 90.1059C38.255 106.617 51.4042 120 67.6273 120C83.8504 120 96.9996 106.617 96.9996 90.1059C96.9996 73.5946 83.8504 60.2119 67.6273 60.2119ZM45.1623 103.825C42.7129 99.8324 41.8393 95.125 41.8393 90.0852C41.8393 76.3576 51.0041 65.1063 62.6999 64.0136C52.3431 71.1391 45.1623 86.2876 45.1623 103.825ZM72.571 104.984C62.8591 104.984 54.9884 96.9739 54.9884 87.0895C54.9884 77.2052 62.8591 69.1946 72.571 69.1946C82.2828 69.1946 90.1535 77.2052 90.1535 87.0895C90.1535 96.9739 82.2828 104.984 72.571 104.984ZM82.0175 86.1713C81.1112 85.2655 79.9355 84.6589 78.4944 84.3556C79.2742 83.4083 79.7926 82.5067 80.0457 81.6508C80.3845 80.5041 80.405 79.3657 80.1069 78.2314C79.5966 76.2869 78.421 74.8785 76.5839 74.0018C74.7469 73.1293 72.2607 73.121 69.1255 73.9769C66.7578 74.6208 64.9901 75.6554 63.8185 77.0805C62.3244 78.9211 61.8549 80.8988 62.4101 83.0012C62.7489 84.285 63.3653 85.3279 64.2635 86.1381C64.9207 86.7322 65.8433 87.1809 67.019 87.4842C65.8352 88.4108 65.0554 89.4702 64.6839 90.671C64.3124 91.8717 64.3206 93.2054 64.7125 94.6846C65.1126 96.1969 65.8107 97.4683 66.8149 98.507C67.8192 99.5457 69.0602 100.202 70.538 100.472C72.0158 100.742 73.9957 100.543 76.4818 99.8615C77.8045 99.5 79.0129 99.0222 80.1069 98.4239C81.201 97.8256 82.0624 97.1193 82.6911 96.3133C83.3197 95.5072 83.7565 94.481 84.0096 93.2387C84.2587 92.0005 84.2219 90.7499 83.8872 89.491C83.5443 88.1864 82.9197 87.0812 82.0093 86.1755L82.0175 86.1713ZM69.9624 83.6368C69.3174 83.2421 68.8765 82.6106 68.6479 81.7422C68.4233 80.8947 68.4927 80.1385 68.8479 79.4696C69.2031 78.8006 69.7746 78.3602 70.5666 78.1442C71.3463 77.9323 72.0566 78.0278 72.7016 78.435C73.3466 78.8422 73.7834 79.482 74.012 80.3504C74.2325 81.1855 74.1713 81.9334 73.8283 82.5898C73.4854 83.2463 72.9425 83.6784 72.1954 83.882C71.3504 84.1105 70.6074 84.0274 69.9624 83.6368ZM77.0615 93.9533C76.6329 94.8383 76.0246 95.3867 75.249 95.5986C74.4366 95.8188 73.6242 95.6651 72.8118 95.1333C71.9954 94.6015 71.4443 93.7788 71.1503 92.6695C70.8442 91.502 70.9013 90.4923 71.3218 89.6406C71.7423 88.7888 72.3587 88.2529 73.1711 88.0327C73.9916 87.8083 74.8081 87.9662 75.6205 88.5063C76.4329 89.0464 76.984 89.8691 77.2738 90.9826C77.5637 92.0795 77.4943 93.0725 77.0615 93.9575V93.9533ZM65.5086 17.4752L61.4222 14.5627L38.5653 45.8154L43.1415 52.0726L65.5086 17.4752ZM73.4732 5.15614C74.8408 3.04132 75.2449 0.797711 74.3672 0.170331C73.4936 -0.452895 71.5545 0.70215 70.0726 2.73387L64.8799 9.83448L68.6928 12.5517L73.4732 5.15614ZM41.8801 67.836C43.7131 65.6423 45.8073 63.6895 48.1179 62.0234L13.4059 14.5585L9.31952 17.4711L41.876 67.836H41.8801ZM14.9205 78.1525L22.7014 83.6992L35.9118 63.2615L31.1722 55.9282L14.9205 78.1525ZM0.873196 97.3603C-0.612769 99.392 -0.159631 102.238 1.87745 103.692L3.57977 104.905C5.61685 106.355 8.40099 105.815 9.76857 103.701L18.2231 90.6211L10.0543 84.8002L0.873196 97.3603ZM6.13939 12.5476L9.95228 9.83033L4.75956 2.72971C3.2736 0.70215 1.33858 -0.457049 0.460881 0.170331C-0.412735 0.793557 -0.00858545 3.04132 1.35899 5.15614L6.13939 12.5476Z" fill="url(#paint0_linear_90_5775)"/>
</g>
<defs>
<linearGradient id="paint0_linear_90_5775" x1="48.4988" y1="-0.000244141" x2="48.4988" y2="120" gradientUnits="userSpaceOnUse">
<stop stop-color="#0C53FF"/>
<stop offset="1" stop-color="#E011FF"/>
</linearGradient>
<clipPath id="clip0_90_5775">
<rect width="97" height="120" fill="white"/>
</clipPath>
</defs>
</svg>
