<svg width="170" height="239" viewBox="0 0 170 239" fill="none" xmlns="http://www.w3.org/2000/svg">
<circle cx="119.5" cy="119.5" r="119.5" fill="url(#paint0_linear_159_6387)"/>
<mask id="mask0_159_6387" style="mask-type:alpha" maskUnits="userSpaceOnUse" x="0" y="0" width="239" height="239">
<circle cx="119.5" cy="119.5" r="119.5" fill="url(#paint1_linear_159_6387)"/>
</mask>
<g mask="url(#mask0_159_6387)">
<g style="mix-blend-mode:overlay">
<path d="M11.9879 10.8296C12.8447 10.8296 13.6356 10.1478 13.7674 9.29011C13.8992 8.43237 13.306 7.75058 12.4712 7.75058C11.6364 7.75058 10.8235 8.43237 10.6917 9.29011C10.5599 10.1478 11.153 10.8296 11.9879 10.8296Z" fill="#C2C2C2"/>
<path d="M26.6196 10.9616C27.5423 10.9616 28.3991 10.2138 28.5529 9.29011C28.6847 8.3664 28.0696 7.61862 27.1469 7.61862C26.2242 7.61862 25.3673 8.3664 25.2136 9.29011C25.0817 10.2138 25.6969 10.9616 26.6196 10.9616Z" fill="#C2C2C2"/>
<path d="M41.229 11.0715C42.2176 11.0715 43.1403 10.2798 43.2941 9.29009C43.4479 8.3004 42.7668 7.50864 41.7782 7.50864C40.7896 7.50864 39.8669 8.3004 39.7131 9.29009C39.5593 10.2798 40.2403 11.0715 41.229 11.0715Z" fill="#C2C2C2"/>
<path d="M55.8607 11.1595C56.8933 11.1595 57.8599 10.3238 58.0137 9.29012C58.1675 8.25643 57.4645 7.42068 56.4319 7.42068C55.3994 7.42068 54.4327 8.25643 54.2789 9.29012C54.1251 10.3238 54.8281 11.1595 55.8607 11.1595Z" fill="#C2C2C2"/>
<path d="M70.4922 11.2475C71.5687 11.2475 72.5793 10.3678 72.7331 9.29011C72.9088 8.21244 72.1619 7.3327 71.0854 7.3327C70.0089 7.3327 68.9983 8.21244 68.8445 9.29011C68.6687 10.3678 69.4157 11.2475 70.4922 11.2475Z" fill="#C2C2C2"/>
<path d="M85.124 11.2475C86.2005 11.2475 87.2111 10.3678 87.3649 9.29011C87.5407 8.21244 86.7937 7.3327 85.7172 7.3327C84.6407 7.3327 83.6301 8.21244 83.4763 9.29011C83.3006 10.3678 84.0475 11.2475 85.124 11.2475Z" fill="#C2C2C2"/>
<path d="M99.7554 11.2475C100.832 11.2475 101.842 10.3678 101.996 9.29011C102.172 8.21244 101.425 7.3327 100.349 7.3327C99.272 7.3327 98.2615 8.21244 98.1077 9.29011C97.9319 10.3678 98.6789 11.2475 99.7554 11.2475Z" fill="#C2C2C2"/>
<path d="M114.409 11.2475C115.486 11.2475 116.496 10.3678 116.65 9.29011C116.826 8.21244 116.079 7.3327 115.002 7.3327C113.926 7.3327 112.915 8.21244 112.761 9.29011C112.586 10.3678 113.333 11.2475 114.409 11.2475Z" fill="#C2C2C2"/>
<path d="M129.063 11.1595C130.095 11.1595 131.062 10.3238 131.216 9.29012C131.37 8.25643 130.667 7.42068 129.634 7.42068C128.601 7.42068 127.635 8.25643 127.481 9.29012C127.327 10.3238 128.03 11.1595 129.063 11.1595Z" fill="#C2C2C2"/>
<path d="M143.716 11.0715C144.705 11.0715 145.628 10.2798 145.781 9.29009C145.935 8.3004 145.254 7.50864 144.266 7.50864C143.277 7.50864 142.354 8.3004 142.2 9.29009C142.047 10.2798 142.728 11.0715 143.716 11.0715Z" fill="#C2C2C2"/>
<path d="M158.37 10.9836C159.315 10.9836 160.194 10.2138 160.347 9.26808C160.501 8.32237 159.842 7.55261 158.898 7.55261C157.953 7.55261 157.074 8.32237 156.92 9.26808C156.766 10.2138 157.426 10.9836 158.37 10.9836Z" fill="#C2C2C2"/>
<path d="M2.36532 25.6971C3.33198 25.6971 4.23272 24.9053 4.38651 23.9596C4.54029 22.9919 3.88121 22.2221 2.91456 22.2221C1.94791 22.2221 1.04715 23.0139 0.893362 23.9596C0.739576 24.9273 1.39867 25.6971 2.36532 25.6971Z" fill="#C2C2C2"/>
<path d="M16.9749 25.8511C18.0295 25.8511 19.0181 24.9933 19.1719 23.9377C19.3257 22.882 18.6227 22.0242 17.5681 22.0242C16.5136 22.0242 15.525 22.882 15.3712 23.9377C15.2174 24.9933 15.9204 25.8511 16.9749 25.8511Z" fill="#C2C2C2"/>
<path d="M31.6063 25.983C32.7267 25.983 33.7813 25.0813 33.957 23.9596C34.1328 22.8379 33.3639 21.9362 32.2434 21.9362C31.123 21.9362 30.0685 22.8379 29.8927 23.9596C29.7169 25.0813 30.4859 25.983 31.6063 25.983Z" fill="#C2C2C2"/>
<path d="M46.216 26.093C47.4023 26.093 48.5228 25.1253 48.6985 23.9376C48.8743 22.75 48.0614 21.7823 46.8751 21.7823C45.6887 21.7823 44.5683 22.75 44.3925 23.9376C44.2168 25.1253 45.0297 26.093 46.216 26.093Z" fill="#C2C2C2"/>
<path d="M60.8479 26.1809C62.0782 26.1809 63.2426 25.1692 63.4184 23.9376C63.6161 22.706 62.7593 21.6943 61.529 21.6943C60.2987 21.6943 59.1343 22.706 58.9586 23.9376C58.7608 25.1692 59.6177 26.1809 60.8479 26.1809Z" fill="#C2C2C2"/>
<path d="M75.4796 26.2689C76.7539 26.2689 77.9622 25.2352 78.1599 23.9596C78.3576 22.684 77.4789 21.6503 76.2046 21.6503C74.9304 21.6503 73.7221 22.684 73.5244 23.9596C73.3266 25.2352 74.2054 26.2689 75.4796 26.2689Z" fill="#C2C2C2"/>
<path d="M90.111 26.2689C91.3852 26.2689 92.5935 25.2352 92.7913 23.9596C92.989 22.684 92.1102 21.6503 90.836 21.6503C89.5618 21.6503 88.3534 22.684 88.1557 23.9596C87.958 25.2352 88.8368 26.2689 90.111 26.2689Z" fill="#C2C2C2"/>
<path d="M104.765 26.2689C106.039 26.2689 107.247 25.2352 107.445 23.9596C107.643 22.684 106.764 21.6503 105.49 21.6503C104.216 21.6503 103.007 22.684 102.81 23.9596C102.612 25.2352 103.491 26.2689 104.765 26.2689Z" fill="#C2C2C2"/>
<path d="M119.396 26.2249C120.649 26.2249 121.835 25.2132 122.033 23.9596C122.23 22.706 121.373 21.6943 120.121 21.6943C118.869 21.6943 117.683 22.706 117.485 23.9596C117.287 25.2132 118.144 26.2249 119.396 26.2249Z" fill="#C2C2C2"/>
<path d="M134.05 26.137C135.258 26.137 136.4 25.1473 136.576 23.9376C136.774 22.728 135.939 21.7383 134.731 21.7383C133.522 21.7383 132.38 22.728 132.204 23.9376C132.007 25.1473 132.841 26.137 134.05 26.137Z" fill="#C2C2C2"/>
<path d="M148.703 26.005C149.846 26.005 150.922 25.0813 151.098 23.9376C151.274 22.794 150.483 21.8703 149.34 21.8703C148.198 21.8703 147.122 22.794 146.946 23.9376C146.77 25.0813 147.561 26.005 148.703 26.005Z" fill="#C2C2C2"/>
<path d="M163.379 25.8511C164.434 25.8511 165.422 24.9933 165.576 23.9377C165.73 22.882 165.027 22.0242 163.972 22.0242C162.918 22.0242 161.929 22.882 161.775 23.9377C161.622 24.9933 162.325 25.8511 163.379 25.8511Z" fill="#C2C2C2"/>
<path d="M7.35229 40.7185C8.51667 40.7185 9.61514 39.7728 9.79089 38.6072C9.96665 37.4415 9.17576 36.4958 8.01138 36.4958C6.847 36.4958 5.74853 37.4415 5.57277 38.6072C5.39702 39.7728 6.18791 40.7185 7.35229 40.7185Z" fill="#C2C2C2"/>
<path d="M21.9621 40.9164C23.2363 40.9164 24.4446 39.8828 24.6423 38.6072C24.8401 37.3315 23.9613 36.2979 22.6871 36.2979C21.4128 36.2979 20.2045 37.3315 20.0068 38.6072C19.8091 39.8828 20.6878 40.9164 21.9621 40.9164Z" fill="#C2C2C2"/>
<path d="M36.5938 41.0264C37.9339 41.0264 39.2081 39.9267 39.4059 38.5851C39.6036 37.2435 38.7028 36.1439 37.3407 36.1439C35.9786 36.1439 34.7264 37.2435 34.5286 38.5851C34.3309 39.9267 35.2317 41.0264 36.5938 41.0264Z" fill="#C2C2C2"/>
<path d="M51.2032 41.1584C52.6092 41.1584 53.9274 40.0147 54.1471 38.6072C54.3668 37.1996 53.4001 36.0559 51.9941 36.0559C50.588 36.0559 49.2479 37.1996 49.0502 38.6072C48.8305 40.0147 49.7971 41.1584 51.2032 41.1584Z" fill="#C2C2C2"/>
<path d="M65.8349 41.2463C67.2849 41.2463 68.647 40.0587 68.8887 38.6072C69.1083 37.1556 68.1197 35.968 66.6698 35.968C65.2198 35.968 63.8577 37.1556 63.616 38.6072C63.3963 40.0587 64.3849 41.2463 65.8349 41.2463Z" fill="#C2C2C2"/>
<path d="M80.4667 41.2903C81.9386 41.2903 83.3227 40.0807 83.5643 38.6071C83.784 37.1336 82.7734 35.924 81.3015 35.924C79.8295 35.924 78.4455 37.1336 78.2038 38.6071C77.9841 40.0807 78.9947 41.2903 80.4667 41.2903Z" fill="#C2C2C2"/>
<path d="M95.098 41.2903C96.57 41.2903 97.954 40.0807 98.1957 38.6071C98.4154 37.1336 97.4048 35.924 95.9329 35.924C94.4609 35.924 93.0768 37.1336 92.8352 38.6071C92.6155 40.0807 93.6261 41.2903 95.098 41.2903Z" fill="#C2C2C2"/>
<path d="M109.752 41.2463C111.202 41.2463 112.564 40.0587 112.806 38.6072C113.025 37.1556 112.037 35.968 110.587 35.968C109.137 35.968 107.775 37.1556 107.533 38.6072C107.313 40.0587 108.302 41.2463 109.752 41.2463Z" fill="#C2C2C2"/>
<path d="M124.405 41.1584C125.811 41.1584 127.152 40.0147 127.349 38.6072C127.569 37.1996 126.602 36.0559 125.196 36.0559C123.79 36.0559 122.45 37.1996 122.252 38.6072C122.033 40.0147 122.999 41.1584 124.405 41.1584Z" fill="#C2C2C2"/>
<path d="M139.059 41.0704C140.421 41.0704 141.717 39.9707 141.915 38.5851C142.134 37.2216 141.19 36.0999 139.828 36.0999C138.466 36.0999 137.169 37.1996 136.972 38.5851C136.752 39.9487 137.697 41.0704 139.059 41.0704Z" fill="#C2C2C2"/>
<path d="M153.713 40.9164C154.987 40.9164 156.195 39.8828 156.393 38.6072C156.591 37.3315 155.712 36.2979 154.438 36.2979C153.163 36.2979 151.955 37.3315 151.757 38.6072C151.56 39.8828 152.438 40.9164 153.713 40.9164Z" fill="#C2C2C2"/>
<path d="M168.388 40.7404C169.574 40.7404 170.695 39.7727 170.87 38.5851C171.046 37.3975 170.233 36.4297 169.047 36.4297C167.861 36.4297 166.74 37.3975 166.564 38.5851C166.389 39.7727 167.202 40.7404 168.388 40.7404Z" fill="#C2C2C2"/>
<path d="M-2.27035 55.5639C-0.996128 55.5639 0.212192 54.5303 0.409917 53.2546C0.607642 51.979 -0.271133 50.9453 -1.54536 50.9453C-2.81958 50.9453 -4.0279 51.979 -4.22563 53.2546C-4.42335 54.5303 -3.54458 55.5639 -2.27035 55.5639Z" fill="#C2C2C2"/>
<path d="M12.3394 55.7619C13.7235 55.7619 15.0417 54.6402 15.2394 53.2326C15.4591 51.8471 14.4924 50.7034 13.1084 50.7034C11.7243 50.7034 10.4061 51.8251 10.2084 53.2326C9.9887 54.6182 10.9554 55.7619 12.3394 55.7619Z" fill="#C2C2C2"/>
<path d="M26.9493 55.9818C28.4432 55.9818 29.8492 54.7722 30.0909 53.2546C30.3326 51.7591 29.3 50.5275 27.7841 50.5275C26.2682 50.5275 24.8842 51.7371 24.6425 53.2546C24.4008 54.7502 25.4334 55.9818 26.9493 55.9818Z" fill="#C2C2C2"/>
<path d="M41.5587 56.1358C43.1405 56.1358 44.6345 54.8382 44.8981 53.2546C45.1398 51.6711 44.0633 50.3735 42.4595 50.3735C40.8557 50.3735 39.3838 51.6711 39.1201 53.2546C38.8565 54.8382 39.955 56.1358 41.5587 56.1358Z" fill="#C2C2C2"/>
<path d="M56.1903 56.2677C57.86 56.2677 59.3978 54.9261 59.6615 53.2546C59.9251 51.5831 58.7827 50.2415 57.113 50.2415C55.4433 50.2415 53.9055 51.5831 53.6419 53.2546C53.3782 54.9261 54.5206 56.2677 56.1683 56.2677L56.1903 56.2677Z" fill="#C2C2C2"/>
<path d="M70.8221 56.3117C72.5137 56.3117 74.0735 54.9481 74.3372 53.2546C74.6008 51.5612 73.4364 50.1976 71.7667 50.1976C70.0971 50.1976 68.5153 51.5612 68.2516 53.2546C67.988 54.9481 69.1524 56.3117 70.8221 56.3117Z" fill="#C2C2C2"/>
<path d="M85.4533 56.3337C87.1669 56.3337 88.7487 54.9481 89.0124 53.2547C89.276 51.5392 88.1116 50.1756 86.398 50.1756C84.6844 50.1756 83.1026 51.5612 82.839 53.2547C82.5754 54.9701 83.7397 56.3337 85.4533 56.3337Z" fill="#C2C2C2"/>
<path d="M100.107 56.3117C101.799 56.3117 103.359 54.9481 103.622 53.2546C103.886 51.5612 102.722 50.1976 101.052 50.1976C99.3822 50.1976 97.8004 51.5612 97.5368 53.2546C97.2731 54.9481 98.4375 56.3117 100.107 56.3117Z" fill="#C2C2C2"/>
<path d="M114.739 56.2677C116.408 56.2677 117.946 54.9261 118.21 53.2546C118.473 51.5831 117.331 50.2415 115.661 50.2415C113.992 50.2415 112.454 51.5831 112.19 53.2546C111.927 54.9261 113.069 56.2677 114.739 56.2677Z" fill="#C2C2C2"/>
<path d="M129.392 56.1358C130.974 56.1358 132.468 54.8382 132.732 53.2546C132.995 51.6711 131.897 50.3735 130.293 50.3735C128.689 50.3735 127.217 51.6711 126.954 53.2546C126.69 54.8382 127.788 56.1358 129.392 56.1358Z" fill="#C2C2C2"/>
<path d="M144.068 55.9818C145.562 55.9818 146.968 54.7722 147.21 53.2546C147.451 51.7591 146.419 50.5275 144.903 50.5275C143.387 50.5275 142.003 51.7371 141.761 53.2546C141.519 54.7502 142.552 55.9818 144.068 55.9818Z" fill="#C2C2C2"/>
<path d="M158.722 55.8059C160.128 55.8059 161.446 54.6622 161.666 53.2546C161.885 51.8471 160.919 50.7034 159.513 50.7034C158.107 50.7034 156.766 51.8471 156.569 53.2546C156.349 54.6622 157.316 55.8059 158.722 55.8059Z" fill="#C2C2C2"/>
<path d="M2.71686 70.6294C4.21078 70.6294 5.61682 69.4197 5.85848 67.9022C6.10015 66.4067 5.06759 65.175 3.55171 65.175C2.03582 65.175 0.651744 66.3847 0.410081 67.9022C0.168417 69.3977 1.20097 70.6294 2.71686 70.6294Z" fill="#C2C2C2"/>
<path d="M17.3266 70.8713C18.9524 70.8713 20.4902 69.5517 20.7539 67.9022C21.0175 66.2527 19.8971 64.9331 18.2493 64.9331C16.6016 64.9331 15.0858 66.2527 14.8221 67.9022C14.5585 69.5297 15.6789 70.8713 17.3266 70.8713Z" fill="#C2C2C2"/>
<path d="M31.9362 71.0472C33.6718 71.0472 35.2755 69.6396 35.5392 67.9242C35.8028 66.2087 34.6165 64.8011 32.9028 64.8011C31.1892 64.8011 29.5635 66.2087 29.2999 67.9242C29.0362 69.6616 30.2226 71.0472 31.9362 71.0472Z" fill="#C2C2C2"/>
<path d="M46.5456 71.2012C48.369 71.2012 50.0607 69.7276 50.3463 67.9022C50.6319 66.0767 49.3796 64.6032 47.5781 64.6032C45.7766 64.6032 44.063 66.0767 43.7774 67.9022C43.4918 69.7276 44.7441 71.2012 46.5456 71.2012Z" fill="#C2C2C2"/>
<path d="M61.1772 71.3331C63.0666 71.3331 64.8242 69.8156 65.1098 67.9241C65.3954 66.0327 64.1211 64.5152 62.2318 64.5152C60.3424 64.5152 58.5849 66.0327 58.2993 67.9241C58.0137 69.8156 59.2879 71.3331 61.1772 71.3331Z" fill="#C2C2C2"/>
<path d="M75.7868 71.3991C77.7201 71.3991 79.5216 69.8376 79.8291 67.9022C80.1367 65.9668 78.8185 64.4052 76.8852 64.4052C74.9519 64.4052 73.1504 65.9668 72.8429 67.9022C72.5353 69.8376 73.8535 71.3991 75.7868 71.3991Z" fill="#C2C2C2"/>
<path d="M90.4406 71.3991C92.3739 71.3991 94.1754 69.8376 94.4829 67.9022C94.7905 65.9668 93.4724 64.4052 91.539 64.4052C89.6057 64.4052 87.8043 65.9668 87.4967 67.9022C87.1891 69.8376 88.5073 71.3991 90.4406 71.3991Z" fill="#C2C2C2"/>
<path d="M105.094 71.3331C106.984 71.3331 108.741 69.8156 109.027 67.9241C109.312 66.0327 108.038 64.5152 106.149 64.5152C104.259 64.5152 102.502 66.0327 102.216 67.9241C101.931 69.8156 103.205 71.3331 105.094 71.3331Z" fill="#C2C2C2"/>
<path d="M119.748 71.2452C121.593 71.2452 123.307 69.7496 123.592 67.9022C123.878 66.0548 122.626 64.5592 120.78 64.5592C118.935 64.5592 117.221 66.0548 116.936 67.9022C116.65 69.7496 117.902 71.2452 119.748 71.2452Z" fill="#C2C2C2"/>
<path d="M134.401 71.0692C136.159 71.0692 137.785 69.6396 138.07 67.9022C138.334 66.1427 137.147 64.7351 135.39 64.7351C133.632 64.7351 132.007 66.1647 131.721 67.9022C131.435 69.6396 132.644 71.0692 134.401 71.0692Z" fill="#C2C2C2"/>
<path d="M149.077 70.8712C150.702 70.8712 152.24 69.5516 152.504 67.9021C152.767 66.2527 151.647 64.933 149.999 64.933C148.352 64.933 146.836 66.2527 146.572 67.9021C146.308 69.5297 147.429 70.8712 149.077 70.8712Z" fill="#C2C2C2"/>
<path d="M163.752 70.6733C165.268 70.6733 166.696 69.4417 166.938 67.9022C167.18 66.3846 166.125 65.131 164.609 65.131C163.093 65.131 161.665 66.3626 161.424 67.9022C161.182 69.4197 162.237 70.6733 163.752 70.6733Z" fill="#C2C2C2"/>
<path d="M10.1828 84.7182C11.572 83.4313 11.8098 81.4268 10.7137 80.241C9.6177 79.0553 7.60297 79.1374 6.21371 80.4244C4.82445 81.7113 4.58675 83.7158 5.68278 84.9015C6.7788 86.0873 8.79352 86.0052 10.1828 84.7182Z" fill="#C2C2C2"/>
<path d="M22.2915 85.9806C24.1809 85.9806 25.9384 84.4631 26.224 82.5717C26.5096 80.6803 25.2354 79.1627 23.346 79.1627C21.4567 79.1627 19.6991 80.6803 19.4135 82.5717C19.1279 84.4631 20.4021 85.9806 22.2915 85.9806Z" fill="#C2C2C2"/>
<path d="M36.9013 86.1785C38.9005 86.1785 40.7679 84.551 41.0755 82.5716C41.383 80.5703 40.0209 78.9648 38.0217 78.9648C36.0225 78.9648 34.1551 80.5923 33.8475 82.5716C33.54 84.573 34.9021 86.1785 36.9013 86.1785Z" fill="#C2C2C2"/>
<path d="M51.5107 86.3545C53.5978 86.3545 55.5531 84.661 55.8826 82.5717C56.2121 80.4823 54.7841 78.7888 52.697 78.7888C50.6099 78.7888 48.6547 80.4823 48.3251 82.5717C47.9956 84.661 49.4236 86.3545 51.5107 86.3545Z" fill="#C2C2C2"/>
<path d="M66.1424 86.4205C68.2734 86.4205 70.2726 84.683 70.6022 82.5497C70.9317 80.4163 69.4818 78.6788 67.3507 78.6788C65.2197 78.6788 63.2205 80.4163 62.8909 82.5497C62.5614 84.683 64.0114 86.4205 66.1424 86.4205Z" fill="#C2C2C2"/>
<path d="M80.7741 86.4645C82.9271 86.4645 84.9483 84.727 85.2778 82.5717C85.6074 80.4163 84.1354 78.6788 81.9824 78.6788C79.8294 78.6788 77.8083 80.4163 77.4787 82.5717C77.1492 84.727 78.6211 86.4645 80.7741 86.4645Z" fill="#C2C2C2"/>
<path d="M95.4275 86.4205C97.5586 86.4205 99.5578 84.683 99.8873 82.5497C100.217 80.4163 98.7669 78.6788 96.6359 78.6788C94.5048 78.6788 92.5056 80.4163 92.1761 82.5497C91.8465 84.683 93.2965 86.4205 95.4275 86.4205Z" fill="#C2C2C2"/>
<path d="M110.081 86.3545C112.168 86.3545 114.123 84.661 114.453 82.5717C114.782 80.4823 113.354 78.7888 111.267 78.7888C109.18 78.7888 107.225 80.4823 106.895 82.5717C106.566 84.661 107.994 86.3545 110.081 86.3545Z" fill="#C2C2C2"/>
<path d="M124.735 86.1785C126.734 86.1785 128.601 84.551 128.909 82.5716C129.217 80.5703 127.854 78.9648 125.855 78.9648C123.856 78.9648 121.989 80.5923 121.681 82.5716C121.373 84.551 122.736 86.1785 124.735 86.1785Z" fill="#C2C2C2"/>
<path d="M139.41 85.9806C141.3 85.9806 143.057 84.4631 143.343 82.5717C143.628 80.6803 142.354 79.1627 140.465 79.1627C138.575 79.1627 136.818 80.6803 136.532 82.5717C136.247 84.4631 137.521 85.9806 139.41 85.9806Z" fill="#C2C2C2"/>
<path d="M154.086 85.7387C155.844 85.7387 157.469 84.3091 157.755 82.5717C158.019 80.8122 156.832 79.4046 155.075 79.4046C153.317 79.4046 151.691 80.8342 151.406 82.5717C151.142 84.3311 152.328 85.7387 154.086 85.7387Z" fill="#C2C2C2"/>
<path d="M168.761 85.4968C170.365 85.4968 171.881 84.1772 172.145 82.5717C172.408 80.9661 171.288 79.6465 169.684 79.6465C168.08 79.6465 166.565 80.9661 166.301 82.5717C166.059 84.1772 167.158 85.4968 168.761 85.4968Z" fill="#C2C2C2"/>
<path d="M-1.9188 100.518C-0.0953365 100.518 1.59632 99.0446 1.88192 97.2192C2.16752 95.3937 0.915259 93.9202 -0.886232 93.9202C-2.68772 93.9202 -4.40133 95.3937 -4.68693 97.2192C-4.97253 99.0446 -3.72029 100.518 -1.9188 100.518Z" fill="#C2C2C2"/>
<path d="M12.6689 100.804C14.6461 100.804 16.4916 99.1986 16.7992 97.2192C17.1067 95.2398 15.7446 93.6343 13.7893 93.6343C11.8341 93.6343 9.96667 95.2398 9.6591 97.2192C9.35153 99.1986 10.7136 100.804 12.6689 100.804Z" fill="#C2C2C2"/>
<path d="M27.2786 101.09C29.4096 101.09 31.4089 99.3526 31.7384 97.2192C32.0679 95.0859 30.618 93.3484 28.4869 93.3484C26.3559 93.3484 24.3567 95.0859 24.0272 97.2192C23.6976 99.3526 25.1476 101.09 27.2786 101.09Z" fill="#C2C2C2"/>
<path d="M41.8884 101.288C44.1293 101.288 46.2383 99.4625 46.5679 97.2192C46.9194 94.9759 45.3815 93.1505 43.1407 93.1505C40.8998 93.1505 38.7907 94.9759 38.4612 97.2192C38.1097 99.4625 39.6475 101.288 41.8884 101.288Z" fill="#C2C2C2"/>
<path d="M56.498 101.442C58.8268 101.442 61.0237 99.5504 61.3753 97.2192C61.7268 94.8879 60.145 92.9965 57.8162 92.9965C55.4875 92.9965 53.2905 94.8879 52.939 97.2192C52.5875 99.5504 54.1693 101.442 56.498 101.442Z" fill="#C2C2C2"/>
<path d="M71.1295 101.53C73.5022 101.53 75.7211 99.5945 76.0946 97.2192C76.4681 94.8439 74.8424 92.9085 72.4697 92.9085C70.097 92.9085 67.878 94.8439 67.5046 97.2192C67.1311 99.5945 68.7568 101.53 71.1295 101.53Z" fill="#C2C2C2"/>
<path d="M85.7612 101.574C88.1559 101.574 90.3968 99.6165 90.7703 97.2192C91.1437 94.8219 89.496 92.8645 87.1014 92.8645C84.7067 92.8645 82.4658 94.8219 82.0924 97.2192C81.7189 99.6165 83.3666 101.574 85.7612 101.574Z" fill="#C2C2C2"/>
<path d="M100.415 101.486C102.765 101.486 104.984 99.5725 105.336 97.2192C105.709 94.8659 104.084 92.9525 101.733 92.9525C99.3821 92.9525 97.1632 94.8659 96.8117 97.2192C96.4382 99.5725 98.064 101.486 100.415 101.486Z" fill="#C2C2C2"/>
<path d="M115.068 101.332C117.331 101.332 119.462 99.4845 119.814 97.2192C120.165 94.9539 118.606 93.1064 116.343 93.1064C114.08 93.1064 111.949 94.9539 111.597 97.2192C111.246 99.4845 112.806 101.332 115.068 101.332Z" fill="#C2C2C2"/>
<path d="M129.744 101.09C131.875 101.09 133.874 99.3526 134.204 97.2192C134.533 95.0859 133.083 93.3484 130.952 93.3484C128.821 93.3484 126.822 95.0859 126.492 97.2192C126.163 99.3526 127.613 101.09 129.744 101.09Z" fill="#C2C2C2"/>
<path d="M144.419 100.826C146.419 100.826 148.286 99.1986 148.594 97.2192C148.901 95.2178 147.539 93.6123 145.54 93.6123C143.541 93.6123 141.673 95.2398 141.366 97.2192C141.058 99.2206 142.42 100.826 144.419 100.826Z" fill="#C2C2C2"/>
<path d="M159.117 100.562C160.962 100.562 162.676 99.0666 162.961 97.2192C163.247 95.3718 161.995 93.8762 160.149 93.8762C158.304 93.8762 156.59 95.3718 156.305 97.2192C156.019 99.0666 157.271 100.562 159.117 100.562Z" fill="#C2C2C2"/>
<path d="M5.96572 114.406C7.60433 112.888 7.88386 110.523 6.59005 109.123C5.29625 107.723 2.91905 107.819 1.28044 109.337C-0.358173 110.855 -0.637687 113.22 0.656119 114.62C1.94993 116.02 4.32711 115.924 5.96572 114.406Z" fill="#C2C2C2"/>
<path d="M17.656 115.935C19.8969 115.935 22.0059 114.11 22.3355 111.867C22.687 109.623 21.1491 107.798 18.9083 107.798C16.6674 107.798 14.5583 109.623 14.2288 111.867C13.8772 114.11 15.4151 115.935 17.656 115.935Z" fill="#C2C2C2"/>
<path d="M32.2437 116.221C34.6383 116.221 36.8792 114.264 37.2527 111.867C37.6262 109.469 35.9785 107.512 33.5838 107.512C31.1891 107.512 28.9483 109.469 28.5748 111.867C28.2013 114.264 29.849 116.221 32.2437 116.221Z" fill="#C2C2C2"/>
<path d="M46.8535 116.419C49.358 116.419 51.7087 114.374 52.1041 111.867C52.4996 109.359 50.764 107.314 48.2595 107.314C45.755 107.314 43.4043 109.359 43.0088 111.867C42.6134 114.374 44.3489 116.419 46.8535 116.419Z" fill="#C2C2C2"/>
<path d="M61.4631 116.595C64.0555 116.595 66.4941 114.484 66.9115 111.889C67.307 109.293 65.5274 107.182 62.9351 107.182C60.3427 107.182 57.9041 109.293 57.4866 111.889C57.0912 114.484 58.8707 116.595 61.4631 116.595Z" fill="#C2C2C2"/>
<path d="M76.0946 116.661C78.7309 116.661 81.2134 114.506 81.6309 111.867C82.0483 109.228 80.2248 107.072 77.5885 107.072C74.9521 107.072 72.4696 109.228 72.0522 111.867C71.6348 114.506 73.4582 116.661 76.0946 116.661Z" fill="#C2C2C2"/>
<path d="M90.748 116.639C93.3623 116.639 95.8229 114.506 96.2403 111.889C96.6578 109.272 94.8563 107.138 92.2199 107.138C89.5836 107.138 87.145 109.272 86.7276 111.889C86.3102 114.506 88.1117 116.639 90.748 116.639Z" fill="#C2C2C2"/>
<path d="M105.402 116.463C107.928 116.463 110.301 114.418 110.696 111.867C111.092 109.315 109.356 107.27 106.83 107.27C104.303 107.27 101.931 109.315 101.535 111.867C101.14 114.396 102.875 116.463 105.402 116.463Z" fill="#C2C2C2"/>
<path d="M120.077 116.221C122.472 116.221 124.713 114.264 125.086 111.867C125.46 109.469 123.812 107.512 121.417 107.512C119.023 107.512 116.782 109.469 116.408 111.867C116.035 114.264 117.683 116.221 120.077 116.221Z" fill="#C2C2C2"/>
<path d="M134.775 115.935C137.016 115.935 139.125 114.11 139.454 111.867C139.806 109.623 138.268 107.798 136.027 107.798C133.786 107.798 131.677 109.623 131.347 111.867C130.996 114.11 132.534 115.935 134.775 115.935Z" fill="#C2C2C2"/>
<path d="M149.451 115.65C151.538 115.65 153.493 113.956 153.823 111.867C154.152 109.777 152.724 108.084 150.637 108.084C148.55 108.084 146.595 109.777 146.265 111.867C145.936 113.956 147.364 115.65 149.451 115.65Z" fill="#C2C2C2"/>
<path d="M164.148 115.298C166.037 115.298 167.795 113.78 168.08 111.889C168.366 109.997 167.092 108.48 165.202 108.48C163.313 108.48 161.556 109.997 161.27 111.889C160.984 113.78 162.259 115.298 164.148 115.298Z" fill="#C2C2C2"/>
<path d="M8.0333 130.671C10.3181 130.671 12.4711 128.824 12.8226 126.536C13.1741 124.249 11.6143 122.402 9.3295 122.402C7.04468 122.402 4.89168 124.249 4.54017 126.536C4.18866 128.824 5.74848 130.671 8.0333 130.671Z" fill="#C2C2C2"/>
<path d="M22.6212 131.045C25.1037 131.045 27.4324 129.021 27.8279 126.536C28.2233 124.051 26.5097 122.028 24.0272 122.028C21.5446 122.028 19.2159 124.051 18.8204 126.536C18.425 129.021 20.1386 131.045 22.6212 131.045Z" fill="#C2C2C2"/>
<path d="M37.2088 131.375C39.8671 131.375 42.3716 129.219 42.789 126.536C43.2064 123.875 41.383 121.698 38.7027 121.698C36.0224 121.698 33.5399 123.853 33.1225 126.536C32.7051 129.197 34.5285 131.375 37.2088 131.375Z" fill="#C2C2C2"/>
<path d="M51.8185 131.617C54.6306 131.617 57.2449 129.351 57.6843 126.536C58.1237 123.721 56.1904 121.456 53.4003 121.456C50.6102 121.456 47.9738 123.721 47.5345 126.536C47.0951 129.351 49.0284 131.617 51.8185 131.617Z" fill="#C2C2C2"/>
<path d="M66.4281 131.771C69.3281 131.771 72.0303 129.417 72.4697 126.536C72.9091 123.633 70.9319 121.302 68.0539 121.302C65.1759 121.302 62.4517 123.655 62.0123 126.536C61.5729 129.439 63.5502 131.771 66.4281 131.771Z" fill="#C2C2C2"/>
<path d="M81.0595 131.771C83.9594 131.771 86.6617 129.417 87.101 126.536C87.5404 123.633 85.5632 121.302 82.6852 121.302C79.8072 121.302 77.083 123.655 76.6436 126.536C76.2042 129.439 78.1815 131.771 81.0595 131.771Z" fill="#C2C2C2"/>
<path d="M95.7355 131.617C98.5476 131.617 101.162 129.351 101.601 126.536C102.041 123.721 100.107 121.456 97.3173 121.456C94.5272 121.456 91.8908 123.721 91.4514 126.536C91.0121 129.351 92.9454 131.617 95.7355 131.617Z" fill="#C2C2C2"/>
<path d="M110.411 131.375C113.069 131.375 115.574 129.219 115.991 126.536C116.409 123.875 114.585 121.698 111.905 121.698C109.225 121.698 106.742 123.853 106.325 126.536C105.907 129.197 107.731 131.375 110.411 131.375Z" fill="#C2C2C2"/>
<path d="M125.086 131.089C127.591 131.089 129.942 129.043 130.337 126.536C130.733 124.029 128.997 121.984 126.492 121.984C123.988 121.984 121.637 124.029 121.242 126.536C120.846 129.043 122.582 131.089 125.086 131.089Z" fill="#C2C2C2"/>
<path d="M139.784 130.715C142.09 130.715 144.265 128.845 144.617 126.536C144.968 124.227 143.387 122.357 141.08 122.357C138.773 122.357 136.598 124.227 136.247 126.536C135.895 128.845 137.477 130.715 139.784 130.715Z" fill="#C2C2C2"/>
<path d="M154.481 130.341C156.59 130.341 158.568 128.626 158.897 126.514C159.227 124.403 157.777 122.687 155.668 122.687C153.559 122.687 151.581 124.403 151.252 126.514C150.922 128.626 152.372 130.341 154.481 130.341Z" fill="#C2C2C2"/>
<path d="M169.179 129.989C171.09 129.989 172.87 128.45 173.156 126.536C173.441 124.623 172.145 123.083 170.234 123.083C168.322 123.083 166.543 124.623 166.257 126.536C165.972 128.45 167.268 129.989 169.179 129.989Z" fill="#C2C2C2"/>
<path d="M-1.5453 145.34C0.739518 145.34 2.8925 143.493 3.24401 141.206C3.59552 138.918 2.03571 137.071 -0.249112 137.071C-2.53393 137.071 -4.68693 138.918 -5.03844 141.206C-5.38995 143.493 -3.83012 145.34 -1.5453 145.34Z" fill="#C2C2C2"/>
<path d="M13.0204 145.736C15.525 145.736 17.8757 143.691 18.2711 141.184C18.6666 138.677 16.931 136.631 14.4265 136.631C11.922 136.631 9.57125 138.677 9.17581 141.184C8.78036 143.691 10.5159 145.736 13.0204 145.736Z" fill="#C2C2C2"/>
<path d="M27.608 146.154C30.3322 146.154 32.9026 143.933 33.3201 141.206C33.7375 138.457 31.8701 136.257 29.1459 136.257C26.4217 136.257 23.8512 138.479 23.4338 141.206C23.0164 143.955 24.8838 146.154 27.608 146.154Z" fill="#C2C2C2"/>
<path d="M42.1739 146.506C45.1178 146.506 47.8639 144.131 48.3253 141.184C48.7867 138.237 46.7655 135.861 43.8435 135.861C40.9216 135.861 38.1535 138.237 37.6921 141.184C37.2307 144.131 39.2519 146.506 42.1739 146.506Z" fill="#C2C2C2"/>
<path d="M56.7835 146.792C59.8812 146.792 62.7812 144.285 63.2645 141.184C63.7478 138.083 61.6168 135.575 58.5411 135.575C55.4654 135.575 52.5434 138.083 52.0601 141.184C51.5768 144.285 53.7078 146.792 56.7835 146.792Z" fill="#C2C2C2"/>
<path d="M71.3932 146.924C74.5568 146.924 77.5227 144.351 78.006 141.184C78.4893 138.017 76.3363 135.444 73.1727 135.444C70.0091 135.444 67.0433 138.017 66.56 141.184C66.0766 144.351 68.2296 146.924 71.3932 146.924Z" fill="#C2C2C2"/>
<path d="M90.4484 144.989C92.9063 142.712 93.3222 139.161 91.3774 137.057C89.4326 134.953 85.8634 135.093 83.4055 137.37C80.9476 139.647 80.5317 143.198 82.4765 145.302C84.4213 147.406 87.9905 147.266 90.4484 144.989Z" fill="#C2C2C2"/>
<path d="M100.744 146.55C103.71 146.55 106.478 144.153 106.939 141.184C107.401 138.215 105.38 135.817 102.414 135.817C99.4479 135.817 96.6798 138.215 96.2184 141.184C95.7571 144.153 97.7782 146.55 100.744 146.55Z" fill="#C2C2C2"/>
<path d="M115.442 146.176C118.21 146.176 120.78 143.933 121.22 141.184C121.637 138.413 119.77 136.191 117.002 136.191C114.234 136.191 111.663 138.435 111.224 141.184C110.806 143.955 112.674 146.176 115.442 146.176Z" fill="#C2C2C2"/>
<path d="M130.139 145.78C132.666 145.78 135.038 143.735 135.434 141.184C135.829 138.655 134.094 136.587 131.567 136.587C129.041 136.587 126.668 138.633 126.272 141.184C125.877 143.713 127.613 145.78 130.139 145.78Z" fill="#C2C2C2"/>
<path d="M144.837 145.406C147.166 145.406 149.363 143.515 149.714 141.184C150.066 138.852 148.484 136.961 146.155 136.961C143.826 136.961 141.629 138.852 141.278 141.184C140.926 143.515 142.508 145.406 144.837 145.406Z" fill="#C2C2C2"/>
<path d="M159.535 145.011C161.644 145.011 163.621 143.295 163.95 141.184C164.28 139.072 162.83 137.357 160.721 137.357C158.612 137.357 156.635 139.072 156.305 141.184C155.975 143.295 157.425 145.011 159.535 145.011Z" fill="#C2C2C2"/>
<path d="M3.44195 160.362C5.92449 160.362 8.25326 158.339 8.64871 155.853C9.04416 153.368 7.33053 151.345 4.84799 151.345C2.36545 151.345 0.0366884 153.368 -0.358761 155.853C-0.75421 158.339 0.959411 160.362 3.44195 160.362Z" fill="#C2C2C2"/>
<path d="M18.0074 160.802C20.7316 160.802 23.302 158.58 23.7195 155.853C24.1369 153.104 22.2695 150.905 19.5453 150.905C16.8211 150.905 14.2507 153.126 13.8332 155.853C13.4158 158.58 15.2832 160.802 18.0074 160.802Z" fill="#C2C2C2"/>
<path d="M32.5952 161.198C35.5611 161.198 38.3292 158.8 38.7906 155.831C39.2519 152.862 37.2307 150.465 34.2649 150.465C31.299 150.465 28.5309 152.862 28.0695 155.831C27.6081 158.8 29.6293 161.198 32.5952 161.198Z" fill="#C2C2C2"/>
<path d="M51.7327 159.805C54.2797 157.445 54.7077 153.762 52.6887 151.578C50.6697 149.393 46.9682 149.535 44.4213 151.895C41.8743 154.254 41.4463 157.938 43.4653 160.122C45.4843 162.306 49.1857 162.164 51.7327 159.805Z" fill="#C2C2C2"/>
<path d="M61.7485 161.989C65.1318 161.989 68.2954 159.24 68.8227 155.853C69.3499 152.466 67.0212 149.717 63.6379 149.717C60.2546 149.717 57.091 152.466 56.5637 155.853C56.0365 159.24 58.3652 161.989 61.7485 161.989Z" fill="#C2C2C2"/>
<path d="M76.3804 162.011C79.7856 162.011 82.9712 159.24 83.4984 155.831C84.0257 152.422 81.6969 149.651 78.2917 149.651C74.8864 149.651 71.7009 152.422 71.1736 155.831C70.6463 159.24 72.9751 162.011 76.3804 162.011Z" fill="#C2C2C2"/>
<path d="M91.0778 161.703C94.3073 161.703 97.3391 159.086 97.8224 155.853C98.3277 152.62 96.1088 150.003 92.8793 150.003C89.6498 150.003 86.618 152.62 86.1347 155.853C85.6294 159.086 87.8483 161.703 91.0778 161.703Z" fill="#C2C2C2"/>
<path d="M105.775 161.286C108.785 161.286 111.597 158.844 112.058 155.831C112.52 152.818 110.477 150.377 107.467 150.377C104.457 150.377 101.645 152.818 101.184 155.831C100.722 158.844 102.765 161.286 105.775 161.286Z" fill="#C2C2C2"/>
<path d="M120.473 160.846C123.241 160.846 125.811 158.602 126.251 155.853C126.668 153.082 124.801 150.861 122.033 150.861C119.264 150.861 116.694 153.104 116.255 155.853C115.837 158.624 117.705 160.846 120.473 160.846Z" fill="#C2C2C2"/>
<path d="M135.192 160.384C137.697 160.384 140.048 158.338 140.443 155.831C140.838 153.324 139.103 151.279 136.598 151.279C134.094 151.279 131.743 153.324 131.348 155.831C130.952 158.338 132.688 160.384 135.192 160.384Z" fill="#C2C2C2"/>
<path d="M149.89 159.944C152.153 159.944 154.284 158.097 154.635 155.831C154.987 153.566 153.427 151.719 151.164 151.719C148.901 151.719 146.77 153.566 146.419 155.831C146.067 158.097 147.627 159.944 149.89 159.944Z" fill="#C2C2C2"/>
<path d="M164.609 159.548C166.652 159.548 168.564 157.899 168.871 155.853C169.179 153.808 167.795 152.158 165.752 152.158C163.708 152.158 161.797 153.808 161.49 155.853C161.182 157.899 162.566 159.548 164.609 159.548Z" fill="#C2C2C2"/>
<path d="M8.45101 175.295C11.0873 175.295 13.5699 173.14 13.9873 170.501C14.4047 167.862 12.5813 165.706 9.94493 165.706C7.3086 165.706 4.82606 167.862 4.40865 170.501C3.99123 173.14 5.81468 175.295 8.45101 175.295Z" fill="#C2C2C2"/>
<path d="M23.0165 175.735C25.9165 175.735 28.6187 173.382 29.0581 170.501C29.4975 167.62 27.5202 165.266 24.6422 165.266C21.7643 165.266 19.04 167.62 18.6007 170.501C18.1613 173.382 20.1385 175.735 23.0165 175.735Z" fill="#C2C2C2"/>
<path d="M37.5822 176.219C40.7458 176.219 43.7117 173.646 44.195 170.479C44.6783 167.312 42.5253 164.738 39.3617 164.738C36.1981 164.738 33.2322 167.312 32.7489 170.479C32.2656 173.646 34.4186 176.219 37.5822 176.219Z" fill="#C2C2C2"/>
<path d="M52.1478 176.725C55.5751 176.725 58.7826 173.932 59.3318 170.501C59.8591 167.07 57.5084 164.277 54.0811 164.277C50.6539 164.277 47.4464 167.07 46.8971 170.501C46.3699 173.932 48.7206 176.725 52.1478 176.725Z" fill="#C2C2C2"/>
<path d="M66.7358 177.033C70.3387 177.033 73.722 174.108 74.2932 170.479C74.8644 166.872 72.3819 163.925 68.7789 163.925C65.1759 163.925 61.7926 166.85 61.2214 170.479C60.6502 174.086 63.1328 177.033 66.7358 177.033Z" fill="#C2C2C2"/>
<path d="M81.411 176.747C84.8602 176.747 88.0897 173.954 88.6389 170.479C89.1662 167.026 86.8154 164.211 83.3663 164.211C79.9171 164.211 76.6876 167.004 76.1383 170.479C75.6111 173.932 77.9618 176.747 81.411 176.747Z" fill="#C2C2C2"/>
<path d="M96.1304 176.263C99.316 176.263 102.304 173.69 102.787 170.501C103.292 167.312 101.096 164.738 97.91 164.738C94.7244 164.738 91.7366 167.312 91.2532 170.501C90.7699 173.69 92.9449 176.263 96.1304 176.263Z" fill="#C2C2C2"/>
<path d="M110.85 175.779C113.772 175.779 116.496 173.404 116.958 170.501C117.419 167.598 115.42 165.222 112.498 165.222C109.576 165.222 106.852 167.598 106.39 170.501C105.929 173.404 107.928 175.779 110.85 175.779Z" fill="#C2C2C2"/>
<path d="M125.548 175.339C128.206 175.339 130.71 173.184 131.128 170.501C131.545 167.84 129.722 165.662 127.042 165.662C124.361 165.662 121.879 167.818 121.461 170.501C121.044 173.162 122.867 175.339 125.548 175.339Z" fill="#C2C2C2"/>
<path d="M140.267 174.877C142.684 174.877 144.947 172.92 145.342 170.479C145.715 168.059 144.068 166.08 141.629 166.08C139.191 166.08 136.95 168.037 136.554 170.479C136.181 172.898 137.828 174.877 140.267 174.877Z" fill="#C2C2C2"/>
<path d="M154.965 174.438C157.14 174.438 159.183 172.678 159.512 170.501C159.842 168.323 158.37 166.564 156.195 166.564C154.02 166.564 151.977 168.323 151.647 170.501C151.318 172.678 152.79 174.438 154.965 174.438Z" fill="#C2C2C2"/>
<path d="M169.684 174.042C171.639 174.042 173.463 172.458 173.77 170.501C174.078 168.543 172.738 166.96 170.783 166.96C168.827 166.96 167.004 168.543 166.696 170.501C166.389 172.458 167.729 174.042 169.684 174.042Z" fill="#C2C2C2"/>
<path d="M-1.1059 189.657C1.37664 189.657 3.70541 187.633 4.10085 185.148C4.4963 182.663 2.78268 180.64 0.300141 180.64C-2.1824 180.64 -4.51116 182.663 -4.90661 185.148C-5.30206 187.633 -3.58844 189.657 -1.1059 189.657Z" fill="#C2C2C2"/>
<path d="M13.4596 190.119C16.2057 190.119 18.7542 187.897 19.1716 185.17C19.589 182.421 17.7216 180.222 14.9974 180.222C12.2732 180.222 9.7028 182.443 9.28538 185.17C8.86796 187.897 10.7354 190.119 13.4596 190.119Z" fill="#C2C2C2"/>
<path d="M28.0258 190.559C31.0136 190.559 33.8037 188.139 34.2651 185.148C34.7264 182.157 32.6833 179.738 29.6954 179.738C26.7076 179.738 23.9175 182.157 23.4561 185.148C22.9948 188.139 25.0379 190.559 28.0258 190.559Z" fill="#C2C2C2"/>
<path d="M47.1575 189.105C49.7045 186.745 50.1325 183.062 48.1135 180.878C46.0945 178.694 42.393 178.836 39.8461 181.195C37.2991 183.554 36.8711 187.238 38.8901 189.422C40.9091 191.606 44.6105 191.464 47.1575 189.105Z" fill="#C2C2C2"/>
<path d="M57.2007 191.328C60.6059 191.328 63.7915 188.557 64.3187 185.148C64.846 181.739 62.5172 178.968 59.112 178.968C55.7067 178.968 52.5212 181.739 51.9939 185.148C51.4666 188.557 53.7954 191.328 57.2007 191.328Z" fill="#C2C2C2"/>
<path d="M71.8324 191.372C75.2596 191.372 78.4672 188.579 79.0164 185.148C79.5437 181.717 77.1929 178.924 73.7657 178.924C70.3385 178.924 67.1309 181.717 66.5817 185.148C66.0544 188.579 68.4052 191.372 71.8324 191.372Z" fill="#C2C2C2"/>
<path d="M86.508 191.042C89.7595 191.042 92.8132 188.403 93.3185 185.148C93.8238 181.893 91.6049 179.254 88.3534 179.254C85.102 179.254 82.0482 181.893 81.5429 185.148C81.0376 188.403 83.2565 191.042 86.508 191.042Z" fill="#C2C2C2"/>
<path d="M101.227 190.603C104.237 190.603 107.049 188.161 107.511 185.148C107.972 182.135 105.929 179.694 102.919 179.694C99.9092 179.694 97.0972 182.135 96.6358 185.148C96.1744 188.161 98.2176 190.603 101.227 190.603Z" fill="#C2C2C2"/>
<path d="M115.925 190.163C118.693 190.163 121.263 187.919 121.703 185.17C122.12 182.399 120.253 180.178 117.485 180.178C114.717 180.178 112.146 182.421 111.707 185.17C111.289 187.941 113.157 190.163 115.925 190.163Z" fill="#C2C2C2"/>
<path d="M130.644 189.701C133.149 189.701 135.5 187.655 135.895 185.148C136.291 182.641 134.555 180.596 132.051 180.596C129.546 180.596 127.195 182.641 126.8 185.148C126.404 187.655 128.14 189.701 130.644 189.701Z" fill="#C2C2C2"/>
<path d="M145.342 189.305C147.627 189.305 149.78 187.458 150.131 185.17C150.483 182.883 148.923 181.036 146.638 181.036C144.353 181.036 142.2 182.883 141.849 185.17C141.497 187.458 143.057 189.305 145.342 189.305Z" fill="#C2C2C2"/>
<path d="M160.062 188.843C162.105 188.843 164.016 187.194 164.324 185.148C164.631 183.103 163.247 181.453 161.204 181.453C159.161 181.453 157.25 183.103 156.942 185.148C156.635 187.194 158.019 188.843 160.062 188.843Z" fill="#C2C2C2"/>
<path d="M3.92522 204.392C6.4517 204.392 8.82438 202.347 9.21983 199.796C9.61528 197.267 7.87971 195.199 5.35323 195.199C2.82675 195.199 0.454047 197.245 0.0585982 199.796C-0.336851 202.325 1.39874 204.392 3.92522 204.392Z" fill="#C2C2C2"/>
<path d="M18.5127 204.81C21.2809 204.81 23.8513 202.567 24.2907 199.818C24.7081 197.047 22.8407 194.825 20.0726 194.825C17.3044 194.825 14.734 197.069 14.2946 199.818C13.8772 202.589 15.7446 204.81 18.5127 204.81Z" fill="#C2C2C2"/>
<path d="M33.0786 205.184C36.0445 205.184 38.8126 202.787 39.274 199.818C39.7353 196.849 37.7141 194.451 34.7483 194.451C31.7824 194.451 29.0143 196.849 28.5529 199.818C28.0915 202.787 30.1127 205.184 33.0786 205.184Z" fill="#C2C2C2"/>
<path d="M47.6883 205.448C50.8079 205.448 53.7298 202.919 54.2132 199.796C54.6965 196.673 52.5655 194.143 49.4458 194.143C46.3262 194.143 43.4042 196.673 42.9209 199.796C42.4376 202.919 44.5686 205.448 47.6883 205.448Z" fill="#C2C2C2"/>
<path d="M62.2979 205.58C65.4835 205.58 68.4713 203.007 68.9547 199.818C69.438 196.629 67.263 194.056 64.0774 194.056C60.8919 194.056 57.904 196.629 57.4207 199.818C56.9374 203.007 59.1124 205.58 62.2979 205.58Z" fill="#C2C2C2"/>
<path d="M76.9514 205.448C80.0711 205.448 82.993 202.919 83.4764 199.796C83.9597 196.673 81.8287 194.143 78.709 194.143C75.5893 194.143 72.6674 196.673 72.1841 199.796C71.7008 202.919 73.8318 205.448 76.9514 205.448Z" fill="#C2C2C2"/>
<path d="M91.6488 205.206C94.6367 205.206 97.4268 202.787 97.8881 199.796C98.3495 196.805 96.3063 194.385 93.3185 194.385C90.3306 194.385 87.5405 196.805 87.0792 199.796C86.6178 202.787 88.661 205.206 91.6488 205.206Z" fill="#C2C2C2"/>
<path d="M110.285 203.249C112.494 201.203 112.868 198.012 111.121 196.122C109.374 194.232 106.167 194.358 103.958 196.404C101.75 198.45 101.376 201.641 103.123 203.531C104.87 205.421 108.076 205.294 110.285 203.249Z" fill="#C2C2C2"/>
<path d="M121.044 204.436C123.592 204.436 125.987 202.369 126.382 199.796C126.778 197.245 125.02 195.155 122.472 195.155C119.923 195.155 117.529 197.223 117.133 199.796C116.738 202.347 118.495 204.436 121.044 204.436Z" fill="#C2C2C2"/>
<path d="M139.071 202.692C140.924 200.976 141.236 198.298 139.769 196.712C138.302 195.125 135.612 195.229 133.759 196.945C131.907 198.661 131.594 201.339 133.061 202.926C134.528 204.513 137.219 204.408 139.071 202.692Z" fill="#C2C2C2"/>
<path d="M150.439 203.623C152.548 203.623 154.525 201.907 154.855 199.796C155.184 197.685 153.734 195.969 151.625 195.969C149.516 195.969 147.539 197.685 147.209 199.796C146.88 201.907 148.33 203.623 150.439 203.623Z" fill="#C2C2C2"/>
<path d="M165.137 203.227C167.026 203.227 168.784 201.709 169.069 199.818C169.355 197.926 168.081 196.409 166.191 196.409C164.302 196.409 162.544 197.926 162.259 199.818C161.973 201.709 163.247 203.227 165.137 203.227Z" fill="#C2C2C2"/>
<path d="M8.97797 219.018C11.4825 219.018 13.8332 216.973 14.2287 214.465C14.6241 211.958 12.8885 209.913 10.384 209.913C7.8795 209.913 5.52877 211.958 5.13332 214.465C4.73788 216.973 6.47346 219.018 8.97797 219.018Z" fill="#C2C2C2"/>
<path d="M23.5657 219.304C26.224 219.304 28.7285 217.148 29.1459 214.465C29.5633 211.804 27.7399 209.627 25.0596 209.627C22.3794 209.627 19.8968 211.782 19.4794 214.465C19.062 217.148 20.8854 219.304 23.5657 219.304Z" fill="#C2C2C2"/>
<path d="M38.1754 219.59C41.0094 219.59 43.6458 217.302 44.0852 214.465C44.5245 211.628 42.5912 209.341 39.7572 209.341C36.9231 209.341 34.2868 211.628 33.8474 214.465C33.408 217.302 35.3413 219.59 38.1754 219.59Z" fill="#C2C2C2"/>
<path d="M52.7848 219.744C55.7067 219.744 58.4309 217.368 58.8923 214.465C59.3536 211.562 57.3544 209.187 54.4325 209.187C51.5106 209.187 48.7864 211.562 48.325 214.465C47.8636 217.368 49.8628 219.744 52.7848 219.744Z" fill="#C2C2C2"/>
<path d="M67.4166 219.744C70.3386 219.744 73.0628 217.368 73.5241 214.465C73.9855 211.562 71.9863 209.187 69.0643 209.187C66.1424 209.187 63.4182 211.562 62.9568 214.465C62.4955 217.368 64.4947 219.744 67.4166 219.744Z" fill="#C2C2C2"/>
<path d="M82.0924 219.59C84.9264 219.59 87.5628 217.302 88.0021 214.465C88.4415 211.628 86.5082 209.341 83.6742 209.341C80.8401 209.341 78.2038 211.628 77.7644 214.465C77.325 217.302 79.2583 219.59 82.0924 219.59Z" fill="#C2C2C2"/>
<path d="M96.7678 219.348C99.4481 219.348 101.975 217.171 102.392 214.465C102.809 211.782 100.964 209.583 98.2837 209.583C95.6034 209.583 93.0769 211.76 92.6595 214.465C92.2421 217.149 94.0875 219.348 96.7678 219.348Z" fill="#C2C2C2"/>
<path d="M111.465 219.018C113.97 219.018 116.321 216.973 116.716 214.465C117.111 211.958 115.376 209.913 112.871 209.913C110.367 209.913 108.016 211.958 107.621 214.465C107.225 216.973 108.961 219.018 111.465 219.018Z" fill="#C2C2C2"/>
<path d="M126.141 218.688C128.47 218.688 130.667 216.797 131.018 214.465C131.37 212.134 129.788 210.243 127.459 210.243C125.131 210.243 122.934 212.134 122.582 214.465C122.231 216.797 123.812 218.688 126.141 218.688Z" fill="#C2C2C2"/>
<path d="M140.838 218.336C142.969 218.336 144.968 216.599 145.298 214.465C145.628 212.332 144.178 210.594 142.047 210.594C139.915 210.594 137.916 212.332 137.587 214.465C137.257 216.599 138.707 218.336 140.838 218.336Z" fill="#C2C2C2"/>
<path d="M155.536 217.918C157.447 217.918 159.227 216.379 159.513 214.465C159.798 212.552 158.502 211.012 156.591 211.012C154.679 211.012 152.9 212.552 152.614 214.465C152.329 216.379 153.625 217.918 155.536 217.918Z" fill="#C2C2C2"/>
<path d="M170.234 217.544C171.947 217.544 173.529 216.159 173.793 214.465C174.056 212.772 172.892 211.386 171.178 211.386C169.465 211.386 167.883 212.772 167.619 214.465C167.356 216.181 168.52 217.544 170.234 217.544Z" fill="#C2C2C2"/>
<path d="M-0.534632 233.182C1.70625 233.182 3.8153 231.356 4.14484 229.113C4.49636 226.87 2.9585 225.044 0.717624 225.044C-1.52326 225.044 -3.63233 226.87 -3.96187 229.113C-4.29141 231.356 -2.77551 233.182 -0.534632 233.182Z" fill="#C2C2C2"/>
<path d="M14.0528 233.467C16.4474 233.467 18.6883 231.51 19.0618 229.113C19.4353 226.716 17.7876 224.758 15.3929 224.758C12.9982 224.758 10.7573 226.716 10.3839 229.113C10.0104 231.51 11.6581 233.467 14.0528 233.467Z" fill="#C2C2C2"/>
<path d="M28.6625 233.709C31.189 233.709 33.5617 231.664 33.9571 229.113C34.3526 226.584 32.617 224.516 30.0905 224.516C27.564 224.516 25.1914 226.562 24.7959 229.113C24.4005 231.642 26.136 233.709 28.6625 233.709Z" fill="#C2C2C2"/>
<path d="M43.2724 233.885C45.8867 233.885 48.3473 231.752 48.7647 229.135C49.1822 226.518 47.3807 224.384 44.7443 224.384C42.108 224.384 39.6694 226.518 39.252 229.135C38.8346 231.752 40.6361 233.885 43.2724 233.885Z" fill="#C2C2C2"/>
<path d="M57.9041 233.951C60.5624 233.951 63.0669 231.796 63.4843 229.113C63.9017 226.43 62.0783 224.274 59.398 224.274C56.7177 224.274 54.2352 226.43 53.8178 229.113C53.4004 231.774 55.2238 233.951 57.9041 233.951Z" fill="#C2C2C2"/>
<path d="M72.5355 233.907C75.1718 233.907 77.6544 231.752 78.0718 229.113C78.4892 226.474 76.6657 224.318 74.0294 224.318C71.3931 224.318 68.9105 226.474 68.4931 229.113C68.0757 231.752 69.8992 233.907 72.5355 233.907Z" fill="#C2C2C2"/>
<path d="M87.2112 233.753C89.7597 233.753 92.1544 231.686 92.5498 229.113C92.9453 226.562 91.1877 224.472 88.6393 224.472C86.0908 224.472 83.6961 226.54 83.3007 229.113C82.9052 231.664 84.6628 233.753 87.2112 233.753Z" fill="#C2C2C2"/>
<path d="M101.887 233.511C104.303 233.511 106.566 231.554 106.962 229.113C107.335 226.694 105.687 224.714 103.249 224.714C100.81 224.714 98.5693 226.672 98.1739 229.113C97.8004 231.532 99.4481 233.511 101.887 233.511Z" fill="#C2C2C2"/>
<path d="M116.562 233.226C118.825 233.226 120.956 231.378 121.308 229.113C121.659 226.848 120.099 225 117.836 225C115.574 225 113.442 226.848 113.091 229.113C112.739 231.378 114.299 233.226 116.562 233.226Z" fill="#C2C2C2"/>
<path d="M131.26 232.896C133.347 232.896 135.302 231.202 135.632 229.113C135.961 227.023 134.533 225.33 132.446 225.33C130.359 225.33 128.404 227.023 128.074 229.113C127.745 231.202 129.173 232.896 131.26 232.896Z" fill="#C2C2C2"/>
<path d="M145.957 232.566C147.869 232.566 149.648 231.026 149.934 229.113C150.22 227.199 148.923 225.66 147.012 225.66C145.101 225.66 143.321 227.199 143.036 229.113C142.75 231.026 144.046 232.566 145.957 232.566Z" fill="#C2C2C2"/>
<path d="M160.655 232.214C162.369 232.214 163.95 230.828 164.214 229.135C164.478 227.441 163.313 226.056 161.6 226.056C159.886 226.056 158.304 227.441 158.041 229.135C157.777 230.85 158.941 232.214 160.655 232.214Z" fill="#C2C2C2"/>
</g>
</g>
<path d="M120 118.574V107.223C120 103.822 121.037 101.059 123.112 98.9333L127.468 94.4696L123.112 90.0058C121.037 87.8802 120 85.1169 120 81.7159V73.4261C120 59.142 126.97 52 140.911 52H158.089C172.03 52 179 59.142 179 73.4261V81.7159C179 85.1169 177.963 87.8802 175.888 90.0058L171.532 94.4696L175.888 98.9333C177.963 101.059 179 103.822 179 107.223V118.574C179 132.858 172.03 140 158.089 140H140.911C126.97 140 120 132.858 120 118.574ZM137.924 119.594C137.924 122.145 139.169 123.42 141.658 123.42H157.342C159.831 123.42 161.076 122.145 161.076 119.594V106.841C161.076 104.29 159.831 103.014 157.342 103.014H141.658C139.169 103.014 137.924 104.29 137.924 106.841V119.594ZM137.924 82.6087C137.924 85.1594 139.169 86.4348 141.658 86.4348H157.342C159.831 86.4348 161.076 85.1594 161.076 82.6087V72.4058C161.076 69.8551 159.831 68.5797 157.342 68.5797H141.658C139.169 68.5797 137.924 69.8551 137.924 72.4058V82.6087Z" fill="#1D2F8C"/>
<defs>
<linearGradient id="paint0_linear_159_6387" x1="219.717" y1="36.3932" x2="54.0466" y2="191.2" gradientUnits="userSpaceOnUse">
<stop stop-color="#254BFF"/>
<stop offset="1" stop-color="#D9D9D9" stop-opacity="0"/>
</linearGradient>
<linearGradient id="paint1_linear_159_6387" x1="219.717" y1="36.3932" x2="54.0466" y2="191.2" gradientUnits="userSpaceOnUse">
<stop stop-color="#254BFF"/>
<stop offset="1" stop-color="#D9D9D9" stop-opacity="0"/>
</linearGradient>
</defs>
</svg>
