<svg width="182" height="239" viewBox="0 0 182 239" fill="none" xmlns="http://www.w3.org/2000/svg">
<circle cx="119.5" cy="119.5" r="119.5" transform="matrix(-1 0 0 1 182 0)" fill="url(#paint0_linear_168_10004)"/>
<mask id="mask0_168_10004" style="mask-type:alpha" maskUnits="userSpaceOnUse" x="-57" y="0" width="239" height="239">
<circle cx="119.5" cy="119.5" r="119.5" transform="matrix(-1 0 0 1 182 0)" fill="url(#paint1_linear_168_10004)"/>
</mask>
<g mask="url(#mask0_168_10004)">
<g style="mix-blend-mode:overlay">
<path d="M170.012 10.8297C169.155 10.8297 168.364 10.1479 168.233 9.29014C168.101 8.4324 168.694 7.75061 169.529 7.75061C170.364 7.75061 171.176 8.4324 171.308 9.29014C171.44 10.1479 170.847 10.8297 170.012 10.8297Z" fill="#C2C2C2"/>
<path d="M155.38 10.9616C154.458 10.9616 153.601 10.2138 153.447 9.29008C153.315 8.36637 153.93 7.61859 154.853 7.61859C155.776 7.61859 156.633 8.36637 156.786 9.29008C156.918 10.2138 156.303 10.9616 155.38 10.9616Z" fill="#C2C2C2"/>
<path d="M140.771 11.0716C139.782 11.0716 138.86 10.2798 138.706 9.29012C138.552 8.30043 139.233 7.50867 140.222 7.50867C141.21 7.50867 142.133 8.30043 142.287 9.29012C142.441 10.2798 141.76 11.0716 140.771 11.0716Z" fill="#C2C2C2"/>
<path d="M126.139 11.1595C125.107 11.1595 124.14 10.3238 123.986 9.29009C123.833 8.2564 124.536 7.42065 125.568 7.42065C126.601 7.42065 127.567 8.2564 127.721 9.29009C127.875 10.3238 127.172 11.1595 126.139 11.1595Z" fill="#C2C2C2"/>
<path d="M111.508 11.2475C110.431 11.2475 109.421 10.3678 109.267 9.29011C109.091 8.21244 109.838 7.3327 110.915 7.3327C111.991 7.3327 113.002 8.21244 113.156 9.29011C113.331 10.3678 112.584 11.2475 111.508 11.2475Z" fill="#C2C2C2"/>
<path d="M96.876 11.2475C95.7995 11.2475 94.7889 10.3678 94.6351 9.29011C94.4593 8.21244 95.2063 7.3327 96.2828 7.3327C97.3593 7.3327 98.3699 8.21244 98.5237 9.29011C98.6994 10.3678 97.9525 11.2475 96.876 11.2475Z" fill="#C2C2C2"/>
<path d="M82.2446 11.2475C81.1681 11.2475 80.1575 10.3678 80.0038 9.29011C79.828 8.21244 80.575 7.3327 81.6515 7.3327C82.728 7.3327 83.7385 8.21244 83.8923 9.29011C84.0681 10.3678 83.3211 11.2475 82.2446 11.2475Z" fill="#C2C2C2"/>
<path d="M67.5908 11.2475C66.5143 11.2475 65.5037 10.3678 65.3499 9.29011C65.1742 8.21244 65.9211 7.3327 66.9976 7.3327C68.0741 7.3327 69.0847 8.21244 69.2385 9.29011C69.4143 10.3678 68.6673 11.2475 67.5908 11.2475Z" fill="#C2C2C2"/>
<path d="M52.9371 11.1595C51.9046 11.1595 50.9379 10.3238 50.7841 9.29009C50.6304 8.2564 51.3334 7.42065 52.3659 7.42065C53.3985 7.42065 54.3652 8.2564 54.5189 9.29009C54.6727 10.3238 53.9697 11.1595 52.9371 11.1595Z" fill="#C2C2C2"/>
<path d="M38.2837 11.0716C37.2951 11.0716 36.3724 10.2798 36.2186 9.29012C36.0648 8.30043 36.7459 7.50867 37.7345 7.50867C38.7231 7.50867 39.6458 8.30043 39.7996 9.29012C39.9534 10.2798 39.2723 11.0716 38.2837 11.0716Z" fill="#C2C2C2"/>
<path d="M23.6298 10.9836C22.6851 10.9836 21.8063 10.2138 21.6525 9.26808C21.4987 8.32237 22.1578 7.55261 23.1025 7.55261C24.0472 7.55261 24.926 8.32237 25.0798 9.26808C25.2335 10.2138 24.5745 10.9836 23.6298 10.9836Z" fill="#C2C2C2"/>
<path d="M8.97647 10.8297C8.11967 10.8297 7.32877 10.1479 7.19696 9.29014C7.06514 8.4324 7.65831 7.75061 8.49314 7.75061C9.32798 7.75061 10.1408 8.4324 10.2727 9.29014C10.4045 10.1479 9.81131 10.8297 8.97647 10.8297Z" fill="#C2C2C2"/>
<path d="M179.635 25.697C178.668 25.697 177.767 24.9053 177.613 23.9596C177.46 22.9919 178.119 22.2221 179.085 22.2221C180.052 22.2221 180.953 23.0139 181.107 23.9596C181.26 24.9273 180.601 25.697 179.635 25.697Z" fill="#C2C2C2"/>
<path d="M165.025 25.8511C163.971 25.8511 162.982 24.9933 162.828 23.9377C162.674 22.882 163.377 22.0242 164.432 22.0242C165.486 22.0242 166.475 22.882 166.629 23.9377C166.783 24.9933 166.08 25.8511 165.025 25.8511Z" fill="#C2C2C2"/>
<path d="M150.394 25.983C149.273 25.983 148.219 25.0813 148.043 23.9596C147.867 22.8379 148.636 21.9362 149.757 21.9362C150.877 21.9362 151.932 22.8379 152.107 23.9596C152.283 25.0813 151.514 25.983 150.394 25.983Z" fill="#C2C2C2"/>
<path d="M135.784 26.093C134.598 26.093 133.477 25.1253 133.301 23.9376C133.126 22.75 133.939 21.7823 135.125 21.7823C136.311 21.7823 137.432 22.75 137.607 23.9376C137.783 25.1253 136.97 26.093 135.784 26.093Z" fill="#C2C2C2"/>
<path d="M121.152 26.1809C119.922 26.1809 118.757 25.1692 118.582 23.9376C118.384 22.706 119.241 21.6943 120.471 21.6943C121.701 21.6943 122.866 22.706 123.041 23.9376C123.239 25.1692 122.382 26.1809 121.152 26.1809Z" fill="#C2C2C2"/>
<path d="M106.52 26.2689C105.246 26.2689 104.038 25.2352 103.84 23.9596C103.642 22.684 104.521 21.6503 105.795 21.6503C107.07 21.6503 108.278 22.684 108.476 23.9596C108.673 25.2352 107.795 26.2689 106.52 26.2689Z" fill="#C2C2C2"/>
<path d="M91.889 26.2689C90.6148 26.2689 89.4065 25.2352 89.2087 23.9596C89.011 22.684 89.8898 21.6503 91.164 21.6503C92.4382 21.6503 93.6466 22.684 93.8443 23.9596C94.042 25.2352 93.1632 26.2689 91.889 26.2689Z" fill="#C2C2C2"/>
<path d="M77.2352 26.2689C75.961 26.2689 74.7527 25.2352 74.5549 23.9596C74.3572 22.684 75.236 21.6503 76.5102 21.6503C77.7844 21.6503 78.9927 22.684 79.1905 23.9596C79.3882 25.2352 78.5094 26.2689 77.2352 26.2689Z" fill="#C2C2C2"/>
<path d="M62.6037 26.2249C61.3515 26.2249 60.1651 25.2132 59.9674 23.9596C59.7697 22.706 60.6265 21.6943 61.8788 21.6943C63.131 21.6943 64.3174 22.706 64.5151 23.9596C64.7128 25.2132 63.856 26.2249 62.6037 26.2249Z" fill="#C2C2C2"/>
<path d="M47.9502 26.1369C46.7419 26.1369 45.5995 25.1472 45.4238 23.9376C45.2261 22.728 46.0609 21.7383 47.2692 21.7383C48.4775 21.7383 49.6199 22.728 49.7957 23.9376C49.9934 25.1472 49.1586 26.1369 47.9502 26.1369Z" fill="#C2C2C2"/>
<path d="M33.2966 26.005C32.1542 26.005 31.0777 25.0813 30.9019 23.9377C30.7262 22.794 31.5171 21.8703 32.6595 21.8703C33.8019 21.8703 34.8784 22.794 35.0542 23.9377C35.2299 25.0813 34.439 26.005 33.2966 26.005Z" fill="#C2C2C2"/>
<path d="M18.6208 25.8511C17.5662 25.8511 16.5776 24.9933 16.4238 23.9377C16.27 22.882 16.9731 22.0242 18.0276 22.0242C19.0821 22.0242 20.0707 22.882 20.2245 23.9377C20.3783 24.9933 19.6753 25.8511 18.6208 25.8511Z" fill="#C2C2C2"/>
<path d="M3.96734 25.7191C2.97872 25.7191 2.056 24.9273 1.90222 23.9376C1.74843 22.9479 2.42949 22.1562 3.41811 22.1562C4.40673 22.1562 5.32942 22.9479 5.4832 23.9376C5.63699 24.9273 4.95597 25.7191 3.96734 25.7191Z" fill="#C2C2C2"/>
<path d="M174.648 40.7185C173.483 40.7185 172.385 39.7728 172.209 38.6072C172.033 37.4415 172.824 36.4958 173.989 36.4958C175.153 36.4958 176.251 37.4415 176.427 38.6072C176.603 39.7728 175.812 40.7185 174.648 40.7185Z" fill="#C2C2C2"/>
<path d="M160.038 40.9164C158.764 40.9164 157.555 39.8828 157.358 38.6072C157.16 37.3315 158.039 36.2979 159.313 36.2979C160.587 36.2979 161.795 37.3315 161.993 38.6072C162.191 39.8828 161.312 40.9164 160.038 40.9164Z" fill="#C2C2C2"/>
<path d="M145.406 41.0264C144.066 41.0264 142.792 39.9267 142.594 38.5851C142.396 37.2435 143.297 36.1439 144.659 36.1439C146.021 36.1439 147.274 37.2435 147.471 38.5851C147.669 39.9267 146.768 41.0264 145.406 41.0264Z" fill="#C2C2C2"/>
<path d="M130.797 41.1583C129.391 41.1583 128.073 40.0147 127.853 38.6071C127.633 37.1996 128.6 36.0559 130.006 36.0559C131.412 36.0559 132.752 37.1996 132.95 38.6071C133.17 40.0147 132.203 41.1583 130.797 41.1583Z" fill="#C2C2C2"/>
<path d="M116.165 41.2463C114.715 41.2463 113.353 40.0587 113.111 38.6072C112.892 37.1556 113.88 35.968 115.33 35.968C116.78 35.968 118.142 37.1556 118.384 38.6072C118.604 40.0587 117.615 41.2463 116.165 41.2463Z" fill="#C2C2C2"/>
<path d="M101.533 41.2903C100.061 41.2903 98.6773 40.0807 98.4357 38.6071C98.216 37.1336 99.2266 35.924 100.699 35.924C102.17 35.924 103.555 37.1336 103.796 38.6071C104.016 40.0807 103.005 41.2903 101.533 41.2903Z" fill="#C2C2C2"/>
<path d="M86.902 41.2903C85.43 41.2903 84.046 40.0807 83.8043 38.6071C83.5846 37.1336 84.5952 35.924 86.0671 35.924C87.5391 35.924 88.9232 37.1336 89.1648 38.6071C89.3845 40.0807 88.3739 41.2903 86.902 41.2903Z" fill="#C2C2C2"/>
<path d="M72.2481 41.2463C70.7981 41.2463 69.436 40.0587 69.1943 38.6072C68.9746 37.1556 69.9633 35.968 71.4133 35.968C72.8632 35.968 74.2254 37.1556 74.467 38.6072C74.6867 40.0587 73.6981 41.2463 72.2481 41.2463Z" fill="#C2C2C2"/>
<path d="M57.5947 41.1583C56.1886 41.1583 54.8485 40.0147 54.6508 38.6071C54.4311 37.1996 55.3977 36.0559 56.8038 36.0559C58.2098 36.0559 59.55 37.1996 59.7477 38.6071C59.9674 40.0147 59.0007 41.1583 57.5947 41.1583Z" fill="#C2C2C2"/>
<path d="M42.9412 41.0703C41.5791 41.0703 40.2829 39.9707 40.0852 38.5851C39.8655 37.2215 40.8102 36.0999 42.1723 36.0999C43.5344 36.0999 44.8306 37.1995 45.0283 38.5851C45.248 39.9487 44.3033 41.0703 42.9412 41.0703Z" fill="#C2C2C2"/>
<path d="M28.2874 40.9164C27.0132 40.9164 25.8049 39.8828 25.6072 38.6072C25.4094 37.3315 26.2882 36.2979 27.5624 36.2979C28.8367 36.2979 30.045 37.3315 30.2427 38.6072C30.4404 39.8828 29.5617 40.9164 28.2874 40.9164Z" fill="#C2C2C2"/>
<path d="M13.6121 40.7404C12.4258 40.7404 11.3053 39.7727 11.1296 38.5851C10.9538 37.3975 11.7667 36.4297 12.953 36.4297C14.1394 36.4297 15.2598 37.3975 15.4356 38.5851C15.6113 39.7727 14.7985 40.7404 13.6121 40.7404Z" fill="#C2C2C2"/>
<path d="M-1.06349 40.5425C-2.13999 40.5425 -3.15059 39.6628 -3.30438 38.5851C-3.48013 37.5075 -2.73317 36.6277 -1.65667 36.6277C-0.58017 36.6277 0.430432 37.5075 0.584218 38.5851C0.759973 39.6628 0.0130136 40.5425 -1.06349 40.5425Z" fill="#C2C2C2"/>
<path d="M184.27 55.5639C182.996 55.5639 181.788 54.5302 181.59 53.2546C181.392 51.979 182.271 50.9453 183.545 50.9453C184.82 50.9453 186.028 51.979 186.226 53.2546C186.423 54.5302 185.545 55.5639 184.27 55.5639Z" fill="#C2C2C2"/>
<path d="M169.661 55.7619C168.276 55.7619 166.958 54.6402 166.761 53.2326C166.541 51.8471 167.508 50.7034 168.892 50.7034C170.276 50.7034 171.594 51.8251 171.792 53.2326C172.011 54.6182 171.045 55.7619 169.661 55.7619Z" fill="#C2C2C2"/>
<path d="M155.051 55.9818C153.557 55.9818 152.151 54.7722 151.909 53.2546C151.667 51.7591 152.7 50.5275 154.216 50.5275C155.732 50.5275 157.116 51.7371 157.357 53.2546C157.599 54.7502 156.567 55.9818 155.051 55.9818Z" fill="#C2C2C2"/>
<path d="M140.441 56.1358C138.859 56.1358 137.366 54.8382 137.102 53.2546C136.86 51.6711 137.937 50.3735 139.541 50.3735C141.144 50.3735 142.616 51.6711 142.88 53.2546C143.143 54.8382 142.045 56.1358 140.441 56.1358Z" fill="#C2C2C2"/>
<path d="M125.81 56.2677C124.14 56.2677 122.602 54.9261 122.339 53.2547C122.075 51.5832 123.217 50.2416 124.887 50.2416C126.557 50.2416 128.095 51.5832 128.358 53.2547C128.622 54.9261 127.479 56.2677 125.832 56.2677L125.81 56.2677Z" fill="#C2C2C2"/>
<path d="M111.178 56.3117C109.486 56.3117 107.926 54.9481 107.663 53.2546C107.399 51.5612 108.564 50.1976 110.233 50.1976C111.903 50.1976 113.485 51.5612 113.748 53.2546C114.012 54.9481 112.848 56.3117 111.178 56.3117Z" fill="#C2C2C2"/>
<path d="M96.5467 56.3337C94.8331 56.3337 93.2513 54.9481 92.9876 53.2547C92.724 51.5392 93.8884 50.1756 95.602 50.1756C97.3156 50.1756 98.8974 51.5612 99.161 53.2547C99.4246 54.9701 98.2603 56.3337 96.5467 56.3337Z" fill="#C2C2C2"/>
<path d="M81.8928 56.3117C80.2012 56.3117 78.6413 54.9481 78.3777 53.2546C78.1141 51.5612 79.2784 50.1976 80.9481 50.1976C82.6178 50.1976 84.1996 51.5612 84.4632 53.2546C84.7269 54.9481 83.5625 56.3117 81.8928 56.3117Z" fill="#C2C2C2"/>
<path d="M67.2614 56.2677C65.5917 56.2677 64.0538 54.9261 63.7902 53.2547C63.5266 51.5832 64.669 50.2416 66.3387 50.2416C68.0083 50.2416 69.5462 51.5832 69.8098 53.2547C70.0735 54.9261 68.931 56.2677 67.2614 56.2677Z" fill="#C2C2C2"/>
<path d="M52.6078 56.1358C51.026 56.1358 49.532 54.8382 49.2684 53.2546C49.0048 51.6711 50.1032 50.3735 51.707 50.3735C53.3108 50.3735 54.7827 51.6711 55.0464 53.2546C55.31 54.8382 54.2115 56.1358 52.6078 56.1358Z" fill="#C2C2C2"/>
<path d="M37.9321 55.9818C36.4381 55.9818 35.0321 54.7722 34.7904 53.2546C34.5488 51.7591 35.5813 50.5275 37.0972 50.5275C38.6131 50.5275 39.9972 51.7371 40.2388 53.2546C40.4805 54.7502 39.4479 55.9818 37.9321 55.9818Z" fill="#C2C2C2"/>
<path d="M23.2783 55.8059C21.8722 55.8059 20.5541 54.6622 20.3344 53.2546C20.1147 51.8471 21.0813 50.7034 22.4874 50.7034C23.8934 50.7034 25.2335 51.8471 25.4313 53.2546C25.651 54.6622 24.6843 55.8059 23.2783 55.8059Z" fill="#C2C2C2"/>
<path d="M8.60294 55.6079C7.30675 55.6079 6.07645 54.5522 5.87872 53.2546C5.681 51.957 6.55978 50.9014 7.87795 50.9014C9.19611 50.9014 10.4044 51.957 10.6021 53.2546C10.7999 54.5522 9.9211 55.6079 8.60294 55.6079Z" fill="#C2C2C2"/>
<path d="M179.283 70.6293C177.789 70.6293 176.383 69.4197 176.142 67.9022C175.9 66.4066 176.932 65.175 178.448 65.175C179.964 65.175 181.348 66.3846 181.59 67.9022C181.832 69.3977 180.799 70.6293 179.283 70.6293Z" fill="#C2C2C2"/>
<path d="M164.673 70.8712C163.048 70.8712 161.51 69.5516 161.246 67.9021C160.983 66.2527 162.103 64.933 163.751 64.933C165.398 64.933 166.914 66.2527 167.178 67.9021C167.442 69.5297 166.321 70.8712 164.673 70.8712Z" fill="#C2C2C2"/>
<path d="M150.064 71.0472C148.328 71.0472 146.724 69.6397 146.461 67.9242C146.197 66.2087 147.384 64.8011 149.097 64.8011C150.811 64.8011 152.437 66.2087 152.7 67.9242C152.964 69.6617 151.777 71.0472 150.064 71.0472Z" fill="#C2C2C2"/>
<path d="M135.454 71.2012C133.631 71.2012 131.939 69.7276 131.654 67.9022C131.368 66.0768 132.62 64.6032 134.422 64.6032C136.223 64.6032 137.937 66.0768 138.223 67.9022C138.508 69.7276 137.256 71.2012 135.454 71.2012Z" fill="#C2C2C2"/>
<path d="M120.823 71.3331C118.933 71.3331 117.176 69.8156 116.89 67.9241C116.605 66.0327 117.879 64.5152 119.768 64.5152C121.658 64.5152 123.415 66.0327 123.701 67.9241C123.986 69.8156 122.712 71.3331 120.823 71.3331Z" fill="#C2C2C2"/>
<path d="M106.213 71.3991C104.28 71.3991 102.478 69.8376 102.171 67.9022C101.863 65.9667 103.181 64.4052 105.115 64.4052C107.048 64.4052 108.85 65.9667 109.157 67.9022C109.465 69.8376 108.147 71.3991 106.213 71.3991Z" fill="#C2C2C2"/>
<path d="M91.5594 71.3991C89.6261 71.3991 87.8246 69.8376 87.5171 67.9022C87.2095 65.9667 88.5276 64.4052 90.461 64.4052C92.3943 64.4052 94.1957 65.9667 94.5033 67.9022C94.8109 69.8376 93.4927 71.3991 91.5594 71.3991Z" fill="#C2C2C2"/>
<path d="M76.9058 71.3331C75.0164 71.3331 73.2588 69.8156 72.9732 67.9241C72.6876 66.0327 73.9619 64.5152 75.8512 64.5152C77.7406 64.5152 79.4982 66.0327 79.7838 67.9241C80.0694 69.8156 78.7951 71.3331 76.9058 71.3331Z" fill="#C2C2C2"/>
<path d="M62.2523 71.2452C60.4069 71.2452 58.6933 69.7496 58.4077 67.9022C58.1221 66.0548 59.3743 64.5592 61.2198 64.5592C63.0652 64.5592 64.7788 66.0548 65.0644 67.9022C65.35 69.7496 64.0978 71.2452 62.2523 71.2452Z" fill="#C2C2C2"/>
<path d="M47.5987 71.0692C45.8412 71.0692 44.2154 69.6396 43.9298 67.9021C43.6662 66.1427 44.8525 64.7351 46.6101 64.7351C48.3677 64.7351 49.9934 66.1647 50.279 67.9021C50.5646 69.6396 49.3563 71.0692 47.5987 71.0692Z" fill="#C2C2C2"/>
<path d="M32.9234 70.8713C31.2976 70.8713 29.7598 69.5517 29.4961 67.9022C29.2325 66.2527 30.3529 64.9331 32.0007 64.9331C33.6484 64.9331 35.1642 66.2527 35.4279 67.9022C35.6915 69.5297 34.5711 70.8713 32.9234 70.8713Z" fill="#C2C2C2"/>
<path d="M18.2476 70.6733C16.7317 70.6733 15.3037 69.4417 15.062 67.9022C14.8203 66.3847 15.8749 65.131 17.3908 65.131C18.9067 65.131 20.3347 66.3627 20.5763 67.9022C20.818 69.4197 19.7635 70.6733 18.2476 70.6733Z" fill="#C2C2C2"/>
<path d="M3.57219 70.4314C2.18812 70.4314 0.869969 69.3098 0.672245 67.9022C0.452551 66.5166 1.39724 65.373 2.80328 65.373C4.20932 65.373 5.5055 66.4946 5.70322 67.9022C5.92292 69.2878 4.95626 70.4314 3.57219 70.4314Z" fill="#C2C2C2"/>
<path d="M171.817 84.7182C170.428 83.4312 170.19 81.4267 171.286 80.241C172.382 79.0553 174.397 79.1374 175.786 80.4243C177.176 81.7113 177.413 83.7158 176.317 84.9015C175.221 86.0872 173.206 86.0052 171.817 84.7182Z" fill="#C2C2C2"/>
<path d="M159.708 85.9806C157.819 85.9806 156.062 84.4631 155.776 82.5717C155.49 80.6803 156.765 79.1627 158.654 79.1627C160.543 79.1627 162.301 80.6803 162.586 82.5717C162.872 84.4631 161.598 85.9806 159.708 85.9806Z" fill="#C2C2C2"/>
<path d="M145.099 86.1786C143.099 86.1786 141.232 84.5511 140.925 82.5717C140.617 80.5703 141.979 78.9648 143.978 78.9648C145.977 78.9648 147.845 80.5923 148.152 82.5717C148.46 84.5731 147.098 86.1786 145.099 86.1786Z" fill="#C2C2C2"/>
<path d="M130.489 86.3545C128.402 86.3545 126.447 84.661 126.117 82.5717C125.788 80.4823 127.216 78.7888 129.303 78.7888C131.39 78.7888 133.345 80.4823 133.675 82.5717C134.004 84.661 132.576 86.3545 130.489 86.3545Z" fill="#C2C2C2"/>
<path d="M115.858 86.4205C113.727 86.4205 111.727 84.683 111.398 82.5497C111.068 80.4163 112.518 78.6788 114.649 78.6788C116.78 78.6788 118.78 80.4163 119.109 82.5497C119.439 84.683 117.989 86.4205 115.858 86.4205Z" fill="#C2C2C2"/>
<path d="M101.226 86.4645C99.0729 86.4645 97.0517 84.727 96.7222 82.5717C96.3926 80.4163 97.8646 78.6788 100.018 78.6788C102.171 78.6788 104.192 80.4163 104.521 82.5717C104.851 84.727 103.379 86.4645 101.226 86.4645Z" fill="#C2C2C2"/>
<path d="M86.5725 86.4205C84.4414 86.4205 82.4422 84.683 82.1127 82.5497C81.7831 80.4163 83.2331 78.6788 85.3641 78.6788C87.4952 78.6788 89.4944 80.4163 89.8239 82.5497C90.1535 84.683 88.7035 86.4205 86.5725 86.4205Z" fill="#C2C2C2"/>
<path d="M71.919 86.3545C69.8319 86.3545 67.8766 84.661 67.5471 82.5717C67.2175 80.4823 68.6456 78.7888 70.7327 78.7888C72.8198 78.7888 74.775 80.4823 75.1046 82.5717C75.4341 84.661 74.0061 86.3545 71.919 86.3545Z" fill="#C2C2C2"/>
<path d="M57.2652 86.1786C55.266 86.1786 53.3986 84.5511 53.0911 82.5717C52.7835 80.5703 54.1456 78.9648 56.1448 78.9648C58.144 78.9648 60.0114 80.5923 60.319 82.5717C60.6265 84.5511 59.2644 86.1786 57.2652 86.1786Z" fill="#C2C2C2"/>
<path d="M42.5898 85.9806C40.7004 85.9806 38.9429 84.4631 38.6573 82.5717C38.3717 80.6803 39.6459 79.1627 41.5353 79.1627C43.4247 79.1627 45.1822 80.6803 45.4678 82.5717C45.7534 84.4631 44.4792 85.9806 42.5898 85.9806Z" fill="#C2C2C2"/>
<path d="M27.914 85.7387C26.1564 85.7387 24.5307 84.3092 24.2451 82.5717C23.9814 80.8122 25.1678 79.4047 26.9253 79.4047C28.6829 79.4047 30.3086 80.8342 30.5942 82.5717C30.8579 84.3312 29.6715 85.7387 27.914 85.7387Z" fill="#C2C2C2"/>
<path d="M13.2385 85.4968C11.6348 85.4968 10.1189 84.1772 9.85523 82.5717C9.5916 80.9661 10.712 79.6465 12.3158 79.6465C13.9196 79.6465 15.4355 80.9661 15.6991 82.5717C15.9408 84.1772 14.8423 85.4968 13.2385 85.4968Z" fill="#C2C2C2"/>
<path d="M-1.45923 85.2109C-2.90921 85.2109 -4.27131 84.0233 -4.51298 82.5717C-4.75464 81.1201 -3.74406 79.9325 -2.29408 79.9325C-0.844099 79.9325 0.518002 81.1201 0.759665 82.5717C1.00133 84.0233 -0.00925152 85.2109 -1.45923 85.2109Z" fill="#C2C2C2"/>
<path d="M183.919 100.518C182.095 100.518 180.404 99.0446 180.118 97.2192C179.832 95.3937 181.085 93.9202 182.886 93.9202C184.688 93.9202 186.401 95.3937 186.687 97.2192C186.973 99.0446 185.72 100.518 183.919 100.518Z" fill="#C2C2C2"/>
<path d="M169.331 100.804C167.354 100.804 165.508 99.1986 165.201 97.2192C164.893 95.2398 166.255 93.6343 168.211 93.6343C170.166 93.6343 172.033 95.2398 172.341 97.2192C172.648 99.1986 171.286 100.804 169.331 100.804Z" fill="#C2C2C2"/>
<path d="M154.721 101.09C152.59 101.09 150.591 99.3525 150.262 97.2192C149.932 95.0858 151.382 93.3484 153.513 93.3484C155.644 93.3484 157.643 95.0858 157.973 97.2192C158.302 99.3525 156.852 101.09 154.721 101.09Z" fill="#C2C2C2"/>
<path d="M140.112 101.288C137.871 101.288 135.762 99.4625 135.432 97.2191C135.081 94.9758 136.618 93.1504 138.859 93.1504C141.1 93.1504 143.209 94.9758 143.539 97.2191C143.89 99.4625 142.352 101.288 140.112 101.288Z" fill="#C2C2C2"/>
<path d="M125.502 101.442C123.173 101.442 120.976 99.5504 120.625 97.2192C120.273 94.8879 121.855 92.9965 124.184 92.9965C126.513 92.9965 128.709 94.8879 129.061 97.2192C129.413 99.5504 127.831 101.442 125.502 101.442Z" fill="#C2C2C2"/>
<path d="M110.87 101.53C108.498 101.53 106.279 99.5945 105.905 97.2192C105.532 94.844 107.158 92.9086 109.53 92.9086C111.903 92.9086 114.122 94.844 114.495 97.2192C114.869 99.5945 113.243 101.53 110.87 101.53Z" fill="#C2C2C2"/>
<path d="M96.2388 101.574C93.8441 101.574 91.6032 99.6164 91.2297 97.2192C90.8563 94.8219 92.504 92.8645 94.8986 92.8645C97.2933 92.8645 99.5342 94.8219 99.9076 97.2192C100.281 99.6164 98.6334 101.574 96.2388 101.574Z" fill="#C2C2C2"/>
<path d="M81.5853 101.486C79.2345 101.486 77.0157 99.5725 76.6641 97.2192C76.2907 94.8659 77.9164 92.9525 80.2671 92.9525C82.6179 92.9525 84.8368 94.8659 85.1883 97.2192C85.5618 99.5725 83.936 101.486 81.5853 101.486Z" fill="#C2C2C2"/>
<path d="M66.9315 101.332C64.6687 101.332 62.5377 99.4845 62.1861 97.2192C61.8346 94.9539 63.3944 93.1064 65.6573 93.1064C67.9201 93.1064 70.0512 94.9539 70.4027 97.2192C70.7542 99.4845 69.1944 101.332 66.9315 101.332Z" fill="#C2C2C2"/>
<path d="M52.2561 101.09C50.125 101.09 48.1258 99.3525 47.7963 97.2192C47.4667 95.0858 48.9167 93.3484 51.0477 93.3484C53.1788 93.3484 55.178 95.0858 55.5075 97.2192C55.8371 99.3525 54.3871 101.09 52.2561 101.09Z" fill="#C2C2C2"/>
<path d="M37.5807 100.826C35.5814 100.826 33.7141 99.1986 33.4065 97.2192C33.0989 95.2178 34.461 93.6123 36.4602 93.6123C38.4594 93.6123 40.3268 95.2398 40.6344 97.2192C40.942 99.2206 39.5799 100.826 37.5807 100.826Z" fill="#C2C2C2"/>
<path d="M22.8832 100.562C21.0378 100.562 19.3241 99.0666 19.0385 97.2192C18.7529 95.3718 20.0052 93.8762 21.8506 93.8762C23.6961 93.8762 25.4097 95.3718 25.6953 97.2192C25.9809 99.0666 24.7286 100.562 22.8832 100.562Z" fill="#C2C2C2"/>
<path d="M8.20775 100.276C6.51611 100.276 4.95627 98.9127 4.69263 97.2192C4.429 95.5257 5.59341 94.1621 7.26308 94.1621C8.93276 94.1621 10.5145 95.5257 10.7782 97.2192C11.0418 98.9127 9.87742 100.276 8.20775 100.276Z" fill="#C2C2C2"/>
<path d="M176.034 114.406C174.396 112.888 174.116 110.523 175.41 109.123C176.704 107.723 179.081 107.819 180.72 109.337C182.358 110.855 182.638 113.22 181.344 114.62C180.05 116.02 177.673 115.924 176.034 114.406Z" fill="#C2C2C2"/>
<path d="M164.344 115.935C162.103 115.935 159.994 114.11 159.665 111.867C159.313 109.623 160.851 107.798 163.092 107.798C165.333 107.798 167.442 109.623 167.771 111.867C168.123 114.11 166.585 115.935 164.344 115.935Z" fill="#C2C2C2"/>
<path d="M149.756 116.221C147.362 116.221 145.121 114.264 144.747 111.867C144.374 109.469 146.022 107.512 148.416 107.512C150.811 107.512 153.052 109.469 153.425 111.867C153.799 114.264 152.151 116.221 149.756 116.221Z" fill="#C2C2C2"/>
<path d="M135.147 116.419C132.642 116.419 130.291 114.374 129.896 111.867C129.5 109.359 131.236 107.314 133.741 107.314C136.245 107.314 138.596 109.359 138.991 111.867C139.387 114.374 137.651 116.419 135.147 116.419Z" fill="#C2C2C2"/>
<path d="M120.537 116.595C117.945 116.595 115.506 114.484 115.088 111.889C114.693 109.293 116.473 107.182 119.065 107.182C121.657 107.182 124.096 109.293 124.513 111.889C124.909 114.484 123.129 116.595 120.537 116.595Z" fill="#C2C2C2"/>
<path d="M105.905 116.661C103.269 116.661 100.787 114.506 100.369 111.867C99.9517 109.227 101.775 107.072 104.412 107.072C107.048 107.072 109.53 109.227 109.948 111.867C110.365 114.506 108.542 116.661 105.905 116.661Z" fill="#C2C2C2"/>
<path d="M91.252 116.639C88.6377 116.639 86.1771 114.506 85.7597 111.889C85.3422 109.272 87.1437 107.138 89.7801 107.138C92.4164 107.138 94.855 109.272 95.2724 111.889C95.6898 114.506 93.8883 116.639 91.252 116.639Z" fill="#C2C2C2"/>
<path d="M76.5982 116.463C74.0718 116.463 71.6991 114.418 71.3036 111.867C70.9082 109.316 72.6437 107.27 75.1702 107.27C77.6967 107.27 80.0694 109.316 80.4648 111.867C80.8603 114.396 79.1247 116.463 76.5982 116.463Z" fill="#C2C2C2"/>
<path d="M61.9228 116.221C59.5282 116.221 57.2873 114.264 56.9138 111.867C56.5403 109.469 58.188 107.512 60.5827 107.512C62.9774 107.512 65.2182 109.469 65.5917 111.867C65.9652 114.264 64.3175 116.221 61.9228 116.221Z" fill="#C2C2C2"/>
<path d="M47.2253 115.935C44.9845 115.935 42.8754 114.11 42.5459 111.867C42.1944 109.623 43.7322 107.798 45.9731 107.798C48.214 107.798 50.323 109.623 50.6526 111.867C51.0041 114.11 49.4662 115.935 47.2253 115.935Z" fill="#C2C2C2"/>
<path d="M32.5494 115.65C30.4623 115.65 28.507 113.956 28.1775 111.867C27.8479 109.777 29.276 108.084 31.363 108.084C33.4501 108.084 35.4054 109.777 35.7349 111.867C36.0645 113.956 34.6365 115.65 32.5494 115.65Z" fill="#C2C2C2"/>
<path d="M17.8521 115.298C15.9627 115.298 14.2052 113.78 13.9195 111.889C13.6339 109.997 14.9082 108.48 16.7975 108.48C18.6869 108.48 20.4444 109.997 20.73 111.889C21.0156 113.78 19.7414 115.298 17.8521 115.298Z" fill="#C2C2C2"/>
<path d="M3.15456 114.968C1.44095 114.968 -0.140837 113.582 -0.404469 111.889C-0.668102 110.173 0.496281 108.81 2.20989 108.81C3.92351 108.81 5.50529 110.195 5.76893 111.889C6.03256 113.604 4.86818 114.968 3.15456 114.968Z" fill="#C2C2C2"/>
<path d="M173.967 130.671C171.682 130.671 169.529 128.824 169.177 126.536C168.826 124.249 170.386 122.401 172.67 122.401C174.955 122.401 177.108 124.249 177.46 126.536C177.811 128.824 176.252 130.671 173.967 130.671Z" fill="#C2C2C2"/>
<path d="M159.379 131.045C156.896 131.045 154.568 129.021 154.172 126.536C153.777 124.051 155.49 122.028 157.973 122.028C160.455 122.028 162.784 124.051 163.18 126.536C163.575 129.021 161.861 131.045 159.379 131.045Z" fill="#C2C2C2"/>
<path d="M144.791 131.375C142.133 131.375 139.628 129.219 139.211 126.536C138.794 123.875 140.617 121.698 143.297 121.698C145.978 121.698 148.46 123.853 148.878 126.536C149.295 129.197 147.471 131.375 144.791 131.375Z" fill="#C2C2C2"/>
<path d="M130.182 131.617C127.369 131.617 124.755 129.351 124.316 126.536C123.876 123.721 125.81 121.456 128.6 121.456C131.39 121.456 134.026 123.721 134.466 126.536C134.905 129.351 132.972 131.617 130.182 131.617Z" fill="#C2C2C2"/>
<path d="M115.572 131.771C112.672 131.771 109.97 129.417 109.53 126.536C109.091 123.633 111.068 121.302 113.946 121.302C116.824 121.302 119.548 123.655 119.988 126.536C120.427 129.439 118.45 131.771 115.572 131.771Z" fill="#C2C2C2"/>
<path d="M100.941 131.771C98.0406 131.771 95.3383 129.417 94.899 126.536C94.4596 123.633 96.4368 121.302 99.3148 121.302C102.193 121.302 104.917 123.655 105.356 126.536C105.796 129.439 103.819 131.771 100.941 131.771Z" fill="#C2C2C2"/>
<path d="M86.2645 131.617C83.4524 131.617 80.8381 129.351 80.3987 126.536C79.9593 123.721 81.8926 121.456 84.6827 121.456C87.4728 121.456 90.1092 123.721 90.5486 126.536C90.9879 129.351 89.0546 131.617 86.2645 131.617Z" fill="#C2C2C2"/>
<path d="M71.5891 131.375C68.9308 131.375 66.4262 129.219 66.0088 126.536C65.5914 123.875 67.4149 121.698 70.0951 121.698C72.7754 121.698 75.258 123.853 75.6754 126.536C76.0928 129.197 74.2693 131.375 71.5891 131.375Z" fill="#C2C2C2"/>
<path d="M56.9136 131.089C54.4091 131.089 52.0584 129.043 51.6629 126.536C51.2675 124.029 53.0031 121.984 55.5076 121.984C58.0121 121.984 60.3628 124.029 60.7583 126.536C61.1537 129.043 59.4181 131.089 56.9136 131.089Z" fill="#C2C2C2"/>
<path d="M42.2163 130.715C39.9095 130.715 37.7345 128.845 37.383 126.536C37.0315 124.227 38.6133 122.357 40.9201 122.357C43.2269 122.357 45.4019 124.227 45.7534 126.536C46.1049 128.845 44.5231 130.715 42.2163 130.715Z" fill="#C2C2C2"/>
<path d="M27.5187 130.341C25.4097 130.341 23.4324 128.626 23.1029 126.514C22.7733 124.403 24.2233 122.687 26.3324 122.687C28.4414 122.687 30.4187 124.403 30.7482 126.514C31.0778 128.626 29.6278 130.341 27.5187 130.341Z" fill="#C2C2C2"/>
<path d="M12.8209 129.989C10.9095 129.989 9.13002 128.45 8.84442 126.536C8.55882 124.623 9.85498 123.083 11.7663 123.083C13.6777 123.083 15.4572 124.623 15.7428 126.536C16.0284 128.45 14.7322 129.989 12.8209 129.989Z" fill="#C2C2C2"/>
<path d="M-1.87669 129.615C-3.5903 129.615 -5.17209 128.23 -5.43572 126.536C-5.69935 124.843 -4.535 123.457 -2.82139 123.457C-1.10778 123.457 0.474044 124.843 0.737677 126.536C1.00131 128.252 -0.163074 129.615 -1.87669 129.615Z" fill="#C2C2C2"/>
<path d="M183.545 145.34C181.26 145.34 179.107 143.493 178.756 141.206C178.404 138.918 179.964 137.071 182.249 137.071C184.534 137.071 186.687 138.918 187.038 141.206C187.39 143.493 185.83 145.34 183.545 145.34Z" fill="#C2C2C2"/>
<path d="M168.98 145.736C166.475 145.736 164.124 143.691 163.729 141.184C163.333 138.676 165.069 136.631 167.574 136.631C170.078 136.631 172.429 138.676 172.824 141.184C173.22 143.691 171.484 145.736 168.98 145.736Z" fill="#C2C2C2"/>
<path d="M154.392 146.154C151.668 146.154 149.097 143.933 148.68 141.206C148.263 138.457 150.13 136.257 152.854 136.257C155.578 136.257 158.149 138.479 158.566 141.206C158.984 143.955 157.116 146.154 154.392 146.154Z" fill="#C2C2C2"/>
<path d="M139.826 146.506C136.882 146.506 134.136 144.131 133.675 141.184C133.213 138.237 135.235 135.861 138.156 135.861C141.078 135.861 143.847 138.237 144.308 141.184C144.769 144.131 142.748 146.506 139.826 146.506Z" fill="#C2C2C2"/>
<path d="M125.216 146.792C122.119 146.792 119.219 144.285 118.735 141.184C118.252 138.083 120.383 135.575 123.459 135.575C126.535 135.575 129.457 138.083 129.94 141.184C130.423 144.285 128.292 146.792 125.216 146.792Z" fill="#C2C2C2"/>
<path d="M110.607 146.924C107.443 146.924 104.477 144.351 103.994 141.184C103.511 138.017 105.664 135.443 108.827 135.443C111.991 135.443 114.957 138.017 115.44 141.184C115.923 144.351 113.77 146.924 110.607 146.924Z" fill="#C2C2C2"/>
<path d="M91.5516 144.989C89.0937 142.712 88.6778 139.161 90.6226 137.057C92.5674 134.953 96.1366 135.093 98.5945 137.37C101.052 139.647 101.468 143.198 99.5235 145.302C97.5787 147.406 94.0095 147.266 91.5516 144.989Z" fill="#C2C2C2"/>
<path d="M81.2559 146.55C78.29 146.55 75.5219 144.153 75.0605 141.184C74.5992 138.215 76.6204 135.817 79.5862 135.817C82.5521 135.817 85.3202 138.215 85.7816 141.184C86.2429 144.153 84.2218 146.55 81.2559 146.55Z" fill="#C2C2C2"/>
<path d="M66.5581 146.176C63.7899 146.176 61.2195 143.933 60.7801 141.184C60.3627 138.413 62.2301 136.191 64.9982 136.191C67.7664 136.191 70.3368 138.435 70.7762 141.184C71.1936 143.955 69.3262 146.176 66.5581 146.176Z" fill="#C2C2C2"/>
<path d="M51.8609 145.78C49.3344 145.78 46.9617 143.735 46.5663 141.184C46.1708 138.655 47.9064 136.587 50.4329 136.587C52.9594 136.587 55.3321 138.633 55.7275 141.184C56.123 143.713 54.3874 145.78 51.8609 145.78Z" fill="#C2C2C2"/>
<path d="M37.1631 145.406C34.8343 145.406 32.6374 143.515 32.2859 141.184C31.9344 138.852 33.5162 136.961 35.8449 136.961C38.1737 136.961 40.3706 138.852 40.7221 141.184C41.0736 143.515 39.4919 145.406 37.1631 145.406Z" fill="#C2C2C2"/>
<path d="M22.4655 145.011C20.3564 145.011 18.3792 143.295 18.0496 141.184C17.7201 139.072 19.1701 137.357 21.2791 137.357C23.3882 137.357 25.3655 139.072 25.695 141.184C26.0245 143.295 24.5746 145.011 22.4655 145.011Z" fill="#C2C2C2"/>
<path d="M7.76807 144.593C5.8787 144.593 4.12113 143.075 3.83553 141.184C3.54993 139.292 4.82418 137.775 6.71355 137.775C8.60292 137.775 10.3605 139.292 10.6461 141.184C10.9317 143.075 9.65744 144.593 7.76807 144.593Z" fill="#C2C2C2"/>
<path d="M178.558 160.362C176.076 160.362 173.747 158.338 173.351 155.853C172.956 153.368 174.669 151.345 177.152 151.345C179.635 151.345 181.963 153.368 182.359 155.853C182.754 158.338 181.041 160.362 178.558 160.362Z" fill="#C2C2C2"/>
<path d="M163.993 160.802C161.268 160.802 158.698 158.58 158.281 155.853C157.863 153.104 159.731 150.905 162.455 150.905C165.179 150.905 167.749 153.126 168.167 155.853C168.584 158.58 166.717 160.802 163.993 160.802Z" fill="#C2C2C2"/>
<path d="M149.405 161.198C146.439 161.198 143.671 158.8 143.209 155.831C142.748 152.862 144.769 150.465 147.735 150.465C150.701 150.465 153.469 152.862 153.93 155.831C154.392 158.8 152.371 161.198 149.405 161.198Z" fill="#C2C2C2"/>
<path d="M130.267 159.805C127.72 157.445 127.292 153.762 129.311 151.578C131.33 149.393 135.032 149.535 137.579 151.895C140.126 154.254 140.554 157.938 138.535 160.122C136.516 162.306 132.814 162.164 130.267 159.805Z" fill="#C2C2C2"/>
<path d="M120.251 161.989C116.868 161.989 113.705 159.24 113.177 155.853C112.65 152.466 114.979 149.717 118.362 149.717C121.745 149.717 124.909 152.466 125.436 155.853C125.964 159.24 123.635 161.989 120.251 161.989Z" fill="#C2C2C2"/>
<path d="M105.62 162.011C102.214 162.011 99.0288 159.24 98.5016 155.831C97.9743 152.422 100.303 149.651 103.708 149.651C107.114 149.651 110.299 152.422 110.826 155.831C111.354 159.24 109.025 162.011 105.62 162.011Z" fill="#C2C2C2"/>
<path d="M90.9222 161.703C87.6927 161.703 84.6609 159.086 84.1776 155.853C83.6723 152.62 85.8912 150.003 89.1207 150.003C92.3502 150.003 95.382 152.62 95.8653 155.853C96.3706 159.086 94.1517 161.703 90.9222 161.703Z" fill="#C2C2C2"/>
<path d="M76.2248 161.286C73.2149 161.286 70.4029 158.844 69.9415 155.831C69.4801 152.818 71.5233 150.377 74.5331 150.377C77.5429 150.377 80.355 152.818 80.8164 155.831C81.2777 158.844 79.2346 161.286 76.2248 161.286Z" fill="#C2C2C2"/>
<path d="M61.5273 160.846C58.7592 160.846 56.1887 158.602 55.7493 155.853C55.3319 153.082 57.1993 150.861 59.9675 150.861C62.7356 150.861 65.306 153.104 65.7454 155.853C66.1628 158.624 64.2954 160.846 61.5273 160.846Z" fill="#C2C2C2"/>
<path d="M46.8077 160.384C44.3032 160.384 41.9524 158.339 41.557 155.831C41.1615 153.324 42.8971 151.279 45.4016 151.279C47.9061 151.279 50.2569 153.324 50.6523 155.831C51.0478 158.339 49.3122 160.384 46.8077 160.384Z" fill="#C2C2C2"/>
<path d="M32.1102 159.944C29.8474 159.944 27.7163 158.097 27.3648 155.831C27.0133 153.566 28.5731 151.719 30.836 151.719C33.0988 151.719 35.2299 153.566 35.5814 155.831C35.9329 158.097 34.3731 159.944 32.1102 159.944Z" fill="#C2C2C2"/>
<path d="M17.3908 159.548C15.3477 159.548 13.4363 157.899 13.1288 155.853C12.8212 153.808 14.2052 152.158 16.2484 152.158C18.2916 152.158 20.2029 153.808 20.5105 155.853C20.818 157.899 19.434 159.548 17.3908 159.548Z" fill="#C2C2C2"/>
<path d="M2.69321 159.13C0.869751 159.13 -0.821917 157.657 -1.10752 155.831C-1.39312 154.006 -0.140844 152.532 1.66065 152.532C3.46214 152.532 5.17574 154.006 5.46134 155.831C5.74695 157.657 4.4947 159.13 2.69321 159.13Z" fill="#C2C2C2"/>
<path d="M173.549 175.295C170.913 175.295 168.43 173.14 168.013 170.501C167.595 167.862 169.419 165.706 172.055 165.706C174.691 165.706 177.174 167.862 177.591 170.501C178.009 173.14 176.185 175.295 173.549 175.295Z" fill="#C2C2C2"/>
<path d="M158.984 175.735C156.084 175.735 153.381 173.382 152.942 170.501C152.503 167.62 154.48 165.266 157.358 165.266C160.236 165.266 162.96 167.62 163.399 170.501C163.839 173.382 161.861 175.735 158.984 175.735Z" fill="#C2C2C2"/>
<path d="M144.418 176.219C141.254 176.219 138.288 173.646 137.805 170.479C137.322 167.312 139.475 164.739 142.638 164.739C145.802 164.739 148.768 167.312 149.251 170.479C149.734 173.646 147.581 176.219 144.418 176.219Z" fill="#C2C2C2"/>
<path d="M129.852 176.725C126.425 176.725 123.217 173.932 122.668 170.501C122.141 167.07 124.492 164.277 127.919 164.277C131.346 164.277 134.554 167.07 135.103 170.501C135.63 173.932 133.279 176.725 129.852 176.725Z" fill="#C2C2C2"/>
<path d="M115.264 177.033C111.661 177.033 108.278 174.108 107.707 170.479C107.136 166.872 109.618 163.925 113.221 163.925C116.824 163.925 120.207 166.85 120.779 170.479C121.35 174.086 118.867 177.033 115.264 177.033Z" fill="#C2C2C2"/>
<path d="M100.589 176.747C97.1398 176.747 93.9103 173.954 93.3611 170.479C92.8338 167.026 95.1846 164.211 98.6337 164.211C102.083 164.211 105.312 167.004 105.862 170.479C106.389 173.932 104.038 176.747 100.589 176.747Z" fill="#C2C2C2"/>
<path d="M85.8696 176.263C82.684 176.263 79.6962 173.69 79.2128 170.501C78.7075 167.312 80.9045 164.739 84.09 164.739C87.2756 164.739 90.2634 167.312 90.7468 170.501C91.2301 173.69 89.0551 176.263 85.8696 176.263Z" fill="#C2C2C2"/>
<path d="M71.1498 175.779C68.2278 175.779 65.5036 173.404 65.0423 170.501C64.5809 167.598 66.5801 165.222 69.5021 165.222C72.424 165.222 75.1482 167.598 75.6096 170.501C76.0709 173.404 74.0717 175.779 71.1498 175.779Z" fill="#C2C2C2"/>
<path d="M56.4523 175.339C53.7941 175.339 51.2895 173.184 50.8721 170.501C50.4547 167.84 52.2781 165.662 54.9584 165.662C57.6387 165.662 60.1212 167.818 60.5387 170.501C60.9561 173.162 59.1326 175.339 56.4523 175.339Z" fill="#C2C2C2"/>
<path d="M41.7329 174.877C39.3163 174.877 37.0535 172.92 36.658 170.479C36.2845 168.059 37.9322 166.08 40.3708 166.08C42.8094 166.08 45.0503 168.037 45.4458 170.479C45.8192 172.898 44.1715 174.877 41.7329 174.877Z" fill="#C2C2C2"/>
<path d="M27.0355 174.438C24.8605 174.438 22.8173 172.678 22.4878 170.501C22.1582 168.323 23.6302 166.564 25.8052 166.564C27.9801 166.564 30.0233 168.323 30.3528 170.501C30.6824 172.678 29.2104 174.438 27.0355 174.438Z" fill="#C2C2C2"/>
<path d="M12.3159 174.042C10.3606 174.042 8.53714 172.458 8.22957 170.501C7.922 168.543 9.26213 166.96 11.2174 166.96C13.1727 166.96 14.9961 168.543 15.3037 170.501C15.6113 172.458 14.2712 174.042 12.3159 174.042Z" fill="#C2C2C2"/>
<path d="M-2.38198 173.624C-4.11756 173.624 -5.72133 172.216 -5.98496 170.501C-6.24859 168.763 -5.06225 167.378 -3.34864 167.378C-1.63503 167.378 -0.00929245 168.785 0.25434 170.501C0.517973 172.216 -0.668368 173.624 -2.38198 173.624Z" fill="#C2C2C2"/>
<path d="M183.106 189.657C180.623 189.657 178.295 187.633 177.899 185.148C177.504 182.663 179.217 180.64 181.7 180.64C184.182 180.64 186.511 182.663 186.907 185.148C187.302 187.633 185.588 189.657 183.106 189.657Z" fill="#C2C2C2"/>
<path d="M168.54 190.119C165.794 190.119 163.246 187.897 162.828 185.17C162.411 182.421 164.278 180.222 167.003 180.222C169.727 180.222 172.297 182.443 172.715 185.17C173.132 187.897 171.265 190.119 168.54 190.119Z" fill="#C2C2C2"/>
<path d="M153.974 190.559C150.986 190.559 148.196 188.139 147.735 185.148C147.274 182.157 149.317 179.738 152.305 179.738C155.292 179.738 158.083 182.157 158.544 185.148C159.005 188.139 156.962 190.559 153.974 190.559Z" fill="#C2C2C2"/>
<path d="M134.842 189.105C132.296 186.745 131.868 183.062 133.887 180.878C135.906 178.694 139.607 178.836 142.154 181.195C144.701 183.554 145.129 187.238 143.11 189.422C141.091 191.606 137.389 191.464 134.842 189.105Z" fill="#C2C2C2"/>
<path d="M124.799 191.328C121.394 191.328 118.209 188.557 117.681 185.148C117.154 181.739 119.483 178.968 122.888 178.968C126.293 178.968 129.479 181.739 130.006 185.148C130.533 188.557 128.205 191.328 124.799 191.328Z" fill="#C2C2C2"/>
<path d="M110.168 191.372C106.74 191.372 103.533 188.579 102.984 185.148C102.456 181.717 104.807 178.924 108.234 178.924C111.662 178.924 114.869 181.717 115.418 185.148C115.946 188.579 113.595 191.372 110.168 191.372Z" fill="#C2C2C2"/>
<path d="M95.492 191.042C92.2405 191.042 89.1868 188.403 88.6815 185.148C88.1762 181.893 90.3951 179.254 93.6466 179.254C96.898 179.254 99.9518 181.893 100.457 185.148C100.962 188.403 98.7435 191.042 95.492 191.042Z" fill="#C2C2C2"/>
<path d="M80.7726 190.603C77.7628 190.603 74.9507 188.161 74.4894 185.148C74.028 182.135 76.0711 179.694 79.081 179.694C82.0908 179.694 84.9028 182.135 85.3642 185.148C85.8256 188.161 83.7824 190.603 80.7726 190.603Z" fill="#C2C2C2"/>
<path d="M66.0751 190.163C63.307 190.163 60.7366 187.919 60.2972 185.17C59.8798 182.399 61.7472 180.178 64.5153 180.178C67.2835 180.178 69.8539 182.421 70.2933 185.17C70.7107 187.941 68.8433 190.163 66.0751 190.163Z" fill="#C2C2C2"/>
<path d="M51.3555 189.701C48.851 189.701 46.5003 187.656 46.1048 185.148C45.7094 182.641 47.445 180.596 49.9495 180.596C52.454 180.596 54.8047 182.641 55.2002 185.148C55.5956 187.656 53.86 189.701 51.3555 189.701Z" fill="#C2C2C2"/>
<path d="M36.6581 189.305C34.3733 189.305 32.2203 187.458 31.8688 185.17C31.5173 182.883 33.0771 181.036 35.3619 181.036C37.6467 181.036 39.7997 182.883 40.1512 185.17C40.5027 187.458 38.9429 189.305 36.6581 189.305Z" fill="#C2C2C2"/>
<path d="M21.9382 188.843C19.895 188.843 17.9837 187.194 17.6761 185.148C17.3685 183.103 18.7526 181.453 20.7958 181.453C22.8389 181.453 24.7503 183.103 25.0578 185.148C25.3654 187.194 23.9813 188.843 21.9382 188.843Z" fill="#C2C2C2"/>
<path d="M7.24103 188.447C5.41757 188.447 3.72594 186.974 3.44033 185.148C3.15473 183.323 4.40697 181.849 6.20847 181.849C8.00996 181.849 9.72359 183.323 10.0092 185.148C10.2948 186.974 9.04252 188.447 7.24103 188.447Z" fill="#C2C2C2"/>
<path d="M178.075 204.392C175.548 204.392 173.176 202.347 172.78 199.796C172.385 197.267 174.12 195.199 176.647 195.199C179.173 195.199 181.546 197.245 181.941 199.796C182.337 202.325 180.601 204.392 178.075 204.392Z" fill="#C2C2C2"/>
<path d="M163.487 204.81C160.719 204.81 158.149 202.567 157.709 199.818C157.292 197.047 159.159 194.825 161.927 194.825C164.696 194.825 167.266 197.069 167.705 199.818C168.123 202.589 166.255 204.81 163.487 204.81Z" fill="#C2C2C2"/>
<path d="M148.921 205.184C145.956 205.184 143.187 202.787 142.726 199.818C142.265 196.849 144.286 194.451 147.252 194.451C150.218 194.451 152.986 196.849 153.447 199.818C153.908 202.787 151.887 205.184 148.921 205.184Z" fill="#C2C2C2"/>
<path d="M134.312 205.448C131.192 205.448 128.27 202.919 127.787 199.796C127.304 196.673 129.435 194.144 132.554 194.144C135.674 194.144 138.596 196.673 139.079 199.796C139.562 202.919 137.431 205.448 134.312 205.448Z" fill="#C2C2C2"/>
<path d="M119.702 205.58C116.517 205.58 113.529 203.007 113.045 199.818C112.562 196.629 114.737 194.056 117.923 194.056C121.108 194.056 124.096 196.629 124.579 199.818C125.063 203.007 122.888 205.58 119.702 205.58Z" fill="#C2C2C2"/>
<path d="M105.049 205.448C101.929 205.448 99.007 202.919 98.5236 199.796C98.0403 196.673 100.171 194.144 103.291 194.144C106.411 194.144 109.333 196.673 109.816 199.796C110.299 202.919 108.168 205.448 105.049 205.448Z" fill="#C2C2C2"/>
<path d="M90.3512 205.206C87.3633 205.206 84.5732 202.787 84.1119 199.796C83.6505 196.805 85.6937 194.385 88.6815 194.385C91.6694 194.385 94.4595 196.805 94.9208 199.796C95.3822 202.787 93.339 205.206 90.3512 205.206Z" fill="#C2C2C2"/>
<path d="M71.7149 203.249C69.5064 201.203 69.1322 198.012 70.8793 196.122C72.6263 194.232 75.833 194.358 78.0416 196.404C80.2501 198.45 80.6242 201.641 78.8772 203.531C77.1301 205.421 73.9235 205.294 71.7149 203.249Z" fill="#C2C2C2"/>
<path d="M60.9562 204.436C58.4078 204.436 56.0131 202.369 55.6177 199.796C55.2222 197.245 56.9798 195.155 59.5282 195.155C62.0767 195.155 64.4713 197.223 64.8668 199.796C65.2622 202.347 63.5047 204.436 60.9562 204.436Z" fill="#C2C2C2"/>
<path d="M42.9288 202.692C41.0764 200.976 40.7639 198.298 42.2308 196.712C43.6976 195.125 46.3884 195.229 48.2408 196.945C50.0931 198.661 50.4056 201.339 48.9387 202.926C47.4719 204.513 44.7811 204.408 42.9288 202.692Z" fill="#C2C2C2"/>
<path d="M31.5612 203.623C29.4521 203.623 27.4749 201.907 27.1453 199.796C26.8158 197.684 28.2658 195.969 30.3748 195.969C32.4839 195.969 34.4612 197.684 34.7907 199.796C35.1202 201.907 33.6703 203.623 31.5612 203.623Z" fill="#C2C2C2"/>
<path d="M16.8633 203.227C14.9739 203.227 13.2163 201.709 12.9307 199.818C12.6451 197.926 13.9194 196.409 15.8088 196.409C17.6981 196.409 19.4557 197.926 19.7413 199.818C20.0269 201.709 18.7527 203.227 16.8633 203.227Z" fill="#C2C2C2"/>
<path d="M2.16576 202.853C0.474114 202.853 -1.08573 201.489 -1.34936 199.796C-1.61299 198.102 -0.448585 196.739 1.22109 196.739C2.89076 196.739 4.47254 198.102 4.73617 199.796C4.99981 201.489 3.83543 202.853 2.16576 202.853Z" fill="#C2C2C2"/>
<path d="M173.022 219.018C170.518 219.018 168.167 216.973 167.771 214.465C167.376 211.958 169.111 209.913 171.616 209.913C174.121 209.913 176.471 211.958 176.867 214.465C177.262 216.973 175.527 219.018 173.022 219.018Z" fill="#C2C2C2"/>
<path d="M158.434 219.304C155.776 219.304 153.271 217.149 152.854 214.465C152.437 211.804 154.26 209.627 156.94 209.627C159.621 209.627 162.103 211.782 162.521 214.465C162.938 217.149 161.115 219.304 158.434 219.304Z" fill="#C2C2C2"/>
<path d="M143.825 219.59C140.991 219.59 138.354 217.302 137.915 214.465C137.475 211.628 139.409 209.341 142.243 209.341C145.077 209.341 147.713 211.628 148.153 214.465C148.592 217.302 146.659 219.59 143.825 219.59Z" fill="#C2C2C2"/>
<path d="M129.215 219.744C126.293 219.744 123.569 217.368 123.108 214.465C122.646 211.562 124.646 209.187 127.568 209.187C130.489 209.187 133.214 211.562 133.675 214.465C134.136 217.368 132.137 219.744 129.215 219.744Z" fill="#C2C2C2"/>
<path d="M114.583 219.744C111.661 219.744 108.937 217.368 108.476 214.465C108.015 211.562 110.014 209.187 112.936 209.187C115.858 209.187 118.582 211.562 119.043 214.465C119.505 217.368 117.505 219.744 114.583 219.744Z" fill="#C2C2C2"/>
<path d="M99.9076 219.59C97.0736 219.59 94.4372 217.302 93.9979 214.465C93.5585 211.628 95.4918 209.341 98.3258 209.341C101.16 209.341 103.796 211.628 104.236 214.465C104.675 217.302 102.742 219.59 99.9076 219.59Z" fill="#C2C2C2"/>
<path d="M85.2322 219.348C82.5519 219.348 80.0254 217.171 79.608 214.465C79.1906 211.782 81.036 209.583 83.7163 209.583C86.3966 209.583 88.9231 211.76 89.3405 214.465C89.7579 217.149 87.9125 219.348 85.2322 219.348Z" fill="#C2C2C2"/>
<path d="M70.5347 219.018C68.0302 219.018 65.6795 216.973 65.284 214.465C64.8886 211.958 66.6242 209.913 69.1287 209.913C71.6332 209.913 73.9839 211.958 74.3794 214.465C74.7748 216.973 73.0392 219.018 70.5347 219.018Z" fill="#C2C2C2"/>
<path d="M55.8589 218.688C53.5301 218.688 51.3332 216.797 50.9817 214.465C50.6302 212.134 52.212 210.243 54.5407 210.243C56.8695 210.243 59.0664 212.134 59.4179 214.465C59.7694 216.797 58.1877 218.688 55.8589 218.688Z" fill="#C2C2C2"/>
<path d="M41.1618 218.336C39.0308 218.336 37.0316 216.599 36.702 214.465C36.3725 212.332 37.8225 210.594 39.9535 210.594C42.0845 210.594 44.0837 212.332 44.4133 214.465C44.7428 216.599 43.2928 218.336 41.1618 218.336Z" fill="#C2C2C2"/>
<path d="M26.4639 217.918C24.5526 217.918 22.7731 216.379 22.4875 214.465C22.2019 212.552 23.4981 211.012 25.4094 211.012C27.3208 211.012 29.1003 212.552 29.3859 214.465C29.6715 216.379 28.3753 217.918 26.4639 217.918Z" fill="#C2C2C2"/>
<path d="M11.7664 217.544C10.0528 217.544 8.47098 216.159 8.20735 214.465C7.94371 212.772 9.1081 211.386 10.8217 211.386C12.5353 211.386 14.1171 212.772 14.3807 214.465C14.6444 216.181 13.48 217.544 11.7664 217.544Z" fill="#C2C2C2"/>
<path d="M182.535 233.182C180.294 233.182 178.185 231.356 177.855 229.113C177.504 226.87 179.041 225.044 181.282 225.044C183.523 225.044 185.632 226.87 185.962 229.113C186.291 231.356 184.776 233.182 182.535 233.182Z" fill="#C2C2C2"/>
<path d="M167.947 233.467C165.553 233.467 163.312 231.51 162.938 229.113C162.565 226.716 164.212 224.758 166.607 224.758C169.002 224.758 171.243 226.716 171.616 229.113C171.99 231.51 170.342 233.467 167.947 233.467Z" fill="#C2C2C2"/>
<path d="M153.337 233.709C150.811 233.709 148.438 231.664 148.043 229.113C147.647 226.584 149.383 224.516 151.909 224.516C154.436 224.516 156.809 226.562 157.204 229.113C157.6 231.642 155.864 233.709 153.337 233.709Z" fill="#C2C2C2"/>
<path d="M138.728 233.885C136.113 233.885 133.653 231.752 133.235 229.135C132.818 226.518 134.619 224.384 137.256 224.384C139.892 224.384 142.331 226.518 142.748 229.135C143.165 231.752 141.364 233.885 138.728 233.885Z" fill="#C2C2C2"/>
<path d="M124.096 233.951C121.438 233.951 118.933 231.796 118.516 229.113C118.098 226.43 119.922 224.274 122.602 224.274C125.282 224.274 127.765 226.43 128.182 229.113C128.6 231.774 126.776 233.951 124.096 233.951Z" fill="#C2C2C2"/>
<path d="M109.464 233.907C106.828 233.907 104.346 231.752 103.928 229.113C103.511 226.474 105.334 224.318 107.971 224.318C110.607 224.318 113.089 226.474 113.507 229.113C113.924 231.752 112.101 233.907 109.464 233.907Z" fill="#C2C2C2"/>
<path d="M94.7888 233.753C92.2403 233.753 89.8456 231.686 89.4502 229.113C89.0547 226.562 90.8123 224.472 93.3607 224.472C95.9092 224.472 98.3039 226.54 98.6993 229.113C99.0948 231.664 97.3372 233.753 94.7888 233.753Z" fill="#C2C2C2"/>
<path d="M80.1133 233.512C77.6967 233.512 75.4338 231.554 75.0384 229.113C74.6649 226.694 76.3126 224.714 78.7512 224.714C81.1898 224.714 83.4307 226.672 83.8261 229.113C84.1996 231.532 82.5519 233.512 80.1133 233.512Z" fill="#C2C2C2"/>
<path d="M65.4379 233.226C63.175 233.226 61.044 231.378 60.6925 229.113C60.3409 226.848 61.9008 225 64.1636 225C66.4265 225 68.5575 226.848 68.909 229.113C69.2605 231.378 67.7007 233.226 65.4379 233.226Z" fill="#C2C2C2"/>
<path d="M50.7403 232.896C48.6532 232.896 46.6979 231.202 46.3684 229.113C46.0388 227.023 47.4669 225.33 49.554 225.33C51.6411 225.33 53.5963 227.023 53.9259 229.113C54.2554 231.202 52.8274 232.896 50.7403 232.896Z" fill="#C2C2C2"/>
<path d="M36.0426 232.566C34.1312 232.566 32.3517 231.026 32.0661 229.113C31.7805 227.199 33.0767 225.66 34.988 225.66C36.8994 225.66 38.6789 227.199 38.9645 229.113C39.2501 231.026 37.9539 232.566 36.0426 232.566Z" fill="#C2C2C2"/>
<path d="M21.345 232.214C19.6314 232.214 18.0496 230.828 17.786 229.135C17.5223 227.441 18.6867 226.056 20.4003 226.056C22.1139 226.056 23.6957 227.441 23.9594 229.135C24.223 230.85 23.0586 232.214 21.345 232.214Z" fill="#C2C2C2"/>
<path d="M6.66946 231.884C5.15357 231.884 3.72557 230.652 3.48391 229.113C3.24224 227.595 4.29677 226.342 5.81266 226.342C7.32855 226.342 8.75655 227.573 8.99821 229.113C9.23988 230.63 8.18535 231.884 6.66946 231.884Z" fill="#C2C2C2"/>
</g>
</g>
<path d="M62 118.574V107.223C62 103.822 60.9627 101.059 58.8882 98.9333L54.5316 94.4696L58.8882 90.0058C60.9627 87.8802 62 85.1169 62 81.7159V73.4261C62 59.142 55.0295 52 41.0886 52H23.9114C9.97047 52 3 59.142 3 73.4261V81.7159C3 85.1169 4.03727 87.8802 6.11181 90.0058L10.4684 94.4696L6.11181 98.9333C4.03727 101.059 3 103.822 3 107.223V118.574C3 132.858 9.97047 140 23.9114 140H41.0886C55.0295 140 62 132.858 62 118.574ZM44.0759 119.594C44.0759 122.145 42.8312 123.42 40.3418 123.42H24.6582C22.1688 123.42 20.924 122.145 20.924 119.594V106.841C20.924 104.29 22.1688 103.014 24.6582 103.014H40.3418C42.8312 103.014 44.0759 104.29 44.0759 106.841V119.594ZM44.0759 82.6087C44.0759 85.1594 42.8312 86.4348 40.3418 86.4348H24.6582C22.1688 86.4348 20.924 85.1594 20.924 82.6087V72.4058C20.924 69.8551 22.1688 68.5797 24.6582 68.5797H40.3418C42.8312 68.5797 44.0759 69.8551 44.0759 72.4058V82.6087Z" fill="#1D2F8C"/>
<defs>
<linearGradient id="paint0_linear_168_10004" x1="219.717" y1="36.3932" x2="54.0466" y2="191.2" gradientUnits="userSpaceOnUse">
<stop stop-color="#254BFF"/>
<stop offset="1" stop-color="#D9D9D9" stop-opacity="0"/>
</linearGradient>
<linearGradient id="paint1_linear_168_10004" x1="219.717" y1="36.3932" x2="54.0466" y2="191.2" gradientUnits="userSpaceOnUse">
<stop stop-color="#254BFF"/>
<stop offset="1" stop-color="#D9D9D9" stop-opacity="0"/>
</linearGradient>
</defs>
</svg>
