<svg width="103" height="152" viewBox="0 0 103 152" fill="none" xmlns="http://www.w3.org/2000/svg">
<circle cx="76" cy="76" r="76" transform="matrix(1 0 0 -1 -49 152)" fill="url(#paint0_linear_539_1291)"/>
<mask id="mask0_539_1291" style="mask-type:alpha" maskUnits="userSpaceOnUse" x="-49" y="0" width="152" height="152">
<circle cx="76" cy="76" r="76" transform="matrix(1 0 0 -1 -49 152)" fill="url(#paint1_linear_539_1291)"/>
</mask>
<g mask="url(#mask0_539_1291)">
<g style="mix-blend-mode:overlay">
<path d="M5.13844 144.847C5.82308 144.847 6.4658 145.406 6.56361 146.092C6.67539 146.777 6.20033 147.337 5.5157 147.337C4.83106 147.337 4.18833 146.777 4.09053 146.092C3.97875 145.406 4.45381 144.847 5.13844 144.847Z" fill="#C2C2C2"/>
<path d="M14.4431 144.847C15.1278 144.847 15.7705 145.406 15.8683 146.092C15.9801 146.777 15.505 147.337 14.8204 147.337C14.1357 147.337 13.493 146.777 13.3952 146.092C13.2834 145.406 13.7585 144.847 14.4431 144.847Z" fill="#C2C2C2"/>
<path d="M23.7634 144.847C24.4481 144.847 25.0908 145.406 25.1886 146.092C25.3004 146.777 24.8253 147.337 24.1407 147.337C23.4561 147.337 22.8133 146.777 22.7155 146.092C22.6038 145.406 23.0788 144.847 23.7634 144.847Z" fill="#C2C2C2"/>
<path d="M33.0819 144.903C33.7386 144.903 34.3534 145.434 34.4512 146.092C34.549 146.749 34.1019 147.281 33.4452 147.281C32.7885 147.281 32.1737 146.749 32.0759 146.092C31.9781 145.434 32.4252 144.903 33.0819 144.903Z" fill="#C2C2C2"/>
<path d="M42.4017 144.959C43.0304 144.959 43.6173 145.462 43.7151 146.092C43.8129 146.721 43.3798 147.225 42.751 147.225C42.1223 147.225 41.5354 146.721 41.4376 146.092C41.3398 145.462 41.773 144.959 42.4017 144.959Z" fill="#C2C2C2"/>
<path d="M51.7215 145.015C52.3223 145.015 52.8812 145.504 52.979 146.106C53.0768 146.707 52.6576 147.197 52.0568 147.197C51.456 147.197 50.8971 146.707 50.7993 146.106C50.7015 145.504 51.1207 145.015 51.7215 145.015Z" fill="#C2C2C2"/>
<path d="M61.0392 145.113C61.5841 145.113 62.0871 145.546 62.1709 146.092C62.2547 146.637 61.8775 147.071 61.3465 147.071C60.8156 147.071 60.2986 146.637 60.2148 146.092C60.131 145.546 60.5082 145.113 61.0392 145.113Z" fill="#C2C2C2"/>
<path d="M70.359 145.196C70.862 145.196 71.3231 145.602 71.4069 146.106C71.4908 146.609 71.1415 147.015 70.6385 147.015C70.1355 147.015 69.6744 146.609 69.5906 146.106C69.5067 145.602 69.856 145.196 70.359 145.196Z" fill="#C2C2C2"/>
<path d="M79.6942 145.294C80.1414 145.294 80.5466 145.658 80.6164 146.092C80.6863 146.539 80.3789 146.889 79.9457 146.889C79.5126 146.889 79.0934 146.525 79.0236 146.092C78.9537 145.644 79.2611 145.294 79.6942 145.294Z" fill="#C2C2C2"/>
<path d="M89.0122 145.392C89.4035 145.392 89.7528 145.7 89.8226 146.092C89.8785 146.483 89.613 146.791 89.2358 146.791C88.8585 146.791 88.4953 146.483 88.4254 146.092C88.3695 145.7 88.635 145.392 89.0122 145.392Z" fill="#C2C2C2"/>
<path d="M98.3456 145.532C98.653 145.532 98.9464 145.784 99.0023 146.106C99.0442 146.413 98.8346 146.679 98.5273 146.679C98.2199 146.679 97.9265 146.427 97.8706 146.106C97.8286 145.798 98.0382 145.532 98.3456 145.532Z" fill="#C2C2C2"/>
<path d="M-0.996616 135.293C-0.18623 135.293 0.582241 135.951 0.70799 136.762C0.83374 137.573 0.274854 138.231 -0.535532 138.231C-1.34592 138.231 -2.11439 137.573 -2.24014 136.762C-2.36589 135.951 -1.807 135.293 -0.996616 135.293Z" fill="#C2C2C2"/>
<path d="M8.31002 135.293C9.12041 135.293 9.88888 135.951 10.0146 136.762C10.1404 137.573 9.58149 138.231 8.77111 138.231C7.96072 138.231 7.19225 137.573 7.0665 136.762C6.94075 135.951 7.49964 135.293 8.31002 135.293Z" fill="#C2C2C2"/>
<path d="M17.6284 135.293C18.4388 135.293 19.2072 135.951 19.333 136.762C19.4587 137.573 18.8999 138.231 18.0895 138.231C17.2791 138.231 16.5106 137.573 16.3849 136.762C16.2591 135.951 16.818 135.293 17.6284 135.293Z" fill="#C2C2C2"/>
<path d="M26.9348 135.321C27.7312 135.321 28.4857 135.965 28.6115 136.762C28.7372 137.559 28.1923 138.203 27.3959 138.203C26.5995 138.203 25.845 137.559 25.7192 136.762C25.5935 135.965 26.1384 135.321 26.9348 135.321Z" fill="#C2C2C2"/>
<path d="M36.2546 135.377C37.0231 135.377 37.7496 136.007 37.8614 136.776C37.9872 137.545 37.4562 138.175 36.6878 138.175C35.9193 138.175 35.1927 137.545 35.0809 136.776C34.9552 136.007 35.4862 135.377 36.2546 135.377Z" fill="#C2C2C2"/>
<path d="M45.5728 135.461C46.2993 135.461 46.984 136.049 47.0957 136.776C47.2075 137.503 46.7045 138.091 45.978 138.091C45.2514 138.091 44.5668 137.503 44.455 136.776C44.3432 136.049 44.8462 135.461 45.5728 135.461Z" fill="#C2C2C2"/>
<path d="M54.9064 135.559C55.5771 135.559 56.2058 136.105 56.3036 136.776C56.4014 137.447 55.9543 137.993 55.2837 137.993C54.613 137.993 53.9843 137.447 53.8865 136.776C53.7886 136.105 54.2358 135.559 54.9064 135.559Z" fill="#C2C2C2"/>
<path d="M64.2259 135.643C64.8546 135.643 65.4415 136.147 65.5393 136.776C65.6371 137.405 65.2039 137.909 64.5752 137.909C63.9465 137.909 63.3596 137.405 63.2618 136.776C63.164 136.147 63.5971 135.643 64.2259 135.643Z" fill="#C2C2C2"/>
<path d="M73.5593 135.769C74.1182 135.769 74.6351 136.217 74.719 136.776C74.8028 137.336 74.4255 137.783 73.8667 137.783C73.3078 137.783 72.7908 137.336 72.707 136.776C72.6231 136.217 73.0004 135.769 73.5593 135.769Z" fill="#C2C2C2"/>
<path d="M82.8922 135.867C83.3952 135.867 83.8563 136.273 83.9401 136.776C84.024 137.28 83.6747 137.685 83.1717 137.685C82.6687 137.685 82.2076 137.28 82.1238 136.776C82.0399 136.273 82.3892 135.867 82.8922 135.867Z" fill="#C2C2C2"/>
<path d="M92.2119 135.993C92.645 135.993 93.0363 136.342 93.1061 136.762C93.176 137.196 92.8826 137.531 92.4494 137.531C92.0163 137.531 91.6251 137.182 91.5552 136.762C91.4853 136.328 91.7787 135.993 92.2119 135.993Z" fill="#C2C2C2"/>
<path d="M101.545 136.133C101.908 136.133 102.23 136.426 102.285 136.776C102.341 137.14 102.09 137.419 101.74 137.419C101.391 137.419 101.056 137.126 101 136.776C100.944 136.412 101.196 136.133 101.545 136.133Z" fill="#C2C2C2"/>
<path d="M2.175 125.74C3.11114 125.74 3.99137 126.509 4.14506 127.446C4.28479 128.384 3.64207 129.153 2.70593 129.153C1.7698 129.153 0.889567 128.384 0.735873 127.446C0.596151 126.509 1.23887 125.74 2.175 125.74Z" fill="#C2C2C2"/>
<path d="M11.4797 125.74C12.4158 125.74 13.2961 126.509 13.4498 127.446C13.5895 128.384 12.9468 129.153 12.0106 129.153C11.0745 129.153 10.1943 128.384 10.0406 127.446C9.90084 126.509 10.5436 125.74 11.4797 125.74Z" fill="#C2C2C2"/>
<path d="M20.7998 125.768C21.7219 125.768 22.5882 126.523 22.7419 127.446C22.8816 128.37 22.2529 129.125 21.3307 129.125C20.4085 129.125 19.5423 128.37 19.3886 127.446C19.2488 126.523 19.8776 125.768 20.7998 125.768Z" fill="#C2C2C2"/>
<path d="M30.1196 125.824C31.0138 125.824 31.8661 126.551 31.9918 127.446C32.1315 128.342 31.5168 129.069 30.6226 129.069C29.7283 129.069 28.876 128.342 28.7503 127.446C28.6105 126.551 29.2253 125.824 30.1196 125.824Z" fill="#C2C2C2"/>
<path d="M39.4393 125.88C40.3056 125.88 41.13 126.579 41.2557 127.46C41.3954 128.328 40.7946 129.041 39.9284 129.041C39.0621 129.041 38.2377 128.342 38.112 127.46C37.9723 126.593 38.5731 125.88 39.4393 125.88Z" fill="#C2C2C2"/>
<path d="M48.7573 125.978C49.5677 125.978 50.3361 126.635 50.4619 127.446C50.5876 128.258 50.0288 128.915 49.2184 128.915C48.408 128.915 47.6395 128.258 47.5138 127.446C47.388 126.635 47.9469 125.978 48.7573 125.978Z" fill="#C2C2C2"/>
<path d="M58.0929 126.09C58.8473 126.09 59.5599 126.705 59.6717 127.461C59.7835 128.216 59.2665 128.831 58.512 128.831C57.7575 128.831 57.0449 128.216 56.9332 127.461C56.8214 126.705 57.3384 126.09 58.0929 126.09Z" fill="#C2C2C2"/>
<path d="M67.4256 126.216C68.1102 126.216 68.7529 126.775 68.8507 127.46C68.9625 128.146 68.4874 128.705 67.8028 128.705C67.1182 128.705 66.4754 128.146 66.3776 127.46C66.2659 126.775 66.7409 126.216 67.4256 126.216Z" fill="#C2C2C2"/>
<path d="M76.7589 126.342C77.3737 126.342 77.9465 126.845 78.0443 127.447C78.1421 128.062 77.723 128.552 77.1082 128.552C76.4934 128.552 75.9206 128.048 75.8228 127.447C75.725 126.831 76.1441 126.342 76.7589 126.342Z" fill="#C2C2C2"/>
<path d="M86.0782 126.467C86.6231 126.467 87.1261 126.901 87.21 127.447C87.2938 127.992 86.9165 128.426 86.3856 128.426C85.8547 128.426 85.3377 127.992 85.2539 127.447C85.17 126.901 85.5473 126.467 86.0782 126.467Z" fill="#C2C2C2"/>
<path d="M95.4116 126.621C95.8727 126.621 96.2919 126.985 96.3617 127.446C96.4316 127.908 96.1242 128.272 95.6631 128.272C95.202 128.272 94.7829 127.908 94.713 127.446C94.6432 126.985 94.9505 126.621 95.4116 126.621Z" fill="#C2C2C2"/>
<path d="M5.34845 116.173C6.43828 116.173 7.4443 117.054 7.61196 118.131C7.77963 119.222 7.0391 120.089 5.94927 120.089C4.85944 120.089 3.85345 119.208 3.68578 118.131C3.51812 117.04 4.25863 116.173 5.34845 116.173Z" fill="#C2C2C2"/>
<path d="M14.6663 116.187C15.7421 116.187 16.7341 117.054 16.9018 118.131C17.0695 119.208 16.329 120.075 15.2671 120.075C14.2052 120.075 13.1992 119.208 13.0315 118.131C12.8638 117.054 13.6044 116.187 14.6663 116.187Z" fill="#C2C2C2"/>
<path d="M23.971 116.215C25.0329 116.215 26.0109 117.068 26.1786 118.131C26.3463 119.194 25.6197 120.047 24.5578 120.047C23.496 120.047 22.5179 119.194 22.3502 118.131C22.1826 117.068 22.9091 116.215 23.971 116.215Z" fill="#C2C2C2"/>
<path d="M33.2906 116.299C34.2966 116.299 35.2467 117.124 35.4144 118.131C35.5821 119.138 34.8834 119.963 33.8635 119.963C32.8435 119.963 31.9074 119.138 31.7397 118.131C31.572 117.124 32.2706 116.299 33.2906 116.299Z" fill="#C2C2C2"/>
<path d="M42.6242 116.397C43.5743 116.397 44.4685 117.166 44.6222 118.131C44.7759 119.082 44.1192 119.865 43.1551 119.865C42.191 119.865 41.3108 119.096 41.1571 118.131C41.0034 117.18 41.6601 116.397 42.6242 116.397Z" fill="#C2C2C2"/>
<path d="M51.9438 116.508C52.838 116.508 53.6763 117.236 53.816 118.131C53.9557 119.026 53.341 119.753 52.4468 119.753C51.5525 119.753 50.7002 119.026 50.5745 118.131C50.4348 117.236 51.0495 116.508 51.9438 116.508Z" fill="#C2C2C2"/>
<path d="M61.2774 116.634C62.1017 116.634 62.8842 117.306 63.0099 118.131C63.1357 118.956 62.5768 119.628 61.7385 119.628C60.9001 119.628 60.1317 118.956 60.0059 118.131C59.8802 117.306 60.4391 116.634 61.2774 116.634Z" fill="#C2C2C2"/>
<path d="M70.6121 116.788C71.3526 116.788 72.0513 117.39 72.163 118.131C72.2748 118.872 71.7718 119.474 71.0313 119.474C70.2908 119.474 69.5922 118.872 69.4804 118.131C69.3686 117.39 69.8716 116.788 70.6121 116.788Z" fill="#C2C2C2"/>
<path d="M79.9432 116.942C80.5999 116.942 81.2147 117.474 81.3125 118.131C81.4103 118.788 80.9632 119.32 80.3065 119.32C79.6498 119.32 79.0351 118.788 78.9372 118.131C78.8394 117.474 79.2866 116.942 79.9432 116.942Z" fill="#C2C2C2"/>
<path d="M89.2779 117.068C89.8648 117.068 90.4097 117.543 90.5075 118.131C90.6053 118.718 90.2001 119.194 89.6133 119.194C89.0264 119.194 88.4815 118.718 88.3837 118.131C88.2859 117.543 88.6911 117.068 89.2779 117.068Z" fill="#C2C2C2"/>
<path d="M98.611 117.222C99.114 117.222 99.575 117.627 99.6589 118.131C99.7427 118.634 99.3934 119.04 98.8904 119.04C98.3874 119.04 97.9263 118.634 97.8425 118.131C97.7587 117.627 98.108 117.222 98.611 117.222Z" fill="#C2C2C2"/>
<path d="M-0.800581 106.591C0.42897 106.591 1.57468 107.584 1.77029 108.815C1.9659 110.046 1.12758 111.039 -0.101972 111.039C-1.33152 111.039 -2.47724 110.046 -2.67285 108.815C-2.86846 107.584 -2.03013 106.591 -0.800581 106.591Z" fill="#C2C2C2"/>
<path d="M8.51778 106.591C9.74733 106.591 10.893 107.584 11.0887 108.815C11.2843 110.046 10.4459 111.039 9.21639 111.039C7.98684 111.039 6.84112 110.046 6.64551 108.815C6.4499 107.584 7.28823 106.591 8.51778 106.591Z" fill="#C2C2C2"/>
<path d="M17.8382 106.633C19.0398 106.633 20.1576 107.598 20.3392 108.801C20.5209 110.004 19.7105 110.969 18.5089 110.969C17.3072 110.969 16.1895 110.004 16.0078 108.801C15.8262 107.598 16.6366 106.633 17.8382 106.633Z" fill="#C2C2C2"/>
<path d="M27.158 106.689C28.3317 106.689 29.4215 107.64 29.6031 108.815C29.7848 109.99 28.9883 110.941 27.8147 110.941C26.641 110.941 25.5512 109.99 25.3696 108.815C25.1879 107.64 25.9843 106.689 27.158 106.689Z" fill="#C2C2C2"/>
<path d="M36.4773 106.801C37.595 106.801 38.629 107.71 38.8106 108.815C38.9783 109.934 38.2238 110.83 37.106 110.83C35.9883 110.83 34.9543 109.92 34.7727 108.815C34.591 107.71 35.3595 106.801 36.4773 106.801Z" fill="#C2C2C2"/>
<path d="M45.8106 106.927C46.8446 106.927 47.8226 107.766 47.9903 108.815C48.158 109.864 47.4454 110.704 46.3975 110.704C45.3495 110.704 44.3855 109.864 44.2178 108.815C44.0501 107.78 44.7627 106.927 45.8106 106.927Z" fill="#C2C2C2"/>
<path d="M55.1436 107.053C56.1077 107.053 57.0159 107.836 57.1696 108.815C57.3233 109.78 56.6526 110.578 55.6885 110.578C54.7244 110.578 53.8163 109.794 53.6626 108.815C53.5089 107.85 54.1795 107.053 55.1436 107.053Z" fill="#C2C2C2"/>
<path d="M64.4767 107.207C65.3569 107.207 66.1952 107.92 66.321 108.815C66.4607 109.697 65.8599 110.424 64.9657 110.424C64.0715 110.424 63.2471 109.711 63.1214 108.815C62.9817 107.934 63.5964 107.207 64.4767 107.207Z" fill="#C2C2C2"/>
<path d="M73.8095 107.389C74.592 107.389 75.3325 108.018 75.4443 108.815C75.556 109.613 75.0251 110.242 74.2427 110.242C73.4602 110.242 72.7197 109.613 72.6079 108.815C72.4822 108.032 73.0271 107.389 73.8095 107.389Z" fill="#C2C2C2"/>
<path d="M83.1446 107.542C83.8432 107.542 84.4999 108.116 84.6117 108.815C84.7235 109.515 84.2484 110.088 83.5498 110.088C82.8512 110.088 82.1945 109.515 82.0827 108.815C81.9709 108.116 82.446 107.542 83.1446 107.542Z" fill="#C2C2C2"/>
<path d="M92.4776 107.696C93.0924 107.696 93.6653 108.2 93.7631 108.801C93.8609 109.417 93.4417 109.906 92.8269 109.906C92.2122 109.906 91.6393 109.403 91.5415 108.801C91.4437 108.186 91.8629 107.696 92.4776 107.696Z" fill="#C2C2C2"/>
<path d="M101.824 107.878C102.341 107.878 102.816 108.298 102.9 108.815C102.984 109.333 102.635 109.753 102.118 109.753C101.601 109.753 101.126 109.333 101.042 108.815C100.958 108.298 101.307 107.878 101.824 107.878Z" fill="#C2C2C2"/>
<path d="M2.37124 97.0101C3.74052 97.0101 5.02594 98.1151 5.23552 99.4858C5.4451 100.857 4.50897 101.962 3.1397 101.962C1.77042 101.962 0.485 100.857 0.275417 99.4858C0.0658348 98.1151 1.00197 97.0101 2.37124 97.0101Z" fill="#C2C2C2"/>
<path d="M11.6894 97.038C13.0447 97.038 14.3161 98.143 14.5257 99.4998C14.7353 100.857 13.8131 101.962 12.4578 101.962C11.1025 101.962 9.83107 100.857 9.62149 99.4998C9.4119 98.143 10.3341 97.038 11.6894 97.038Z" fill="#C2C2C2"/>
<path d="M21.0092 97.08C22.3365 97.08 23.58 98.157 23.7896 99.4858C23.9992 100.815 23.091 101.892 21.7636 101.892C20.4363 101.892 19.1928 100.815 18.9832 99.4858C18.7736 98.157 19.6818 97.08 21.0092 97.08Z" fill="#C2C2C2"/>
<path d="M30.3291 97.1919C31.6005 97.1919 32.7882 98.2269 32.9838 99.4858C33.1794 100.759 32.3131 101.78 31.0416 101.78C29.7702 101.78 28.5825 100.745 28.3869 99.4858C28.1913 98.2269 29.0576 97.1919 30.3291 97.1919Z" fill="#C2C2C2"/>
<path d="M39.6624 97.3178C40.864 97.3178 41.9818 98.2829 42.1634 99.4858C42.3451 100.689 41.5347 101.654 40.3331 101.654C39.1315 101.654 38.0137 100.689 37.8321 99.4858C37.6504 98.2829 38.4608 97.3178 39.6624 97.3178Z" fill="#C2C2C2"/>
<path d="M48.9955 97.4716C50.1133 97.4716 51.1472 98.3808 51.3288 99.4858C51.4965 100.605 50.742 101.5 49.6242 101.5C48.5065 101.5 47.4725 100.591 47.2909 99.4858C47.1232 98.3668 47.8777 97.4716 48.9955 97.4716Z" fill="#C2C2C2"/>
<path d="M58.3302 97.6255C59.3502 97.6255 60.3143 98.4647 60.4819 99.4858C60.6496 100.507 59.937 101.346 58.9171 101.346C57.8971 101.346 56.933 100.507 56.7653 99.4858C56.6116 98.4647 57.3102 97.6255 58.3302 97.6255Z" fill="#C2C2C2"/>
<path d="M67.6781 97.8073C68.6002 97.8073 69.4665 98.5626 69.6202 99.4858C69.7739 100.409 69.1312 101.164 68.209 101.164C67.2868 101.164 66.4206 100.409 66.2669 99.4858C66.1132 98.5626 66.7559 97.8073 67.6781 97.8073Z" fill="#C2C2C2"/>
<path d="M77.0098 97.9892C77.8342 97.9892 78.6166 98.6606 78.7424 99.4858C78.8681 100.311 78.3092 100.982 77.4709 100.982C76.6326 100.982 75.8641 100.311 75.7384 99.4858C75.6126 98.6606 76.1715 97.9892 77.0098 97.9892Z" fill="#C2C2C2"/>
<path d="M86.3423 98.171C87.0689 98.171 87.7535 98.7584 87.8653 99.4858C87.9771 100.213 87.4741 100.801 86.7475 100.801C86.021 100.801 85.3363 100.213 85.2245 99.4858C85.1128 98.7584 85.6158 98.171 86.3423 98.171Z" fill="#C2C2C2"/>
<path d="M95.6908 98.3528C96.3195 98.3528 96.9063 98.8564 97.0041 99.4858C97.102 100.115 96.6688 100.619 96.0401 100.619C95.4113 100.619 94.8245 100.115 94.7267 99.4858C94.6289 98.8564 95.062 98.3528 95.6908 98.3528Z" fill="#C2C2C2"/>
<path d="M5.54272 87.4007C7.06569 87.4007 8.49085 88.6456 8.72837 90.1702C8.9659 91.6948 7.91799 92.9397 6.39502 92.9397C4.87206 92.9397 3.4469 91.6948 3.20937 90.1702C2.97184 88.6456 4.01975 87.4007 5.54272 87.4007Z" fill="#C2C2C2"/>
<path d="M14.8625 87.4567C16.3576 87.4567 17.7687 88.6736 17.9923 90.1702C18.2298 91.6669 17.1959 92.8838 15.7009 92.8838C14.2058 92.8838 12.7946 91.6669 12.5711 90.1702C12.3336 88.6736 13.3675 87.4567 14.8625 87.4567Z" fill="#C2C2C2"/>
<path d="M24.1805 87.5546C25.6196 87.5546 26.9749 88.7295 27.1984 90.1702C27.422 91.6109 26.43 92.7859 24.9909 92.7859C23.5517 92.7859 22.1964 91.6109 21.9729 90.1702C21.7493 88.7295 22.7413 87.5546 24.1805 87.5546Z" fill="#C2C2C2"/>
<path d="M33.5155 87.7084C34.8708 87.7084 36.1423 88.8134 36.3519 90.1702C36.5615 91.527 35.6393 92.632 34.284 92.632C32.9287 92.632 31.6572 91.527 31.4477 90.1702C31.2381 88.8134 32.1602 87.7084 33.5155 87.7084Z" fill="#C2C2C2"/>
<path d="M42.8486 87.8763C44.1201 87.8763 45.3077 88.9114 45.5033 90.1702C45.6989 91.4431 44.8326 92.4641 43.5612 92.4641C42.2897 92.4641 41.1021 91.4291 40.9065 90.1702C40.7109 88.8974 41.5771 87.8763 42.8486 87.8763Z" fill="#C2C2C2"/>
<path d="M52.1951 88.0441C53.3688 88.0441 54.4586 88.9953 54.6402 90.1702C54.8219 91.3452 54.0255 92.2963 52.8518 92.2963C51.6781 92.2963 50.5883 91.3452 50.4067 90.1702C50.225 88.9953 51.0214 88.0441 52.1951 88.0441Z" fill="#C2C2C2"/>
<path d="M61.5276 88.226C62.6034 88.226 63.5955 89.0932 63.7631 90.1702C63.9308 91.2473 63.1903 92.1145 62.1284 92.1145C61.0665 92.1145 60.0605 91.2473 59.8928 90.1702C59.7252 89.0932 60.4657 88.226 61.5276 88.226Z" fill="#C2C2C2"/>
<path d="M70.8761 88.4358C71.8262 88.4358 72.7204 89.2051 72.8741 90.1702C73.0278 91.1214 72.3711 91.9047 71.407 91.9047C70.443 91.9047 69.5627 91.1354 69.409 90.1702C69.2553 89.2191 69.912 88.4358 70.8761 88.4358Z" fill="#C2C2C2"/>
<path d="M80.209 88.6456C81.0473 88.6456 81.8438 89.331 81.9695 90.1702C82.0953 91.0094 81.5224 91.6948 80.684 91.6948C79.8457 91.6948 79.0493 91.0094 78.9236 90.1702C78.7978 89.331 79.3707 88.6456 80.209 88.6456Z" fill="#C2C2C2"/>
<path d="M89.5572 88.8554C90.2837 88.8554 90.9683 89.4429 91.0801 90.1702C91.1919 90.8976 90.6889 91.485 89.9624 91.485C89.2358 91.485 88.5512 90.8976 88.4394 90.1702C88.3276 89.4429 88.8306 88.8554 89.5572 88.8554Z" fill="#C2C2C2"/>
<path d="M98.9056 89.0372C99.5344 89.0372 100.121 89.5408 100.219 90.1702C100.317 90.7997 99.8837 91.3032 99.2549 91.3032C98.6262 91.3032 98.0393 90.7997 97.9415 90.1702C97.8437 89.5408 98.2769 89.0372 98.9056 89.0372Z" fill="#C2C2C2"/>
<path d="M-0.606113 77.8054C1.07055 77.8054 2.64941 79.1761 2.91488 80.8546C3.18035 82.5331 2.02064 83.9039 0.343984 83.9039C-1.33268 83.9039 -2.91152 82.5331 -3.17699 80.8546C-3.44246 79.1761 -2.28277 77.8054 -0.606113 77.8054Z" fill="#C2C2C2"/>
<path d="M8.71427 77.8194C10.377 77.8194 11.9418 79.1761 12.2073 80.8406C12.4728 82.5051 11.3271 83.8619 9.6504 83.8619C7.97374 83.8619 6.42283 82.5051 6.15736 80.8406C5.89189 79.1761 7.03761 77.8194 8.71427 77.8194Z" fill="#C2C2C2"/>
<path d="M18.0339 77.9313C19.6407 77.9313 21.1497 79.2321 21.4012 80.8547C21.6527 82.4772 20.5489 83.778 18.9421 83.778C17.3353 83.778 15.8263 82.4772 15.5748 80.8547C15.3233 79.2461 16.4271 77.9313 18.0339 77.9313Z" fill="#C2C2C2"/>
<path d="M27.3669 78.0852C28.8899 78.0852 30.3151 79.33 30.5526 80.8546C30.7901 82.3793 29.7422 83.6241 28.2192 83.6241C26.6963 83.6241 25.2711 82.3793 25.0336 80.8546C24.7961 79.33 25.844 78.0852 27.3669 78.0852Z" fill="#C2C2C2"/>
<path d="M36.7135 78.267C38.1386 78.267 39.4799 79.428 39.6895 80.8547C39.9131 82.2814 38.935 83.4423 37.5099 83.4423C36.0847 83.4423 34.7434 82.2814 34.5338 80.8547C34.3102 79.428 35.2883 78.267 36.7135 78.267Z" fill="#C2C2C2"/>
<path d="M46.0482 78.4488C47.3756 78.4488 48.6191 79.5259 48.8287 80.8547C49.0383 82.1835 48.1301 83.2605 46.8027 83.2605C45.4754 83.2605 44.2318 82.1835 44.0223 80.8547C43.8127 79.5259 44.7209 78.4488 46.0482 78.4488Z" fill="#C2C2C2"/>
<path d="M55.3948 78.6726C56.5964 78.6726 57.7142 79.6377 57.8958 80.8407C58.0775 82.0436 57.2671 83.0087 56.0655 83.0087C54.8639 83.0087 53.7461 82.0436 53.5645 80.8407C53.3828 79.6377 54.1932 78.6726 55.3948 78.6726Z" fill="#C2C2C2"/>
<path d="M64.743 78.8824C65.8328 78.8824 66.8388 79.7636 67.0065 80.8407C67.1742 81.9317 66.4336 82.7989 65.3438 82.7989C64.254 82.7989 63.248 81.9177 63.0803 80.8407C62.9126 79.7496 63.6532 78.8824 64.743 78.8824Z" fill="#C2C2C2"/>
<path d="M74.0772 79.0922C75.0413 79.0922 75.9495 79.8755 76.1032 80.8546C76.2569 81.8198 75.5862 82.617 74.6221 82.617C73.658 82.617 72.7499 81.8337 72.5962 80.8546C72.4425 79.8895 73.1131 79.0922 74.0772 79.0922Z" fill="#C2C2C2"/>
<path d="M83.4238 79.33C84.2622 79.33 85.0586 80.0154 85.1843 80.8546C85.3101 81.6939 84.7372 82.3793 83.8989 82.3793C83.0606 82.3793 82.2641 81.6939 82.1384 80.8546C82.0127 80.0154 82.5855 79.33 83.4238 79.33Z" fill="#C2C2C2"/>
<path d="M92.772 79.5258C93.4986 79.5258 94.1832 80.1133 94.295 80.8406C94.4067 81.568 93.9037 82.1555 93.1772 82.1555C92.4506 82.1555 91.766 81.568 91.6542 80.8406C91.5424 80.1133 92.0454 79.5258 92.772 79.5258Z" fill="#C2C2C2"/>
<path d="M102.105 79.7076C102.734 79.7076 103.32 80.2112 103.418 80.8406C103.516 81.4701 103.083 81.9736 102.454 81.9736C101.825 81.9736 101.239 81.4701 101.141 80.8406C101.043 80.2112 101.476 79.7076 102.105 79.7076Z" fill="#C2C2C2"/>
<path d="M2.55234 68.1961C4.39667 68.1961 6.11524 69.6927 6.39469 71.5251C6.67413 73.3714 5.41664 74.8541 3.58629 74.8541C1.75593 74.8541 0.0233848 73.3574 -0.256059 71.5251C-0.535502 69.6787 0.721986 68.1961 2.55234 68.1961Z" fill="#C2C2C2"/>
<path d="M11.8853 68.294C13.6737 68.294 15.3364 69.7347 15.6158 71.5251C15.8953 73.3155 14.6657 74.7562 12.8913 74.7562C11.1168 74.7562 9.44015 73.3155 9.16071 71.5251C8.88126 69.7347 10.1108 68.294 11.8853 68.294Z" fill="#C2C2C2"/>
<path d="M21.2206 68.4479C22.9113 68.4479 24.5041 69.8186 24.7696 71.5251C25.0351 73.2176 23.8754 74.6023 22.1708 74.6023C20.4662 74.6023 18.8873 73.2315 18.6218 71.5251C18.3563 69.8326 19.516 68.4479 21.2206 68.4479Z" fill="#C2C2C2"/>
<path d="M30.5531 68.6297C32.146 68.6297 33.641 69.9305 33.8925 71.5251C34.144 73.1196 33.0402 74.4205 31.4473 74.4205C29.8545 74.4205 28.3595 73.1196 28.108 71.5251C27.8565 69.9305 28.9603 68.6297 30.5531 68.6297Z" fill="#C2C2C2"/>
<path d="M39.8997 68.8675C41.3668 68.8675 42.7501 70.0564 42.9736 71.5251C43.1972 72.9938 42.1912 74.1827 40.7241 74.1827C39.257 74.1827 37.8738 72.9938 37.6502 71.5251C37.4267 70.0564 38.4327 68.8675 39.8997 68.8675Z" fill="#C2C2C2"/>
<path d="M49.2477 69.1053C50.589 69.1053 51.8465 70.1963 52.0561 71.5391C52.2657 72.8819 51.3435 73.9729 50.0022 73.9729C48.6608 73.9729 47.4033 72.8819 47.1938 71.5391C46.9842 70.1963 47.9063 69.1053 49.2477 69.1053Z" fill="#C2C2C2"/>
<path d="M58.5943 69.3291C59.8099 69.3291 60.9416 70.3082 61.1233 71.5251C61.3049 72.742 60.4806 73.7211 59.265 73.7211C58.0494 73.7211 56.9176 72.742 56.736 71.5251C56.5544 70.3082 57.3787 69.3291 58.5943 69.3291Z" fill="#C2C2C2"/>
<path d="M67.9422 69.5668C69.0321 69.5668 70.038 70.448 70.2057 71.525C70.3734 72.6021 69.6329 73.4833 68.543 73.4833C67.4532 73.4833 66.4472 72.6021 66.2795 71.525C66.1119 70.434 66.8524 69.5668 67.9422 69.5668Z" fill="#C2C2C2"/>
<path d="M77.2902 69.7907C78.2403 69.7907 79.1345 70.56 79.2882 71.5251C79.4419 72.4762 78.7852 73.2595 77.8211 73.2595C76.857 73.2595 75.9768 72.4902 75.8231 71.5251C75.6694 70.574 76.3261 69.7907 77.2902 69.7907Z" fill="#C2C2C2"/>
<path d="M86.6368 70.0284C87.4611 70.0284 88.2436 70.6998 88.3693 71.5251C88.4951 72.3503 87.9362 73.0217 87.0979 73.0217C86.2595 73.0217 85.4911 72.3503 85.3653 71.5251C85.2396 70.6998 85.7984 70.0284 86.6368 70.0284Z" fill="#C2C2C2"/>
<path d="M95.9846 70.2383C96.6972 70.2383 97.3679 70.8117 97.4797 71.5251C97.5914 72.2384 97.1024 72.8119 96.3898 72.8119C95.6773 72.8119 95.0066 72.2384 94.8948 71.5251C94.783 70.8117 95.2721 70.2383 95.9846 70.2383Z" fill="#C2C2C2"/>
<path d="M-3.59592 58.5588C-1.58393 58.5588 0.302309 60.1953 0.609697 62.2095C0.917085 64.2236 -0.452183 65.8602 -2.46418 65.8602C-4.47617 65.8602 -6.3624 64.2236 -6.66979 62.2095C-6.97718 60.1953 -5.60791 58.5588 -3.59592 58.5588Z" fill="#C2C2C2"/>
<path d="M8.52439 59.7894C10.0876 61.2375 10.3521 63.4961 9.11524 64.8342C7.87836 66.1723 5.60844 66.0831 4.04525 64.6351C2.48206 63.187 2.21753 60.9283 3.45441 59.5902C4.69129 58.2521 6.96119 58.3413 8.52439 59.7894Z" fill="#C2C2C2"/>
<path d="M15.0704 58.7966C16.9566 58.7966 18.7171 60.3212 19.0105 62.2095C19.3039 64.0978 18.0185 65.6224 16.1322 65.6224C14.246 65.6224 12.4855 64.0978 12.1921 62.2095C11.8987 60.3212 13.1841 58.7966 15.0704 58.7966Z" fill="#C2C2C2"/>
<path d="M24.4189 59.0344C26.1794 59.0344 27.8142 60.4611 28.0936 62.2095C28.3591 63.9719 27.1715 65.3846 25.411 65.3846C23.6505 65.3846 22.0157 63.9579 21.7363 62.2095C21.4708 60.4471 22.6585 59.0344 24.4189 59.0344Z" fill="#C2C2C2"/>
<path d="M33.7663 59.2861C35.3731 59.2861 36.8821 60.5869 37.1336 62.2095C37.3851 63.818 36.2813 65.1328 34.6745 65.1328C33.0677 65.1328 31.5587 63.832 31.3072 62.2095C31.0557 60.6009 32.1595 59.2861 33.7663 59.2861Z" fill="#C2C2C2"/>
<path d="M43.1129 59.5239C44.594 59.5239 45.9912 60.7268 46.2147 62.2095C46.4383 63.6922 45.4323 64.8951 43.9513 64.8951C42.4702 64.8951 41.073 63.6922 40.8494 62.2095C40.6259 60.7268 41.6319 59.5239 43.1129 59.5239Z" fill="#C2C2C2"/>
<path d="M52.4606 59.7757C53.8019 59.7757 55.0594 60.8667 55.269 62.2095C55.4786 63.5523 54.5564 64.6433 53.2151 64.6433C51.8737 64.6433 50.6162 63.5523 50.4067 62.2095C50.1971 60.8667 51.1192 59.7757 52.4606 59.7757Z" fill="#C2C2C2"/>
<path d="M61.8089 60.0415C63.0105 60.0415 64.1283 61.0066 64.3099 62.2095C64.4916 63.4124 63.6812 64.3775 62.4796 64.3775C61.278 64.3775 60.1602 63.4124 59.9785 62.2095C59.7969 61.0066 60.6073 60.0415 61.8089 60.0415Z" fill="#C2C2C2"/>
<path d="M71.1702 60.2933C72.2321 60.2933 73.2102 61.1465 73.3778 62.2095C73.5455 63.2726 72.8189 64.1258 71.757 64.1258C70.6952 64.1258 69.7171 63.2726 69.5495 62.2095C69.3818 61.1465 70.1083 60.2933 71.1563 60.2933L71.1702 60.2933Z" fill="#C2C2C2"/>
<path d="M80.5185 60.531C81.4407 60.531 82.3069 61.2863 82.4606 62.2095C82.6004 63.1326 81.9716 63.888 81.0494 63.888C80.1273 63.888 79.261 63.1326 79.1073 62.2095C78.9676 61.2863 79.5963 60.531 80.5185 60.531Z" fill="#C2C2C2"/>
<path d="M89.8508 60.7548C90.6472 60.7548 91.4017 61.3982 91.5275 62.1955C91.6532 62.9928 91.1083 63.6362 90.3119 63.6362C89.5155 63.6362 88.761 62.9928 88.6352 62.1955C88.5095 61.3982 89.0544 60.7548 89.8508 60.7548Z" fill="#C2C2C2"/>
<path d="M99.199 60.9646C99.8836 60.9646 100.526 61.5241 100.624 62.2095C100.736 62.8949 100.261 63.4544 99.5762 63.4544C98.8916 63.4544 98.2489 62.8949 98.1511 62.2095C98.0393 61.5241 98.5144 60.9646 99.199 60.9646Z" fill="#C2C2C2"/>
<path d="M-0.42247 48.9635C1.74322 48.9635 3.76917 50.7259 4.1045 52.8939C4.43983 55.062 2.95879 56.8244 0.793101 56.8244C-1.37258 56.8244 -3.39856 55.062 -3.73389 52.8939C-4.06922 50.7259 -2.58816 48.9635 -0.42247 48.9635Z" fill="#C2C2C2"/>
<path d="M8.92373 49.1593C10.9776 49.1593 12.9058 50.8238 13.2132 52.8799C13.5345 54.9361 12.1233 56.6006 10.0694 56.6006C8.01553 56.6006 6.08738 54.9361 5.77999 52.8799C5.45863 50.8238 6.86982 49.1593 8.92373 49.1593Z" fill="#C2C2C2"/>
<path d="M18.2721 49.4251C20.1863 49.4251 21.9747 50.9777 22.2681 52.8939C22.5615 54.8102 21.2621 56.3628 19.3479 56.3628C17.4337 56.3628 15.6453 54.8102 15.3519 52.8939C15.0585 50.9777 16.3579 49.4251 18.2721 49.4251Z" fill="#C2C2C2"/>
<path d="M27.6201 49.7048C29.3806 49.7048 31.0154 51.1315 31.2948 52.8799C31.5603 54.6423 30.3726 56.0551 28.6122 56.0551C26.8517 56.0551 25.2169 54.6283 24.9375 52.8799C24.672 51.1175 25.8596 49.7048 27.6201 49.7048Z" fill="#C2C2C2"/>
<path d="M36.9789 49.9985C38.5717 49.9985 40.0668 51.2994 40.3183 52.8939C40.5698 54.4885 39.4659 55.7893 37.8731 55.7893C36.2803 55.7893 34.7853 54.4885 34.5338 52.8939C34.2823 51.2994 35.3861 49.9985 36.9789 49.9985Z" fill="#C2C2C2"/>
<path d="M46.327 50.2783C47.7661 50.2783 49.1214 51.4532 49.345 52.8939C49.5685 54.3346 48.5765 55.5096 47.1373 55.5096C45.6982 55.5096 44.3429 54.3346 44.1194 52.8939C43.8958 51.4532 44.8878 50.2783 46.327 50.2783Z" fill="#C2C2C2"/>
<path d="M55.689 50.5301C56.9884 50.5301 58.204 51.5792 58.3996 52.88C58.5952 54.1808 57.7149 55.2299 56.4155 55.2299C55.1161 55.2299 53.9005 54.1808 53.7049 52.88C53.5093 51.5792 54.3896 50.5301 55.689 50.5301Z" fill="#C2C2C2"/>
<path d="M65.0363 50.7958C66.196 50.7958 67.2719 51.733 67.4535 52.8939C67.6352 54.0549 66.8387 54.992 65.693 54.992C64.5473 54.992 63.4575 54.0549 63.2758 52.8939C63.0942 51.733 63.8906 50.7958 65.0363 50.7958Z" fill="#C2C2C2"/>
<path d="M74.3829 51.0196C75.4029 51.0196 76.367 51.8589 76.5347 52.8799C76.6884 53.901 75.9897 54.7403 74.9698 54.7403C73.9498 54.7403 72.9857 53.901 72.8181 52.8799C72.6644 51.8589 73.363 51.0196 74.3829 51.0196Z" fill="#C2C2C2"/>
<path d="M83.7309 51.2854C84.6112 51.2854 85.4495 51.9987 85.5753 52.8939C85.715 53.7751 85.1002 54.5025 84.22 54.5025C83.3397 54.5025 82.5014 53.7891 82.3756 52.8939C82.2359 52.0127 82.8367 51.2854 83.7309 51.2854Z" fill="#C2C2C2"/>
<path d="M93.0792 51.5232C93.8337 51.5232 94.5462 52.1386 94.658 52.8939C94.7698 53.6492 94.2528 54.2647 93.4983 54.2647C92.7439 54.2647 92.0313 53.6492 91.9195 52.8939C91.8077 52.1386 92.3247 51.5232 93.0792 51.5232Z" fill="#C2C2C2"/>
<path d="M102.425 51.719C103.068 51.719 103.669 52.2365 103.767 52.8799C103.865 53.5234 103.431 54.0409 102.789 54.0409C102.146 54.0409 101.545 53.5234 101.447 52.8799C101.35 52.2365 101.783 51.719 102.425 51.719Z" fill="#C2C2C2"/>
<path d="M2.7753 39.5919C4.96893 39.5919 7.02285 41.3683 7.37215 43.5783C7.70749 45.7743 6.21245 47.5647 4.01882 47.5647C1.82519 47.5647 -0.22871 45.7883 -0.578015 43.5783C-0.913347 41.3823 0.581667 39.5919 2.7753 39.5919Z" fill="#C2C2C2"/>
<path d="M12.1367 39.8997C14.1627 39.8997 16.0629 41.5362 16.3703 43.5644C16.6917 45.5926 15.2945 47.2291 13.2685 47.2291C11.2425 47.2291 9.34231 45.5926 9.03493 43.5644C8.72754 41.5362 10.1108 39.8997 12.1367 39.8997Z" fill="#C2C2C2"/>
<path d="M21.4996 40.2074C23.3579 40.2074 25.0904 41.718 25.3838 43.5644C25.6772 45.4107 24.4058 46.9213 22.5475 46.9213C20.6892 46.9213 18.9566 45.4107 18.6632 43.5644C18.3698 41.718 19.6413 40.2074 21.4996 40.2074Z" fill="#C2C2C2"/>
<path d="M30.8456 40.4872C32.5363 40.4872 34.1291 41.8579 34.3946 43.5644C34.6601 45.2569 33.5004 46.6416 31.7958 46.6416C30.0912 46.6416 28.5123 45.2708 28.2468 43.5644C27.9813 41.8719 29.141 40.4872 30.8456 40.4872Z" fill="#C2C2C2"/>
<path d="M40.2074 40.7809C41.7443 40.7809 43.1834 42.0258 43.4349 43.5784C43.6725 45.117 42.6245 46.3759 41.0736 46.3759C39.5227 46.3759 38.0976 45.131 37.8461 43.5784C37.6085 42.0398 38.6565 40.7809 40.2074 40.7809Z" fill="#C2C2C2"/>
<path d="M49.5551 41.0606C50.9384 41.0606 52.2378 42.1796 52.4474 43.5643C52.657 44.9491 51.7208 46.0681 50.3376 46.0681C48.9543 46.0681 47.6549 44.9491 47.4453 43.5643C47.2357 42.1796 48.1719 41.0606 49.5551 41.0606Z" fill="#C2C2C2"/>
<path d="M58.9164 41.3124C60.16 41.3124 61.3197 42.3195 61.5153 43.5644C61.7109 44.8092 60.8586 45.8163 59.6151 45.8163C58.3715 45.8163 57.2118 44.8092 57.0162 43.5644C56.8206 42.3195 57.6729 41.3124 58.9164 41.3124Z" fill="#C2C2C2"/>
<path d="M68.2644 41.5782C69.3682 41.5782 70.3882 42.4734 70.5559 43.5644C70.7235 44.6694 69.969 45.5506 68.8792 45.5506C67.7894 45.5506 66.7554 44.6554 66.5878 43.5644C66.4201 42.4734 67.1746 41.5782 68.2644 41.5782Z" fill="#C2C2C2"/>
<path d="M77.6124 41.83C78.5625 41.83 79.4568 42.5993 79.6105 43.5644C79.7642 44.5155 79.1075 45.2988 78.1434 45.2988C77.1793 45.2988 76.2991 44.5295 76.1454 43.5644C75.9917 42.6133 76.6484 41.83 77.6124 41.83Z" fill="#C2C2C2"/>
<path d="M86.959 42.0677C87.7834 42.0677 88.5659 42.7391 88.6916 43.5644C88.8174 44.3896 88.2585 45.061 87.4201 45.061C86.5818 45.061 85.8133 44.3896 85.6876 43.5644C85.5618 42.7391 86.1207 42.0677 86.959 42.0677Z" fill="#C2C2C2"/>
<path d="M96.3069 42.2775C97.0195 42.2775 97.6901 42.851 97.8019 43.5643C97.9137 44.2777 97.4247 44.8512 96.7121 44.8512C95.9995 44.8512 95.3289 44.2777 95.2171 43.5643C95.1053 42.851 95.5943 42.2775 96.3069 42.2775Z" fill="#C2C2C2"/>
<path d="M-3.31678 30.2904C-1.13712 30.2904 0.902822 32.0668 1.25213 34.2488C1.58746 36.4308 0.0924368 38.2072 -2.08722 38.2072C-4.26688 38.2072 -6.30682 36.4308 -6.65613 34.2488C-6.99146 32.0668 -5.49644 30.2904 -3.31678 30.2904Z" fill="#C2C2C2"/>
<path d="M6.01778 30.5002C8.08566 30.5002 10.0278 32.1787 10.3491 34.2488C10.6705 36.3189 9.25932 37.9974 7.19144 37.9974C5.12356 37.9974 3.18142 36.3189 2.86006 34.2488C2.5387 32.1787 3.9499 30.5002 6.01778 30.5002Z" fill="#C2C2C2"/>
<path d="M15.3795 30.7799C17.2937 30.7799 19.0821 32.3325 19.3755 34.2488C19.6689 36.1651 18.3695 37.7177 16.4553 37.7177C14.5412 37.7177 12.7527 36.1651 12.4593 34.2488C12.1659 32.3325 13.4653 30.7799 15.3795 30.7799Z" fill="#C2C2C2"/>
<path d="M24.7256 31.0597C26.4861 31.0597 28.1208 32.4864 28.4003 34.2348C28.6657 35.9972 27.4781 37.4099 25.7176 37.4099C23.9571 37.4099 22.3224 35.9832 22.0429 34.2348C21.7775 32.4724 22.9651 31.0597 24.7256 31.0597Z" fill="#C2C2C2"/>
<path d="M34.0883 31.3534C35.6811 31.3534 37.1761 32.6542 37.4276 34.2488C37.6791 35.8434 36.5753 37.1442 34.9825 37.1442C33.3897 37.1442 31.8946 35.8434 31.6431 34.2488C31.3916 32.6542 32.4955 31.3534 34.0883 31.3534Z" fill="#C2C2C2"/>
<path d="M43.4347 31.6052C44.8878 31.6052 46.257 32.7801 46.4806 34.2348C46.7042 35.6895 45.7121 36.8644 44.259 36.8644C42.8059 36.8644 41.4366 35.6895 41.2131 34.2348C40.9895 32.7801 41.9816 31.6052 43.4347 31.6052Z" fill="#C2C2C2"/>
<path d="M52.7964 31.8989C54.0958 31.8989 55.3114 32.948 55.507 34.2488C55.7026 35.5496 54.8224 36.5987 53.5229 36.5987C52.2235 36.5987 51.008 35.5496 50.8123 34.2488C50.6167 32.948 51.497 31.8989 52.7964 31.8989Z" fill="#C2C2C2"/>
<path d="M62.1438 32.1507C63.3034 32.1507 64.3793 33.0879 64.5609 34.2488C64.7426 35.4098 63.9462 36.3469 62.8004 36.3469C61.6547 36.3469 60.5649 35.4098 60.3832 34.2488C60.2016 33.0879 60.998 32.1507 62.1438 32.1507Z" fill="#C2C2C2"/>
<path d="M71.4917 32.3885C72.5117 32.3885 73.4758 33.2277 73.6434 34.2488C73.8111 35.2698 73.0985 36.1091 72.0785 36.1091C71.0586 36.1091 70.0945 35.2698 69.9268 34.2488C69.7591 33.2277 70.4717 32.3885 71.4917 32.3885Z" fill="#C2C2C2"/>
<path d="M80.8383 32.6402C81.7186 32.6402 82.5569 33.3536 82.6827 34.2488C82.8224 35.13 82.2216 35.8573 81.3274 35.8573C80.4332 35.8573 79.6088 35.144 79.4831 34.2488C79.3433 33.3676 79.9441 32.6402 80.8383 32.6402Z" fill="#C2C2C2"/>
<path d="M90.1866 32.878C90.9411 32.878 91.6537 33.4935 91.7655 34.2488C91.8772 35.0041 91.3603 35.6195 90.6058 35.6195C89.8513 35.6195 89.1387 35.0041 89.0269 34.2488C88.9151 33.4935 89.4321 32.878 90.1866 32.878Z" fill="#C2C2C2"/>
<path d="M99.5328 33.0879C100.176 33.0879 100.776 33.6054 100.874 34.2488C100.972 34.8922 100.539 35.4098 99.8961 35.4098C99.2534 35.4098 98.6526 34.8922 98.5548 34.2488C98.457 33.6054 98.8901 33.0879 99.5328 33.0879Z" fill="#C2C2C2"/>
<path d="M-0.0612853 21.3385C1.92276 21.3385 3.78106 22.947 4.08845 24.9332C4.39584 26.9195 3.04054 28.528 1.05649 28.528C-0.927555 28.528 -2.78586 26.9195 -3.09324 24.9332C-3.40063 22.947 -2.04533 21.3385 -0.0612853 21.3385Z" fill="#C2C2C2"/>
<path d="M9.28741 21.4923C11.1876 21.4923 12.9621 23.0309 13.2555 24.9332C13.5489 26.8355 12.2495 28.3741 10.3493 28.3741C8.44907 28.3741 6.67461 26.8355 6.38119 24.9332C6.08778 23.0309 7.38719 21.4923 9.28741 21.4923Z" fill="#C2C2C2"/>
<path d="M21.1392 22.7374C22.5438 24.0385 22.7817 26.0678 21.6706 27.2698C20.5595 28.4718 18.5201 28.3914 17.1155 27.0902C15.7109 25.7891 15.473 23.7598 16.5841 22.5578C17.6952 21.3558 19.7346 21.4362 21.1392 22.7374Z" fill="#C2C2C2"/>
<path d="M27.9814 21.9819C29.6022 21.9819 31.1251 23.2967 31.3766 24.9332C31.6281 26.5558 30.5104 27.8846 28.8896 27.8846C27.2688 27.8846 25.7458 26.5697 25.4943 24.9332C25.2428 23.3107 26.3606 21.9819 27.9814 21.9819Z" fill="#C2C2C2"/>
<path d="M39.447 23.0913C40.625 24.1826 40.8238 25.8855 39.8909 26.8947C38.958 27.9039 37.2467 27.8374 36.0686 26.7461C34.8906 25.6548 34.6918 23.9519 35.6247 22.9427C36.5576 21.9335 38.2689 22 39.447 23.0913Z" fill="#C2C2C2"/>
<path d="M46.6754 22.4994C48.0167 22.4994 49.2742 23.5904 49.4838 24.9332C49.6934 26.276 48.7712 27.367 47.4299 27.367C46.0886 27.367 44.8311 26.276 44.6215 24.9332C44.4119 23.5904 45.3341 22.4994 46.6754 22.4994Z" fill="#C2C2C2"/>
<path d="M56.0237 22.7512C57.2254 22.7512 58.3431 23.7163 58.5248 24.9192C58.7064 26.1221 57.896 27.0872 56.6944 27.0872C55.4928 27.0872 54.375 26.1221 54.1934 24.9192C54.0118 23.7163 54.8221 22.7512 56.0237 22.7512Z" fill="#C2C2C2"/>
<path d="M65.3713 22.989C66.4472 22.989 67.4392 23.8562 67.6069 24.9332C67.7746 26.0103 67.034 26.8775 65.9721 26.8775C64.9102 26.8775 63.9043 26.0103 63.7366 24.9332C63.5689 23.8562 64.3094 22.989 65.3713 22.989Z" fill="#C2C2C2"/>
<path d="M74.7327 23.2407C75.6549 23.2407 76.5212 23.9961 76.6749 24.9192C76.8286 25.8424 76.1859 26.5977 75.2637 26.5977C74.3415 26.5977 73.4753 25.8424 73.3216 24.9192C73.1679 23.9961 73.8106 23.2407 74.7327 23.2407Z" fill="#C2C2C2"/>
<path d="M84.0659 23.4506C84.8763 23.4506 85.6447 24.108 85.7705 24.9192C85.8962 25.7305 85.3373 26.3879 84.5269 26.3879C83.7166 26.3879 82.9481 25.7305 82.8224 24.9192C82.6966 24.108 83.2555 23.4506 84.0659 23.4506Z" fill="#C2C2C2"/>
<path d="M93.4138 23.6884C94.0985 23.6884 94.7412 24.2478 94.839 24.9332C94.9508 25.6186 94.4757 26.1781 93.7911 26.1781C93.1065 26.1781 92.4637 25.6186 92.3659 24.9332C92.2541 24.2478 92.7292 23.6884 93.4138 23.6884Z" fill="#C2C2C2"/>
<path d="M102.76 23.8842C103.333 23.8842 103.864 24.3457 103.948 24.9192C104.032 25.4927 103.641 25.9543 103.082 25.9543C102.523 25.9543 101.978 25.4927 101.894 24.9192C101.81 24.3457 102.202 23.8842 102.76 23.8842Z" fill="#C2C2C2"/>
<path d="M3.20812 12.3446C5.01053 12.3446 6.6872 13.7993 6.96664 15.6036C7.24609 17.408 6.01653 18.8627 4.21412 18.8627C2.41171 18.8627 0.735048 17.408 0.455604 15.6036C0.176161 13.7993 1.40571 12.3446 3.20812 12.3446Z" fill="#C2C2C2"/>
<path d="M12.5429 12.4984C14.2475 12.4984 15.8543 13.8832 16.1197 15.6036C16.3852 17.3101 15.2115 18.7088 13.5069 18.7088C11.8023 18.7088 10.1955 17.3241 9.93005 15.6036C9.66458 13.8972 10.8383 12.4984 12.5429 12.4984Z" fill="#C2C2C2"/>
<path d="M21.891 12.7083C23.4838 12.7083 24.9789 14.0091 25.2304 15.6037C25.4819 17.1982 24.3781 18.499 22.7852 18.499C21.1924 18.499 19.6974 17.1982 19.4459 15.6037C19.1944 14.0091 20.2982 12.7083 21.891 12.7083Z" fill="#C2C2C2"/>
<path d="M31.2242 12.9181C32.7053 12.9181 34.1025 14.121 34.3261 15.6036C34.5496 17.0863 33.5436 18.2892 32.0626 18.2892C30.5815 18.2892 29.1843 17.0863 28.9608 15.6036C28.7372 14.121 29.7432 12.9181 31.2242 12.9181Z" fill="#C2C2C2"/>
<path d="M40.5722 13.1419C41.9275 13.1419 43.1989 14.2469 43.4085 15.6037C43.6181 16.9604 42.6959 18.0654 41.3406 18.0654C39.9853 18.0654 38.7139 16.9604 38.5043 15.6037C38.2947 14.2469 39.2169 13.1419 40.5722 13.1419Z" fill="#C2C2C2"/>
<path d="M49.9185 13.4077C51.1341 13.4077 52.2658 14.3868 52.4475 15.6037C52.6291 16.8206 51.8048 17.7997 50.5892 17.7997C49.3736 17.7997 48.2419 16.8206 48.0602 15.6037C47.8786 14.3868 48.7029 13.4077 49.9185 13.4077Z" fill="#C2C2C2"/>
<path d="M59.2664 13.6454C60.3563 13.6454 61.3623 14.5266 61.5299 15.6037C61.6976 16.6807 60.9571 17.5619 59.8672 17.5619C58.7774 17.5619 57.7714 16.6807 57.6038 15.6037C57.4361 14.5127 58.1766 13.6454 59.2664 13.6454Z" fill="#C2C2C2"/>
<path d="M68.6144 13.8692C69.5645 13.8692 70.4587 14.6385 70.6124 15.6036C70.7661 16.5548 70.1094 17.338 69.1453 17.338C68.1812 17.338 67.301 16.5688 67.1473 15.6036C66.9936 14.6525 67.6503 13.8692 68.6144 13.8692Z" fill="#C2C2C2"/>
<path d="M79.1544 14.5721C79.8227 15.1912 79.9353 16.1574 79.406 16.73C78.8767 17.3027 77.9058 17.265 77.2374 16.6459C76.5691 16.0268 76.4565 15.0607 76.9858 14.488C77.5151 13.9154 78.486 13.953 79.1544 14.5721Z" fill="#C2C2C2"/>
<path d="M87.3089 14.3168C88.0214 14.3168 88.6921 14.8903 88.8039 15.6037C88.9157 16.317 88.4267 16.8905 87.7141 16.8905C87.0015 16.8905 86.3308 16.317 86.219 15.6037C86.1073 14.8903 86.5963 14.3168 87.3089 14.3168Z" fill="#C2C2C2"/>
<path d="M96.6551 14.5127C97.2559 14.5127 97.8148 15.0022 97.9126 15.6037C98.0104 16.2051 97.5912 16.6947 96.9904 16.6947C96.3896 16.6947 95.8307 16.2051 95.7329 15.6037C95.6351 15.0022 96.0543 14.5127 96.6551 14.5127Z" fill="#C2C2C2"/>
<path d="M-2.86781 3.23882C-1.19115 3.23882 0.38769 4.6096 0.653161 6.28808C0.918632 7.96656 -0.241053 9.33731 -1.91771 9.33731C-3.59437 9.33731 -5.17324 7.96656 -5.43871 6.28808C-5.70418 4.6096 -4.54447 3.23882 -2.86781 3.23882Z" fill="#C2C2C2"/>
<path d="M6.4638 3.33675C8.08457 3.33675 9.60755 4.65156 9.85905 6.28808C10.1105 7.91061 8.99277 9.23941 7.372 9.23941C5.75123 9.23941 4.22825 7.9246 3.97675 6.28808C3.72525 4.66555 4.84303 3.33675 6.4638 3.33675Z" fill="#C2C2C2"/>
<path d="M15.7992 3.4906C17.3361 3.4906 18.7752 4.73547 19.0267 6.28807C19.2643 7.82668 18.2163 9.08554 16.6654 9.08554C15.1145 9.08554 13.6894 7.84067 13.4379 6.28807C13.2003 4.74946 14.2482 3.4906 15.7992 3.4906Z" fill="#C2C2C2"/>
<path d="M25.1316 3.67243C26.5708 3.67243 27.9261 4.84736 28.1496 6.28806C28.3732 7.72876 27.3812 8.90369 25.942 8.90369C24.5029 8.90369 23.1476 7.72876 22.924 6.28806C22.7005 4.84736 23.6925 3.67243 25.1316 3.67243Z" fill="#C2C2C2"/>
<path d="M34.4799 3.88229C35.8072 3.88229 37.0508 4.95932 37.2603 6.28811C37.4699 7.61691 36.5617 8.69394 35.2344 8.69394C33.907 8.69394 32.6635 7.61691 32.4539 6.28811C32.2443 4.95932 33.1525 3.88229 34.4799 3.88229Z" fill="#C2C2C2"/>
<path d="M43.8267 4.09207C45.0423 4.09207 46.1741 5.0712 46.3557 6.2881C46.5373 7.505 45.713 8.4841 44.4974 8.4841C43.2818 8.4841 42.1501 7.505 41.9684 6.2881C41.7868 5.0712 42.6112 4.09207 43.8267 4.09207Z" fill="#C2C2C2"/>
<path d="M53.1746 4.31587C54.2645 4.31587 55.2705 5.19708 55.4381 6.27411C55.6058 7.35114 54.8653 8.23233 53.7754 8.23233C52.6856 8.23233 51.6796 7.35114 51.512 6.27411C51.3443 5.1831 52.0848 4.31587 53.1746 4.31587Z" fill="#C2C2C2"/>
<path d="M62.5069 4.52568C63.471 4.52568 64.3792 5.30896 64.5329 6.28808C64.6865 7.2532 64.0159 8.05048 63.0518 8.05048C62.0877 8.05048 61.1795 7.26719 61.0258 6.28808C60.8722 5.32295 61.5428 4.52568 62.5069 4.52568Z" fill="#C2C2C2"/>
<path d="M71.8535 4.7355C72.7058 4.7355 73.5162 5.43487 73.6419 6.2881C73.7677 7.14133 73.1948 7.8407 72.3285 7.8407C71.4623 7.8407 70.6658 7.14133 70.5401 6.2881C70.4004 5.43487 70.9872 4.7355 71.8535 4.7355Z" fill="#C2C2C2"/>
<path d="M81.202 4.94526C81.9425 4.94526 82.6411 5.54673 82.7529 6.28806C82.8647 7.02938 82.3617 7.63083 81.6211 7.63083C80.8806 7.63083 80.182 7.02938 80.0702 6.28806C79.9584 5.54673 80.4614 4.94526 81.202 4.94526Z" fill="#C2C2C2"/>
<path d="M90.5345 5.14108C91.1633 5.14108 91.7501 5.64464 91.8479 6.27407C91.9457 6.9035 91.5126 7.40704 90.8838 7.40704C90.2551 7.40704 89.6682 6.9035 89.5704 6.27407C89.4726 5.64464 89.9058 5.14108 90.5345 5.14108Z" fill="#C2C2C2"/>
<path d="M99.8828 5.35095C100.4 5.35095 100.875 5.77057 100.959 6.2881C101.042 6.80563 100.693 7.22525 100.176 7.22525C99.6592 7.22525 99.1841 6.80563 99.1003 6.2881C99.0165 5.77057 99.3658 5.35095 99.8828 5.35095Z" fill="#C2C2C2"/>
</g>
</g>
<path d="M39.4023 51.1496V58.3685C39.4023 60.5315 40.062 62.2889 41.3814 63.6407L44.1521 66.4796L41.3814 69.3185C40.062 70.6703 39.4023 72.4277 39.4023 74.5907V79.8629C39.4023 88.9473 43.8354 93.4895 52.7016 93.4895H63.6261C72.4923 93.4895 76.9254 88.9473 76.9254 79.8629V74.5907C76.9254 72.4277 76.2657 70.6703 74.9463 69.3185L72.1756 66.4796L74.9463 63.6407C76.2657 62.2889 76.9254 60.5315 76.9254 58.3685V51.1496C76.9254 42.0652 72.4923 37.523 63.6261 37.523H52.7016C43.8354 37.523 39.4023 42.0652 39.4023 51.1496ZM50.8017 50.5008C50.8017 48.8785 51.5934 48.0674 53.1766 48.0674H63.1511C64.7343 48.0674 65.526 48.8785 65.526 50.5008V58.6118C65.526 60.2341 64.7343 61.0452 63.1511 61.0452H53.1766C51.5934 61.0452 50.8017 60.2341 50.8017 58.6118V50.5008ZM50.8017 74.0229C50.8017 72.4007 51.5934 71.5896 53.1766 71.5896H63.1511C64.7343 71.5896 65.526 72.4007 65.526 74.0229V80.5118C65.526 82.134 64.7343 82.9451 63.1511 82.9451H53.1766C51.5934 82.9451 50.8017 82.134 50.8017 80.5118V74.0229Z" fill="#1D2F8C"/>
<defs>
<linearGradient id="paint0_linear_539_1291" x1="139.736" y1="23.1455" x2="34.3727" y2="121.6" gradientUnits="userSpaceOnUse">
<stop stop-color="#254BFF"/>
<stop offset="1" stop-color="#D9D9D9" stop-opacity="0"/>
</linearGradient>
<linearGradient id="paint1_linear_539_1291" x1="139.736" y1="23.1455" x2="34.3727" y2="121.6" gradientUnits="userSpaceOnUse">
<stop stop-color="#254BFF"/>
<stop offset="1" stop-color="#D9D9D9" stop-opacity="0"/>
</linearGradient>
</defs>
</svg>
