<svg width="168" height="239" viewBox="0 0 168 239" fill="none" xmlns="http://www.w3.org/2000/svg">
<circle cx="119.5" cy="119.5" r="119.5" transform="matrix(-1 0 0 1 239 0)" fill="url(#paint0_linear_539_113)"/>
<mask id="mask0_539_113" style="mask-type:alpha" maskUnits="userSpaceOnUse" x="0" y="0" width="239" height="239">
<circle cx="119.5" cy="119.5" r="119.5" transform="matrix(-1 0 0 1 239 0)" fill="url(#paint1_linear_539_113)"/>
</mask>
<g mask="url(#mask0_539_113)">
<g style="mix-blend-mode:overlay">
<path d="M168.508 11.2475C167.432 11.2475 166.421 10.3678 166.267 9.29011C166.092 8.21244 166.839 7.3327 167.915 7.3327C168.992 7.3327 170.002 8.21244 170.156 9.29011C170.332 10.3678 169.585 11.2475 168.508 11.2475Z" fill="#C2C2C2"/>
<path d="M153.875 11.2475C152.799 11.2475 151.788 10.3678 151.635 9.29011C151.459 8.21244 152.206 7.3327 153.282 7.3327C154.359 7.3327 155.369 8.21244 155.523 9.29011C155.699 10.3678 154.952 11.2475 153.875 11.2475Z" fill="#C2C2C2"/>
<path d="M139.245 11.2475C138.168 11.2475 137.158 10.3678 137.004 9.29011C136.828 8.21244 137.575 7.3327 138.651 7.3327C139.728 7.3327 140.739 8.21244 140.892 9.29011C141.068 10.3678 140.321 11.2475 139.245 11.2475Z" fill="#C2C2C2"/>
<path d="M124.59 11.2475C123.514 11.2475 122.503 10.3678 122.349 9.29011C122.174 8.21244 122.921 7.3327 123.997 7.3327C125.074 7.3327 126.084 8.21244 126.238 9.29011C126.414 10.3678 125.667 11.2475 124.59 11.2475Z" fill="#C2C2C2"/>
<path d="M109.938 11.1595C108.906 11.1595 107.939 10.3238 107.785 9.29012C107.631 8.25643 108.334 7.42068 109.367 7.42068C110.399 7.42068 111.366 8.25643 111.52 9.29012C111.674 10.3238 110.971 11.1595 109.938 11.1595Z" fill="#C2C2C2"/>
<path d="M95.2827 11.0715C94.2941 11.0715 93.3714 10.2798 93.2176 9.29009C93.0638 8.3004 93.7449 7.50864 94.7335 7.50864C95.7221 7.50864 96.6448 8.3004 96.7986 9.29009C96.9524 10.2798 96.2714 11.0715 95.2827 11.0715Z" fill="#C2C2C2"/>
<path d="M80.6293 10.9836C79.6846 10.9836 78.8058 10.2138 78.652 9.26808C78.4982 8.32237 79.1573 7.55261 80.102 7.55261C81.0467 7.55261 81.9255 8.32237 82.0793 9.26808C82.2331 10.2138 81.574 10.9836 80.6293 10.9836Z" fill="#C2C2C2"/>
<path d="M65.9765 10.8296C65.1197 10.8296 64.3288 10.1478 64.197 9.29011C64.0651 8.43237 64.6583 7.75058 65.4931 7.75058C66.328 7.75058 67.1408 8.43237 67.2727 9.29011C67.4045 10.1478 66.8113 10.8296 65.9765 10.8296Z" fill="#C2C2C2"/>
<path d="M51.3229 10.6977C50.532 10.6977 49.807 10.0599 49.6752 9.2681C49.5434 8.47634 50.0926 7.83853 50.8835 7.83853C51.6744 7.83853 52.3994 8.47634 52.5312 9.2681C52.663 10.0599 52.1138 10.6977 51.3229 10.6977Z" fill="#C2C2C2"/>
<path d="M36.6467 10.5437C35.9437 10.5437 35.3065 9.97188 35.1967 9.29009C35.0869 8.58631 35.5702 8.03647 36.2513 8.03647C36.9323 8.03647 37.5914 8.6083 37.7012 9.29009C37.8111 9.99388 37.3277 10.5437 36.6467 10.5437Z" fill="#C2C2C2"/>
<path d="M21.9933 10.3898C21.3782 10.3898 20.829 9.9059 20.7191 9.29009C20.6312 8.67428 21.0486 8.19043 21.6418 8.19043C22.235 8.19043 22.8062 8.67428 22.916 9.29009C23.0039 9.9059 22.5865 10.3898 21.9933 10.3898Z" fill="#C2C2C2"/>
<path d="M7.31885 10.1698C6.83552 10.1698 6.3742 9.77396 6.28632 9.26812C6.22041 8.78427 6.54994 8.36639 7.03327 8.36639C7.5166 8.36639 7.97796 8.76227 8.06584 9.26812C8.13174 9.75197 7.80218 10.1698 7.31885 10.1698Z" fill="#C2C2C2"/>
<path d="M163.521 26.2689C162.247 26.2689 161.038 25.2352 160.841 23.9596C160.643 22.684 161.522 21.6503 162.796 21.6503C164.07 21.6503 165.278 22.684 165.476 23.9596C165.674 25.2352 164.795 26.2689 163.521 26.2689Z" fill="#C2C2C2"/>
<path d="M148.888 26.2689C147.614 26.2689 146.405 25.2352 146.208 23.9596C146.01 22.684 146.889 21.6503 148.163 21.6503C149.437 21.6503 150.646 22.684 150.843 23.9596C151.041 25.2352 150.162 26.2689 148.888 26.2689Z" fill="#C2C2C2"/>
<path d="M134.236 26.2689C132.961 26.2689 131.753 25.2352 131.555 23.9596C131.358 22.684 132.236 21.6503 133.511 21.6503C134.785 21.6503 135.993 22.684 136.191 23.9596C136.389 25.2352 135.51 26.2689 134.236 26.2689Z" fill="#C2C2C2"/>
<path d="M119.603 26.2249C118.351 26.2249 117.165 25.2132 116.967 23.9596C116.769 22.706 117.626 21.6943 118.878 21.6943C120.131 21.6943 121.317 22.706 121.515 23.9596C121.712 25.2132 120.855 26.2249 119.603 26.2249Z" fill="#C2C2C2"/>
<path d="M104.95 26.137C103.741 26.137 102.599 25.1473 102.423 23.9376C102.226 22.728 103.06 21.7383 104.269 21.7383C105.477 21.7383 106.619 22.728 106.795 23.9376C106.993 25.1473 106.158 26.137 104.95 26.137Z" fill="#C2C2C2"/>
<path d="M90.2961 26.005C89.1537 26.005 88.0772 25.0813 87.9015 23.9376C87.7257 22.794 88.5166 21.8703 89.659 21.8703C90.8014 21.8703 91.8779 22.794 92.0537 23.9376C92.2294 25.0813 91.4385 26.005 90.2961 26.005Z" fill="#C2C2C2"/>
<path d="M75.6213 25.8511C74.5667 25.8511 73.5781 24.9933 73.4243 23.9377C73.2705 22.882 73.9735 22.0242 75.0281 22.0242C76.0826 22.0242 77.0712 22.882 77.225 23.9377C77.3788 24.9933 76.6758 25.8511 75.6213 25.8511Z" fill="#C2C2C2"/>
<path d="M60.9683 25.7191C59.9797 25.7191 59.057 24.9273 58.9032 23.9376C58.7494 22.9479 59.4305 22.1562 60.4191 22.1562C61.4077 22.1562 62.3304 22.9479 62.4842 23.9376C62.638 24.9273 61.9569 25.7191 60.9683 25.7191Z" fill="#C2C2C2"/>
<path d="M46.2919 25.5211C45.4132 25.5211 44.6003 24.8173 44.4685 23.9376C44.3367 23.0579 44.9298 22.3541 45.8086 22.3541C46.6874 22.3541 47.5003 23.0579 47.6321 23.9376C47.7639 24.8173 47.1707 25.5211 46.2919 25.5211Z" fill="#C2C2C2"/>
<path d="M31.6159 25.3672C30.825 25.3672 30.1 24.7294 29.9682 23.9377C29.8364 23.1459 30.3856 22.5081 31.1765 22.5081C31.9674 22.5081 32.6924 23.1459 32.8242 23.9377C32.956 24.7294 32.4068 25.3672 31.6159 25.3672Z" fill="#C2C2C2"/>
<path d="M16.963 25.1693C16.282 25.1693 15.6668 24.6194 15.5569 23.9596C15.4471 23.2778 15.9085 22.75 16.5895 22.75C17.2706 22.75 17.8857 23.2998 17.9955 23.9596C18.1054 24.6414 17.6441 25.1693 16.963 25.1693Z" fill="#C2C2C2"/>
<path d="M2.2872 24.9493C1.716 24.9493 1.2107 24.4875 1.12283 23.9376C1.03495 23.3658 1.4304 22.9259 1.97963 22.9259C2.52887 22.9259 3.05613 23.3878 3.14401 23.9376C3.23188 24.5095 2.83644 24.9493 2.2872 24.9493Z" fill="#C2C2C2"/>
<path d="M158.533 41.2903C157.061 41.2903 155.677 40.0807 155.436 38.6071C155.216 37.1336 156.227 35.924 157.699 35.924C159.17 35.924 160.555 37.1336 160.796 38.6071C161.016 40.0807 160.005 41.2903 158.533 41.2903Z" fill="#C2C2C2"/>
<path d="M143.902 41.2903C142.431 41.2903 141.046 40.0807 140.805 38.6071C140.585 37.1336 141.596 35.924 143.068 35.924C144.54 35.924 145.924 37.1336 146.165 38.6071C146.385 40.0807 145.374 41.2903 143.902 41.2903Z" fill="#C2C2C2"/>
<path d="M129.249 41.2463C127.799 41.2463 126.436 40.0587 126.195 38.6072C125.975 37.1556 126.964 35.968 128.414 35.968C129.864 35.968 131.226 37.1556 131.468 38.6072C131.687 40.0587 130.699 41.2463 129.249 41.2463Z" fill="#C2C2C2"/>
<path d="M114.595 41.1584C113.189 41.1584 111.849 40.0147 111.651 38.6072C111.432 37.1996 112.398 36.0559 113.804 36.0559C115.21 36.0559 116.55 37.1996 116.748 38.6072C116.968 40.0147 116.001 41.1584 114.595 41.1584Z" fill="#C2C2C2"/>
<path d="M99.9417 41.0704C98.5796 41.0704 97.2834 39.9707 97.0857 38.5851C96.866 37.2216 97.8107 36.0999 99.1728 36.0999C100.535 36.0999 101.831 37.1996 102.029 38.5851C102.248 39.9487 101.304 41.0704 99.9417 41.0704Z" fill="#C2C2C2"/>
<path d="M85.2884 40.9164C84.0142 40.9164 82.8059 39.8828 82.6081 38.6072C82.4104 37.3315 83.2892 36.2979 84.5634 36.2979C85.8377 36.2979 87.046 37.3315 87.2437 38.6072C87.4414 39.8828 86.5626 40.9164 85.2884 40.9164Z" fill="#C2C2C2"/>
<path d="M70.6116 40.7404C69.4253 40.7404 68.3048 39.7727 68.1291 38.5851C67.9533 37.3975 68.7662 36.4297 69.9525 36.4297C71.1389 36.4297 72.2593 37.3975 72.4351 38.5851C72.6109 39.7727 71.798 40.7404 70.6116 40.7404Z" fill="#C2C2C2"/>
<path d="M55.936 40.5425C54.8595 40.5425 53.8489 39.6628 53.6951 38.5851C53.5194 37.5075 54.2663 36.6277 55.3428 36.6277C56.4193 36.6277 57.4299 37.5075 57.5837 38.5851C57.7595 39.6628 57.0125 40.5425 55.936 40.5425Z" fill="#C2C2C2"/>
<path d="M41.2616 40.3446C40.295 40.3446 39.3942 39.5528 39.2405 38.6071C39.0867 37.6394 39.7458 36.8697 40.7124 36.8697C41.6791 36.8697 42.5798 37.6614 42.7336 38.6071C42.8874 39.5748 42.2283 40.3446 41.2616 40.3446Z" fill="#C2C2C2"/>
<path d="M26.6073 40.1467C25.7505 40.1467 24.9596 39.4649 24.8278 38.6071C24.696 37.7494 25.2892 37.0676 26.124 37.0676C26.9588 37.0676 27.7717 37.7494 27.9035 38.6071C28.0353 39.4649 27.4422 40.1467 26.6073 40.1467Z" fill="#C2C2C2"/>
<path d="M11.9309 39.9047C11.2059 39.9047 10.5468 39.3329 10.437 38.6072C10.3272 37.8814 10.8105 37.3095 11.5355 37.3095C12.2605 37.3095 12.9195 37.8814 13.0294 38.6072C13.1392 39.3329 12.6559 39.9047 11.9309 39.9047Z" fill="#C2C2C2"/>
<path d="M168.177 56.3117C166.486 56.3117 164.926 54.9481 164.662 53.2546C164.399 51.5612 165.563 50.1976 167.233 50.1976C168.902 50.1976 170.484 51.5612 170.748 53.2546C171.012 54.9481 169.847 56.3117 168.177 56.3117Z" fill="#C2C2C2"/>
<path d="M153.546 56.3337C151.832 56.3337 150.25 54.9481 149.987 53.2547C149.723 51.5392 150.887 50.1756 152.601 50.1756C154.315 50.1756 155.896 51.5612 156.16 53.2547C156.424 54.9701 155.259 56.3337 153.546 56.3337Z" fill="#C2C2C2"/>
<path d="M138.892 56.3117C137.201 56.3117 135.641 54.9481 135.377 53.2546C135.114 51.5612 136.278 50.1976 137.948 50.1976C139.617 50.1976 141.199 51.5612 141.463 53.2546C141.726 54.9481 140.562 56.3117 138.892 56.3117Z" fill="#C2C2C2"/>
<path d="M124.261 56.2677C122.592 56.2677 121.054 54.9261 120.79 53.2546C120.527 51.5831 121.669 50.2415 123.339 50.2415C125.008 50.2415 126.546 51.5831 126.81 53.2546C127.073 54.9261 125.931 56.2677 124.261 56.2677Z" fill="#C2C2C2"/>
<path d="M109.608 56.1358C108.026 56.1358 106.533 54.8382 106.269 53.2546C106.005 51.6711 107.104 50.3735 108.707 50.3735C110.311 50.3735 111.783 51.6711 112.047 53.2546C112.31 54.8382 111.212 56.1358 109.608 56.1358Z" fill="#C2C2C2"/>
<path d="M94.9316 55.9818C93.4376 55.9818 92.0316 54.7722 91.79 53.2546C91.5483 51.7591 92.5808 50.5275 94.0967 50.5275C95.6126 50.5275 96.9967 51.7371 97.2384 53.2546C97.48 54.7502 96.4475 55.9818 94.9316 55.9818Z" fill="#C2C2C2"/>
<path d="M80.2788 55.8059C78.8727 55.8059 77.5546 54.6622 77.3349 53.2546C77.1152 51.8471 78.0818 50.7034 79.4879 50.7034C80.8939 50.7034 82.234 51.8471 82.4318 53.2546C82.6515 54.6622 81.6848 55.8059 80.2788 55.8059Z" fill="#C2C2C2"/>
<path d="M65.6039 55.6079C64.3077 55.6079 63.0774 54.5522 62.8797 53.2546C62.682 51.957 63.5608 50.9014 64.8789 50.9014C66.1971 50.9014 67.4054 51.957 67.6031 53.2546C67.8008 54.5522 66.9221 55.6079 65.6039 55.6079Z" fill="#C2C2C2"/>
<path d="M50.9265 55.366C49.7621 55.366 48.6637 54.4203 48.4879 53.2547C48.3122 52.089 49.1031 51.1433 50.2674 51.1433C51.4318 51.1433 52.5303 52.089 52.706 53.2547C52.8818 54.4203 52.0909 55.366 50.9265 55.366Z" fill="#C2C2C2"/>
<path d="M36.2526 55.1241C35.22 55.1241 34.2533 54.2883 34.0995 53.2546C33.9458 52.221 34.6488 51.3852 35.6813 51.3852C36.7139 51.3852 37.6806 52.221 37.8344 53.2546C37.9882 54.2883 37.2851 55.1241 36.2526 55.1241Z" fill="#C2C2C2"/>
<path d="M21.5769 54.9262C20.6542 54.9262 19.7974 54.1784 19.6436 53.2547C19.4898 52.331 20.1269 51.5832 21.0496 51.5832C21.9723 51.5832 22.8292 52.331 22.9829 53.2547C23.1367 54.1784 22.4996 54.9262 21.5769 54.9262Z" fill="#C2C2C2"/>
<path d="M6.90106 54.6842C6.11016 54.6842 5.38517 54.0464 5.25336 53.2546C5.12154 52.4629 5.67075 51.8251 6.46165 51.8251C7.25255 51.8251 7.97754 52.4629 8.10935 53.2546C8.24117 54.0464 7.69196 54.6842 6.90106 54.6842Z" fill="#C2C2C2"/>
<path d="M163.213 71.3991C161.279 71.3991 159.478 69.8376 159.17 67.9022C158.863 65.9668 160.181 64.4052 162.114 64.4052C164.048 64.4052 165.849 65.9668 166.157 67.9022C166.464 69.8376 165.146 71.3991 163.213 71.3991Z" fill="#C2C2C2"/>
<path d="M148.56 71.3991C146.627 71.3991 144.826 69.8376 144.518 67.9022C144.21 65.9668 145.529 64.4052 147.462 64.4052C149.395 64.4052 151.197 65.9668 151.504 67.9022C151.812 69.8376 150.494 71.3991 148.56 71.3991Z" fill="#C2C2C2"/>
<path d="M133.906 71.3331C132.017 71.3331 130.259 69.8156 129.974 67.9241C129.688 66.0327 130.962 64.5152 132.852 64.5152C134.741 64.5152 136.499 66.0327 136.784 67.9241C137.07 69.8156 135.796 71.3331 133.906 71.3331Z" fill="#C2C2C2"/>
<path d="M119.253 71.2452C117.407 71.2452 115.694 69.7496 115.408 67.9022C115.123 66.0548 116.375 64.5592 118.22 64.5592C120.066 64.5592 121.779 66.0548 122.065 67.9022C122.35 69.7496 121.098 71.2452 119.253 71.2452Z" fill="#C2C2C2"/>
<path d="M104.598 71.0692C102.841 71.0692 101.215 69.6396 100.929 67.9022C100.666 66.1427 101.852 64.7351 103.61 64.7351C105.367 64.7351 106.993 66.1647 107.278 67.9022C107.564 69.6396 106.356 71.0692 104.598 71.0692Z" fill="#C2C2C2"/>
<path d="M89.9239 70.8713C88.2981 70.8713 86.7603 69.5517 86.4966 67.9022C86.233 66.2527 87.3534 64.9331 89.0011 64.9331C90.6488 64.9331 92.1647 66.2527 92.4284 67.9022C92.692 69.5297 91.5716 70.8713 89.9239 70.8713Z" fill="#C2C2C2"/>
<path d="M75.2481 70.6733C73.7322 70.6733 72.3042 69.4417 72.0625 67.9022C71.8208 66.3846 72.8754 65.131 74.3913 65.131C75.9072 65.131 77.3352 66.3626 77.5768 67.9022C77.8185 69.4197 76.764 70.6733 75.2481 70.6733Z" fill="#C2C2C2"/>
<path d="M60.5722 70.4314C59.1881 70.4314 57.87 69.3098 57.6722 67.9022C57.4526 66.5166 58.3972 65.373 59.8033 65.373C61.2093 65.373 62.5055 66.4946 62.7032 67.9022C62.9229 69.2878 61.9563 70.4314 60.5722 70.4314Z" fill="#C2C2C2"/>
<path d="M45.8967 70.1455C44.6664 70.1455 43.502 69.1558 43.3263 67.9022C43.1505 66.6486 43.9853 65.6588 45.2156 65.6588C46.4459 65.6588 47.6103 66.6486 47.7861 67.9022C47.9838 69.1338 47.127 70.1455 45.8967 70.1455Z" fill="#C2C2C2"/>
<path d="M31.2207 69.9036C30.1222 69.9036 29.0897 69.0018 28.9139 67.9022C28.7381 66.8025 29.4851 65.9008 30.5836 65.9008C31.6821 65.9008 32.7146 66.8025 32.8904 67.9022C33.0661 69.0018 32.3192 69.9036 31.2207 69.9036Z" fill="#C2C2C2"/>
<path d="M16.5448 69.6616C15.5782 69.6616 14.6775 68.8699 14.5237 67.9241C14.3699 66.9564 15.029 66.1867 15.9956 66.1867C16.9623 66.1867 17.863 66.9784 18.0168 67.9241C18.1706 68.8918 17.5115 69.6616 16.5448 69.6616Z" fill="#C2C2C2"/>
<path d="M1.84784 69.3757C1.03498 69.3757 0.288007 68.7159 0.156191 67.9022C0.0243742 67.0884 0.573604 66.4286 1.38647 66.4286C2.19934 66.4286 2.94631 67.0884 3.07813 67.9022C3.20994 68.7159 2.66071 69.3757 1.84784 69.3757Z" fill="#C2C2C2"/>
<path d="M158.227 86.4645C156.074 86.4645 154.053 84.727 153.723 82.5717C153.394 80.4163 154.866 78.6788 157.019 78.6788C159.172 78.6788 161.193 80.4163 161.522 82.5717C161.852 84.727 160.38 86.4645 158.227 86.4645Z" fill="#C2C2C2"/>
<path d="M143.573 86.4205C141.442 86.4205 139.443 84.683 139.113 82.5497C138.784 80.4163 140.234 78.6788 142.365 78.6788C144.496 78.6788 146.495 80.4163 146.824 82.5497C147.154 84.683 145.704 86.4205 143.573 86.4205Z" fill="#C2C2C2"/>
<path d="M128.919 86.3545C126.832 86.3545 124.877 84.661 124.548 82.5717C124.218 80.4823 125.646 78.7888 127.733 78.7888C129.82 78.7888 131.776 80.4823 132.105 82.5717C132.435 84.661 131.007 86.3545 128.919 86.3545Z" fill="#C2C2C2"/>
<path d="M114.264 86.1785C112.265 86.1785 110.398 84.551 110.09 82.5716C109.783 80.5703 111.145 78.9648 113.144 78.9648C115.143 78.9648 117.01 80.5923 117.318 82.5716C117.626 84.551 116.263 86.1785 114.264 86.1785Z" fill="#C2C2C2"/>
<path d="M99.5898 85.9806C97.7004 85.9806 95.9429 84.4631 95.6573 82.5717C95.3717 80.6803 96.6459 79.1627 98.5353 79.1627C100.425 79.1627 102.182 80.6803 102.468 82.5717C102.753 84.4631 101.479 85.9806 99.5898 85.9806Z" fill="#C2C2C2"/>
<path d="M84.914 85.7387C83.1564 85.7387 81.5307 84.3091 81.2451 82.5717C80.9814 80.8122 82.1678 79.4046 83.9253 79.4046C85.6829 79.4046 87.3086 80.8342 87.5942 82.5717C87.8579 84.3311 86.6715 85.7387 84.914 85.7387Z" fill="#C2C2C2"/>
<path d="M70.2385 85.4968C68.6348 85.4968 67.1189 84.1772 66.8552 82.5717C66.5916 80.9661 67.712 79.6465 69.3158 79.6465C70.9196 79.6465 72.4355 80.9661 72.6991 82.5717C72.9408 84.1772 71.8423 85.4968 70.2385 85.4968Z" fill="#C2C2C2"/>
<path d="M55.5403 85.2109C54.0903 85.2109 52.7282 84.0232 52.4865 82.5717C52.2449 81.1201 53.2555 79.9325 54.7054 79.9325C56.1554 79.9325 57.5175 81.1201 57.7592 82.5717C58.0008 84.0232 56.9903 85.2109 55.5403 85.2109Z" fill="#C2C2C2"/>
<path d="M40.8656 84.9249C39.5694 84.9249 38.3391 83.8693 38.1414 82.5717C37.9437 81.2741 38.8224 80.2184 40.1406 80.2184C41.4588 80.2184 42.6671 81.2741 42.8648 82.5717C43.0626 83.8693 42.1838 84.9249 40.8656 84.9249Z" fill="#C2C2C2"/>
<path d="M26.1906 84.639C25.0482 84.639 23.9717 83.7153 23.796 82.5717C23.6202 81.428 24.4111 80.5043 25.5535 80.5043C26.6959 80.5043 27.7725 81.428 27.9482 82.5717C28.124 83.7153 27.3331 84.639 26.1906 84.639Z" fill="#C2C2C2"/>
<path d="M11.4917 84.3531C10.5031 84.3531 9.58038 83.5614 9.4266 82.5717C9.27281 81.582 9.95387 80.7902 10.9425 80.7902C11.9311 80.7902 12.8538 81.582 13.0076 82.5717C13.1614 83.5614 12.4803 84.3531 11.4917 84.3531Z" fill="#C2C2C2"/>
<path d="M167.87 101.53C165.498 101.53 163.279 99.5945 162.905 97.2192C162.532 94.8439 164.158 92.9085 166.53 92.9085C168.903 92.9085 171.122 94.8439 171.495 97.2192C171.869 99.5945 170.243 101.53 167.87 101.53Z" fill="#C2C2C2"/>
<path d="M153.239 101.574C150.845 101.574 148.604 99.6165 148.23 97.2192C147.857 94.8219 149.504 92.8645 151.899 92.8645C154.294 92.8645 156.535 94.8219 156.908 97.2192C157.282 99.6165 155.634 101.574 153.239 101.574Z" fill="#C2C2C2"/>
<path d="M138.586 101.486C136.235 101.486 134.016 99.5725 133.665 97.2192C133.291 94.8659 134.917 92.9525 137.268 92.9525C139.618 92.9525 141.837 94.8659 142.189 97.2192C142.562 99.5725 140.936 101.486 138.586 101.486Z" fill="#C2C2C2"/>
<path d="M123.932 101.332C121.67 101.332 119.539 99.4845 119.187 97.2192C118.836 94.9539 120.395 93.1064 122.658 93.1064C124.921 93.1064 127.052 94.9539 127.404 97.2192C127.755 99.4845 126.195 101.332 123.932 101.332Z" fill="#C2C2C2"/>
<path d="M109.257 101.09C107.126 101.09 105.126 99.3526 104.797 97.2192C104.467 95.0859 105.917 93.3484 108.048 93.3484C110.179 93.3484 112.178 95.0859 112.508 97.2192C112.838 99.3526 111.388 101.09 109.257 101.09Z" fill="#C2C2C2"/>
<path d="M94.5807 100.826C92.5814 100.826 90.7141 99.1986 90.4065 97.2192C90.0989 95.2178 91.461 93.6123 93.4602 93.6123C95.4594 93.6123 97.3268 95.2398 97.6344 97.2192C97.942 99.2206 96.5799 100.826 94.5807 100.826Z" fill="#C2C2C2"/>
<path d="M79.8837 100.562C78.0382 100.562 76.3246 99.0666 76.039 97.2192C75.7534 95.3718 77.0057 93.8762 78.8511 93.8762C80.6965 93.8762 82.4102 95.3718 82.6958 97.2192C82.9814 99.0666 81.7291 100.562 79.8837 100.562Z" fill="#C2C2C2"/>
<path d="M65.2087 100.276C63.5171 100.276 61.9572 98.9127 61.6936 97.2192C61.43 95.5257 62.5944 94.1621 64.2641 94.1621C65.9337 94.1621 67.5155 95.5257 67.7791 97.2192C68.0428 98.9127 66.8784 100.276 65.2087 100.276Z" fill="#C2C2C2"/>
<path d="M50.5097 99.9463C49.0158 99.9463 47.6097 98.7367 47.3681 97.2192C47.1264 95.7236 48.159 94.492 49.6749 94.492C51.1908 94.492 52.5748 95.7016 52.8165 97.2192C53.0581 98.7147 52.0256 99.9463 50.5097 99.9463Z" fill="#C2C2C2"/>
<path d="M35.8344 99.6165C34.5163 99.6165 33.264 98.5388 33.0663 97.2192C32.8685 95.8996 33.7693 94.8219 35.0875 94.8219C36.4056 94.8219 37.6579 95.8996 37.8556 97.2192C38.0533 98.5388 37.1526 99.6165 35.8344 99.6165Z" fill="#C2C2C2"/>
<path d="M21.136 99.2866C19.9936 99.2866 18.9171 98.3628 18.7413 97.2192C18.5655 96.0755 19.3564 95.1518 20.4988 95.1518C21.6412 95.1518 22.7178 96.0755 22.8935 97.2192C23.0693 98.3628 22.2784 99.2866 21.136 99.2866Z" fill="#C2C2C2"/>
<path d="M6.43899 99.0007C5.45037 99.0007 4.52765 98.2089 4.37386 97.2192C4.22008 96.2295 4.90113 95.4377 5.88976 95.4377C6.87838 95.4377 7.8011 96.2295 7.95488 97.2192C8.10867 98.2089 7.42761 99.0007 6.43899 99.0007Z" fill="#C2C2C2"/>
<path d="M162.906 116.661C160.27 116.661 157.787 114.506 157.37 111.867C156.952 109.228 158.776 107.072 161.412 107.072C164.048 107.072 166.531 109.228 166.948 111.867C167.366 114.506 165.542 116.661 162.906 116.661Z" fill="#C2C2C2"/>
<path d="M148.252 116.639C145.637 116.639 143.177 114.506 142.759 111.889C142.342 109.272 144.143 107.138 146.78 107.138C149.416 107.138 151.855 109.272 152.272 111.889C152.689 114.506 150.888 116.639 148.252 116.639Z" fill="#C2C2C2"/>
<path d="M133.599 116.463C131.072 116.463 128.7 114.418 128.304 111.867C127.909 109.315 129.644 107.27 132.171 107.27C134.697 107.27 137.07 109.315 137.465 111.867C137.861 114.396 136.125 116.463 133.599 116.463Z" fill="#C2C2C2"/>
<path d="M118.923 116.221C116.528 116.221 114.287 114.264 113.914 111.867C113.54 109.469 115.188 107.512 117.583 107.512C119.977 107.512 122.218 109.469 122.592 111.867C122.965 114.264 121.317 116.221 118.923 116.221Z" fill="#C2C2C2"/>
<path d="M104.226 115.935C101.985 115.935 99.8759 114.11 99.5464 111.867C99.1949 109.623 100.733 107.798 102.974 107.798C105.214 107.798 107.324 109.623 107.653 111.867C108.005 114.11 106.467 115.935 104.226 115.935Z" fill="#C2C2C2"/>
<path d="M89.5504 115.65C87.4633 115.65 85.508 113.956 85.1784 111.867C84.8489 109.777 86.2769 108.084 88.364 108.084C90.4511 108.084 92.4064 109.777 92.7359 111.867C93.0655 113.956 91.6375 115.65 89.5504 115.65Z" fill="#C2C2C2"/>
<path d="M74.8516 115.298C72.9622 115.298 71.2047 113.78 70.9191 111.889C70.6335 109.997 71.9077 108.48 73.797 108.48C75.6864 108.48 77.444 109.997 77.7296 111.889C78.0152 113.78 76.7409 115.298 74.8516 115.298Z" fill="#C2C2C2"/>
<path d="M60.1551 114.968C58.4414 114.968 56.8597 113.582 56.596 111.889C56.3324 110.173 57.4968 108.81 59.2104 108.81C60.924 108.81 62.5058 110.195 62.7694 111.889C63.033 113.604 61.8687 114.968 60.1551 114.968Z" fill="#C2C2C2"/>
<path d="M45.4785 114.638C43.9627 114.638 42.5347 113.406 42.293 111.867C42.0513 110.349 43.1059 109.096 44.6217 109.096C46.1376 109.096 47.5656 110.327 47.8073 111.867C48.049 113.384 46.9944 114.638 45.4785 114.638Z" fill="#C2C2C2"/>
<path d="M30.7817 114.264C29.4635 114.264 28.2113 113.186 28.0136 111.867C27.8158 110.547 28.7166 109.469 30.0347 109.469C31.3529 109.469 32.6051 110.547 32.8029 111.867C33.0006 113.186 32.0998 114.264 30.7817 114.264Z" fill="#C2C2C2"/>
<path d="M16.0832 113.956C14.9408 113.956 13.8643 113.032 13.6886 111.889C13.5128 110.745 14.3037 109.821 15.4461 109.821C16.5885 109.821 17.665 110.745 17.8408 111.889C18.0165 113.032 17.2256 113.956 16.0832 113.956Z" fill="#C2C2C2"/>
<path d="M1.40777 113.67C0.419151 113.67 -0.503569 112.878 -0.657355 111.889C-0.811141 110.899 -0.130084 110.107 0.858539 110.107C1.84716 110.107 2.76985 110.899 2.92363 111.889C3.07742 112.878 2.3964 113.67 1.40777 113.67Z" fill="#C2C2C2"/>
<path d="M172.572 131.771C169.672 131.771 166.97 129.417 166.53 126.536C166.091 123.633 168.068 121.302 170.946 121.302C173.824 121.302 176.548 123.655 176.988 126.536C177.427 129.439 175.45 131.771 172.572 131.771Z" fill="#C2C2C2"/>
<path d="M157.941 131.771C155.041 131.771 152.339 129.417 151.899 126.536C151.46 123.633 153.437 121.302 156.315 121.302C159.193 121.302 161.917 123.655 162.357 126.536C162.796 129.439 160.819 131.771 157.941 131.771Z" fill="#C2C2C2"/>
<path d="M143.265 131.617C140.453 131.617 137.839 129.351 137.399 126.536C136.96 123.721 138.893 121.456 141.683 121.456C144.473 121.456 147.11 123.721 147.549 126.536C147.988 129.351 146.055 131.617 143.265 131.617Z" fill="#C2C2C2"/>
<path d="M128.589 131.375C125.93 131.375 123.426 129.219 123.008 126.536C122.591 123.875 124.414 121.698 127.095 121.698C129.775 121.698 132.257 123.853 132.675 126.536C133.092 129.197 131.269 131.375 128.589 131.375Z" fill="#C2C2C2"/>
<path d="M113.914 131.089C111.409 131.089 109.058 129.043 108.663 126.536C108.267 124.029 110.003 121.984 112.508 121.984C115.012 121.984 117.363 124.029 117.758 126.536C118.154 129.043 116.418 131.089 113.914 131.089Z" fill="#C2C2C2"/>
<path d="M99.2168 130.715C96.91 130.715 94.735 128.845 94.3835 126.536C94.032 124.227 95.6138 122.357 97.9206 122.357C100.227 122.357 102.402 124.227 102.754 126.536C103.105 128.845 101.524 130.715 99.2168 130.715Z" fill="#C2C2C2"/>
<path d="M84.5187 130.341C82.4097 130.341 80.4324 128.626 80.1029 126.514C79.7733 124.403 81.2233 122.687 83.3324 122.687C85.4414 122.687 87.4187 124.403 87.7482 126.514C88.0778 128.626 86.6278 130.341 84.5187 130.341Z" fill="#C2C2C2"/>
<path d="M69.8219 129.989C67.9105 129.989 66.131 128.45 65.8454 126.536C65.5598 124.623 66.856 123.083 68.7673 123.083C70.6786 123.083 72.4582 124.623 72.7438 126.536C73.0294 128.45 71.7332 129.989 69.8219 129.989Z" fill="#C2C2C2"/>
<path d="M55.1238 129.615C53.4102 129.615 51.8284 128.23 51.5648 126.536C51.3011 124.843 52.4655 123.457 54.1791 123.457C55.8927 123.457 57.4745 124.843 57.7382 126.536C58.0018 128.252 56.8374 129.615 55.1238 129.615Z" fill="#C2C2C2"/>
<path d="M40.4257 129.263C38.9318 129.263 37.5258 128.054 37.2841 126.536C37.0424 125.041 38.075 123.809 39.5909 123.809C41.1067 123.809 42.4908 125.019 42.7325 126.536C42.9742 128.032 41.9416 129.263 40.4257 129.263Z" fill="#C2C2C2"/>
<path d="M25.7289 128.889C24.4327 128.889 23.2024 127.834 23.0047 126.536C22.807 125.239 23.6857 124.183 25.0039 124.183C26.3221 124.183 27.5304 125.239 27.7281 126.536C27.9258 127.834 27.047 128.889 25.7289 128.889Z" fill="#C2C2C2"/>
<path d="M11.0309 128.56C9.91046 128.56 8.85594 127.658 8.68019 126.536C8.50443 125.415 9.27336 124.513 10.3938 124.513C11.5142 124.513 12.5688 125.415 12.7445 126.536C12.9203 127.658 12.1513 128.56 11.0309 128.56Z" fill="#C2C2C2"/>
<path d="M167.607 146.924C164.443 146.924 161.477 144.351 160.994 141.184C160.511 138.017 162.664 135.444 165.827 135.444C168.991 135.444 171.957 138.017 172.44 141.184C172.923 144.351 170.77 146.924 167.607 146.924Z" fill="#C2C2C2"/>
<path d="M148.552 144.989C146.094 142.712 145.678 139.161 147.623 137.057C149.567 134.953 153.137 135.093 155.594 137.37C158.052 139.647 158.468 143.198 156.523 145.302C154.579 147.406 151.01 147.266 148.552 144.989Z" fill="#C2C2C2"/>
<path d="M138.256 146.55C135.291 146.55 132.522 144.153 132.061 141.184C131.6 138.215 133.621 135.817 136.587 135.817C139.553 135.817 142.321 138.215 142.782 141.184C143.243 144.153 141.222 146.55 138.256 146.55Z" fill="#C2C2C2"/>
<path d="M123.558 146.176C120.789 146.176 118.219 143.933 117.78 141.184C117.362 138.413 119.23 136.191 121.998 136.191C124.766 136.191 127.336 138.435 127.776 141.184C128.193 143.955 126.326 146.176 123.558 146.176Z" fill="#C2C2C2"/>
<path d="M108.86 145.78C106.334 145.78 103.961 143.735 103.566 141.184C103.17 138.655 104.906 136.587 107.432 136.587C109.959 136.587 112.332 138.633 112.727 141.184C113.122 143.713 111.387 145.78 108.86 145.78Z" fill="#C2C2C2"/>
<path d="M94.1636 145.406C91.8348 145.406 89.6379 143.515 89.2864 141.184C88.9349 138.852 90.5167 136.961 92.8454 136.961C95.1742 136.961 97.3711 138.852 97.7226 141.184C98.0741 143.515 96.4923 145.406 94.1636 145.406Z" fill="#C2C2C2"/>
<path d="M79.466 145.011C77.3569 145.011 75.3797 143.295 75.0501 141.184C74.7206 139.072 76.1706 137.357 78.2796 137.357C80.3887 137.357 82.3659 139.072 82.6955 141.184C83.025 143.295 81.575 145.011 79.466 145.011Z" fill="#C2C2C2"/>
<path d="M64.7676 144.593C62.8782 144.593 61.1206 143.075 60.835 141.184C60.5494 139.292 61.8237 137.775 63.7131 137.775C65.6024 137.775 67.36 139.292 67.6456 141.184C67.9312 143.075 66.657 144.593 64.7676 144.593Z" fill="#C2C2C2"/>
<path d="M50.0485 144.197C48.3788 144.197 46.841 142.855 46.5773 141.184C46.3137 139.512 47.4561 138.171 49.1258 138.171C50.7955 138.171 52.3333 139.512 52.5969 141.184C52.8605 142.855 51.7182 144.197 50.0704 144.197L50.0485 144.197Z" fill="#C2C2C2"/>
<path d="M35.3502 143.823C33.9002 143.823 32.5381 142.635 32.2964 141.184C32.0767 139.732 33.0653 138.545 34.5153 138.545C35.9653 138.545 37.3274 139.732 37.5691 141.184C37.7888 142.635 36.8001 143.823 35.3502 143.823Z" fill="#C2C2C2"/>
<path d="M20.6755 143.471C19.4232 143.471 18.2369 142.459 18.0392 141.206C17.8415 139.952 18.6983 138.94 19.9505 138.94C21.2028 138.94 22.3891 139.952 22.5869 141.206C22.7846 142.459 21.9278 143.471 20.6755 143.471Z" fill="#C2C2C2"/>
<path d="M5.97704 143.141C4.90054 143.141 3.88994 142.261 3.73615 141.184C3.5604 140.106 4.30736 139.226 5.38386 139.226C6.46036 139.226 7.47096 140.106 7.62475 141.184C7.8005 142.261 7.05354 143.141 5.97704 143.141Z" fill="#C2C2C2"/>
<path d="M162.619 162.011C159.214 162.011 156.028 159.24 155.501 155.831C154.974 152.422 157.303 149.651 160.708 149.651C164.113 149.651 167.299 152.422 167.826 155.831C168.353 159.24 166.024 162.011 162.619 162.011Z" fill="#C2C2C2"/>
<path d="M147.923 161.703C144.693 161.703 141.661 159.086 141.178 155.853C140.673 152.62 142.892 150.003 146.121 150.003C149.351 150.003 152.382 152.62 152.866 155.853C153.371 159.086 151.152 161.703 147.923 161.703Z" fill="#C2C2C2"/>
<path d="M133.224 161.286C130.214 161.286 127.402 158.844 126.941 155.831C126.48 152.818 128.523 150.377 131.533 150.377C134.542 150.377 137.355 152.818 137.816 155.831C138.277 158.844 136.234 161.286 133.224 161.286Z" fill="#C2C2C2"/>
<path d="M118.526 160.846C115.758 160.846 113.188 158.602 112.748 155.853C112.331 153.082 114.198 150.861 116.966 150.861C119.735 150.861 122.305 153.104 122.744 155.853C123.162 158.624 121.294 160.846 118.526 160.846Z" fill="#C2C2C2"/>
<path d="M103.808 160.384C101.304 160.384 98.9529 158.338 98.5575 155.831C98.162 153.324 99.8976 151.279 102.402 151.279C104.907 151.279 107.257 153.324 107.653 155.831C108.048 158.338 106.313 160.384 103.808 160.384Z" fill="#C2C2C2"/>
<path d="M89.1102 159.944C86.8474 159.944 84.7163 158.097 84.3648 155.831C84.0133 153.566 85.5731 151.719 87.836 151.719C90.0988 151.719 92.2299 153.566 92.5814 155.831C92.9329 158.097 91.3731 159.944 89.1102 159.944Z" fill="#C2C2C2"/>
<path d="M74.3903 159.548C72.3472 159.548 70.4358 157.899 70.1283 155.853C69.8207 153.808 71.2048 152.158 73.2479 152.158C75.2911 152.158 77.2024 153.808 77.51 155.853C77.8176 157.899 76.4335 159.548 74.3903 159.548Z" fill="#C2C2C2"/>
<path d="M59.6932 159.13C57.8698 159.13 56.1781 157.657 55.8925 155.831C55.6069 154.006 56.8592 152.532 58.6606 152.532C60.4621 152.532 62.1757 154.006 62.4613 155.831C62.7469 157.657 61.4947 159.13 59.6932 159.13Z" fill="#C2C2C2"/>
<path d="M44.9963 158.778C43.3926 158.778 41.8767 157.459 41.613 155.853C41.3714 154.248 42.4699 152.928 44.0736 152.928C45.6774 152.928 47.1933 154.248 47.4569 155.853C47.6986 157.459 46.6001 158.778 44.9963 158.778Z" fill="#C2C2C2"/>
<path d="M30.2982 158.36C28.9141 158.36 27.596 157.239 27.3983 155.831C27.1786 154.446 28.1452 153.302 29.5293 153.302C30.9133 153.302 32.2315 154.424 32.4292 155.831C32.6489 157.217 31.7042 158.36 30.2982 158.36Z" fill="#C2C2C2"/>
<path d="M15.5999 157.987C14.4136 157.987 13.2932 157.019 13.1174 155.831C12.9416 154.644 13.7545 153.676 14.9408 153.676C16.1272 153.676 17.2476 154.644 17.4234 155.831C17.5991 157.019 16.7863 157.987 15.5999 157.987Z" fill="#C2C2C2"/>
<path d="M0.903348 157.679C-0.107245 157.679 -1.05191 156.865 -1.2057 155.853C-1.35948 154.842 -0.678437 154.028 0.332155 154.028C1.34275 154.028 2.28745 154.842 2.44123 155.853C2.59502 156.865 1.91394 157.679 0.903348 157.679Z" fill="#C2C2C2"/>
<path d="M172.265 177.033C168.662 177.033 165.279 174.108 164.708 170.479C164.137 166.872 166.619 163.925 170.222 163.925C173.825 163.925 177.208 166.85 177.78 170.479C178.351 174.086 175.868 177.033 172.265 177.033Z" fill="#C2C2C2"/>
<path d="M157.589 176.747C154.14 176.747 150.91 173.954 150.361 170.479C149.834 167.026 152.185 164.211 155.634 164.211C159.083 164.211 162.312 167.004 162.862 170.479C163.389 173.932 161.038 176.747 157.589 176.747Z" fill="#C2C2C2"/>
<path d="M142.87 176.263C139.684 176.263 136.697 173.69 136.213 170.501C135.708 167.312 137.905 164.738 141.091 164.738C144.276 164.738 147.264 167.312 147.747 170.501C148.231 173.69 146.056 176.263 142.87 176.263Z" fill="#C2C2C2"/>
<path d="M128.15 175.779C125.228 175.779 122.504 173.404 122.042 170.501C121.581 167.598 123.58 165.222 126.502 165.222C129.424 165.222 132.148 167.598 132.61 170.501C133.071 173.404 131.072 175.779 128.15 175.779Z" fill="#C2C2C2"/>
<path d="M113.452 175.339C110.794 175.339 108.289 173.184 107.872 170.501C107.454 167.84 109.278 165.662 111.958 165.662C114.638 165.662 117.121 167.818 117.538 170.501C117.956 173.162 116.132 175.339 113.452 175.339Z" fill="#C2C2C2"/>
<path d="M98.7324 174.877C96.3158 174.877 94.053 172.92 93.6575 170.479C93.284 168.059 94.9317 166.08 97.3703 166.08C99.809 166.08 102.05 168.037 102.445 170.479C102.819 172.898 101.171 174.877 98.7324 174.877Z" fill="#C2C2C2"/>
<path d="M84.035 174.438C81.86 174.438 79.8168 172.678 79.4873 170.501C79.1578 168.323 80.6297 166.564 82.8047 166.564C84.9796 166.564 87.0228 168.323 87.3523 170.501C87.6819 172.678 86.21 174.438 84.035 174.438Z" fill="#C2C2C2"/>
<path d="M69.3159 174.042C67.3606 174.042 65.5371 172.458 65.2296 170.501C64.922 168.543 66.2621 166.96 68.2174 166.96C70.1727 166.96 71.9961 168.543 72.3037 170.501C72.6113 172.458 71.2712 174.042 69.3159 174.042Z" fill="#C2C2C2"/>
<path d="M54.618 173.624C52.8824 173.624 51.2787 172.216 51.015 170.501C50.7514 168.763 51.9377 167.378 53.6514 167.378C55.365 167.378 56.9907 168.785 57.2543 170.501C57.518 172.216 56.3316 173.624 54.618 173.624Z" fill="#C2C2C2"/>
<path d="M39.9198 173.228C38.4259 173.228 37.0199 172.018 36.7782 170.501C36.5365 169.005 37.5691 167.774 39.085 167.774C40.6009 167.774 41.985 168.983 42.2266 170.501C42.4683 171.996 41.4357 173.228 39.9198 173.228Z" fill="#C2C2C2"/>
<path d="M25.223 172.854C23.9268 172.854 22.6965 171.798 22.4988 170.501C22.3011 169.203 23.1799 168.147 24.498 168.147C25.8162 168.147 27.0245 169.203 27.2222 170.501C27.42 171.798 26.5412 172.854 25.223 172.854Z" fill="#C2C2C2"/>
<path d="M10.525 172.524C9.4046 172.524 8.35008 171.622 8.17433 170.501C7.99857 169.379 8.7675 168.477 9.88794 168.477C11.0084 168.477 12.0629 169.379 12.2386 170.501C12.4144 171.622 11.6455 172.524 10.525 172.524Z" fill="#C2C2C2"/>
<path d="M167.168 191.372C163.74 191.372 160.533 188.579 159.984 185.148C159.456 181.717 161.807 178.924 165.234 178.924C168.662 178.924 171.869 181.717 172.418 185.148C172.946 188.579 170.595 191.372 167.168 191.372Z" fill="#C2C2C2"/>
<path d="M152.492 191.042C149.241 191.042 146.187 188.403 145.682 185.148C145.177 181.893 147.396 179.254 150.647 179.254C153.899 179.254 156.952 181.893 157.458 185.148C157.963 188.403 155.744 191.042 152.492 191.042Z" fill="#C2C2C2"/>
<path d="M137.773 190.603C134.763 190.603 131.951 188.161 131.49 185.148C131.028 182.135 133.072 179.694 136.081 179.694C139.091 179.694 141.903 182.135 142.365 185.148C142.826 188.161 140.783 190.603 137.773 190.603Z" fill="#C2C2C2"/>
<path d="M123.075 190.163C120.307 190.163 117.737 187.919 117.297 185.17C116.88 182.399 118.747 180.178 121.515 180.178C124.283 180.178 126.854 182.421 127.293 185.17C127.711 187.941 125.843 190.163 123.075 190.163Z" fill="#C2C2C2"/>
<path d="M108.355 189.701C105.851 189.701 103.5 187.656 103.104 185.148C102.709 182.641 104.444 180.596 106.949 180.596C109.454 180.596 111.804 182.641 112.2 185.148C112.595 187.656 110.86 189.701 108.355 189.701Z" fill="#C2C2C2"/>
<path d="M93.6586 189.305C91.3737 189.305 89.2208 187.458 88.8693 185.17C88.5177 182.883 90.0776 181.036 92.3624 181.036C94.6472 181.036 96.8002 182.883 97.1517 185.17C97.5032 187.458 95.9434 189.305 93.6586 189.305Z" fill="#C2C2C2"/>
<path d="M78.9392 188.843C76.896 188.843 74.9847 187.194 74.6771 185.148C74.3695 183.103 75.7536 181.453 77.7967 181.453C79.8399 181.453 81.7512 183.103 82.0588 185.148C82.3664 187.194 80.9823 188.843 78.9392 188.843Z" fill="#C2C2C2"/>
<path d="M64.242 188.447C62.4185 188.447 60.7269 186.974 60.4413 185.148C60.1557 183.323 61.408 181.849 63.2094 181.849C65.0109 181.849 66.7246 183.323 67.0102 185.148C67.2958 186.974 66.0435 188.447 64.242 188.447Z" fill="#C2C2C2"/>
<path d="M49.5439 188.073C47.9401 188.073 46.4243 186.754 46.1606 185.148C45.897 183.543 47.0174 182.223 48.6212 182.223C50.225 182.223 51.7409 183.543 52.0045 185.148C52.2681 186.754 51.1477 188.073 49.5439 188.073Z" fill="#C2C2C2"/>
<path d="M34.8471 187.678C33.463 187.678 32.1448 186.556 31.9471 185.148C31.7274 183.763 32.6721 182.619 34.0781 182.619C35.4842 182.619 36.7803 183.741 36.9781 185.148C37.1978 186.534 36.2531 187.678 34.8471 187.678Z" fill="#C2C2C2"/>
<path d="M20.1487 187.304C18.9624 187.304 17.8419 186.336 17.6662 185.148C17.4904 183.961 18.3033 182.993 19.4897 182.993C20.676 182.993 21.7965 183.961 21.9722 185.148C22.148 186.336 21.3351 187.304 20.1487 187.304Z" fill="#C2C2C2"/>
<path d="M5.45026 186.974C4.43966 186.974 3.49496 186.16 3.34118 185.148C3.18739 184.137 3.86847 183.323 4.87906 183.323C5.88966 183.323 6.83432 184.137 6.98811 185.148C7.14189 186.16 6.46085 186.974 5.45026 186.974Z" fill="#C2C2C2"/>
<path d="M162.049 205.448C158.929 205.448 156.007 202.919 155.524 199.796C155.041 196.673 157.172 194.143 160.291 194.143C163.411 194.143 166.333 196.673 166.816 199.796C167.3 202.919 165.169 205.448 162.049 205.448Z" fill="#C2C2C2"/>
<path d="M147.352 205.206C144.364 205.206 141.574 202.787 141.112 199.796C140.651 196.805 142.694 194.385 145.682 194.385C148.67 194.385 151.46 196.805 151.921 199.796C152.383 202.787 150.34 205.206 147.352 205.206Z" fill="#C2C2C2"/>
<path d="M128.715 203.249C126.507 201.203 126.133 198.012 127.88 196.122C129.627 194.232 132.834 194.358 135.042 196.404C137.251 198.45 137.625 201.641 135.878 203.531C134.131 205.421 130.924 205.294 128.715 203.249Z" fill="#C2C2C2"/>
<path d="M117.956 204.436C115.407 204.436 113.013 202.369 112.617 199.796C112.222 197.245 113.979 195.155 116.528 195.155C119.076 195.155 121.471 197.223 121.866 199.796C122.262 202.347 120.504 204.436 117.956 204.436Z" fill="#C2C2C2"/>
<path d="M99.9278 202.692C98.0754 200.976 97.7629 198.298 99.2298 196.712C100.697 195.125 103.387 195.229 105.24 196.945C107.092 198.661 107.405 201.339 105.938 202.926C104.471 204.513 101.78 204.408 99.9278 202.692Z" fill="#C2C2C2"/>
<path d="M88.5617 203.623C86.4526 203.623 84.4754 201.907 84.1458 199.796C83.8163 197.685 85.2663 195.969 87.3753 195.969C89.4844 195.969 91.4616 197.685 91.7912 199.796C92.1207 201.907 90.6707 203.623 88.5617 203.623Z" fill="#C2C2C2"/>
<path d="M73.8633 203.227C71.9739 203.227 70.2163 201.709 69.9307 199.818C69.6451 197.926 70.9194 196.409 72.8088 196.409C74.6981 196.409 76.4557 197.926 76.7413 199.818C77.0269 201.709 75.7527 203.227 73.8633 203.227Z" fill="#C2C2C2"/>
<path d="M59.1658 202.853C57.4741 202.853 55.9143 201.489 55.6506 199.796C55.387 198.102 56.5514 196.739 58.2211 196.739C59.8908 196.739 61.4725 198.102 61.7362 199.796C61.9998 201.489 60.8354 202.853 59.1658 202.853Z" fill="#C2C2C2"/>
<path d="M44.4465 202.457C42.9965 202.457 41.6344 201.269 41.3928 199.818C41.1511 198.366 42.1617 197.179 43.6117 197.179C45.0617 197.179 46.4238 198.366 46.6654 199.818C46.9071 201.269 45.8965 202.457 44.4465 202.457Z" fill="#C2C2C2"/>
<path d="M29.7708 202.127C28.4966 202.127 27.2883 201.093 27.0906 199.818C26.8928 198.542 27.7717 197.508 29.0459 197.508C30.3201 197.508 31.5284 198.542 31.7261 199.818C31.9238 201.093 31.0451 202.127 29.7708 202.127Z" fill="#C2C2C2"/>
<path d="M15.0727 201.753C13.9962 201.753 12.9856 200.873 12.8319 199.796C12.6561 198.718 13.4031 197.838 14.4796 197.838C15.5561 197.838 16.5667 198.718 16.7204 199.796C16.8962 200.873 16.1492 201.753 15.0727 201.753Z" fill="#C2C2C2"/>
<path d="M0.375974 201.445C-0.524772 201.445 -1.35962 200.72 -1.49144 199.818C-1.62326 198.916 -1.00812 198.19 -0.129347 198.19C0.749429 198.19 1.60625 198.916 1.73807 199.818C1.86988 200.72 1.25475 201.445 0.375974 201.445Z" fill="#C2C2C2"/>
<path d="M171.583 219.744C168.661 219.744 165.937 217.368 165.476 214.465C165.015 211.562 167.014 209.187 169.936 209.187C172.858 209.187 175.582 211.562 176.043 214.465C176.505 217.368 174.505 219.744 171.583 219.744Z" fill="#C2C2C2"/>
<path d="M156.909 219.59C154.075 219.59 151.438 217.302 150.999 214.465C150.559 211.628 152.493 209.341 155.327 209.341C158.161 209.341 160.797 211.628 161.237 214.465C161.676 217.302 159.743 219.59 156.909 219.59Z" fill="#C2C2C2"/>
<path d="M142.233 219.348C139.553 219.348 137.026 217.171 136.609 214.465C136.192 211.782 138.037 209.583 140.717 209.583C143.398 209.583 145.924 211.76 146.341 214.465C146.759 217.149 144.913 219.348 142.233 219.348Z" fill="#C2C2C2"/>
<path d="M127.535 219.018C125.03 219.018 122.679 216.973 122.284 214.465C121.889 211.958 123.624 209.913 126.129 209.913C128.633 209.913 130.984 211.958 131.379 214.465C131.775 216.973 130.039 219.018 127.535 219.018Z" fill="#C2C2C2"/>
<path d="M112.859 218.688C110.53 218.688 108.333 216.797 107.982 214.465C107.63 212.134 109.212 210.243 111.541 210.243C113.869 210.243 116.066 212.134 116.418 214.465C116.769 216.797 115.188 218.688 112.859 218.688Z" fill="#C2C2C2"/>
<path d="M98.1608 218.336C96.0298 218.336 94.0306 216.599 93.7011 214.465C93.3715 212.332 94.8215 210.594 96.9525 210.594C99.0835 210.594 101.083 212.332 101.412 214.465C101.742 216.599 100.292 218.336 98.1608 218.336Z" fill="#C2C2C2"/>
<path d="M83.4644 217.918C81.5531 217.918 79.7736 216.379 79.488 214.465C79.2024 212.552 80.4986 211.012 82.4099 211.012C84.3212 211.012 86.1008 212.552 86.3864 214.465C86.672 216.379 85.3758 217.918 83.4644 217.918Z" fill="#C2C2C2"/>
<path d="M68.7664 217.544C67.0528 217.544 65.471 216.159 65.2073 214.465C64.9437 212.772 66.1081 211.386 67.8217 211.386C69.5353 211.386 71.1171 212.772 71.3807 214.465C71.6444 216.181 70.48 217.544 68.7664 217.544Z" fill="#C2C2C2"/>
<path d="M54.0683 217.193C52.5744 217.193 51.1683 215.983 50.9267 214.465C50.685 212.97 51.7176 211.738 53.2335 211.738C54.7494 211.738 56.1334 212.948 56.3751 214.465C56.6167 215.961 55.5842 217.193 54.0683 217.193Z" fill="#C2C2C2"/>
<path d="M37.4933 216.087C36.4425 215.114 36.2653 213.595 37.0977 212.694C37.93 211.794 39.4566 211.853 40.5074 212.827C41.5583 213.8 41.7354 215.319 40.9031 216.22C40.0708 217.12 38.5442 217.061 37.4933 216.087Z" fill="#C2C2C2"/>
<path d="M24.6735 216.489C23.553 216.489 22.4985 215.587 22.3227 214.465C22.147 213.344 22.9159 212.442 24.0363 212.442C25.1568 212.442 26.2113 213.344 26.3871 214.465C26.5628 215.587 25.7939 216.489 24.6735 216.489Z" fill="#C2C2C2"/>
<path d="M9.97694 216.181C9.03226 216.181 8.15349 215.411 7.99971 214.465C7.84592 213.52 8.50498 212.75 9.44966 212.75C10.3943 212.75 11.2731 213.52 11.4269 214.465C11.5807 215.411 10.9216 216.181 9.97694 216.181Z" fill="#C2C2C2"/>
<path d="M166.464 233.907C163.828 233.907 161.346 231.752 160.928 229.113C160.511 226.474 162.334 224.318 164.971 224.318C167.607 224.318 170.089 226.474 170.507 229.113C170.924 231.752 169.101 233.907 166.464 233.907Z" fill="#C2C2C2"/>
<path d="M151.79 233.753C149.241 233.753 146.847 231.686 146.451 229.113C146.056 226.562 147.813 224.472 150.362 224.472C152.91 224.472 155.305 226.54 155.7 229.113C156.096 231.664 154.338 233.753 151.79 233.753Z" fill="#C2C2C2"/>
<path d="M137.113 233.511C134.697 233.511 132.434 231.554 132.038 229.113C131.665 226.694 133.313 224.714 135.751 224.714C138.19 224.714 140.431 226.672 140.826 229.113C141.2 231.532 139.552 233.511 137.113 233.511Z" fill="#C2C2C2"/>
<path d="M122.438 233.226C120.175 233.226 118.044 231.378 117.693 229.113C117.341 226.848 118.901 225 121.164 225C123.427 225 125.558 226.848 125.91 229.113C126.261 231.378 124.701 233.226 122.438 233.226Z" fill="#C2C2C2"/>
<path d="M107.74 232.896C105.653 232.896 103.697 231.202 103.368 229.113C103.038 227.023 104.466 225.33 106.553 225.33C108.641 225.33 110.596 227.023 110.925 229.113C111.255 231.202 109.827 232.896 107.74 232.896Z" fill="#C2C2C2"/>
<path d="M93.0426 232.566C91.1312 232.566 89.3517 231.026 89.0661 229.113C88.7805 227.199 90.0767 225.66 91.988 225.66C93.8994 225.66 95.6789 227.199 95.9645 229.113C96.2501 231.026 94.9539 232.566 93.0426 232.566Z" fill="#C2C2C2"/>
<path d="M78.3445 232.214C76.6309 232.214 75.0491 230.828 74.7855 229.135C74.5218 227.441 75.6862 226.056 77.3998 226.056C79.1134 226.056 80.6952 227.441 80.9589 229.135C81.2225 230.85 80.0581 232.214 78.3445 232.214Z" fill="#C2C2C2"/>
<path d="M63.67 231.884C62.1541 231.884 60.7261 230.652 60.4844 229.113C60.2427 227.595 61.2973 226.342 62.8131 226.342C64.329 226.342 65.757 227.573 65.9987 229.113C66.2404 230.63 65.1858 231.884 63.67 231.884Z" fill="#C2C2C2"/>
<path d="M48.9728 231.554C47.6327 231.554 46.3585 230.454 46.1608 229.113C45.963 227.771 46.8638 226.672 48.2259 226.672C49.588 226.672 50.8402 227.771 51.038 229.113C51.2577 230.454 50.3349 231.554 48.9728 231.554Z" fill="#C2C2C2"/>
<path d="M34.2742 231.224C33.1098 231.224 32.0113 230.279 31.8356 229.113C31.6598 227.947 32.4507 227.002 33.6151 227.002C34.7795 227.002 35.8779 227.947 36.0537 229.113C36.2294 230.279 35.4386 231.224 34.2742 231.224Z" fill="#C2C2C2"/>
<path d="M19.5991 230.916C18.6105 230.916 17.6878 230.125 17.534 229.135C17.3802 228.145 18.0613 227.353 19.0499 227.353C20.0385 227.353 20.9613 228.145 21.115 229.135C21.2688 230.125 20.5878 230.916 19.5991 230.916Z" fill="#C2C2C2"/>
<path d="M4.90058 230.586C4.08771 230.586 3.34074 229.927 3.20893 229.113C3.07711 228.299 3.62634 227.639 4.43921 227.639C5.25207 227.639 5.99904 228.299 6.13086 229.113C6.26268 229.927 5.71345 230.586 4.90058 230.586Z" fill="#C2C2C2"/>
</g>
</g>
<path d="M119 118.574V107.223C119 103.822 117.963 101.059 115.888 98.9333L111.532 94.4696L115.888 90.0058C117.963 87.8802 119 85.1169 119 81.7159V73.4261C119 59.142 112.03 52 98.0886 52H80.9114C66.9705 52 60 59.142 60 73.4261V81.7159C60 85.1169 61.0373 87.8802 63.1118 90.0058L67.4684 94.4696L63.1118 98.9333C61.0373 101.059 60 103.822 60 107.223V118.574C60 132.858 66.9705 140 80.9114 140H98.0886C112.03 140 119 132.858 119 118.574ZM101.076 119.594C101.076 122.145 99.8312 123.42 97.3418 123.42H81.6582C79.1688 123.42 77.924 122.145 77.924 119.594V106.841C77.924 104.29 79.1688 103.014 81.6582 103.014H97.3418C99.8312 103.014 101.076 104.29 101.076 106.841V119.594ZM101.076 82.6087C101.076 85.1594 99.8312 86.4348 97.3418 86.4348H81.6582C79.1688 86.4348 77.924 85.1594 77.924 82.6087V72.4058C77.924 69.8551 79.1688 68.5797 81.6582 68.5797H97.3418C99.8312 68.5797 101.076 69.8551 101.076 72.4058V82.6087Z" fill="#1D2F8C"/>
<defs>
<linearGradient id="paint0_linear_539_113" x1="219.717" y1="36.3932" x2="54.0466" y2="191.2" gradientUnits="userSpaceOnUse">
<stop stop-color="#254BFF"/>
<stop offset="1" stop-color="#D9D9D9" stop-opacity="0"/>
</linearGradient>
<linearGradient id="paint1_linear_539_113" x1="219.717" y1="36.3932" x2="54.0466" y2="191.2" gradientUnits="userSpaceOnUse">
<stop stop-color="#254BFF"/>
<stop offset="1" stop-color="#D9D9D9" stop-opacity="0"/>
</linearGradient>
</defs>
</svg>
