<svg width="26" height="42" viewBox="0 0 26 42" fill="none" xmlns="http://www.w3.org/2000/svg">
<path d="M7.17986 22.5212C7.39377 22.0409 7.50431 21.5211 7.50431 20.9953C7.50431 20.4696 7.39377 19.9498 7.17986 19.4695L0.513808 4.50389C-1.31985 0.921999 2.47769 -1.13797 4.7981 0.664133C9.10405 4.00826 20.0139 14.0726 24.9537 18.665C25.2741 18.9628 25.5296 19.3234 25.7044 19.7243C25.8791 20.1253 25.9693 20.558 25.9693 20.9953C25.9693 21.4327 25.8791 21.8654 25.7044 22.2663C25.5296 22.6673 25.2741 23.0279 24.9537 23.3257C20.0139 27.9181 9.10405 37.9824 4.7981 41.3266C2.42023 43.1733 -1.28564 41.0019 0.513808 37.4868L7.17986 22.5212Z" fill="url(#paint0_linear_539_2512)"/>
<defs>
<linearGradient id="paint0_linear_539_2512" x1="-7.70989" y1="9.32712" x2="15.6227" y2="32.6597" gradientUnits="userSpaceOnUse">
<stop stop-color="#C048E3"/>
<stop offset="1" stop-color="#0C53FF"/>
</linearGradient>
</defs>
</svg>
