<svg width="48" height="48" viewBox="0 0 48 48" fill="none" xmlns="http://www.w3.org/2000/svg">
<path d="M29.8201 25.5212C29.6062 25.0409 29.4957 24.5211 29.4957 23.9953C29.4957 23.4696 29.6062 22.9498 29.8201 22.4695L36.4862 7.50389C38.3198 3.922 34.5223 1.86203 32.2019 3.66413C27.896 7.00826 16.9861 17.0726 12.0463 21.665C11.7259 21.9628 11.4704 22.3234 11.2956 22.7243C11.1209 23.1253 11.0307 23.558 11.0307 23.9953C11.0307 24.4327 11.1209 24.8654 11.2956 25.2663C11.4704 25.6673 11.7259 26.0279 12.0463 26.3257C16.9861 30.9181 27.896 40.9824 32.2019 44.3266C34.5798 46.1733 38.2856 44.0019 36.4862 40.4868L29.8201 25.5212Z" fill="url(#paint0_linear_539_2513)"/>
<defs>
<linearGradient id="paint0_linear_539_2513" x1="44.7099" y1="12.3271" x2="21.3773" y2="35.6597" gradientUnits="userSpaceOnUse">
<stop stop-color="#C048E3"/>
<stop offset="1" stop-color="#0C53FF"/>
</linearGradient>
</defs>
</svg>
