<svg width="17" height="16" viewBox="0 0 17 16" fill="none" xmlns="http://www.w3.org/2000/svg">
<g clip-path="url(#clip0_539_2539)">
<path d="M16.9557 6.13754C16.8444 5.81356 16.5391 5.58345 16.1779 5.55281L11.2712 5.13348L9.33097 0.859327C9.1879 0.546087 8.86209 0.343323 8.50009 0.343323C8.13809 0.343323 7.81227 0.546087 7.66921 0.86006L5.72898 5.13348L0.821537 5.55281C0.460962 5.58418 0.15642 5.81356 0.044486 6.13754C-0.0674477 6.46152 0.0359256 6.81688 0.308691 7.04088L4.01755 10.1022L2.92389 14.6364C2.84387 14.9698 2.98135 15.3144 3.27526 15.5144C3.43324 15.6218 3.61806 15.6765 3.80445 15.6765C3.96515 15.6765 4.12456 15.6357 4.26762 15.5551L8.50009 13.1743L12.731 15.5551C13.0406 15.7304 13.4309 15.7144 13.7241 15.5144C14.0182 15.3138 14.1555 14.9691 14.0755 14.6364L12.9818 10.1022L16.6907 7.04149C16.9635 6.81688 17.0676 6.46213 16.9557 6.13754Z" fill="#FFC107"/>
</g>
<defs>
<clipPath id="clip0_539_2539">
<rect width="17" height="16" fill="white"/>
</clipPath>
</defs>
</svg>
