<svg width="78" height="79" viewBox="0 0 78 79" fill="none" xmlns="http://www.w3.org/2000/svg">
<g clip-path="url(#clip0_70_905)">
<g opacity="0.4">
<path d="M39 78.0807C17.4905 78.0807 0 60.5902 0 39.0807C0 17.5712 17.4905 0.0806885 39 0.0806885C60.5095 0.0806885 78 17.5712 78 39.0807C78 60.5902 60.5095 78.0807 39 78.0807ZM39 6.10919C20.8247 6.10919 6.0285 20.8942 6.0285 39.0807C6.0285 57.2672 20.8135 72.0522 39 72.0522C57.1753 72.0522 71.9715 57.2672 71.9715 39.0807C71.9715 20.8942 57.1753 6.10919 39 6.10919Z" fill="url(#paint0_linear_70_905)"/>
</g>
<path d="M38.9998 78.0807C37.3384 78.0807 35.98 76.7335 35.98 75.0608C35.98 73.3993 37.3271 72.041 38.9998 72.041C57.1751 72.041 71.9713 57.256 71.9713 39.0695C71.9713 20.8829 57.1751 6.10919 38.9998 6.10919C37.3384 6.10919 35.98 4.76204 35.98 3.08932C35.98 1.41661 37.3384 0.0806885 38.9998 0.0806885C60.5093 0.0806885 77.9998 17.5712 77.9998 39.0807C77.9998 60.5902 60.5093 78.0807 38.9998 78.0807Z" fill="url(#paint1_linear_70_905)"/>
<path d="M38.9998 66.8207C54.3203 66.8207 66.7399 54.4011 66.7399 39.0806C66.7399 23.7602 54.3203 11.3406 38.9998 11.3406C23.6794 11.3406 11.2598 23.7602 11.2598 39.0806C11.2598 54.4011 23.6794 66.8207 38.9998 66.8207Z" stroke="url(#paint2_linear_70_905)" stroke-miterlimit="10"/>
</g>
<defs>
<linearGradient id="paint0_linear_70_905" x1="39.0012" y1="0.0806885" x2="39.0012" y2="78.0825" gradientUnits="userSpaceOnUse">
<stop stop-color="#0C53FF"/>
<stop offset="0.5323" stop-color="#0072EF"/>
<stop offset="1" stop-color="#E011FF"/>
</linearGradient>
<linearGradient id="paint1_linear_70_905" x1="56.9929" y1="0.0806885" x2="56.9929" y2="78.0825" gradientUnits="userSpaceOnUse">
<stop stop-color="#0C53FF"/>
<stop offset="0.5323" stop-color="#0072EF"/>
<stop offset="1" stop-color="#E011FF"/>
</linearGradient>
<linearGradient id="paint2_linear_70_905" x1="39.0007" y1="10.7839" x2="39.0007" y2="67.3794" gradientUnits="userSpaceOnUse">
<stop stop-color="#0C53FF"/>
<stop offset="0.5323" stop-color="#0072EF"/>
<stop offset="1" stop-color="#E011FF"/>
</linearGradient>
<clipPath id="clip0_70_905">
<rect width="78" height="78" fill="white" transform="translate(0 0.0806885)"/>
</clipPath>
</defs>
</svg>
