<svg width="15" height="15" viewBox="0 0 15 15" fill="none" xmlns="http://www.w3.org/2000/svg">
<circle cx="8.05588" cy="7.35861" r="3.76682" fill="#D9D9D9"/>
<path d="M8.05405 9.24204C7.81088 9.24204 7.59421 9.19614 7.40403 9.10435C7.21698 9.01255 7.06889 8.8847 6.95978 8.72078C6.85378 8.55686 6.80078 8.36672 6.80078 8.15035C6.80078 8.0061 6.82728 7.87661 6.88028 7.76186C6.93328 7.64384 7.00654 7.54222 7.10007 7.45698C7.1936 7.37174 7.29959 7.30617 7.41806 7.26028V7.2111C7.32453 7.16848 7.2388 7.11111 7.16086 7.03899C7.08604 6.96687 7.02525 6.88163 6.97848 6.78328C6.93484 6.68493 6.91301 6.57346 6.91301 6.44889C6.91301 6.24235 6.96445 6.06696 7.06733 5.92271C7.17333 5.77847 7.31206 5.66864 7.48353 5.59324C7.65812 5.51456 7.84829 5.47522 8.05405 5.47522C8.26293 5.47522 8.4531 5.51456 8.62457 5.59324C8.79915 5.66864 8.93788 5.77847 9.04076 5.92271C9.14364 6.06696 9.19508 6.24235 9.19508 6.44889C9.19508 6.57346 9.17326 6.68493 9.12961 6.78328C9.08597 6.88163 9.02517 6.96687 8.94723 7.03899C8.87241 7.11111 8.78668 7.16848 8.69003 7.2111V7.26028C8.81162 7.30617 8.91918 7.37338 9.0127 7.4619C9.10623 7.54713 9.17949 7.64876 9.23249 7.76678C9.28549 7.88152 9.31199 8.00938 9.31199 8.15035C9.31199 8.36672 9.25743 8.55686 9.14832 8.72078C9.04232 8.8847 8.89424 9.01255 8.70406 9.10435C8.51701 9.19614 8.30034 9.24204 8.05405 9.24204ZM8.05405 8.8388C8.22552 8.8388 8.37204 8.81093 8.49363 8.7552C8.61521 8.69619 8.70874 8.61423 8.77421 8.50933C8.83968 8.40114 8.87241 8.27492 8.87241 8.13068C8.87241 7.98643 8.83968 7.86185 8.77421 7.75695C8.71186 7.65204 8.61989 7.57172 8.4983 7.51599C8.37672 7.45698 8.22863 7.42747 8.05405 7.42747C7.88258 7.42747 7.73606 7.45698 7.61447 7.51599C7.49288 7.57172 7.39936 7.65204 7.33389 7.75695C7.27154 7.86185 7.24036 7.98643 7.24036 8.13068C7.24036 8.27492 7.27154 8.40114 7.33389 8.50933C7.39936 8.61423 7.49288 8.69619 7.61447 8.7552C7.73606 8.81093 7.88258 8.8388 8.05405 8.8388ZM8.05405 7.05374C8.26604 7.05374 8.43595 7.00621 8.56377 6.91113C8.69159 6.81278 8.7555 6.66362 8.7555 6.46364C8.7555 6.26038 8.69003 6.11286 8.5591 6.02106C8.43128 5.92599 8.26293 5.87846 8.05405 5.87846C7.84517 5.87846 7.67526 5.92599 7.54432 6.02106C7.4165 6.11614 7.35259 6.26366 7.35259 6.46364C7.35259 6.66362 7.4165 6.81278 7.54432 6.91113C7.67526 7.00621 7.84517 7.05374 8.05405 7.05374Z" fill="#060612"/>
<circle cx="8.05537" cy="7.35859" r="5.77803" stroke="#060612"/>
</svg>
