<svg width="13" height="13" viewBox="0 0 13 13" fill="none" xmlns="http://www.w3.org/2000/svg">
<g clip-path="url(#clip0_1_23054)">
<path d="M11.5339 2.15283H10.4114V2.8436H11.4476V10.4421H1.7768V2.8436H2.81295V2.15283H1.69045C1.60971 2.15418 1.53003 2.17142 1.45596 2.20357C1.38188 2.23572 1.31487 2.28215 1.25874 2.3402C1.20261 2.39825 1.15847 2.46679 1.12884 2.54191C1.0992 2.61702 1.08465 2.69724 1.08603 2.77798V10.5077C1.08465 10.5884 1.0992 10.6687 1.12884 10.7438C1.15847 10.8189 1.20261 10.8874 1.25874 10.9455C1.31487 11.0035 1.38188 11.05 1.45596 11.0821C1.53003 11.1143 1.60971 11.1315 1.69045 11.1328H11.5339C11.6147 11.1315 11.6943 11.1143 11.7684 11.0821C11.8425 11.05 11.9095 11.0035 11.9656 10.9455C12.0218 10.8874 12.0659 10.8189 12.0955 10.7438C12.1252 10.6687 12.1397 10.5884 12.1383 10.5077V2.77798C12.1397 2.69724 12.1252 2.61702 12.0955 2.54191C12.0659 2.46679 12.0218 2.39825 11.9656 2.3402C11.9095 2.28215 11.8425 2.23572 11.7684 2.20357C11.6943 2.17142 11.6147 2.15418 11.5339 2.15283Z" fill="#060612"/>
<path d="M3.1582 4.91602H3.84897V5.60679H3.1582V4.91602Z" fill="#060612"/>
<path d="M5.23047 4.91602H5.92124V5.60679H5.23047V4.91602Z" fill="#060612"/>
<path d="M7.30273 4.91602H7.9935V5.60679H7.30273V4.91602Z" fill="#060612"/>
<path d="M9.375 4.91602H10.0658V5.60679H9.375V4.91602Z" fill="#060612"/>
<path d="M3.1582 6.64282H3.84897V7.33359H3.1582V6.64282Z" fill="#060612"/>
<path d="M5.23047 6.64282H5.92124V7.33359H5.23047V6.64282Z" fill="#060612"/>
<path d="M7.30273 6.64282H7.9935V7.33359H7.30273V6.64282Z" fill="#060612"/>
<path d="M9.375 6.64282H10.0658V7.33359H9.375V6.64282Z" fill="#060612"/>
<path d="M3.1582 8.36987H3.84897V9.06064H3.1582V8.36987Z" fill="#060612"/>
<path d="M5.23047 8.36987H5.92124V9.06064H5.23047V8.36987Z" fill="#060612"/>
<path d="M7.30273 8.36987H7.9935V9.06064H7.30273V8.36987Z" fill="#060612"/>
<path d="M9.375 8.36987H10.0658V9.06064H9.375V8.36987Z" fill="#060612"/>
<path d="M3.84929 3.53444C3.94089 3.53444 4.02874 3.49805 4.09352 3.43328C4.15829 3.36851 4.19468 3.28066 4.19468 3.18906V1.11675C4.19468 1.02515 4.15829 0.937295 4.09352 0.872523C4.02874 0.807751 3.94089 0.771362 3.84929 0.771362C3.75769 0.771362 3.66984 0.807751 3.60507 0.872523C3.54029 0.937295 3.50391 1.02515 3.50391 1.11675V3.18906C3.50391 3.28066 3.54029 3.36851 3.60507 3.43328C3.66984 3.49805 3.75769 3.53444 3.84929 3.53444Z" fill="#060612"/>
<path d="M9.37468 3.53444C9.46628 3.53444 9.55413 3.49805 9.61891 3.43328C9.68368 3.36851 9.72007 3.28066 9.72007 3.18906V1.11675C9.72007 1.02515 9.68368 0.937295 9.61891 0.872523C9.55413 0.807751 9.46628 0.771362 9.37468 0.771362C9.28308 0.771362 9.19523 0.807751 9.13046 0.872523C9.06569 0.937295 9.0293 1.02515 9.0293 1.11675V3.18906C9.0293 3.28066 9.06569 3.36851 9.13046 3.43328C9.19523 3.49805 9.28308 3.53444 9.37468 3.53444Z" fill="#060612"/>
<path d="M4.88477 2.15283H8.33862V2.8436H4.88477V2.15283Z" fill="#060612"/>
</g>
<defs>
<clipPath id="clip0_1_23054">
<rect width="12.4339" height="12.4339" fill="white" transform="translate(0.394531 0.0805664)"/>
</clipPath>
</defs>
</svg>
