<svg width="15" height="15" viewBox="0 0 15 15" fill="none" xmlns="http://www.w3.org/2000/svg">
<path d="M11.875 4.375C11.7092 4.375 11.5503 4.44085 11.4331 4.55806C11.3158 4.67527 11.25 4.83424 11.25 5V11.9944C11.2321 12.3104 11.09 12.6066 10.8547 12.8184C10.6194 13.0301 10.3099 13.1403 9.99375 13.125H5.00625C4.69006 13.1403 4.38061 13.0301 4.14532 12.8184C3.91002 12.6066 3.76793 12.3104 3.75 11.9944V5C3.75 4.83424 3.68415 4.67527 3.56694 4.55806C3.44973 4.44085 3.29076 4.375 3.125 4.375C2.95924 4.375 2.80027 4.44085 2.68306 4.55806C2.56585 4.67527 2.5 4.83424 2.5 5V11.9944C2.51784 12.642 2.79161 13.2562 3.26136 13.7024C3.73111 14.1486 4.35855 14.3905 5.00625 14.375H9.99375C10.6415 14.3905 11.2689 14.1486 11.7386 13.7024C12.2084 13.2562 12.4822 12.642 12.5 11.9944V5C12.5 4.83424 12.4342 4.67527 12.3169 4.55806C12.1997 4.44085 12.0408 4.375 11.875 4.375Z" fill="#A0AEC0"/>
<path d="M12.5 2.5H10V1.25C10 1.08424 9.93415 0.925268 9.81694 0.808058C9.69973 0.690848 9.54076 0.625 9.375 0.625H5.625C5.45924 0.625 5.30027 0.690848 5.18306 0.808058C5.06585 0.925268 5 1.08424 5 1.25V2.5H2.5C2.33424 2.5 2.17527 2.56585 2.05806 2.68306C1.94085 2.80027 1.875 2.95924 1.875 3.125C1.875 3.29076 1.94085 3.44973 2.05806 3.56694C2.17527 3.68415 2.33424 3.75 2.5 3.75H12.5C12.6658 3.75 12.8247 3.68415 12.9419 3.56694C13.0592 3.44973 13.125 3.29076 13.125 3.125C13.125 2.95924 13.0592 2.80027 12.9419 2.68306C12.8247 2.56585 12.6658 2.5 12.5 2.5ZM6.25 2.5V1.875H8.75V2.5H6.25Z" fill="#A0AEC0"/>
<path d="M6.875 10.625V6.25C6.875 6.08424 6.80915 5.92527 6.69194 5.80806C6.57473 5.69085 6.41576 5.625 6.25 5.625C6.08424 5.625 5.92527 5.69085 5.80806 5.80806C5.69085 5.92527 5.625 6.08424 5.625 6.25V10.625C5.625 10.7908 5.69085 10.9497 5.80806 11.0669C5.92527 11.1842 6.08424 11.25 6.25 11.25C6.41576 11.25 6.57473 11.1842 6.69194 11.0669C6.80915 10.9497 6.875 10.7908 6.875 10.625Z" fill="#A0AEC0"/>
<path d="M9.375 10.625V6.25C9.375 6.08424 9.30915 5.92527 9.19194 5.80806C9.07473 5.69085 8.91576 5.625 8.75 5.625C8.58424 5.625 8.42527 5.69085 8.30806 5.80806C8.19085 5.92527 8.125 6.08424 8.125 6.25V10.625C8.125 10.7908 8.19085 10.9497 8.30806 11.0669C8.42527 11.1842 8.58424 11.25 8.75 11.25C8.91576 11.25 9.07473 11.1842 9.19194 11.0669C9.30915 10.9497 9.375 10.7908 9.375 10.625Z" fill="#A0AEC0"/>
</svg>
