<svg width="20" height="21" viewBox="0 0 20 21" fill="none" xmlns="http://www.w3.org/2000/svg">
<g clip-path="url(#clip0_134_47003)">
<path d="M9.98245 15.9625C14.3681 15.9625 17.9234 12.4072 17.9234 8.02151C17.9234 3.63585 14.3681 0.0805664 9.98245 0.0805664C5.59679 0.0805664 2.0415 3.63585 2.0415 8.02151C2.0415 12.4072 5.59679 15.9625 9.98245 15.9625Z" fill="#F2BE3A"/>
<path d="M3.54918 12.6677L0.816895 17.4039L4.00587 17.2347L5.45469 20.0811L7.98225 15.6992C6.17122 15.2307 4.61611 14.1402 3.54918 12.6677Z" fill="#0C53FF"/>
<path d="M16.431 12.6436C15.372 14.1199 13.8169 15.2144 12.0098 15.6908L14.5452 20.0806L15.994 17.2341L19.183 17.4034L16.431 12.6436Z" fill="#0C53FF"/>
<path d="M9.98247 13.7774C13.1614 13.7774 15.7384 11.2004 15.7384 8.02153C15.7384 4.84263 13.1614 2.26562 9.98247 2.26562C6.80357 2.26562 4.22656 4.84263 4.22656 8.02153C4.22656 11.2004 6.80357 13.7774 9.98247 13.7774Z" fill="#FFD600"/>
<path d="M13.9273 7.39954C14.1045 7.22631 14.0061 6.92316 13.762 6.88773L11.4903 6.55702C11.3919 6.54128 11.3092 6.48222 11.2659 6.39167L10.2502 4.33261C10.1399 4.1082 9.82104 4.1082 9.71081 4.33261L8.699 6.39167C8.65569 6.47828 8.56908 6.54128 8.47459 6.55702L6.20293 6.88773C5.95884 6.92316 5.86041 7.22631 6.03758 7.39954L7.67931 9.0019C7.75018 9.07277 7.78167 9.1712 7.76593 9.26568L7.3801 11.5255C7.33679 11.7696 7.59664 11.9586 7.81711 11.8405L9.8486 10.7736C9.93522 10.7263 10.0415 10.7263 10.1281 10.7736L12.1596 11.8405C12.3801 11.9547 12.636 11.7696 12.5966 11.5255L12.2069 9.26568C12.1911 9.16726 12.2226 9.06883 12.2935 9.0019L13.9273 7.39954Z" fill="#D5B302"/>
</g>
<defs>
<clipPath id="clip0_134_47003">
<rect width="20" height="20" fill="white" transform="translate(0 0.0805664)"/>
</clipPath>
</defs>
</svg>
