<svg width="15" height="15" viewBox="0 0 15 15" fill="none" xmlns="http://www.w3.org/2000/svg">
<g clip-path="url(#clip0_386_407)">
<path d="M12.5 5.375L7.2625 10.6125C7.08125 10.7938 6.84375 10.9063 6.5875 10.9313L4.75625 11.1C4.75625 11.1 4.70625 11.1 4.6875 11.1C4.48125 11.1 4.28125 11.0188 4.1375 10.8688C3.975 10.7063 3.89375 10.475 3.9125 10.2438L4.08125 8.4125C4.10625 8.15625 4.21875 7.91875 4.4 7.7375L9.625 2.5L12.5 5.375ZM13.7125 1.73125L13.2687 1.2875C12.6 0.618751 11.5063 0.618751 10.8375 1.2875L10.2875 1.8375L13.1625 4.7125L13.7125 4.1625C14.0375 3.8375 14.2188 3.40625 14.2188 2.95C14.2188 2.49375 14.0375 2.05625 13.7125 1.7375V1.73125ZM12.9688 11.8813V8.25C12.9688 7.99375 12.7563 7.78125 12.5 7.78125C12.2437 7.78125 12.0312 7.99375 12.0312 8.25V11.8813C12.0312 12.6563 11.4 13.2875 10.625 13.2875H3.125C2.35 13.2875 1.71875 12.6563 1.71875 11.8813V4.375C1.71875 3.6 2.35 2.96875 3.125 2.96875H6.75625C7.0125 2.96875 7.225 2.75625 7.225 2.5C7.225 2.24375 7.0125 2.03125 6.75625 2.03125H3.125C1.83125 2.03125 0.78125 3.08125 0.78125 4.375V11.875C0.78125 13.1688 1.83125 14.2188 3.125 14.2188H10.625C11.9187 14.2188 12.9688 13.1688 12.9688 11.875V11.8813Z" fill="#A0AEC0"/>
</g>
<defs>
<clipPath id="clip0_386_407">
<rect width="15" height="15" fill="white"/>
</clipPath>
</defs>
</svg>
