<svg width="15" height="15" viewBox="0 0 15 15" fill="none" xmlns="http://www.w3.org/2000/svg">
<path d="M8.27734 1.16125C7.08429 1.16267 5.94048 1.65982 5.09686 2.54362C4.25324 3.42742 3.7787 4.6257 3.77734 5.87559C3.77734 9.90956 7.86825 12.9562 8.04263 13.0837C8.11141 13.1342 8.19336 13.1613 8.27734 13.1613C8.36133 13.1613 8.44327 13.1342 8.51206 13.0837C8.68643 12.9562 12.7773 9.90956 12.7773 5.87559C12.776 4.6257 12.3014 3.42742 11.4578 2.54362C10.6142 1.65982 9.4704 1.16267 8.27734 1.16125ZM8.27734 4.16128C8.60099 4.16128 8.91736 4.26183 9.18646 4.4502C9.45556 4.63857 9.66529 4.9063 9.78915 5.21955C9.913 5.5328 9.9454 5.87749 9.88227 6.21003C9.81913 6.54257 9.66328 6.84803 9.43443 7.08778C9.20558 7.32753 8.91401 7.4908 8.59658 7.55695C8.27916 7.6231 7.95014 7.58915 7.65113 7.4594C7.35213 7.32965 7.09656 7.10992 6.91676 6.828C6.73695 6.54609 6.64098 6.21464 6.64098 5.87559C6.64098 5.42093 6.81338 4.98489 7.12026 4.66339C7.42714 4.3419 7.84335 4.16128 8.27734 4.16128Z" fill="#060612"/>
</svg>
