<svg width="15" height="15" viewBox="0 0 15 15" fill="none" xmlns="http://www.w3.org/2000/svg">
<path d="M12.1807 7.02566H10.9875C10.8251 7.02566 10.6679 7.04785 10.5182 7.08865C10.2231 6.50842 9.62047 6.10974 8.92608 6.10974H6.81699C6.1226 6.10974 5.51999 6.50842 5.22482 7.08865C5.0752 7.04785 4.91797 7.02566 4.75558 7.02566H3.56241C2.57785 7.02566 1.77686 7.82666 1.77686 8.81121V10.7186C1.77686 11.3093 2.25745 11.7899 2.84819 11.7899H12.8949C13.4856 11.7899 13.9662 11.3093 13.9662 10.7186V8.81121C13.9662 7.82666 13.1652 7.02566 12.1807 7.02566ZM5.03144 7.89534V11.0757H2.84819C2.65128 11.0757 2.49108 10.9155 2.49108 10.7186V8.81123C2.49108 8.2205 2.97167 7.7399 3.56241 7.7399H4.75558C4.85252 7.7399 4.9464 7.75307 5.03577 7.77733C5.0332 7.81639 5.03144 7.85568 5.03144 7.89534ZM9.99741 11.0757H5.74566V7.89532C5.74566 7.30458 6.22626 6.82399 6.81699 6.82399H8.92608C9.51681 6.82399 9.99741 7.30458 9.99741 7.89532V11.0757ZM13.252 10.7186C13.252 10.9155 13.0918 11.0757 12.8949 11.0757H10.7116V7.89532C10.7116 7.85563 10.7099 7.81635 10.7073 7.7773C10.7967 7.75307 10.8905 7.73988 10.9875 7.73988H12.1807C12.7714 7.73988 13.252 8.22048 13.252 8.81121V10.7186Z" fill="#060612"/>
<path d="M4.15795 4.05127C3.28306 4.05127 2.57129 4.76304 2.57129 5.63793C2.57127 6.51283 3.28306 7.2246 4.15795 7.2246C5.03282 7.2246 5.74462 6.51283 5.74462 5.63793C5.74462 4.76304 5.03285 4.05127 4.15795 4.05127ZM4.15793 6.51038C3.67685 6.51038 3.28549 6.11901 3.28549 5.63793C3.28549 5.15686 3.67685 4.76549 4.15793 4.76549C4.639 4.76549 5.03037 5.15686 5.03037 5.63793C5.03037 6.11901 4.639 6.51038 4.15793 6.51038Z" fill="#060612"/>
<path d="M7.86439 2.08057C6.69554 2.08057 5.74463 3.03148 5.74463 4.20032C5.74463 5.36917 6.69554 6.32008 7.86439 6.32008C9.03323 6.32008 9.98414 5.36917 9.98414 4.20032C9.98414 3.0315 9.03323 2.08057 7.86439 2.08057ZM7.86439 5.60586C7.08936 5.60586 6.45885 4.97535 6.45885 4.20032C6.45885 3.42532 7.08936 2.79479 7.86439 2.79479C8.63941 2.79479 9.26992 3.4253 9.26992 4.20032C9.26992 4.97535 8.63941 5.60586 7.86439 5.60586Z" fill="#060612"/>
<path d="M11.573 4.05127C10.6981 4.05127 9.98633 4.76304 9.98633 5.63793C9.98635 6.51283 10.6981 7.2246 11.573 7.2246C12.4479 7.2246 13.1597 6.51283 13.1597 5.63793C13.1597 4.76304 12.4479 4.05127 11.573 4.05127ZM11.573 6.51038C11.0919 6.51038 10.7005 6.11901 10.7005 5.63793C10.7006 5.15686 11.0919 4.76549 11.573 4.76549C12.0541 4.76549 12.4454 5.15686 12.4454 5.63793C12.4454 6.11901 12.0541 6.51038 11.573 6.51038Z" fill="#060612"/>
</svg>
