<svg width="24" height="25" viewBox="0 0 24 25" fill="none" xmlns="http://www.w3.org/2000/svg">
<g clip-path="url(#clip0_1_23391)">
<path d="M23.25 12.0807C23.25 13.0407 22.0706 13.8319 21.8344 14.7169C21.5906 15.6319 22.2075 16.9069 21.7444 17.7076C21.2738 18.5213 19.8581 18.6188 19.1981 19.2788C18.5381 19.9388 18.4406 21.3544 17.6269 21.8251C16.8263 22.2882 15.5513 21.6713 14.6363 21.9151C13.7513 22.1513 12.96 23.3307 12 23.3307C11.04 23.3307 10.2488 22.1513 9.36375 21.9151C8.44875 21.6713 7.17375 22.2882 6.37313 21.8251C5.55938 21.3544 5.46188 19.9388 4.80188 19.2788C4.14188 18.6188 2.72625 18.5213 2.25563 17.7076C1.7925 16.9069 2.40938 15.6319 2.16563 14.7169C1.92938 13.8319 0.75 13.0407 0.75 12.0807C0.75 11.1207 1.92938 10.3294 2.16563 9.44444C2.40938 8.52944 1.7925 7.25444 2.25563 6.45381C2.72625 5.64006 4.14188 5.54256 4.80188 4.88256C5.46188 4.22256 5.55938 2.80694 6.37313 2.33631C7.17375 1.87319 8.44875 2.49006 9.36375 2.24631C10.2488 2.01006 11.04 0.830688 12 0.830688C12.96 0.830688 13.7513 2.01006 14.6363 2.24631C15.5513 2.49006 16.8263 1.87319 17.6269 2.33631C18.4406 2.80694 18.5381 4.22256 19.1981 4.88256C19.8581 5.54256 21.2738 5.64006 21.7444 6.45381C22.2075 7.25444 21.5906 8.52944 21.8344 9.44444C22.0706 10.3294 23.25 11.1207 23.25 12.0807Z" fill="url(#paint0_linear_1_23391)"/>
<path d="M15.2511 8.72817L10.9686 13.0107L8.74863 10.7925C8.26676 10.3107 7.48488 10.3107 7.00301 10.7925C6.52113 11.2744 6.52113 12.0563 7.00301 12.5382L10.1174 15.6525C10.5861 16.1213 11.3474 16.1213 11.8161 15.6525L16.9949 10.4738C17.4768 9.99192 17.4768 9.21004 16.9949 8.72817C16.513 8.24629 15.733 8.24629 15.2511 8.72817Z" fill="#FFFCEE"/>
</g>
<defs>
<linearGradient id="paint0_linear_1_23391" x1="12" y1="0.830688" x2="12" y2="23.3307" gradientUnits="userSpaceOnUse">
<stop offset="0.015625" stop-color="#004AFD"/>
<stop offset="1" stop-color="#C539DA" stop-opacity="0.51"/>
</linearGradient>
<clipPath id="clip0_1_23391">
<rect width="24" height="24" fill="white" transform="translate(0 0.0806885)"/>
</clipPath>
</defs>
</svg>
