<svg width="24" height="24" viewBox="0 0 24 24" fill="none" xmlns="http://www.w3.org/2000/svg">
<path fill-rule="evenodd" clip-rule="evenodd" d="M2.3999 9C2.3999 4.0365 6.4364 0 11.3999 0C16.3634 0 20.3999 4.0365 20.3999 9C20.3999 15.2385 12.2759 23.4345 11.9309 23.781C11.7839 23.9265 11.5919 24 11.3999 24C11.2079 24 11.0159 23.9265 10.8689 23.781C10.5239 23.4345 2.3999 15.2385 2.3999 9ZM15.8999 9C15.8999 11.4853 13.8852 13.5 11.3999 13.5C8.91462 13.5 6.8999 11.4853 6.8999 9C6.8999 6.51472 8.91462 4.5 11.3999 4.5C13.8852 4.5 15.8999 6.51472 15.8999 9Z" fill="white"/>
</svg>
