<svg width="24" height="24" viewBox="0 0 24 24" fill="none" xmlns="http://www.w3.org/2000/svg">
<path fill-rule="evenodd" clip-rule="evenodd" d="M20.8903 22.1644C19.2708 23.179 16.9251 23.1466 14.3691 22.2244C11.8971 21.3325 9.21269 19.6072 6.8029 17.1974C4.3931 14.7876 2.66777 12.1032 1.77588 9.63118C0.853707 7.07523 0.821363 4.72947 1.83593 3.10998L1.88721 3.04257L3.38725 1.54253C3.69588 1.23395 4.10229 1.07959 4.50832 1.07959C4.91439 1.07959 5.32075 1.2339 5.62938 1.54253L9.30269 5.21584C9.61132 5.52446 9.76563 5.93087 9.76563 6.3369C9.76563 6.74298 9.61132 7.14934 9.30274 7.45796L7.84071 8.92004C7.58796 9.43796 7.66033 10.2111 8.00482 11.0814C8.377 12.0215 9.06368 13.0516 10.0062 13.9941C10.9487 14.9366 11.9788 15.6233 12.9189 15.9955C13.7891 16.34 14.5623 16.4124 15.0803 16.1597L16.5423 14.6976C16.8509 14.389 17.2573 14.2347 17.6634 14.2347C18.0694 14.2347 18.4758 14.389 18.7844 14.6976L22.4577 18.3709C22.7664 18.6796 22.9207 19.0859 22.9207 19.492C22.9207 19.8981 22.7664 20.3045 22.4577 20.6131L20.9577 22.1132L20.8903 22.1644Z" fill="white"/>
<path fill-rule="evenodd" clip-rule="evenodd" d="M2.65625 2.27354L3.38727 1.54253C3.69589 1.23395 4.1023 1.07959 4.50833 1.07959C4.91441 1.07959 5.32077 1.2339 5.62939 1.54253L9.3027 5.21584C9.61133 5.52446 9.76564 5.93087 9.76564 6.3369C9.76564 6.74298 9.61133 7.14934 9.30275 7.45796L7.84072 8.92004C7.58797 9.43796 7.66034 10.2111 8.00483 11.0814C8.37702 12.0215 9.06369 13.0516 10.0062 13.9941C10.9487 14.9366 11.9788 15.6233 12.9189 15.9955C13.7892 16.34 14.5624 16.4124 15.0802 16.1597L14.3492 16.8907C13.8313 17.1434 13.0581 17.071 12.1879 16.7265C11.2477 16.3543 10.2177 15.6677 9.27514 14.7251C8.33262 13.7826 7.64595 12.7525 7.27377 11.8124C6.92928 10.9421 6.85691 10.169 7.10966 9.65106L8.57169 8.18898C8.88027 7.8804 9.03458 7.474 9.03458 7.06792C9.03458 6.66184 8.88027 6.25548 8.57164 5.94686L4.89833 2.27354C4.5897 1.96496 4.18334 1.81061 3.77727 1.81061C3.37128 1.81061 2.96488 1.96496 2.65625 2.27354ZM15.8118 15.4281L16.5423 14.6976C16.8509 14.389 17.2573 14.2346 17.6634 14.2346C18.0695 14.2346 18.4758 14.3889 18.7844 14.6976L22.4578 18.3709C22.7664 18.6795 22.9207 19.0859 22.9207 19.492C22.9207 19.8981 22.7664 20.3044 22.4578 20.6131L21.7267 21.3441C22.0354 21.0354 22.1897 20.6291 22.1897 20.223C22.1897 19.8169 22.0354 19.4106 21.7267 19.1019L18.0534 15.4286C17.7448 15.12 17.3384 14.9657 16.9324 14.9657C16.5266 14.9657 16.1204 15.1198 15.8118 15.4281Z" fill="#E2E2E2"/>
</svg>
