<svg width="20" height="20" viewBox="0 0 20 20" fill="none" xmlns="http://www.w3.org/2000/svg">
<g clip-path="url(#clip0_1_20056)">
<path d="M10 0.833374C8.18702 0.833374 6.41474 1.37099 4.90729 2.37824C3.39984 3.38548 2.22492 4.81712 1.53112 6.49211C0.837315 8.1671 0.655785 10.0102 1.00948 11.7884C1.36318 13.5665 2.23622 15.1999 3.5182 16.4819C4.80018 17.7638 6.43353 18.6369 8.21169 18.9906C9.98985 19.3443 11.833 19.1627 13.5079 18.4689C15.1829 17.7751 16.6146 16.6002 17.6218 15.0928C18.6291 13.5853 19.1667 11.813 19.1667 10C19.1638 7.56977 18.1971 5.23986 16.4787 3.5214C14.7602 1.80293 12.4303 0.836241 10 0.833374ZM10 17.5C8.51665 17.5 7.06661 17.0602 5.83324 16.2361C4.59987 15.412 3.63857 14.2406 3.07092 12.8702C2.50326 11.4997 2.35474 9.99172 2.64412 8.53686C2.93351 7.08201 3.64782 5.74563 4.69671 4.69674C5.74561 3.64785 7.08198 2.93354 8.53684 2.64415C9.99169 2.35476 11.4997 2.50329 12.8701 3.07094C14.2406 3.6386 15.4119 4.5999 16.236 5.83326C17.0601 7.06663 17.5 8.51668 17.5 10C17.4976 11.9884 16.7066 13.8947 15.3006 15.3007C13.8946 16.7067 11.9884 17.4976 10 17.5Z" fill="white"/>
<path d="M10.8333 9.65496V4.99996C10.8333 4.77895 10.7455 4.56698 10.5892 4.4107C10.433 4.25442 10.221 4.16663 9.99999 4.16663C9.77898 4.16663 9.56701 4.25442 9.41073 4.4107C9.25445 4.56698 9.16666 4.77895 9.16666 4.99996V9.99996C9.1667 10.221 9.25453 10.4329 9.41082 10.5891L11.9108 13.0891C12.068 13.2409 12.2785 13.3249 12.497 13.323C12.7155 13.3211 12.9245 13.2335 13.079 13.079C13.2335 12.9245 13.3212 12.7155 13.3231 12.497C13.325 12.2785 13.241 12.068 13.0892 11.9108L10.8333 9.65496Z" fill="white"/>
</g>
<defs>
<clipPath id="clip0_1_20056">
<rect width="20" height="20" fill="white"/>
</clipPath>
</defs>
</svg>
