<svg width="21" height="21" viewBox="0 0 21 21" fill="none" xmlns="http://www.w3.org/2000/svg">
<g clip-path="url(#clip0_703_38987)">
<path d="M10.5 0.875C8.59636 0.875 6.73546 1.4395 5.15264 2.49711C3.56982 3.55471 2.33616 5.05793 1.60766 6.81667C0.87917 8.57541 0.688563 10.5107 1.05995 12.3777C1.43133 14.2448 2.34802 15.9598 3.6941 17.3059C5.04018 18.652 6.75519 19.5687 8.62226 19.9401C10.4893 20.3114 12.4246 20.1208 14.1833 19.3923C15.9421 18.6638 17.4453 17.4302 18.5029 15.8474C19.5605 14.2645 20.125 12.4036 20.125 10.5C20.122 7.94822 19.107 5.50181 17.3026 3.69742C15.4982 1.89304 13.0518 0.87801 10.5 0.875ZM10.5 18.375C8.94248 18.375 7.41993 17.9131 6.12489 17.0478C4.82985 16.1825 3.82049 14.9526 3.22445 13.5136C2.62841 12.0747 2.47246 10.4913 2.77632 8.96367C3.08018 7.43606 3.8302 6.03287 4.93154 4.93153C6.03288 3.8302 7.43607 3.08017 8.96367 2.77632C10.4913 2.47246 12.0747 2.62841 13.5136 3.22445C14.9526 3.82049 16.1825 4.82985 17.0478 6.12489C17.9131 7.41992 18.375 8.94247 18.375 10.5C18.3725 12.5878 17.542 14.5894 16.0657 16.0657C14.5894 17.542 12.5878 18.3725 10.5 18.375Z" fill="white"/>
<path d="M11.375 10.1378V5.25C11.375 5.01794 11.2828 4.79538 11.1187 4.63128C10.9546 4.46719 10.7321 4.375 10.5 4.375C10.2679 4.375 10.0454 4.46719 9.88128 4.63128C9.71719 4.79538 9.625 5.01794 9.625 5.25V10.5C9.62505 10.732 9.71727 10.9546 9.88138 11.1186L12.5064 13.7436C12.6714 13.903 12.8924 13.9912 13.1219 13.9892C13.3513 13.9872 13.5707 13.8952 13.733 13.733C13.8952 13.5707 13.9872 13.3513 13.9892 13.1219C13.9912 12.8924 13.903 12.6714 13.7436 12.5064L11.375 10.1378Z" fill="white"/>
</g>
<defs>
<clipPath id="clip0_703_38987">
<rect width="21" height="21" fill="white"/>
</clipPath>
</defs>
</svg>
