<svg width="24" height="24" viewBox="0 0 24 24" fill="none" xmlns="http://www.w3.org/2000/svg">
<path d="M20 8.60001L11.62 16.98C11.33 17.27 10.95 17.45 10.54 17.49L7.61 17.76C7.61 17.76 7.53 17.76 7.5 17.76C7.17 17.76 6.85 17.63 6.62 17.39C6.36 17.13 6.23 16.76 6.26 16.39L6.53 13.46C6.57 13.05 6.75 12.67 7.04 12.38L15.4 4.00001L20 8.60001ZM21.94 2.77001L21.23 2.06001C20.16 0.990007 18.41 0.990007 17.34 2.06001L16.46 2.94001L21.06 7.54001L21.94 6.66001C22.46 6.14001 22.75 5.45001 22.75 4.72001C22.75 3.99001 22.46 3.29001 21.94 2.78001V2.77001ZM20.75 19.01V13.2C20.75 12.79 20.41 12.45 20 12.45C19.59 12.45 19.25 12.79 19.25 13.2V19.01C19.25 20.25 18.24 21.26 17 21.26H5C3.76 21.26 2.75 20.25 2.75 19.01V7.00001C2.75 5.76001 3.76 4.75001 5 4.75001H10.81C11.22 4.75001 11.56 4.41001 11.56 4.00001C11.56 3.59001 11.22 3.25001 10.81 3.25001H5C2.93 3.25001 1.25 4.93001 1.25 7.00001V19C1.25 21.07 2.93 22.75 5 22.75H17C19.07 22.75 20.75 21.07 20.75 19V19.01Z" fill="white"/>
</svg>
