<svg width="30" height="30" viewBox="0 0 30 30" fill="none" xmlns="http://www.w3.org/2000/svg">
<path id="Vector" d="M1.26757 1.79882e-07C0.56751 1.79882e-07 0 0.583977 0 1.30435C0 2.02472 0.56751 2.6087 1.26757 2.6087H3.52295C3.70751 2.6087 3.88738 2.66845 4.0371 2.7795C4.18681 2.89054 4.29877 3.04725 4.35712 3.22741L8.53629 16.1311C8.72188 16.704 8.74547 17.3209 8.60313 17.9068L8.25901 19.3257C7.75408 21.4041 9.32625 23.4783 11.4081 23.4783H26.619C27.319 23.4783 27.8865 22.8943 27.8865 22.1739C27.8865 21.4535 27.319 20.8696 26.619 20.8696H11.4081C10.9146 20.8696 10.5977 20.4528 10.7174 19.9601L10.9769 18.8935C11.0209 18.7128 11.1223 18.5524 11.265 18.4378C11.4077 18.3231 11.5836 18.2609 11.7646 18.2609H25.3514C25.8972 18.2612 26.3819 17.902 26.5546 17.3692L29.934 6.93444C30.2077 6.0895 29.5963 5.21699 28.7308 5.21739H8.30852C8.12397 5.21739 7.94409 5.15764 7.79437 5.0466C7.64465 4.93555 7.53268 4.77885 7.47432 4.59869L6.27348 0.891644C6.10075 0.358897 5.61606 -0.000293442 5.07028 1.79882e-07H1.26757ZM10.1406 24.7826C8.74044 24.7826 7.60542 25.9506 7.60542 27.3913C7.60542 28.832 8.74044 30 10.1406 30C11.5407 30 12.6757 28.832 12.6757 27.3913C12.6757 25.9506 11.5407 24.7826 10.1406 24.7826ZM25.3514 24.7826C23.9513 24.7826 22.8163 25.9506 22.8163 27.3913C22.8163 28.832 23.9513 30 25.3514 30C26.7515 30 27.8865 28.832 27.8865 27.3913C27.8865 25.9506 26.7515 24.7826 25.3514 24.7826Z" fill="url(#paint0_linear_90_8327)"/>
<defs>
<linearGradient id="paint0_linear_90_8327" x1="15" y1="0" x2="15" y2="30" gradientUnits="userSpaceOnUse">
<stop stop-color="#0C53FF"/>
<stop offset="1" stop-color="#E011FF"/>
</linearGradient>
</defs>
</svg>
